<svg width="120" height="29" viewBox="0 0 120 29" fill="none" xmlns="http://www.w3.org/2000/svg">
<mask id="mask0_7718_5047" style="mask-type:luminance" maskUnits="userSpaceOnUse" x="7" y="4" width="14" height="12">
<path fill-rule="evenodd" clip-rule="evenodd" d="M7.19995 4.50848H20.1279V15.3573H7.19995V4.50848Z" fill="white"/>
</mask>
<g mask="url(#mask0_7718_5047)">
<path fill-rule="evenodd" clip-rule="evenodd" d="M18.0279 7.27774C18.0279 7.67627 17.7006 7.99997 17.2969 7.99997C16.8932 7.99997 16.5664 7.67627 16.5664 7.27774C16.5664 6.87864 16.8932 6.55494 17.2969 6.55494C17.7006 6.55494 18.0279 6.87864 18.0279 7.27774ZM17.7895 9.06386C17.6598 9.09866 17.2978 9.19554 17.2978 9.19554C17.2978 9.19554 17.3858 9.5175 17.4257 9.6631C17.9667 11.6598 16.7638 13.7191 14.744 14.254C13.7658 14.5133 12.7442 14.3805 11.8669 13.8798C10.9903 13.3792 10.3624 12.5711 10.1001 11.6041C10.1001 11.6035 10.1001 11.6029 10.0995 11.6024V11.6012L8.40422 5.4893C8.92823 5.44985 9.45283 5.56703 9.91875 5.83272C10.5302 6.18194 10.9674 6.74521 11.1499 7.41928C11.1581 7.44829 11.1692 7.47671 11.1815 7.5034L11.9949 10.4433C12.0541 10.6603 12.253 10.803 12.4696 10.803C12.5124 10.803 12.5558 10.7972 12.5987 10.7856C12.861 10.7154 13.0159 10.448 12.9449 10.1887L11.6486 5.4893C12.1738 5.44985 12.699 5.56645 13.1655 5.83272C13.7764 6.18194 14.2136 6.74521 14.3966 7.41928L15.004 9.64512C15.0744 9.90442 15.3443 10.0581 15.6066 9.98853C15.8695 9.9195 16.025 9.65266 15.9552 9.39277L15.5262 7.82941C15.5239 7.81201 15.5209 7.79519 15.5157 7.77836C15.2528 6.8067 15.8378 5.80487 16.8201 5.54499C17.8024 5.28452 18.8158 5.86288 19.0793 6.83396C19.341 7.80041 18.7642 8.80165 17.7895 9.06386ZM20.0304 6.58209C19.6266 5.09298 18.0722 4.20601 16.5659 4.60454C15.7731 4.81453 15.1493 5.33952 14.7943 6.00663C14.4974 5.59651 14.1131 5.24961 13.6577 4.9903C12.8186 4.51114 11.8416 4.3841 10.9056 4.6318C10.7789 4.66545 10.4291 4.75943 10.4291 4.75943C10.4291 4.75943 10.4849 4.95782 10.5083 5.04773C10.4649 5.02047 10.4561 5.01525 10.4115 4.9903C9.57239 4.51114 8.59478 4.3841 7.65883 4.6318C7.5356 4.66429 7.21873 4.75014 7.19995 4.75478L8.57835 9.79351L9.15048 11.8581L9.15107 11.8587C9.48202 13.0757 10.2713 14.0926 11.375 14.7226C12.1115 15.1426 12.9283 15.3572 13.7557 15.3572C14.1706 15.3572 14.5884 15.3033 14.9997 15.1942C17.3956 14.5596 18.8791 12.2212 18.4736 9.85036C19.0064 9.61078 19.4494 9.21515 19.7481 8.70409C20.1254 8.05728 20.2258 7.30373 20.0304 6.58209Z" fill="white"/>
</g>
<mask id="mask1_7718_5047" style="mask-type:luminance" maskUnits="userSpaceOnUse" x="7" y="4" width="14" height="12">
<path fill-rule="evenodd" clip-rule="evenodd" d="M7.19995 4.50848H20.1279V15.3573H7.19995V4.50848Z" fill="white"/>
</mask>
<g mask="url(#mask1_7718_5047)">
<path fill-rule="evenodd" clip-rule="evenodd" d="M18.0279 7.27774C18.0279 7.67627 17.7006 7.99997 17.2969 7.99997C16.8932 7.99997 16.5664 7.67627 16.5664 7.27774C16.5664 6.87864 16.8932 6.55494 17.2969 6.55494C17.7006 6.55494 18.0279 6.87864 18.0279 7.27774ZM17.7895 9.06386C17.6598 9.09866 17.2978 9.19554 17.2978 9.19554C17.2978 9.19554 17.3858 9.5175 17.4257 9.6631C17.9667 11.6598 16.7638 13.7191 14.744 14.254C13.7658 14.5133 12.7442 14.3805 11.8669 13.8798C10.9903 13.3792 10.3624 12.5711 10.1001 11.6041C10.1001 11.6035 10.1001 11.6029 10.0995 11.6024V11.6012L8.40422 5.4893C8.92823 5.44985 9.45283 5.56703 9.91875 5.83272C10.5302 6.18194 10.9674 6.74521 11.1499 7.41928C11.1581 7.44829 11.1692 7.47671 11.1815 7.5034L11.9949 10.4433C12.0541 10.6603 12.253 10.803 12.4696 10.803C12.5124 10.803 12.5558 10.7972 12.5987 10.7856C12.861 10.7154 13.0159 10.448 12.9449 10.1887L11.6486 5.4893C12.1738 5.44985 12.699 5.56645 13.1655 5.83272C13.7764 6.18194 14.2136 6.74521 14.3966 7.41928L15.004 9.64512C15.0744 9.90442 15.3443 10.0581 15.6066 9.98853C15.8695 9.9195 16.025 9.65266 15.9552 9.39277L15.5262 7.82941C15.5239 7.81201 15.5209 7.79519 15.5157 7.77836C15.2528 6.8067 15.8378 5.80487 16.8201 5.54499C17.8024 5.28452 18.8158 5.86288 19.0793 6.83396C19.341 7.80041 18.7642 8.80165 17.7895 9.06386ZM20.0304 6.58209C19.6266 5.09298 18.0722 4.20601 16.5659 4.60454C15.7731 4.81453 15.1493 5.33952 14.7943 6.00663C14.4974 5.59651 14.1131 5.24961 13.6577 4.9903C12.8186 4.51114 11.8416 4.3841 10.9056 4.6318C10.7789 4.66545 10.4291 4.75943 10.4291 4.75943C10.4291 4.75943 10.4849 4.95782 10.5083 5.04773C10.4649 5.02047 10.4561 5.01525 10.4115 4.9903C9.57239 4.51114 8.59478 4.3841 7.65883 4.6318C7.5356 4.66429 7.21873 4.75014 7.19995 4.75478L8.57835 9.79351L9.15048 11.8581L9.15107 11.8587C9.48202 13.0757 10.2713 14.0926 11.375 14.7226C12.1115 15.1426 12.9283 15.3572 13.7557 15.3572C14.1706 15.3572 14.5884 15.3033 14.9997 15.1942C17.3956 14.5596 18.8791 12.2212 18.4736 9.85036C19.0064 9.61078 19.4494 9.21515 19.7481 8.70409C20.1254 8.05728 20.2258 7.30373 20.0304 6.58209Z" fill="white"/>
</g>
<path fill-rule="evenodd" clip-rule="evenodd" d="M88.4436 14.7397C88.0451 14.7397 87.6942 14.8813 87.3897 15.1644C87.0863 15.448 86.9343 15.8205 86.9343 16.2834C86.9343 16.7463 87.0863 17.1193 87.3897 17.4024C87.6942 17.6861 88.0451 17.8276 88.4436 17.8276C88.8273 17.8276 89.17 17.6843 89.4705 17.3972C89.7709 17.1106 89.9217 16.7393 89.9217 16.2834C89.9217 15.8274 89.7709 15.4562 89.4705 15.1696C89.17 14.883 88.8273 14.7397 88.4436 14.7397Z" fill="white"/>
<path fill-rule="evenodd" clip-rule="evenodd" d="M90.4396 18.2367C89.891 18.7443 89.2255 18.9978 88.4433 18.9978C87.6464 18.9978 86.9722 18.7443 86.42 18.2367C85.8678 17.7291 85.592 17.0777 85.592 16.2835C85.592 15.4894 85.8678 14.8379 86.42 14.3304C86.9722 13.8228 87.6464 13.5687 88.4433 13.5687C89.2255 13.5687 89.891 13.8228 90.4396 14.3304C90.9883 14.8379 91.2623 15.4894 91.2623 16.2835C91.2623 17.0777 90.9883 17.7291 90.4396 18.2367ZM88.4267 11.4102C85.7051 11.4102 83.4976 13.5925 83.4976 16.2836C83.4976 18.9746 85.7051 21.1564 88.4267 21.1564C91.1494 21.1564 93.3564 18.9746 93.3564 16.2836C93.3564 13.5925 91.1494 11.4102 88.4267 11.4102Z" fill="white"/>
<path fill-rule="evenodd" clip-rule="evenodd" d="M107.91 14.7397C107.512 14.7397 107.161 14.8813 106.856 15.1644C106.553 15.448 106.401 15.8205 106.401 16.2834C106.401 16.7463 106.553 17.1193 106.856 17.4024C107.161 17.6861 107.512 17.8276 107.91 17.8276C108.294 17.8276 108.637 17.6843 108.937 17.3972C109.238 17.1106 109.388 16.7393 109.388 16.2834C109.388 15.8274 109.238 15.4562 108.937 15.1696C108.637 14.883 108.294 14.7397 107.91 14.7397Z" fill="white"/>
<mask id="mask2_7718_5047" style="mask-type:luminance" maskUnits="userSpaceOnUse" x="102" y="11" width="11" height="11">
<path fill-rule="evenodd" clip-rule="evenodd" d="M102.965 11.4102H112.824V21.1564H102.965V11.4102Z" fill="white"/>
</mask>
<g mask="url(#mask2_7718_5047)">
<path fill-rule="evenodd" clip-rule="evenodd" d="M109.907 18.2367C109.358 18.7443 108.693 18.9978 107.911 18.9978C107.113 18.9978 106.44 18.7443 105.887 18.2367C105.335 17.7291 105.06 17.0777 105.06 16.2835C105.06 15.4894 105.335 14.8379 105.887 14.3304C106.44 13.8228 107.113 13.5687 107.911 13.5687C108.693 13.5687 109.358 13.8228 109.907 14.3304C110.456 14.8379 110.73 15.4894 110.73 16.2835C110.73 17.0777 110.456 17.7291 109.907 18.2367ZM107.894 11.4102C105.172 11.4102 102.965 13.5925 102.965 16.2836C102.965 18.9746 105.172 21.1564 107.894 21.1564C110.617 21.1564 112.824 18.9746 112.824 16.2836C112.824 13.5925 110.617 11.4102 107.894 11.4102Z" fill="white"/>
</g>
<path fill-rule="evenodd" clip-rule="evenodd" d="M99.8876 18.5443C99.5484 18.6789 99.2245 18.7468 98.9147 18.7468C98.2715 18.7468 97.7692 18.5757 97.406 18.2334C97.0416 17.8917 96.8609 17.3754 96.8609 16.6846V14.5399H96.1878C95.9396 14.5399 95.7395 14.341 95.7395 14.0962V13.4209H96.8609V11.8564H97.795C98.0427 11.8564 98.244 12.0548 98.244 12.3002V13.4209H99.5032C99.7514 13.4209 99.9521 13.6193 99.9521 13.8647V14.5399H98.244V16.5807C98.244 17.1753 98.4992 17.4717 99.0091 17.4717C99.2744 17.4717 99.5643 17.3888 99.8788 17.2235L100.145 17.9857C100.224 18.2096 100.11 18.4562 99.8876 18.5443ZM98.2145 10.1353C95.1514 10.1353 92.6675 12.5902 92.6675 15.6195C92.6675 18.6476 95.1514 21.1032 98.2145 21.1032C101.278 21.1032 103.762 18.6476 103.762 15.6195C103.762 12.5902 101.278 10.1353 98.2145 10.1353Z" fill="white"/>
<path fill-rule="evenodd" clip-rule="evenodd" d="M80.1612 18.8208C79.815 18.96 79.4841 19.0302 79.1672 19.0314C78.51 19.0337 77.9948 18.8608 77.6216 18.5122C77.2489 18.1641 77.0612 17.6368 77.0588 16.9303L77.05 14.7369L77.0459 13.5924L77.0694 11.5748L78.0247 11.5713C78.2788 11.5702 78.4853 11.7732 78.4865 12.0238L78.4613 13.5877L78.4648 14.7317L78.473 16.8195C78.4754 17.4268 78.7371 17.7296 79.2587 17.7279C79.5304 17.7267 79.8268 17.6409 80.1477 17.4698L80.4229 18.2488C80.5039 18.478 80.3883 18.7297 80.1612 18.8208ZM78.7472 10.135C75.6835 10.135 73.2002 12.5906 73.2002 15.6193C73.2002 18.6479 75.6835 21.1029 78.7472 21.1029C81.8109 21.1029 84.2943 18.6479 84.2943 15.6193C84.2943 12.5906 81.8109 10.135 78.7472 10.135Z" fill="white"/>
<path fill-rule="evenodd" clip-rule="evenodd" d="M47.6321 20.2368L48.1039 12.8997L49.5538 12.9908C49.9394 13.0152 50.2322 13.3435 50.2075 13.724L49.7352 21.0611L48.2846 20.97C47.8996 20.9457 47.6074 20.6173 47.6321 20.2368Z" fill="white"/>
<path fill-rule="evenodd" clip-rule="evenodd" d="M64.734 17.8082C65.2011 17.3621 65.4347 16.7849 65.4347 16.076C65.4347 15.3666 65.2011 14.7865 64.734 14.3352C64.2664 13.8838 63.7283 13.6582 63.1197 13.6582C62.4567 13.6582 61.9103 13.8786 61.4814 14.3189C61.0524 14.7598 60.8371 15.3451 60.8371 16.076C60.8371 16.8064 61.0524 17.3894 61.4814 17.8244C61.9103 18.2595 62.4567 18.4771 63.1197 18.4771C63.7283 18.4771 64.2664 18.2543 64.734 17.8082ZM67.6834 21.2662L65.9452 21.0637C65.5433 21.0173 65.2558 20.6565 65.3027 20.2585C64.3891 20.8264 63.3217 21.0393 62.1011 20.8972C60.8677 20.7539 59.8513 20.1669 59.0515 19.1378C58.2523 18.1081 57.9366 16.8911 58.1032 15.4878C58.2705 14.0834 58.8678 12.9702 59.8942 12.1464C60.9205 11.3233 62.0436 10.9828 63.2647 11.1249C64.4982 11.2688 65.4852 11.727 66.2269 12.5003L66.3149 11.7613L67.9809 11.955C68.4233 12.0066 68.7396 12.4028 68.6874 12.8397L67.6834 21.2662Z" fill="white"/>
<path fill-rule="evenodd" clip-rule="evenodd" d="M35.6237 18.7044C36.0914 18.2583 36.3243 17.6811 36.3243 16.9722C36.3243 16.2628 36.0914 15.6827 35.6237 15.2314C35.1566 14.7801 34.6185 14.5544 34.01 14.5544C33.3469 14.5544 32.8 14.7748 32.3711 15.2151C31.9421 15.656 31.7273 16.2413 31.7273 16.9722C31.7273 17.7026 31.9421 18.2856 32.3711 18.7207C32.8 19.1557 33.3469 19.3733 34.01 19.3733C34.6185 19.3733 35.1566 19.1505 35.6237 18.7044ZM38.1722 21.2893L36.66 21.1814C36.3097 21.1565 36.0462 20.8554 36.072 20.5091C35.3027 21.0358 34.3879 21.2615 33.3252 21.1855C32.2519 21.1089 31.3494 20.6402 30.6165 19.7799C29.8836 18.9202 29.5621 17.8789 29.6512 16.6573C29.741 15.4356 30.2128 14.4488 31.069 13.6964C31.9245 12.944 32.8839 12.6059 33.9466 12.6818C35.0199 12.7584 35.8925 13.1169 36.5649 13.7573L36.6119 13.1146L38.0613 13.2179C38.4468 13.2451 38.7361 13.5764 38.7079 13.9563L38.1722 21.2893Z" fill="white"/>
<path fill-rule="evenodd" clip-rule="evenodd" d="M68.6333 21.3989L69.831 7.17322L71.7263 7.32868C72.2286 7.36987 72.603 7.80668 72.5602 8.30383L71.3625 22.5301L69.4683 22.3741C68.9654 22.3323 68.5916 21.8961 68.6333 21.3989Z" fill="white"/>
<path fill-rule="evenodd" clip-rule="evenodd" d="M52.4027 18.188C52.7125 18.0969 53.0558 18.2037 53.2353 18.4699C53.5364 18.9172 54.1132 19.1028 54.9664 19.0274C55.3901 18.9903 55.7181 18.8789 55.951 18.6944C56.1834 18.5094 56.2879 18.289 56.265 18.0326C56.2298 17.6485 55.883 17.4147 55.2228 17.3324L53.3873 17.1247C52.5717 17.033 51.9291 16.7906 51.4608 16.3978C50.992 16.0045 50.7285 15.494 50.6722 14.8652C50.5953 14.0154 50.8594 13.2937 51.4649 12.7003C52.0705 12.1074 52.9202 11.7617 54.0158 11.6654C55.0403 11.5749 55.9182 11.7379 56.6505 12.1544C57.3828 12.5709 57.8605 13.1563 58.0829 13.911L56.5226 14.3634C56.2122 14.4534 55.8789 14.3397 55.6923 14.0792C55.5925 13.9371 55.4599 13.8164 55.2962 13.7172C54.9764 13.5229 54.5803 13.4463 54.1091 13.4875C53.6854 13.5252 53.3867 13.6366 53.2136 13.8222C53.0405 14.0073 52.9642 14.2167 52.9853 14.4499C53.0188 14.8223 53.3057 15.0433 53.8468 15.1129L55.9898 15.3815C56.7585 15.4778 57.3594 15.7267 57.7936 16.1287C58.2278 16.5301 58.4719 17.0336 58.5271 17.6392C58.6116 18.5825 58.327 19.3355 57.6715 19.8976C57.0155 20.4603 56.0989 20.7938 54.9212 20.8977C53.8732 20.9905 52.9589 20.857 52.1785 20.4974C51.3981 20.1377 50.9163 19.5321 50.732 18.6799L52.4027 18.188Z" fill="white"/>
<path fill-rule="evenodd" clip-rule="evenodd" d="M22.9607 18.4446C23.3644 18.3182 23.8168 18.4504 24.058 18.795C24.4635 19.3745 25.2239 19.6048 26.3406 19.487C26.8952 19.4285 27.3229 19.2753 27.6234 19.0276C27.9238 18.7799 28.0564 18.4887 28.0201 18.1534C27.9655 17.6505 27.5043 17.3523 26.637 17.2595L24.2264 17.0286C23.1555 16.9265 22.3081 16.6231 21.6844 16.1184C21.0606 15.6143 20.7044 14.9513 20.6152 14.1281C20.4949 13.0161 20.8241 12.0635 21.604 11.2723C22.3838 10.481 23.4899 10.0094 24.9241 9.85743C26.2649 9.71589 27.4203 9.90964 28.3892 10.4393C29.3586 10.9683 29.9976 11.7253 30.3074 12.7098L28.2724 13.3374C27.8681 13.4622 27.4274 13.3212 27.178 12.9836C27.043 12.8003 26.8664 12.6448 26.6499 12.5189C26.2256 12.2706 25.7051 12.1796 25.089 12.2445C24.5339 12.3031 24.1454 12.4563 23.9224 12.7034C23.6994 12.9499 23.605 13.2261 23.6372 13.5312C23.69 14.0185 24.0721 14.3016 24.7821 14.381L27.5976 14.6838C28.6069 14.7929 29.4014 15.1062 29.9794 15.6224C30.5574 16.1393 30.8901 16.7942 30.9752 17.5866C31.109 18.8205 30.7528 19.8136 29.9066 20.566C29.0605 21.3184 27.8663 21.7761 26.3248 21.9391C24.9534 22.0841 23.7522 21.9298 22.7207 21.4768C21.6891 21.0231 21.0424 20.24 20.7824 19.1274L22.9607 18.4446Z" fill="white"/>
<mask id="mask3_7718_5047" style="mask-type:luminance" maskUnits="userSpaceOnUse" x="38" y="12" width="11" height="12">
<path fill-rule="evenodd" clip-rule="evenodd" d="M38.4111 12.1955H48.1403V23.9661H38.4111V12.1955Z" fill="white"/>
</mask>
<g mask="url(#mask3_7718_5047)">
<path fill-rule="evenodd" clip-rule="evenodd" d="M43.1877 23.8723L41.1374 23.9663L42.3685 20.731L38.4111 12.641L40.4532 12.5476C40.7525 12.5337 41.03 12.6996 41.1574 12.9676L43.4793 17.8607L45.6047 12.3115L48.1403 12.1955L43.8455 23.4007C43.7405 23.6733 43.4823 23.8589 43.1877 23.8723Z" fill="white"/>
</g>
<path fill-rule="evenodd" clip-rule="evenodd" d="M37.2434 10.5207L37.5884 6.52618L38.3781 6.5929C38.5876 6.61088 38.7431 6.79303 38.7249 7.00012L38.3799 10.9947L37.5907 10.928C37.3807 10.91 37.2252 10.7278 37.2434 10.5207Z" fill="white"/>
<path fill-rule="evenodd" clip-rule="evenodd" d="M45.9477 10.4919L46.4447 6.51355L47.2309 6.60927C47.4398 6.63479 47.5882 6.82274 47.5624 7.02926L47.0655 11.0076L46.2787 10.9118C46.0704 10.8863 45.9219 10.6984 45.9477 10.4919Z" fill="white"/>
<path fill-rule="evenodd" clip-rule="evenodd" d="M43.9796 9.72025C44.3475 9.51548 44.5523 9.20745 44.5928 8.795C44.6333 8.38255 44.4936 8.04087 44.1732 7.76996C43.9696 7.59767 43.7178 7.4979 43.4514 7.47353C43.0823 7.43989 42.7672 7.5211 42.5043 7.71717C42.2403 7.91499 42.0901 8.19227 42.0549 8.54903C42.0196 8.90579 42.1118 9.20628 42.3324 9.45167C42.5513 9.69415 42.8447 9.83395 43.2132 9.87224C43.479 9.8995 43.7466 9.85019 43.9796 9.72025ZM45.5814 10.986C45.5122 11.681 45.2352 12.199 44.7494 12.5395C44.2629 12.8806 43.638 13.014 42.8722 12.9398C41.7907 12.8348 41.0684 12.4235 40.7063 11.7053L41.468 11.2436C41.6376 11.1409 41.8553 11.1815 41.9826 11.3323C42.0841 11.4536 42.185 11.5499 42.2871 11.6212C42.4579 11.7402 42.6891 11.8138 42.9813 11.8423C43.3798 11.8811 43.7066 11.7976 43.9625 11.5928C44.2183 11.388 44.3656 11.0858 44.4061 10.6861L44.4125 10.6124C44.0305 10.8607 43.5276 10.9547 42.9062 10.8944C42.3089 10.8364 41.8048 10.5672 41.3946 10.0869C40.9839 9.60598 40.809 9.05546 40.8706 8.43418C40.9316 7.81928 41.2104 7.31691 41.7074 6.92767C42.205 6.53842 42.7519 6.37251 43.3493 6.43052C43.9584 6.48911 44.4325 6.67822 44.7717 6.9967L44.7998 6.71071L45.5856 6.7867C45.8062 6.80817 45.9681 7.00192 45.947 7.22004L45.5814 10.986Z" fill="white"/>
<path fill-rule="evenodd" clip-rule="evenodd" d="M35.7754 9.28712C35.6187 9.68971 35.3118 9.92059 34.8553 9.97918C34.4968 10.0244 34.1922 9.94959 33.9405 9.75236C33.6881 9.55512 33.5385 9.27436 33.491 8.9089C33.4429 8.54343 33.515 8.2325 33.7081 7.9761C33.9006 7.71912 34.1752 7.56771 34.5337 7.52246C34.9932 7.46329 35.3382 7.6089 35.5683 7.9587C35.6663 8.10778 35.8529 8.17275 36.0183 8.10256L36.7689 7.78467C36.5629 7.32929 36.2431 6.98297 35.81 6.74513C35.3764 6.50729 34.9063 6.42144 34.3976 6.48583C33.7515 6.56878 33.2322 6.85129 32.8402 7.33393C32.4482 7.81599 32.2957 8.38855 32.3825 9.05044C32.4688 9.71233 32.7639 10.2263 33.2668 10.5912C33.589 10.8255 33.9422 10.9671 34.3242 11.0164L34.3829 11.4636C34.4099 11.6696 34.6006 11.8152 34.8095 11.7885L35.5947 11.6881L35.492 10.898C35.8 10.7925 36.0747 10.6277 36.3147 10.4015C36.6779 10.0592 36.888 9.6375 36.9461 9.13745L36.1721 9.04464C35.9984 9.02376 35.8376 9.12643 35.7754 9.28712Z" fill="white"/>
<path fill-rule="evenodd" clip-rule="evenodd" d="M51.8256 6.68495C52.1871 6.9895 52.3995 7.41181 52.4605 7.95304L52.761 10.6052L51.9747 10.6923C51.7652 10.7155 51.5774 10.567 51.5539 10.3604L51.3233 8.32663C51.2881 8.01801 51.179 7.77959 50.9965 7.61137C50.8134 7.44372 50.5869 7.37411 50.3164 7.40427C49.587 7.4849 49.2783 8.02556 49.3922 9.02622L49.6104 10.9539L48.8241 11.0415C48.6146 11.0641 48.4263 10.9156 48.4034 10.7091L47.9521 6.72962L48.739 6.6426C48.948 6.6194 49.1363 6.7679 49.1592 6.97442L49.1615 6.99356C49.4749 6.6049 49.9173 6.37982 50.4877 6.31659C51.017 6.258 51.463 6.3804 51.8256 6.68495Z" fill="white"/>
<path fill-rule="evenodd" clip-rule="evenodd" d="M39.4881 10.5929L39.2856 4.65214L40.0771 4.62546C40.2872 4.6185 40.4632 4.78093 40.4702 4.9886L40.6727 10.93L39.8812 10.9561C39.6711 10.9636 39.4957 10.8006 39.4881 10.5929Z" fill="white"/>
</svg>
