<svg width="107" height="22" viewBox="0 0 107 22" fill="none" xmlns="http://www.w3.org/2000/svg">
<path d="M12.7538 8.12673C11.151 8.12673 9.87988 6.88472 9.87988 5.31871C9.87988 3.75269 11.151 2.51068 12.7538 2.51068C14.3566 2.51068 15.6277 3.75269 15.6277 5.31871C15.6277 6.88472 14.3566 8.12673 12.7538 8.12673Z" fill="white"/>
<path d="M9.38222 15.0928C8.22159 15.0928 7.06097 14.7688 6.01088 14.2288C4.46338 13.3648 3.30275 11.9068 2.86061 10.2327L2.30793 8.28872L0.981503 3.53668C0.649896 2.40267 1.36838 1.21466 2.529 0.890653L2.97115 0.782652C3.46856 0.674651 3.96597 0.56665 4.46338 0.56665C4.96079 0.56665 5.51347 0.620651 6.01088 0.782652H6.12141C6.61882 0.674651 7.11623 0.56665 7.61365 0.56665C8.5532 0.56665 9.49275 0.782652 10.3218 1.26866C10.7086 1.05265 11.0955 0.890653 11.5377 0.782652C11.9245 0.674651 12.3667 0.620651 12.8088 0.620651C15.0195 0.620651 16.9539 2.07866 17.5619 4.18468C17.8935 5.42669 17.7277 6.72271 17.0644 7.80272C16.8434 8.18072 16.5118 8.55872 16.1802 8.88273C16.0696 11.6908 14.08 14.1748 11.1508 14.9308C10.5981 15.0388 9.99016 15.0928 9.38222 15.0928Z" fill="white"/>
<path d="M75.0958 20.4929C74.0457 20.4929 73.1614 19.9529 72.6087 19.1969C72.2771 19.9529 71.5033 20.4929 70.5638 20.4929H69.0163C68.0215 20.4929 67.0819 20.0069 66.5845 19.1969C66.2529 19.9529 65.4791 20.4929 64.5949 20.4929H63.0474C61.4446 20.4929 60.1182 19.1969 60.1182 17.6308V9.85477C60.1182 8.66675 61.113 7.69475 62.3289 7.69475H63.9316C64.2633 7.69475 64.5949 7.74875 64.9265 7.85675C65.6449 7.58675 66.4187 7.42474 67.2477 7.42474C68.3531 7.42474 69.3479 7.69475 70.1769 8.18075C71.0612 7.69475 72.1113 7.42474 73.2719 7.42474C74.7641 7.42474 76.1458 7.96475 77.1959 8.99076C78.246 10.0168 78.854 11.4208 78.854 12.9868V18.2788C78.854 19.4669 77.8591 20.4389 76.6433 20.4389H75.0958V20.4929Z" fill="white"/>
<path fill-rule="evenodd" clip-rule="evenodd" d="M77.2512 18.8188C78.5223 20.1149 80.1251 20.7629 81.8384 20.7629C82.778 20.7629 83.6622 20.6009 84.3807 20.2769C84.6571 20.3849 85.0439 20.4389 85.3756 20.4389H86.9783C88.1942 20.4389 89.189 19.4669 89.189 18.2788V10.5028C89.189 8.93676 87.8626 7.64075 86.2598 7.64075H84.7123C84.5292 7.64075 84.384 7.67781 84.2139 7.72122C84.1786 7.73022 84.1423 7.73948 84.1044 7.74875C83.3859 7.53274 82.6674 7.42474 81.8384 7.42474C80.0698 7.42474 78.5223 8.12675 77.2512 9.36876C76.0353 10.6648 75.3721 12.2848 75.3721 14.1208C75.3721 15.9568 76.0353 17.5768 77.2512 18.8188ZM82.1148 13.7428C82.1148 13.6888 82.1701 13.6888 82.2806 13.6888C82.295 13.6888 82.3056 13.6888 82.3154 13.6917C82.3434 13.6998 82.3646 13.7309 82.4464 13.8508C82.5017 13.9048 82.557 13.9588 82.557 14.1748C82.557 14.3283 82.557 14.3728 82.5372 14.405C82.5291 14.4181 82.5177 14.4292 82.5017 14.4449C82.3912 14.5529 82.3359 14.5529 82.2806 14.5529C82.1701 14.5529 82.1148 14.4989 82.1148 14.4989C82.1148 14.4809 82.1087 14.4569 82.1005 14.4249C82.0841 14.3609 82.0596 14.2648 82.0596 14.1208C82.0596 14.0668 82.0596 13.7968 82.1148 13.7428Z" fill="white"/>
<path fill-rule="evenodd" clip-rule="evenodd" d="M94.219 18.7648C95.4901 20.0608 97.0929 20.7088 98.8062 20.7088C99.6905 20.7088 100.575 20.6008 101.349 20.2228C101.625 20.3308 102.012 20.3848 102.343 20.3848H103.946C105.162 20.3848 106.157 19.4128 106.157 18.2248V10.4488C106.157 8.88274 104.83 7.58673 103.228 7.58673H101.68C101.497 7.58673 101.352 7.62379 101.182 7.66721C101.146 7.6762 101.11 7.68547 101.072 7.69473C100.354 7.47873 99.6352 7.37073 98.8062 7.37073C97.0376 7.37073 95.4901 8.07273 94.219 9.31475C93.0031 10.6108 92.3398 12.1768 92.3398 14.0668C92.3398 15.9028 93.0031 17.5228 94.219 18.7648ZM99.0272 13.6888C99.0272 13.6348 99.0825 13.6348 99.193 13.6348C99.2074 13.6348 99.218 13.6348 99.2278 13.6377C99.2558 13.6458 99.277 13.6769 99.3588 13.7968C99.4141 13.8508 99.4694 13.9048 99.4694 14.1208C99.4694 14.2743 99.4694 14.3187 99.4496 14.351C99.4415 14.3641 99.4301 14.3752 99.4141 14.3908C99.3036 14.4988 99.2483 14.4988 99.193 14.4988C99.0825 14.4988 99.0272 14.4448 99.0272 14.4448C98.972 14.3908 98.972 14.2288 98.972 14.0668C98.972 14.0128 98.972 13.7428 99.0272 13.6888Z" fill="white"/>
<path d="M50.2799 20.4928C49.1746 20.4928 48.1798 19.8988 47.6823 18.9808C47.406 19.8448 46.577 20.4928 45.5822 20.4928H44.0347C42.4319 20.4928 41.1055 19.1968 41.1055 17.6308V9.85472C41.1055 8.66671 42.1003 7.6947 43.3162 7.6947H44.8637C45.2506 7.6947 45.5822 7.7487 45.9138 7.9107C46.6323 7.6407 47.4613 7.4787 48.3456 7.4787C50.0036 7.4787 51.4406 8.0727 52.4906 9.15271C53.4855 10.2327 54.0381 11.6367 54.0381 13.2028V18.3868C54.0381 19.5748 53.0433 20.5468 51.8274 20.5468H50.2799V20.4928Z" fill="white"/>
<path d="M88.8022 20.4928C87.1995 20.4928 85.873 19.1968 85.873 17.6308V9.80074C85.873 8.61272 86.8679 7.64072 88.0838 7.64072H89.6313C90.1839 7.64072 90.6814 7.80272 91.0682 8.01872C91.7867 7.69472 92.6157 7.53271 93.5 7.53271C93.9974 7.53271 94.4396 7.58672 94.8264 7.69472C95.766 8.01872 96.3739 8.88273 96.3187 9.85474L96.1529 11.5288C96.0976 12.9328 94.8817 14.0668 93.4447 14.0668C92.8921 14.0668 92.5052 14.0668 92.5052 15.5788V18.3328C92.5052 19.5208 91.5104 20.4928 90.2945 20.4928H88.8022Z" fill="white"/>
<path d="M56.2492 20.7628C54.5912 20.7628 53.1542 20.1688 52.1041 19.0888C51.1093 18.0088 50.5566 16.6588 50.5566 15.0388V9.85472C50.5566 8.66671 51.5515 7.6947 52.7674 7.6947H54.3149C55.4202 7.6947 56.415 8.28871 56.9124 9.20672C57.1888 8.34271 58.0178 7.6947 59.0126 7.6947H60.5601C62.1629 7.6947 63.4893 8.99071 63.4893 10.5567V18.3328C63.4893 19.5208 62.4945 20.4928 61.2786 20.4928H59.7311C59.3442 20.4928 59.0126 20.4388 58.681 20.2768C57.9625 20.6008 57.1335 20.7628 56.2492 20.7628Z" fill="white"/>
<path d="M38.232 20.4928C36.4635 20.4928 35.0265 19.0888 35.0265 17.3608V12.1227C35.0265 11.8527 34.9712 11.6907 34.916 11.6367H34.8607C34.6396 11.6367 34.5291 11.6367 34.4738 11.6907C34.4186 11.7447 34.1975 12.1767 34.1975 13.3647V18.3328C34.1975 19.5208 33.2027 20.4928 31.9868 20.4928H29.9419C28.1733 20.4928 26.7363 19.0888 26.7363 17.3608V7.10066C26.7363 5.91265 27.7311 4.94064 28.947 4.94064H30.992C31.4894 4.94064 31.9315 5.04864 32.3736 5.26464C33.3132 4.83264 34.4186 4.61664 35.5792 4.61664C37.5688 4.61664 39.2821 5.31864 40.498 6.61466C41.7139 7.91067 42.3771 9.53068 42.3771 11.4747V18.3328C42.3771 19.5208 41.3823 20.4928 40.1664 20.4928H38.232Z" fill="white"/>
<path d="M17.5619 21.0868C16.7882 21.0868 16.0697 20.7088 15.6828 20.0068C15.2959 19.3588 15.2959 18.5488 15.6828 17.8468C15.6828 17.7928 15.7381 17.7388 15.7934 17.6848C14.4669 16.2808 13.8037 14.4987 13.8037 12.5007C13.8037 10.2867 14.6327 8.28869 16.2355 6.83067C17.8383 5.37266 19.7726 4.67065 21.9834 4.67065C24.1941 4.67065 26.1284 5.42666 27.6759 6.83067C29.2787 8.28869 30.1077 10.2327 30.1077 12.4467C30.1077 14.6607 29.2787 16.6588 27.6759 18.1168C26.1284 19.5748 24.1941 20.2768 21.9834 20.2768C21.1543 20.2768 20.3253 20.1688 19.5516 19.9528C19.3858 20.1148 19.22 20.2768 19.1647 20.3308C18.7778 20.8708 18.1699 21.0868 17.5619 21.0868Z" fill="white"/>
<path fill-rule="evenodd" clip-rule="evenodd" d="M15.4064 4.67072C15.0195 3.26671 13.5273 2.4027 12.0903 2.7807C11.3165 2.99671 10.7086 3.48271 10.377 4.13072C10.1007 3.75271 9.71378 3.42871 9.27163 3.15871C8.44262 2.7267 7.55833 2.5647 6.61878 2.8347C6.50824 2.88871 6.17663 2.94271 6.17663 2.94271C6.17663 2.94271 6.2319 3.10471 6.2319 3.21271C6.20427 3.21271 6.19045 3.19921 6.17663 3.18571C6.16282 3.17221 6.149 3.15871 6.12137 3.15871C5.29235 2.7267 4.40806 2.5647 3.46851 2.8347C3.35797 2.88871 3.02637 2.94271 3.02637 2.94271L4.3528 7.69475L4.90547 9.63877C5.23708 10.7728 5.95556 11.7448 7.06092 12.3388C7.7794 12.7168 8.55315 12.9328 9.3269 12.9328C9.71378 12.9328 10.1007 12.8788 10.5428 12.7708C12.864 12.1768 14.2457 9.96277 13.8589 7.69475C14.3563 7.47875 14.7984 7.10074 15.0748 6.61474C15.4616 6.02073 15.5722 5.31873 15.4064 4.67072ZM13.2508 6.99271C13.1402 7.04671 12.7534 7.10071 12.7534 7.10071C12.7534 7.10071 12.8639 7.42472 12.8639 7.53272C13.3613 9.42274 12.2559 11.3668 10.3216 11.8528C9.38201 12.1228 8.38719 11.9608 7.55817 11.4748C6.72916 10.9888 6.12121 10.2327 5.84487 9.31474L4.2421 3.53668C4.73951 3.48268 5.23692 3.59068 5.67907 3.86068C6.28701 4.18469 6.67389 4.72469 6.83969 5.3727C6.83969 5.39949 6.83969 5.41299 6.84644 5.41979C6.85329 5.4267 6.86711 5.4267 6.89496 5.4267H6.89496L7.72398 8.28873C7.77924 8.50473 7.94505 8.61273 8.16612 8.61273H8.27666C8.55299 8.55873 8.66353 8.28873 8.60826 8.07272L7.39237 3.64468C7.88978 3.59068 8.38719 3.69868 8.82933 3.96869C9.43728 4.29269 9.82415 4.83269 9.98996 5.4807L10.5979 7.58672C10.6532 7.85672 10.9295 7.96472 11.1506 7.91072C11.4269 7.85672 11.5375 7.58672 11.4822 7.37072L11.0953 5.9127V5.8587C10.819 4.94069 11.4269 3.96869 12.3665 3.75268C13.306 3.48268 14.3009 4.07669 14.5219 4.9947C14.743 5.8047 14.1903 6.77671 13.2508 6.99271ZM12.7534 6.02069C13.1403 6.02069 13.4719 5.69669 13.4719 5.31868C13.4719 4.94068 13.1403 4.61668 12.7534 4.61668C12.3665 4.61668 12.0349 4.94068 12.0349 5.31868C12.0349 5.69669 12.3665 6.02069 12.7534 6.02069Z" fill="#009ADE"/>
<path d="M75.5932 10.5568C76.2564 11.2048 76.588 12.0148 76.588 13.0408V18.3329H75.0405C74.6536 18.3329 74.2667 18.0089 74.2667 17.5768V13.4728C74.2667 12.9328 74.1009 12.4468 73.7693 12.1228C73.4377 11.7988 73.0509 11.6368 72.5534 11.6368C71.9455 11.6368 71.4481 11.8528 71.0612 12.2848C70.6743 12.7168 70.5085 13.3648 70.5085 14.2288V18.3329H68.961C68.5742 18.3329 68.1873 18.0089 68.1873 17.5768V13.4728C68.1873 12.9328 68.0215 12.4468 67.6899 12.1228C67.3583 11.7988 66.9714 11.6368 66.474 11.6368C65.866 11.6368 65.3686 11.8528 64.9817 12.2848C64.5949 12.7168 64.4843 13.3648 64.4843 14.2288V18.3329H62.9368C62.55 18.3329 62.1631 18.0089 62.1631 17.5768V9.85478H63.7659C64.1527 9.85478 64.4843 10.1788 64.4843 10.5568C65.1476 9.90878 65.9766 9.58478 67.0819 9.58478C68.3531 9.58478 69.2926 10.0708 69.9559 10.9888C70.7296 10.0708 71.7797 9.58478 73.1061 9.58478C74.1562 9.58478 74.93 9.90878 75.5932 10.5568Z" fill="#009ADE"/>
<path fill-rule="evenodd" clip-rule="evenodd" d="M85.4305 18.3328H87.0332H87.0885V10.5028C87.0885 10.0708 86.7016 9.74676 86.3148 9.74676H84.7673V10.4488C83.9935 9.85476 83.0539 9.53076 81.8933 9.53076C80.788 9.53076 79.7379 9.96277 78.9089 10.8268C78.0798 11.6908 77.6377 12.7708 77.6377 14.0668C77.6377 15.3628 78.0798 16.4428 78.9089 17.3068C79.7379 18.1708 80.7327 18.6028 81.8933 18.6028C83.0539 18.6028 83.9935 18.2788 84.7673 17.6848C84.7673 18.0088 85.0436 18.3328 85.4305 18.3328ZM84.7674 14.0668C84.7674 14.8228 84.4911 15.4168 83.9937 15.9028C83.4963 16.3888 82.9436 16.6588 82.2804 16.6048C81.5619 16.6048 80.9539 16.3888 80.5118 15.9028C80.0697 15.4708 79.8486 14.8228 79.8486 14.0668C79.8486 13.3108 80.0697 12.7168 80.5118 12.2308C81.0092 11.7447 81.5619 11.5287 82.2804 11.5287C82.9436 11.5287 83.4963 11.7447 83.9937 12.2308C84.4911 12.7168 84.7674 13.3108 84.7674 14.0668Z" fill="#009ADE"/>
<path fill-rule="evenodd" clip-rule="evenodd" d="M102.343 18.3328H103.945H104.001V10.5028C104.001 10.0708 103.614 9.74676 103.227 9.74676H101.679V10.4488C100.906 9.85476 99.9661 9.53076 98.8054 9.53076C97.7001 9.53076 96.65 9.96277 95.821 10.8268C94.9919 11.6908 94.5498 12.7708 94.5498 14.0668C94.5498 15.3628 94.9919 16.4428 95.821 17.3068C96.65 18.1708 97.6448 18.6028 98.8054 18.6028C99.9108 18.6028 100.906 18.2788 101.679 17.6848C101.679 18.0088 101.956 18.3328 102.343 18.3328ZM101.679 14.0668C101.679 14.8228 101.403 15.4168 100.906 15.9028C100.408 16.3888 99.8555 16.6048 99.1923 16.6048C98.4738 16.6048 97.8658 16.3888 97.4237 15.9028C96.9816 15.4708 96.7605 14.8228 96.7605 14.0668C96.7605 13.3108 96.9816 12.7168 97.4237 12.2308C97.9211 11.7447 98.4738 11.5287 99.1923 11.5287C99.8002 11.5287 100.408 11.7447 100.906 12.2308C101.403 12.7168 101.679 13.3108 101.679 14.0668Z" fill="#009ADE"/>
<path d="M50.8887 10.5567C51.5519 11.2048 51.8282 12.0688 51.8282 13.1488V18.3328H50.2807C49.8939 18.3328 49.507 18.0088 49.507 17.5768V13.5808C49.507 12.9868 49.3412 12.5008 49.0096 12.1228C48.678 11.7448 48.2358 11.5828 47.7384 11.5828C46.3015 11.5828 45.583 12.5548 45.583 14.4988V18.2788H44.0355C43.6486 18.2788 43.2617 17.9548 43.2617 17.5228V9.85474H44.8092C45.1961 9.85474 45.583 10.1787 45.583 10.6107V10.6647C46.3015 9.96274 47.1857 9.63874 48.3464 9.63874C49.3965 9.58474 50.2255 9.90874 50.8887 10.5567Z" fill="#009ADE"/>
<path d="M94.0521 9.74675L93.9416 11.4208C93.9416 11.6908 93.6652 11.9068 93.3889 11.9068C91.2887 11.9068 90.2939 13.1488 90.2939 15.5788V18.3328H88.7464C88.3595 18.3328 87.9727 18.0088 87.9727 17.5768V9.80075H89.5202C89.907 9.80075 90.2939 10.1248 90.2939 10.5568V11.3668C91.0677 10.2328 92.1177 9.69275 93.4442 9.69275C93.7205 9.69275 93.9416 9.69275 94.0521 9.74675Z" fill="#009ADE"/>
<path d="M61.3341 18.3328H59.7866C59.3997 18.3328 59.0128 18.0088 59.0128 17.5768V17.5228C58.2944 18.2248 57.4101 18.5488 56.2495 18.5488C55.1994 18.5488 54.3703 18.2248 53.7071 17.5768C53.0439 16.9288 52.7676 16.0648 52.7676 14.9848V9.80072H54.3151C54.702 9.80072 55.0888 10.1247 55.0888 10.5567V14.5528C55.0888 15.1468 55.2546 15.6328 55.5862 16.0108C55.9178 16.3888 56.36 16.5508 56.8574 16.5508C58.2944 16.5508 59.0128 15.5788 59.0128 13.6348V9.85472H60.5603C60.9472 9.85472 61.3341 10.1787 61.3341 10.6107V18.3328Z" fill="#009ADE"/>
<path d="M39.0054 8.07272C39.8345 8.93673 40.2766 10.0707 40.2766 11.4748V18.3328H38.2317C37.679 18.3328 37.2369 17.9008 37.2369 17.3608V12.1228C37.2369 11.3127 37.0158 10.6647 36.6289 10.2327C36.1868 9.74673 35.6341 9.53073 34.9156 9.53073C32.9812 9.53073 32.0417 10.8267 32.0417 13.4188V18.3868H29.9968C29.4441 18.3868 29.002 17.9548 29.002 17.4148V7.15471H31.0469C31.5995 7.15471 32.0417 7.58671 32.0417 8.12672V8.18072C32.9812 7.26271 34.1971 6.83071 35.6894 6.83071C37.0711 6.72271 38.1764 7.15471 39.0054 8.07272Z" fill="#A25EB5"/>
<path d="M26.1835 8.45072C25.0229 7.37071 23.6412 6.8847 21.9832 6.8847C20.3251 6.8847 18.8882 7.42471 17.7276 8.45072C16.5669 9.53073 15.959 10.8807 15.959 12.5548C15.959 14.2288 16.5669 15.5788 17.7276 16.6588C18.0039 16.9288 18.2802 17.0908 18.5566 17.3068C19.5514 15.7948 21.0989 14.1748 22.978 12.6088C23.3096 12.3388 23.5859 12.1228 23.9176 11.8527C23.9176 11.8527 22.7017 12.6628 22.0384 13.1488C21.32 13.6888 19.6619 15.1468 19.6619 15.1468L19.9935 14.1748C20.1593 13.5808 19.9935 12.9868 19.4961 12.6088L17.3407 11.0967H19.9935C20.6015 11.0967 21.1542 10.7187 21.3752 10.1247L22.2043 7.64071L23.0333 10.1247C23.1991 10.7187 23.7518 11.0967 24.415 11.0967H25.0782H27.0678L26.902 11.2047C25.5756 11.9068 24.0834 12.8248 22.6464 13.9588L22.8675 13.8508C23.0885 13.6888 23.3096 13.5808 23.5307 13.4188L24.5808 16.4968L21.8726 14.6068C20.712 15.5788 19.6619 16.6048 18.7776 17.6308C18.5566 17.9008 18.225 18.2788 18.0039 18.5488C17.9486 18.6568 17.8381 18.7108 17.7828 18.8188C17.7276 18.8728 17.6723 18.9268 17.6723 18.9268C17.6723 18.9268 18.8882 17.7928 19.1093 17.5228C19.9935 17.9548 20.9884 18.2248 22.0937 18.2248C23.7518 18.2248 25.1334 17.6848 26.2941 16.6588C27.4547 15.5788 28.0074 14.2288 28.0074 12.5548C27.9521 10.8807 27.3442 9.53073 26.1835 8.45072Z" fill="#A25EB5"/>
<ellipse cx="82.5571" cy="14.3908" rx="1.43697" ry="1.40401" fill="white"/>
<ellipse cx="99.2475" cy="14.3908" rx="1.43696" ry="1.40401" fill="white"/>
</svg>
