<svg width="114" height="24" viewBox="0 0 114 24" fill="none" xmlns="http://www.w3.org/2000/svg">
<g clip-path="url(#clip0_3342_13692)">
<rect x="43.0889" y="11.9622" width="53.7814" height="5.69774" fill="white"/>
<path fill-rule="evenodd" clip-rule="evenodd" d="M26.9545 19.9427H25.6798C24.9127 19.9427 24.2135 19.64 23.6929 19.1473C23.2736 19.6346 22.6556 19.9427 21.9665 19.9427H20.6773C19.9177 19.9427 19.2249 19.6466 18.7065 19.162C18.2871 19.6406 17.6751 19.9427 16.993 19.9427H15.7043C14.1012 19.9427 12.7969 18.6235 12.7969 17.0022V10.3321C12.7969 9.05427 13.8213 8.01818 15.0847 8.01818H16.4004C16.6749 8.01818 16.9403 8.05738 17.1928 8.13034C17.7919 7.91147 18.4486 7.79877 19.1474 7.79877C20.0372 7.79877 20.8592 7.99368 21.5795 8.365C22.3428 7.9915 23.2079 7.79877 24.1499 7.79877C25.5226 7.79877 26.764 8.31654 27.741 9.29601C28.7229 10.2793 29.2424 11.5838 29.2424 13.0669V17.6288C29.2424 18.9067 28.218 19.9427 26.9545 19.9427Z" fill="#FEFEFE"/>
<path fill-rule="evenodd" clip-rule="evenodd" d="M29.3601 7.3831C29.0969 7.3831 28.8062 7.50614 28.6022 7.70378C28.3729 7.92537 28.2291 8.25857 28.2291 8.57109C28.2291 8.86509 28.3519 9.17488 28.5505 9.3796C28.7551 9.59139 29.0743 9.72968 29.3601 9.72968C29.646 9.72968 29.9652 9.59139 30.1719 9.37742C30.3689 9.17379 30.4917 8.86455 30.4917 8.57109C30.4917 8.26783 30.3522 7.94225 30.1288 7.7212C29.8764 7.47184 29.5572 7.3831 29.3601 7.3831ZM29.3602 12.0109C28.4186 12.0109 27.5783 11.6712 26.9291 11.0293C26.2756 10.383 25.916 9.50974 25.916 8.57111C25.916 7.64772 26.2562 6.80763 26.9006 6.14177C27.5487 5.47101 28.4224 5.10187 29.3602 5.10187C30.2979 5.10187 31.1716 5.47101 31.8197 6.14177C32.4635 6.80545 32.8048 7.64663 32.8048 8.57111C32.8048 9.52063 32.435 10.4005 31.7643 11.0489C31.1151 11.6777 30.2828 12.0109 29.3602 12.0109Z" fill="#FEFEFE"/>
<path fill-rule="evenodd" clip-rule="evenodd" d="M30.3153 19.9427H29.026C27.4229 19.9427 26.1191 18.6235 26.1191 17.0021V10.332C26.1191 9.05422 27.143 8.01813 28.407 8.01813H29.6957C31.2988 8.01813 32.6031 9.33733 32.6031 10.9587V17.6288C32.6031 18.9066 31.5787 19.9427 30.3153 19.9427Z" fill="#FEFEFE"/>
<path fill-rule="evenodd" clip-rule="evenodd" d="M33.6688 19.9427H32.3796C30.7765 19.9427 29.4727 18.6235 29.4727 17.0021V7.10072C29.4727 5.82235 30.4965 4.7868 31.7605 4.7868H33.0492C34.6523 4.7868 35.9567 6.10546 35.9567 7.72684V17.6288C35.9567 18.9066 34.9322 19.9427 33.6688 19.9427Z" fill="#FEFEFE"/>
<path fill-rule="evenodd" clip-rule="evenodd" d="M37.0321 19.9427H35.7428C34.1397 19.9427 32.8359 18.6235 32.8359 17.0021V7.10072C32.8359 5.82235 33.8598 4.7868 35.1238 4.7868H36.4125C38.0156 4.7868 39.3199 6.10546 39.3199 7.72684V17.6288C39.3199 18.9066 38.2955 19.9427 37.0321 19.9427Z" fill="#FEFEFE"/>
<path fill-rule="evenodd" clip-rule="evenodd" d="M40.3534 19.9427H39.0641C37.461 19.9427 36.1572 18.6235 36.1572 17.0021V10.332C36.1572 9.05422 37.1811 8.01813 38.4451 8.01813H39.7338C41.3369 8.01813 42.6412 9.33733 42.6412 10.9587V17.6288C42.6412 18.9066 41.6168 19.9427 40.3534 19.9427Z" fill="#FEFEFE"/>
<path fill-rule="evenodd" clip-rule="evenodd" d="M39.3992 7.3831C39.136 7.3831 38.8453 7.50614 38.6413 7.70378C38.4114 7.92646 38.2677 8.25857 38.2677 8.57109C38.2677 8.86455 38.3904 9.17434 38.5885 9.37851C38.7942 9.59139 39.1134 9.72968 39.3992 9.72968C39.6851 9.72968 40.0043 9.59139 40.211 9.37742C40.408 9.17379 40.5308 8.86455 40.5308 8.57109C40.5308 8.26837 40.3913 7.94279 40.1674 7.7212C39.9149 7.4713 39.5957 7.3831 39.3992 7.3831ZM39.3992 12.0109C38.4582 12.0109 37.6179 11.6718 36.9687 11.0304C36.3147 10.383 35.9551 9.51029 35.9551 8.57111C35.9551 7.64772 36.2953 6.80763 36.9397 6.14177C37.5878 5.47101 38.4615 5.10187 39.3992 5.10187C40.337 5.10187 41.2106 5.47101 41.8588 6.14177C42.5026 6.80654 42.8434 7.64718 42.8434 8.57111C42.8434 9.52009 42.4746 10.3999 41.8044 11.0478C41.1541 11.6777 40.3219 12.0109 39.3992 12.0109Z" fill="#FEFEFE"/>
<path fill-rule="evenodd" clip-rule="evenodd" d="M47.8134 13.987C47.8187 13.9935 47.8241 13.9995 47.8295 14.0055C47.8704 14.048 47.9334 14.0828 47.9845 14.1013L47.8387 13.9576C47.8295 13.9674 47.8214 13.9772 47.8134 13.987ZM47.9878 14.1024C48.0093 14.11 48.0281 14.1149 48.0427 14.1166C48.096 14.116 48.1815 14.0812 48.2133 14.0567C48.2246 14.0447 48.2408 14.0169 48.2531 13.9892C48.2381 13.9559 48.2149 13.9184 48.1891 13.8928C48.1724 13.8819 48.0917 13.8492 48.0281 13.8492C47.9985 13.8536 47.8973 13.8971 47.8397 13.9565L47.9878 14.1024ZM45.9804 22.4151H44.6389C43.0676 22.4151 41.7891 21.1215 41.7891 19.5322V10.3435C41.7891 9.06569 42.8129 8.0296 44.0769 8.0296H45.4033C45.6956 8.0296 45.9777 8.07424 46.2431 8.157C46.8934 7.9267 47.6002 7.81073 48.3597 7.81073C49.916 7.81073 51.3377 8.43358 52.4725 9.61177C53.59 10.7736 54.1805 12.2872 54.1805 13.9897C54.1805 15.6933 53.5922 17.2047 52.4789 18.3606C51.328 19.5573 49.8681 20.1621 48.2677 20.154C48.2397 21.4073 47.2266 22.4151 45.9804 22.4151Z" fill="#FEFEFE"/>
<path fill-rule="evenodd" clip-rule="evenodd" d="M54.8163 19.9355H53.4754C51.9035 19.9355 50.625 18.6425 50.625 17.0527V10.3434C50.625 9.06557 51.6494 8.02948 52.9128 8.02948H54.1983C55.8009 8.02948 57.1042 9.34814 57.1042 10.9684V17.6216C57.1042 18.8994 56.0797 19.9355 54.8163 19.9355Z" fill="#FEFEFE"/>
<path fill-rule="evenodd" clip-rule="evenodd" d="M53.8639 7.36827C53.6001 7.36827 53.3089 7.49131 53.1038 7.68949C52.8739 7.91217 52.7297 8.24592 52.7297 8.55953C52.7297 8.85407 52.8535 9.16441 53.0521 9.36967C53.2577 9.582 53.577 9.72084 53.8639 9.72084C54.1508 9.72084 54.47 9.582 54.6773 9.36749C54.8748 9.16387 54.9976 8.85353 54.9976 8.55953C54.9976 8.25518 54.8582 7.92796 54.6331 7.70637C54.3812 7.45701 54.0615 7.36827 53.8639 7.36827ZM53.8639 11.9961C52.9229 11.9961 52.0831 11.6569 51.435 11.0156C50.782 10.3709 50.4219 9.49817 50.4219 8.55954C50.4219 7.63615 50.7626 6.7966 51.407 6.13129C52.054 5.46216 52.9267 5.09302 53.8639 5.09302C54.8011 5.09302 55.6737 5.46216 56.3213 6.13183C56.9646 6.79552 57.3053 7.6356 57.3053 8.55954C57.3053 9.50851 56.936 10.3873 56.2658 11.0346C55.6166 11.6629 54.7855 11.9961 53.8639 11.9961Z" fill="#FEFEFE"/>
<path fill-rule="evenodd" clip-rule="evenodd" d="M67.4284 13.9888C67.4424 14.0182 67.4623 14.0498 67.4822 14.0694C67.4994 14.0814 67.5856 14.1157 67.6534 14.1157C67.6884 14.1119 67.7933 14.0672 67.852 14.0057C67.8574 13.9997 67.8628 13.9932 67.8682 13.9872C67.8601 13.9774 67.852 13.967 67.8429 13.9578C67.7842 13.8973 67.6835 13.8538 67.6362 13.8489C67.5926 13.8494 67.5183 13.8783 67.4844 13.9011C67.4617 13.9262 67.4418 13.9594 67.4284 13.9888ZM67.3218 20.1542C65.7564 20.1542 64.3314 19.534 63.202 18.3602C62.0894 17.2038 61.501 15.6924 61.501 13.9899C61.501 12.2868 62.0915 10.7727 63.2096 9.61141C64.3438 8.43322 65.766 7.81036 67.3218 7.81036C67.9947 7.81036 68.6261 7.90129 69.2134 8.08204C69.3706 8.04774 69.5337 8.02978 69.7011 8.02978H70.9866C72.5892 8.02978 73.8924 9.34789 73.8924 10.9687V17.6214C73.8924 18.8997 72.868 19.9353 71.6046 19.9353H70.2637C69.9751 19.9353 69.6963 19.8917 69.4341 19.8106C68.7833 20.0393 68.0776 20.1542 67.3218 20.1542Z" fill="#FEFEFE"/>
<path fill-rule="evenodd" clip-rule="evenodd" d="M79.7939 19.9355H78.4529C77.6605 19.9355 76.9424 19.6067 76.4251 19.0764C76.0052 19.6007 75.3641 19.9355 74.646 19.9355H73.3045C71.7326 19.9355 70.4541 18.6425 70.4541 17.0527V10.3434C70.4541 9.06557 71.4785 8.02948 72.7419 8.02948H74.028C74.3267 8.02948 74.6153 8.07576 74.8871 8.16069C75.5089 7.9293 76.1882 7.81061 76.9101 7.81061C78.4061 7.81061 79.7056 8.35778 80.6676 9.39278C81.5929 10.388 82.0817 11.7002 82.0817 13.1876V17.6216C82.0817 18.8994 81.0573 19.9355 79.7939 19.9355Z" fill="#FEFEFE"/>
<path fill-rule="evenodd" clip-rule="evenodd" d="M84.0949 13.2851L84.4879 13.8535C84.5406 13.7669 84.5665 13.6777 84.5686 13.6346C84.5659 13.5813 84.511 13.419 84.3953 13.3102C84.3393 13.2579 84.2628 13.2252 84.2284 13.2198C84.2284 13.2214 84.1622 13.2383 84.0954 13.2851H84.0949ZM84.0949 13.2857C84.0093 13.351 83.9172 13.5323 83.9156 13.6401C83.9172 13.7479 84.0098 13.9303 84.096 13.9951C84.1611 14.0408 84.2273 14.0577 84.2677 14.0577H84.2682C84.2628 14.0544 84.3393 14.0218 84.3953 13.969C84.4319 13.9347 84.4631 13.8949 84.4873 13.8541L84.0949 13.2851V13.2857ZM84.1988 22.7068C81.0787 22.7068 79.517 21.2445 78.7564 20.0178C78.146 19.034 78.3537 17.7507 79.2269 17.0135C78.5271 16.0357 78.1621 14.8869 78.1621 13.6396C78.1621 12.0427 78.7677 10.6075 79.9132 9.48812C81.0367 8.39105 82.4293 7.81067 83.9393 7.81067C84.6165 7.81067 85.2453 7.89451 85.8223 8.06166C85.9461 8.04043 86.0737 8.02954 86.2034 8.02954H87.4184C89.0172 8.02954 90.3205 9.34493 90.3242 10.9614L90.3372 16.9166C90.3372 19.1559 89.344 20.4969 88.5112 21.2287C87.3937 22.2098 85.9429 22.7068 84.1988 22.7068Z" fill="#FEFEFE"/>
<path fill-rule="evenodd" clip-rule="evenodd" d="M59.0978 22.4151H57.3865C56.6167 22.4151 55.8991 22.0236 55.4755 21.3735C55.0524 20.724 54.9808 19.9019 55.2849 19.187L56.0488 17.3898L53.4541 11.2538C53.1516 10.539 53.2242 9.71794 53.6479 9.06896C54.0715 8.41997 54.7886 8.0296 55.5573 8.0296H57.2616C58.1886 8.0296 59.0375 8.46952 59.5774 9.19255C59.9817 8.47877 60.7364 8.0296 61.5622 8.0296H63.6788C64.4492 8.0296 65.1684 8.42215 65.5915 9.07331C66.0141 9.72448 66.0846 10.5477 65.7788 11.2631L61.7635 20.6445C61.3027 21.7204 60.2562 22.4151 59.0978 22.4151Z" fill="#FEFEFE"/>
<path fill-rule="evenodd" clip-rule="evenodd" d="M92.6636 14.1027L93.729 15.1943C93.7306 15.1932 93.7322 15.1916 93.7338 15.1905L92.6922 14.0994C92.7255 14.0929 92.7665 14.0771 92.7875 14.0619C92.8047 14.0445 92.8235 14.0134 92.8375 13.9835C92.8214 13.9508 92.7982 13.9149 92.7708 13.8887C92.7605 13.8833 92.6986 13.8631 92.6653 13.8626C92.6087 13.8626 92.5441 13.8838 92.5059 13.9045L92.5027 13.9007C92.4989 13.9045 92.4951 13.9083 92.4919 13.9121C92.4887 13.9143 92.486 13.916 92.4833 13.9176L92.4855 13.9198C92.4704 13.9388 92.4569 13.9617 92.4467 13.9824C92.4607 14.0112 92.4806 14.0428 92.5027 14.0641C92.514 14.07 92.5947 14.1022 92.6636 14.1027ZM92.6652 20.1543C90.9905 20.1543 89.48 19.5657 88.2968 18.4523C87.0667 17.2954 86.417 15.7497 86.417 13.9829C86.417 12.2156 87.0667 10.6699 88.2968 9.51298C89.48 8.39904 90.9911 7.81049 92.6652 7.81049C94.3227 7.81049 95.8224 8.40122 97.0024 9.51788C98.2238 10.6743 98.8693 12.2184 98.8693 13.9829C98.8693 15.7469 98.2238 17.291 97.0024 18.4474C95.823 19.5641 94.3227 20.1543 92.6652 20.1543Z" fill="#FEFEFE"/>
<path fill-rule="evenodd" clip-rule="evenodd" d="M12.3808 3.8442C11.4889 3.8442 10.7632 4.57812 10.7632 5.48027C10.7632 6.38243 11.4889 7.11635 12.3808 7.11635C13.2728 7.11635 13.9985 6.38243 13.9985 5.48027C13.9985 4.57812 13.2728 3.8442 12.3808 3.8442ZM12.3809 8.47204C10.7498 8.47204 9.42285 7.12997 9.42285 5.48028C9.42285 3.8306 10.7498 2.48853 12.3809 2.48853C14.012 2.48853 15.3389 3.8306 15.3389 5.48028C15.3389 7.12997 14.012 8.47204 12.3809 8.47204Z" fill="#FEFEFE"/>
<path fill-rule="evenodd" clip-rule="evenodd" d="M9.1325 15.3749C7.97028 15.3749 6.8199 15.0619 5.80518 14.469C4.26506 13.5701 3.16205 12.1175 2.70018 10.3791L0.911898 3.71716C0.583526 2.48888 1.29733 1.22303 2.50962 0.883295L2.9505 0.762427C3.93184 0.496191 4.9428 0.503813 5.89508 0.771139L5.92145 0.764061C7.29685 0.391656 8.725 0.55118 9.97443 1.21214C10.3319 1.00689 10.7151 0.846273 11.1178 0.737383C13.7173 0.0323187 16.4003 1.5987 17.0969 4.22895C17.4344 5.50351 17.2616 6.8336 16.6097 7.97586C16.3852 8.36895 16.1128 8.72393 15.8001 9.03481C15.6402 11.8834 13.7076 14.3732 10.8659 15.143C10.299 15.2971 9.7155 15.3749 9.1325 15.3749Z" fill="#FEFEFE"/>
<mask id="mask0_3342_13692" style="mask-type:luminance" maskUnits="userSpaceOnUse" x="94" y="4" width="19" height="20">
<path fill-rule="evenodd" clip-rule="evenodd" d="M94.0078 4.01428H112.722V23.408H94.0078V4.01428Z" fill="white"/>
</mask>
<g mask="url(#mask0_3342_13692)">
<path fill-rule="evenodd" clip-rule="evenodd" d="M99.0762 17.6343L99.811 18.354C102.75 16.0766 105.334 13.4262 107.506 10.4595L105.439 9.26822C105.268 9.30525 105.095 9.32267 104.917 9.3194C104.67 9.36677 104.414 9.37385 104.159 9.33574C103.775 9.38909 103.376 9.3439 102.994 9.18765L102.866 9.13538C102.823 9.15117 102.779 9.16587 102.734 9.17894C102.299 9.79144 101.596 10.1491 100.827 10.1442C100.554 12.5992 100.029 14.943 99.2393 17.2635C99.1957 17.392 99.1408 17.5161 99.0762 17.6343ZM99.6802 23.4082C98.8507 23.4082 98.0707 23.0918 97.485 22.518L95.8017 20.8694L95.3027 20.5079C93.9138 19.5023 93.5908 17.5395 94.5846 16.1332C94.7191 15.9356 94.8586 15.7194 94.9996 15.4989C95.8566 12.9035 96.3303 10.2646 96.4466 7.44215C96.4654 6.72891 96.8137 6.04073 97.4016 5.58611C97.991 5.13041 98.7533 4.96272 99.5074 5.11843C100.074 4.43787 100.938 4.01428 101.896 4.01428C102.33 4.01428 102.759 4.09976 103.172 4.26854L103.342 4.33769C104.255 3.89831 105.432 3.93697 106.382 4.48523L111.035 7.1672C111.842 7.63325 112.425 8.40746 112.635 9.29219L112.636 9.29546C112.837 10.1513 112.684 11.0252 112.205 11.7564C109.341 16.0167 105.773 19.7206 101.583 22.7886C101.014 23.1942 100.347 23.4082 99.6802 23.4082Z" fill="#FEFEFE"/>
</g>
<path fill-rule="evenodd" clip-rule="evenodd" d="M26.1306 11.0637C26.6803 11.6142 26.9548 12.3236 26.9548 13.1914V17.7534H25.6806C25.3382 17.7534 25.061 17.473 25.061 17.1267V13.5862C25.061 13.1087 24.9259 12.7259 24.6562 12.4379C24.386 12.1504 24.049 12.0067 23.6442 12.0067C23.1236 12.0067 22.714 12.1945 22.4152 12.5697C22.1164 12.9453 21.9668 13.5034 21.9668 14.2439V17.7534H20.6781C20.3357 17.7534 20.0584 17.473 20.0584 17.1267V13.5862C20.0584 13.1087 19.9233 12.7259 19.6536 12.4379C19.3839 12.1504 19.0464 12.0067 18.6416 12.0067C18.1211 12.0067 17.7162 12.1924 17.4272 12.5626C17.1376 12.9328 16.9933 13.4936 16.9933 14.2439V17.7534H15.7046C15.3622 17.7534 15.085 17.473 15.085 17.1267V10.4567H16.4006C16.7279 10.4567 16.9933 10.7251 16.9933 11.0561C17.5332 10.5106 18.2513 10.2372 19.1476 10.2372C20.1882 10.2372 20.979 10.6369 21.5189 11.4367C22.1546 10.6369 23.0321 10.2372 24.1502 10.2372C24.921 10.2372 25.581 10.5127 26.1306 11.0637Z" fill="#23AAE2"/>
<path fill-rule="evenodd" clip-rule="evenodd" d="M28.4065 17.1268V10.4568H29.6958C30.0376 10.4568 30.3148 10.7372 30.3148 11.0834V17.7535H29.0261C28.6843 17.7535 28.4065 17.4731 28.4065 17.1268ZM30.1846 7.88426C30.4063 8.11347 30.5172 8.38352 30.5172 8.69603C30.5172 9.01726 30.4063 9.28567 30.1846 9.50019C29.9633 9.7147 29.6882 9.82196 29.3604 9.82196C29.0234 9.82196 28.7462 9.7147 28.5298 9.50019C28.3128 9.28567 28.2041 9.01726 28.2041 8.69603C28.2041 8.38352 28.315 8.11347 28.5368 7.88426C28.758 7.65505 29.0331 7.54071 29.3604 7.54071C29.6882 7.54071 29.9633 7.65505 30.1846 7.88426Z" fill="#23AAE2"/>
<path fill-rule="evenodd" clip-rule="evenodd" d="M31.7598 17.1269V7.22498H33.049C33.3909 7.22498 33.6681 7.50591 33.6681 7.85164V17.7536H32.3794C32.037 17.7536 31.7598 17.4732 31.7598 17.1269Z" fill="#23AAE2"/>
<path fill-rule="evenodd" clip-rule="evenodd" d="M35.123 17.1269V7.22498H36.4123C36.7541 7.22498 37.0314 7.50591 37.0314 7.85164V17.7536H35.7426C35.4008 17.7536 35.123 17.4732 35.123 17.1269Z" fill="#23AAE2"/>
<path fill-rule="evenodd" clip-rule="evenodd" d="M38.4446 17.1268V10.4568H39.7338C40.0757 10.4568 40.3529 10.7372 40.3529 11.0834V17.7535H39.0642C38.7218 17.7535 38.4446 17.4731 38.4446 17.1268ZM40.2226 7.88426C40.4444 8.11347 40.5553 8.38352 40.5553 8.69603C40.5553 9.01726 40.4444 9.28567 40.2226 9.50019C40.0014 9.7147 39.7263 9.82196 39.3985 9.82196C39.0615 9.82196 38.7843 9.7147 38.5673 9.50019C38.3504 9.28567 38.2422 9.01726 38.2422 8.69603C38.2422 8.38352 38.3531 8.11347 38.5749 7.88426C38.7961 7.65505 39.0712 7.54071 39.3985 7.54071C39.7263 7.54071 40.0014 7.65505 40.2226 7.88426Z" fill="#23AAE2"/>
<path fill-rule="evenodd" clip-rule="evenodd" d="M49.4781 15.6972C49.8576 15.3035 50.0476 14.776 50.0476 14.1145C50.0476 13.4535 49.8576 12.9232 49.4781 12.5247C49.098 12.1261 48.6152 11.9269 48.0289 11.9269C47.4906 11.9269 47.0142 12.131 46.6008 12.5394C46.1874 12.9477 45.9806 13.4731 45.9806 14.1145C45.9806 14.7564 46.1874 15.279 46.6008 15.6825C47.0142 16.0859 47.4906 16.2879 48.0289 16.2879C48.6152 16.2879 49.098 16.0908 49.4781 15.6972ZM50.8335 11.3508C51.5403 12.0847 51.8935 13.0059 51.8935 14.1144C51.8935 15.2229 51.5425 16.142 50.8405 16.871C50.1391 17.6006 49.3123 17.9653 48.3605 17.9653C47.4179 17.9653 46.625 17.7029 45.9806 17.1775V20.2259H44.6397C44.3291 20.2259 44.0771 19.9711 44.0771 19.657V10.4683H45.4041C45.7222 10.4683 45.9806 10.7291 45.9806 11.0514C46.6153 10.5167 47.4082 10.2494 48.3605 10.2494C49.3026 10.2494 50.1273 10.6163 50.8335 11.3508Z" fill="#23AAE2"/>
<path fill-rule="evenodd" clip-rule="evenodd" d="M52.9128 17.1774V10.4681H54.1983C54.5396 10.4681 54.8163 10.748 54.8163 11.0932V17.7464H53.4748C53.1648 17.7464 52.9128 17.4915 52.9128 17.1774ZM54.6866 7.87438C54.9078 8.10305 55.0182 8.37255 55.0182 8.68397C55.0182 9.00466 54.9078 9.27198 54.6866 9.48595C54.4653 9.69992 54.1913 9.80663 53.8645 9.80663C53.5281 9.80663 53.2514 9.69992 53.0355 9.48595C52.8191 9.27198 52.7109 9.00466 52.7109 8.68397C52.7109 8.37255 52.8213 8.10305 53.0425 7.87438C53.2632 7.64571 53.5378 7.53137 53.8645 7.53137C54.1913 7.53137 54.4653 7.64571 54.6866 7.87438Z" fill="#23AAE2"/>
<path fill-rule="evenodd" clip-rule="evenodd" d="M69.0818 15.6825C69.4952 15.2791 69.7019 14.7564 69.7019 14.1145C69.7019 13.4726 69.4952 12.9478 69.0818 12.5394C68.6683 12.1311 68.1925 11.9269 67.6541 11.9269C67.0679 11.9269 66.5845 12.1262 66.2045 12.5247C65.825 12.9233 65.6355 13.4536 65.6355 14.1145C65.6355 14.7755 65.825 15.3036 66.2045 15.6972C66.5845 16.0909 67.0679 16.288 67.6541 16.288C68.1925 16.288 68.6683 16.086 69.0818 15.6825ZM71.6054 17.7465H70.2644C69.9538 17.7465 69.7019 17.4917 69.7019 17.1776C69.0575 17.7024 68.2646 17.9649 67.3226 17.9649C66.3708 17.9649 65.544 17.6001 64.842 16.8711C64.14 16.142 63.7891 15.223 63.7891 14.1145C63.7891 13.006 64.1427 12.0848 64.8495 11.3503C65.5558 10.6164 66.38 10.2495 67.3226 10.2495C68.2743 10.2495 69.0672 10.5168 69.7019 11.0514V10.4683H70.9874C71.3287 10.4683 71.6054 10.7482 71.6054 11.0933V17.7465Z" fill="#23AAE2"/>
<path fill-rule="evenodd" clip-rule="evenodd" d="M79.0012 11.1025C79.5298 11.6715 79.7941 12.4081 79.7941 13.3125V17.7465H78.4532C78.1426 17.7465 77.8906 17.4917 77.8906 17.1775V13.7208C77.8906 13.2052 77.7582 12.792 77.4939 12.4811C77.2296 12.1697 76.8765 12.014 76.434 12.014C75.2421 12.014 74.6462 12.8502 74.6462 14.5228V17.7465H73.3047C72.9941 17.7465 72.7422 17.4917 72.7422 17.1775V10.4683H74.0282C74.3695 10.4683 74.6462 10.7481 74.6462 11.0933V11.1249C75.2227 10.5412 75.9775 10.2494 76.9104 10.2494C77.7754 10.2494 78.4726 10.5341 79.0012 11.1025Z" fill="#23AAE2"/>
<path fill-rule="evenodd" clip-rule="evenodd" d="M85.4059 15.3066C85.9378 14.9304 86.2042 14.4164 86.2042 13.7642C86.2042 13.1124 85.9378 12.5985 85.4059 12.2223C85.0684 11.9838 84.6674 11.8662 84.2555 11.8684C83.686 11.8716 83.2155 12.0464 82.8441 12.3932C82.4689 12.7433 82.2815 13.2007 82.2815 13.7642C82.2815 14.3282 82.4689 14.7855 82.8441 15.1356C83.2155 15.4824 83.686 15.6572 84.2555 15.6605C84.6674 15.6627 85.0684 15.5451 85.4059 15.3066ZM88.0501 17.0461C88.0501 18.1448 87.704 18.998 87.0117 19.6056C86.3194 20.2137 85.3822 20.5175 84.1996 20.5175C82.5265 20.5175 81.3583 19.9829 80.6951 18.9131L81.7917 18.0741C82.035 17.8873 82.3752 17.9173 82.5921 18.135C82.766 18.3098 82.9367 18.4454 83.1035 18.5412C83.3824 18.7018 83.7474 18.7818 84.1996 18.7818C84.8148 18.7818 85.3026 18.6022 85.6632 18.2423C86.0239 17.8824 86.2042 17.3864 86.2042 16.7548V16.6378C85.6562 17.0853 84.9015 17.3086 83.9401 17.3086C83.0174 17.3086 82.2046 16.9634 81.5031 16.273C80.8012 15.5826 80.4502 14.7469 80.4502 13.7642C80.4502 12.7918 80.8012 11.9631 81.5031 11.2777C82.2046 10.5922 83.0174 10.2492 83.9401 10.2492C84.8821 10.2492 85.6369 10.473 86.2042 10.9205V10.4681H87.4187C87.76 10.4681 88.0361 10.7468 88.0367 11.092L88.0501 17.0461Z" fill="#23AAE2"/>
<path fill-rule="evenodd" clip-rule="evenodd" d="M59.0981 20.2259H57.3868L58.5383 17.5172L55.5576 10.4682H57.2619C57.5117 10.4682 57.7367 10.6201 57.832 10.8537L59.5756 15.114L61.5625 10.4682H63.6792L59.6644 19.8496C59.5664 20.0783 59.3441 20.2259 59.0981 20.2259Z" fill="#23AAE2"/>
<path fill-rule="evenodd" clip-rule="evenodd" d="M94.0914 15.6902C94.5086 15.2824 94.7175 14.7554 94.7175 14.1075C94.7175 13.459 94.5086 12.932 94.0914 12.5242C93.6742 12.117 93.1984 11.9133 92.6649 11.9133C92.1115 11.9133 91.6238 12.1142 91.2018 12.5166C90.7792 12.9195 90.5687 13.4498 90.5687 14.1075C90.5687 14.7652 90.7792 15.2949 91.2018 15.6973C91.6238 16.0996 92.1115 16.3016 92.6649 16.3016C93.1984 16.3016 93.6742 16.0974 94.0914 15.6902ZM95.4383 11.3319C96.2 12.0533 96.5812 12.9783 96.5812 14.1075C96.5812 15.2361 96.2 16.1612 95.4383 16.8826C94.6761 17.6045 93.7518 17.9649 92.6649 17.9649C91.5581 17.9649 90.6215 17.6045 89.8549 16.8826C89.0884 16.1612 88.7051 15.2361 88.7051 14.1075C88.7051 12.9783 89.0884 12.0533 89.8549 11.3319C90.6215 10.6099 91.5581 10.2495 92.6649 10.2495C93.7518 10.2495 94.6761 10.6099 95.4383 11.3319Z" fill="#23AAE2"/>
<path fill-rule="evenodd" clip-rule="evenodd" d="M13.0504 5.60489C13.0504 5.97892 12.7506 6.28273 12.3802 6.28273C12.0099 6.28273 11.71 5.97892 11.71 5.60489C11.71 5.23085 12.0099 4.92705 12.3802 4.92705C12.7506 4.92705 13.0504 5.23085 13.0504 5.60489ZM12.8323 7.28074C12.7134 7.3134 12.3807 7.40433 12.3807 7.40433C12.3807 7.40433 12.462 7.7065 12.4981 7.84315C12.9944 9.71661 11.8914 11.6489 10.0396 12.1509C9.1422 12.3942 8.20499 12.2695 7.40021 11.7997C6.59597 11.3298 6.02051 10.5714 5.78042 9.66434C5.78042 9.6638 5.77988 9.66325 5.77988 9.66271C5.77988 9.66217 5.77988 9.66162 5.77988 9.66162L4.22415 3.92692C4.70595 3.8899 5.18666 3.99988 5.61354 4.24923C6.17447 4.57645 6.57551 5.10566 6.74293 5.73776C6.74993 5.76553 6.76015 5.79166 6.772 5.81671L7.5181 8.57544C7.57247 8.77852 7.75442 8.91246 7.95306 8.91246C7.99236 8.91246 8.03219 8.90701 8.07149 8.89612C8.31212 8.83024 8.45423 8.57925 8.38909 8.33643L7.2005 3.92692C7.68175 3.8899 8.16354 3.99988 8.59096 4.24923C9.15189 4.57645 9.55239 5.10566 9.71981 5.73776L10.2775 7.82628C10.3421 8.06965 10.5892 8.21393 10.8304 8.14859C11.071 8.08326 11.2142 7.83335 11.1496 7.58999L10.7566 6.12269C10.7544 6.10636 10.7512 6.09057 10.7469 6.07478C10.5052 5.16337 11.0419 4.2231 11.943 3.97919C12.8436 3.73473 13.7733 4.27755 14.015 5.18896C14.2551 6.09547 13.7259 7.03519 12.8323 7.28074ZM14.8871 4.95264C14.5168 3.55503 13.0913 2.72257 11.7095 3.09715C10.9822 3.29424 10.4105 3.78643 10.0848 4.41254C9.81244 4.02762 9.45985 3.70204 9.04265 3.45867C8.27286 3.00895 7.37657 2.89026 6.5185 3.1222C6.40276 3.15432 6.08139 3.24252 6.08139 3.24252C6.08139 3.24252 6.13199 3.42872 6.15406 3.51257C6.11422 3.48752 6.10615 3.48262 6.0647 3.45867C5.29545 3.00895 4.39915 2.89026 3.54108 3.1222C3.42803 3.15323 3.1368 3.23326 3.12012 3.23816L4.38354 7.96563L4.90894 9.90279V9.90333C5.21255 11.045 5.93712 11.9995 6.94915 12.5902C7.6242 12.9844 8.37353 13.1858 9.13201 13.1858C9.5126 13.1858 9.89588 13.1352 10.2732 13.0328C12.4701 12.4372 13.831 10.2436 13.459 8.01899C13.9478 7.79467 14.3542 7.42281 14.6277 6.9437C14.9743 6.33663 15.0664 5.62939 14.8871 4.95264Z" fill="#23AAE2"/>
<path fill-rule="evenodd" clip-rule="evenodd" d="M103.523 8.85432C102.714 12.7216 101.293 16.2932 99.2371 19.6029C99.1655 19.7145 99.025 19.7613 98.9248 19.7074L96.6117 18.4655C96.5116 18.4116 96.4691 18.2766 96.5164 18.1633C97.8445 14.834 98.5793 11.3664 98.7321 7.66306C98.7354 7.53675 98.8839 7.47032 99.0653 7.51442C100.457 7.85362 101.85 8.19281 103.242 8.53255C103.423 8.57665 103.55 8.72093 103.523 8.85432Z" fill="#23AAE2"/>
<path fill-rule="evenodd" clip-rule="evenodd" d="M99.5998 20.6586C99.4281 20.6586 99.2661 20.6074 99.132 20.5099L96.659 18.7182C96.3124 18.4666 96.2343 17.9733 96.4841 17.6195C98.703 14.3707 100.232 10.9096 101.154 7.04458C101.227 6.71845 101.526 6.49414 101.896 6.49414C102.03 6.49414 102.165 6.52191 102.3 6.5769L107.017 8.50643C107.276 8.6126 107.479 8.80697 107.574 9.03999C107.652 9.23273 107.653 9.44016 107.575 9.62364C105.809 13.6411 103.334 17.2661 100.213 20.4049C100.048 20.5677 99.8254 20.6586 99.5998 20.6586Z" fill="#23AAE2"/>
<path fill-rule="evenodd" clip-rule="evenodd" d="M101.896 5.95154C101.269 5.95154 100.76 6.34627 100.629 6.93373C99.7268 10.7171 98.2239 14.1188 96.0383 17.318C95.626 17.9022 95.7605 18.7342 96.3473 19.1594L97.354 19.8889L98.8209 20.9517C99.0464 21.115 99.3156 21.2011 99.5998 21.2011C99.9637 21.2011 100.321 21.0552 100.582 20.7998C103.759 17.6039 106.273 13.9234 108.063 9.8509C108.204 9.51824 108.205 9.16216 108.071 8.83332C107.921 8.46636 107.61 8.16364 107.219 8.00357L102.502 6.07404C102.303 5.99292 102.099 5.95154 101.896 5.95154ZM101.896 7.03719C101.958 7.03719 102.028 7.0508 102.1 7.0802C103.672 7.7232 105.244 8.36674 106.816 9.00974C107.021 9.09358 107.141 9.27271 107.082 9.40991C105.339 13.3751 102.935 16.9021 99.835 20.0202C99.7715 20.0833 99.6832 20.116 99.5998 20.116C99.5433 20.116 99.4889 20.1007 99.4458 20.0697C98.6211 19.4719 97.7965 18.8746 96.9723 18.2774C96.8646 18.1995 96.8426 18.0465 96.9212 17.9349C99.1665 14.6486 100.74 11.095 101.676 7.17221C101.695 7.0851 101.782 7.03719 101.896 7.03719Z" fill="#FEFEFE"/>
<path fill-rule="evenodd" clip-rule="evenodd" d="M99.6803 21.1773C99.4585 21.1773 99.254 21.0972 99.1054 20.9508L96.8235 18.7158C96.6744 18.5688 96.5915 18.3717 96.5899 18.1594C96.5883 17.941 96.6771 17.7254 96.8332 17.5675C99.8768 14.4097 102.222 10.934 103.998 6.9464C104.113 6.67853 104.384 6.50812 104.703 6.50812C104.879 6.50812 105.061 6.5593 105.229 6.65621L109.882 9.33817C110.132 9.48245 110.31 9.71058 110.37 9.96538C110.421 10.1799 110.384 10.396 110.268 10.5741C107.568 14.5905 104.19 18.0968 100.223 21.0009C100.062 21.1157 99.8714 21.1773 99.6803 21.1773Z" fill="#23AAE2"/>
<path fill-rule="evenodd" clip-rule="evenodd" d="M104.702 5.96265C104.165 5.96265 103.704 6.25937 103.5 6.73686C101.756 10.6509 99.445 14.0755 96.4412 17.1925C96.1936 17.4413 96.0471 17.7996 96.0498 18.1638C96.0525 18.5231 96.1936 18.8585 96.4477 19.1079L98.3468 20.9683L98.729 21.3428C98.9794 21.5878 99.3169 21.7229 99.6797 21.7229C99.9806 21.7229 100.282 21.6265 100.528 21.4506C104.556 18.5014 107.978 14.9494 110.71 10.8861C110.917 10.5692 110.979 10.2017 110.894 9.83859C110.8 9.43842 110.528 9.08344 110.148 8.86457L105.496 6.18206C105.246 6.03833 104.972 5.96265 104.702 5.96265ZM104.702 7.0532C104.781 7.0532 104.872 7.07879 104.961 7.12997C106.513 8.02396 108.063 8.91849 109.614 9.81248C109.816 9.92899 109.908 10.1353 109.817 10.2731C107.146 14.247 103.857 17.6667 99.9063 20.5594C99.8385 20.6079 99.7567 20.6318 99.6797 20.6318C99.6022 20.6318 99.529 20.6073 99.4795 20.5589C98.7194 19.814 97.9587 19.0687 97.1981 18.3239C97.099 18.227 97.1066 18.062 97.2131 17.9537C100.284 14.7681 102.69 11.2085 104.49 7.17026C104.523 7.09349 104.603 7.0532 104.702 7.0532Z" fill="#FEFEFE"/>
</g>
<defs>
<clipPath id="clip0_3342_13692">
<rect width="112.336" height="22.8667" fill="white" transform="translate(0.832031 0.56665)"/>
</clipPath>
</defs>
</svg>
