<svg width="51" height="34" viewBox="0 0 51 34" fill="none" xmlns="http://www.w3.org/2000/svg">
<path fill-rule="evenodd" clip-rule="evenodd" d="M21.2681 11.3504C21.6782 11.7564 21.8836 12.2796 21.8836 12.9194V16.2847H20.9315C20.6761 16.2847 20.4689 16.078 20.4689 15.8229V13.2106C20.4689 12.8585 20.3682 12.5762 20.1668 12.3644C19.9651 12.1522 19.7134 12.0461 19.4109 12.0461C19.0225 12.0461 18.7164 12.1841 18.493 12.4609C18.2703 12.7381 18.1586 13.1496 18.1586 13.6962V16.2847H17.1962C16.9408 16.2847 16.7332 16.078 16.7332 15.8229V13.2106C16.7332 12.8585 16.6329 12.5762 16.4311 12.3644C16.2294 12.1522 15.9777 12.0461 15.6752 12.0461C15.2868 12.0461 14.984 12.1827 14.7687 12.4558C14.5526 12.7293 14.4446 13.1426 14.4446 13.6962V16.2847H13.4822C13.2264 16.2847 13.0195 16.078 13.0195 15.8229V10.9026H14.0021C14.2465 10.9026 14.4446 11.1004 14.4446 11.3446C14.8473 10.9422 15.3838 10.741 16.0534 10.741C16.8306 10.741 17.4207 11.0358 17.8238 11.6254C18.299 11.0358 18.9538 10.741 19.7891 10.741C20.3645 10.741 20.8577 10.944 21.2681 11.3504Z" fill="white"/>
<path fill-rule="evenodd" clip-rule="evenodd" d="M22.9676 15.8228V10.9028H23.9303C24.1857 10.9028 24.393 11.1095 24.393 11.3646V16.285H23.4306C23.1748 16.285 22.9676 16.0779 22.9676 15.8228ZM24.2955 9.0052C24.4608 9.17407 24.5439 9.37377 24.5439 9.60395C24.5439 9.84074 24.4608 10.0386 24.2955 10.1968C24.1297 10.3551 23.9247 10.434 23.68 10.434C23.4282 10.434 23.221 10.3551 23.0593 10.1968C22.8976 10.0386 22.8164 9.84074 22.8164 9.60395C22.8164 9.37377 22.8991 9.17407 23.0648 9.0052C23.2302 8.83596 23.4352 8.75153 23.68 8.75153C23.9247 8.75153 24.1297 8.83596 24.2955 9.0052Z" fill="white"/>
<path fill-rule="evenodd" clip-rule="evenodd" d="M25.4717 15.8227V8.51874H26.4341C26.6895 8.51874 26.8971 8.72579 26.8971 8.98093V16.2849H25.9343C25.6786 16.2849 25.4717 16.0779 25.4717 15.8227Z" fill="white"/>
<path fill-rule="evenodd" clip-rule="evenodd" d="M27.9834 15.8227V8.51874H28.9458C29.2016 8.51874 29.4088 8.72579 29.4088 8.98093V16.2849H28.4464C28.1903 16.2849 27.9834 16.0779 27.9834 15.8227Z" fill="white"/>
<path fill-rule="evenodd" clip-rule="evenodd" d="M30.4636 15.8228V10.9028H31.426C31.6814 10.9028 31.889 11.1095 31.889 11.3646V16.285H30.9262C30.6705 16.285 30.4636 16.0779 30.4636 15.8228ZM31.7916 9.0052C31.9569 9.17407 32.04 9.37377 32.04 9.60395C32.04 9.84074 31.9569 10.0386 31.7916 10.1968C31.6258 10.3551 31.4208 10.434 31.176 10.434C30.9243 10.434 30.7171 10.3551 30.5554 10.1968C30.3937 10.0386 30.3125 9.84074 30.3125 9.60395C30.3125 9.37377 30.3952 9.17407 30.5609 9.0052C30.7263 8.83596 30.9313 8.75153 31.176 8.75153C31.4208 8.75153 31.6258 8.83596 31.7916 9.0052Z" fill="white"/>
<path fill-rule="evenodd" clip-rule="evenodd" d="M11.5008 7.32372C11.5008 7.59978 11.2766 7.82372 11.0003 7.82372C10.724 7.82372 10.4998 7.59978 10.4998 7.32372C10.4998 7.04765 10.724 6.82371 11.0003 6.82371C11.2766 6.82371 11.5008 7.04765 11.5008 7.32372ZM11.338 8.55977C11.2487 8.584 11.0006 8.65118 11.0006 8.65118C11.0006 8.65118 11.0613 8.87401 11.0885 8.97497C11.4593 10.3568 10.6354 11.7822 9.25223 12.1519C8.58233 12.3318 7.8823 12.2397 7.28185 11.8931C6.68104 11.5466 6.2511 10.9871 6.07177 10.3178C6.07177 10.3175 6.07177 10.3171 6.0714 10.3167V10.3156L4.90946 6.08583C5.26922 6.05903 5.62824 6.13979 5.9472 6.32371C6.36575 6.56527 6.66524 6.95514 6.79054 7.42173C6.79569 7.44192 6.8034 7.46138 6.81222 7.47974L7.36931 9.51498C7.40973 9.66476 7.54569 9.76352 7.69452 9.76352C7.72355 9.76352 7.75331 9.75948 7.78271 9.7514C7.96241 9.70258 8.0686 9.51792 8.01973 9.3384L7.13192 6.08619C7.49204 6.05866 7.85106 6.13942 8.17039 6.32371C8.58931 6.56527 8.8888 6.95514 9.01374 7.42173L9.43008 8.96212C9.47822 9.14163 9.66306 9.2481 9.84275 9.20001C10.0228 9.15191 10.1294 8.96763 10.0812 8.78738L9.788 7.70551C9.78616 7.69376 9.78359 7.68201 9.78028 7.6699C9.60022 6.99772 10.0008 6.30462 10.6736 6.12437C11.3464 5.94412 12.0406 6.34464 12.221 7.01681C12.4003 7.68532 12.0053 8.37878 11.338 8.55977ZM12.8719 6.84244C12.5956 5.8116 11.5314 5.19779 10.4992 5.47386C9.9564 5.61923 9.5294 5.98267 9.2865 6.44412C9.08292 6.16035 8.81945 5.92063 8.50783 5.74074C7.93311 5.40925 7.26395 5.32114 6.62308 5.49295C6.53635 5.51571 6.29676 5.58105 6.29676 5.58105C6.29676 5.58105 6.33425 5.71872 6.35078 5.78039C6.32102 5.76167 6.31514 5.758 6.28464 5.74074C5.70955 5.40925 5.04038 5.32114 4.39952 5.49295C4.315 5.51497 4.09782 5.57408 4.08496 5.57775L5.02899 9.06491L5.42108 10.4941V10.4944C5.64781 11.3366 6.18873 12.0403 6.94498 12.4764C7.44878 12.7668 8.00807 12.9155 8.57471 12.9155C8.85913 12.9155 9.14503 12.8784 9.42651 12.8028C11.0676 12.3637 12.0837 10.7452 11.8059 9.10456C12.1708 8.93862 12.4743 8.66476 12.6786 8.31124C12.9373 7.86373 13.006 7.34207 12.8719 6.84244Z" fill="white"/>
<mask id="mask0_7708_7705" style="mask-type:luminance" maskUnits="userSpaceOnUse" x="1" y="18" width="7" height="8">
<path fill-rule="evenodd" clip-rule="evenodd" d="M1.33301 18.1456H7.16979V25.5047H1.33301V18.1456Z" fill="white"/>
</mask>
<g mask="url(#mask0_7708_7705)">
<path fill-rule="evenodd" clip-rule="evenodd" d="M5.36627 22.164C5.64959 21.8732 5.79143 21.4841 5.79143 20.9966C5.79143 20.5087 5.64959 20.1181 5.36627 19.8237C5.08258 19.5296 4.72172 19.3828 4.28407 19.3828C3.88169 19.3828 3.52634 19.5333 3.21767 19.8343C2.90899 20.1361 2.75466 20.523 2.75466 20.9966C2.75466 21.4698 2.90899 21.8552 3.21767 22.153C3.52634 22.4507 3.88169 22.5997 4.28407 22.5997C4.72172 22.5997 5.08258 22.4544 5.36627 22.164ZM6.37837 18.958C6.90606 19.4992 7.1699 20.179 7.1699 20.9966C7.1699 21.8141 6.9079 22.4922 6.38388 23.0296C5.85987 23.5678 5.24215 23.8369 4.53183 23.8369C3.82776 23.8369 3.23577 23.6431 2.75475 23.2558V25.5047H1.75303C1.52115 25.5047 1.33301 25.3167 1.33301 25.0847V18.3068H2.32407C2.56183 18.3068 2.75475 18.4995 2.75475 18.737C3.22879 18.3428 3.82078 18.1456 4.53183 18.1456C5.23517 18.1456 5.85068 18.4162 6.37837 18.958Z" fill="white"/>
</g>
<path fill-rule="evenodd" clip-rule="evenodd" d="M7.93095 23.2556V18.307H8.89079C9.14618 18.307 9.35233 18.5133 9.35233 18.7677V23.6756H8.35097C8.1191 23.6756 7.93095 23.4876 7.93095 23.2556ZM9.2553 16.3936C9.42066 16.5621 9.50297 16.7611 9.50297 16.9909C9.50297 17.2273 9.42066 17.4245 9.2553 17.5823C9.0903 17.7402 8.88599 17.8191 8.64162 17.8191C8.39027 17.8191 8.18376 17.7402 8.02244 17.5823C7.86112 17.4245 7.78027 17.2273 7.78027 16.9909C7.78027 16.7611 7.86259 16.5621 8.02795 16.3936C8.19294 16.2251 8.39762 16.1407 8.64162 16.1407C8.88599 16.1407 9.0903 16.2251 9.2553 16.3936Z" fill="white"/>
<path fill-rule="evenodd" clip-rule="evenodd" d="M20.0053 22.1528C20.314 21.8551 20.4683 21.47 20.4683 20.9968C20.4683 20.5233 20.314 20.136 20.0053 19.8346C19.6966 19.5332 19.3409 19.3826 18.9393 19.3826C18.5013 19.3826 18.1404 19.5295 17.8567 19.8235C17.5734 20.118 17.4316 20.5086 17.4316 20.9968C17.4316 21.4843 17.5734 21.8731 17.8567 22.1639C18.1404 22.4542 18.5013 22.5996 18.9393 22.5996C19.3409 22.5996 19.6966 22.4509 20.0053 22.1528ZM21.8896 23.6753H20.8883C20.656 23.6753 20.4683 23.4877 20.4683 23.2557C19.9872 23.6433 19.3952 23.8368 18.6915 23.8368C17.9805 23.8368 17.3635 23.5677 16.8391 23.0299C16.3151 22.4921 16.0527 21.814 16.0527 20.9968C16.0527 20.1789 16.3169 19.499 16.8443 18.9579C17.372 18.4161 17.9878 18.1455 18.6915 18.1455C19.4019 18.1455 19.9946 18.3426 20.4683 18.7369V18.3067H21.4285C21.6831 18.3067 21.8896 18.5134 21.8896 18.7678V23.6753Z" fill="white"/>
<path fill-rule="evenodd" clip-rule="evenodd" d="M27.4131 18.7747C27.8078 19.1946 28.0051 19.7376 28.0051 20.4046V23.6756H27.0041C26.7722 23.6756 26.5841 23.4876 26.5841 23.2556V20.706C26.5841 20.3261 26.4852 20.021 26.2875 19.7916C26.0902 19.5621 25.8267 19.4472 25.496 19.4472C24.606 19.4472 24.1606 20.0643 24.1606 21.2978V23.6756H23.1593C22.9274 23.6756 22.7393 23.4876 22.7393 23.2556V18.307H23.6995C23.9541 18.307 24.1606 18.5133 24.1606 18.7677V18.7908C24.5913 18.3606 25.155 18.1454 25.8517 18.1454C26.4977 18.1454 27.0184 18.3551 27.4131 18.7747Z" fill="white"/>
<path fill-rule="evenodd" clip-rule="evenodd" d="M32.196 21.8757C32.5933 21.5981 32.7921 21.2193 32.7921 20.738C32.7921 20.2575 32.5933 19.8782 32.196 19.6007C31.9436 19.4245 31.6448 19.3379 31.3369 19.3397C30.9117 19.3423 30.5604 19.4711 30.283 19.7266C30.0026 19.9851 29.8626 20.3224 29.8626 20.738C29.8626 21.1539 30.0026 21.4913 30.283 21.7494C30.5604 22.0056 30.9117 22.1345 31.3369 22.1367C31.6445 22.1385 31.9436 22.0515 32.196 21.8757ZM34.1703 23.1587C34.1703 23.9693 33.912 24.5989 33.395 25.0471C32.8779 25.495 32.1779 25.7197 31.2949 25.7197C30.0455 25.7197 29.1731 25.325 28.6781 24.5361L29.4965 23.9172C29.6787 23.7795 29.9327 23.8015 30.0943 23.9623C30.2244 24.0908 30.3516 24.191 30.4765 24.2615C30.6849 24.3801 30.9575 24.4392 31.2949 24.4392C31.7546 24.4392 32.1187 24.3063 32.3877 24.0409C32.6575 23.7758 32.7919 23.4102 32.7919 22.9436V22.8577C32.3826 23.1874 31.8193 23.3526 31.1012 23.3526C30.4122 23.3526 29.8051 23.0978 29.2811 22.5886C28.7571 22.0794 28.4951 21.4627 28.4951 20.738C28.4951 20.0207 28.7571 19.4095 29.2811 18.904C29.8051 18.3981 30.4122 18.1455 31.1012 18.1455C31.8049 18.1455 32.3683 18.3103 32.7919 18.6404V18.3067H33.6992C33.9535 18.3067 34.16 18.5126 34.1608 18.7667L34.1703 23.1587Z" fill="white"/>
<path fill-rule="evenodd" clip-rule="evenodd" d="M12.5495 25.5045H11.2714L12.1316 23.5064L9.90625 18.307H11.1788C11.3651 18.307 11.533 18.419 11.6047 18.5911L12.9063 21.734L14.3901 18.307H15.971L12.9724 25.227C12.8993 25.3951 12.7332 25.5045 12.5495 25.5045Z" fill="white"/>
<path fill-rule="evenodd" clip-rule="evenodd" d="M38.6829 22.1586C38.9945 21.8583 39.1503 21.4688 39.1503 20.9912C39.1503 20.5132 38.9945 20.1241 38.6829 19.8238C38.3709 19.5228 38.0163 19.3726 37.6176 19.3726C37.2045 19.3726 36.84 19.5209 36.5247 19.8179C36.2094 20.1153 36.0518 20.5059 36.0518 20.9912C36.0518 21.4765 36.2094 21.8671 36.5247 22.1641C36.84 22.4611 37.2045 22.6098 37.6176 22.6098C38.0163 22.6098 38.3709 22.4589 38.6829 22.1586ZM39.6883 18.9438C40.2575 19.4758 40.5423 20.1586 40.5423 20.9912C40.5423 21.8238 40.2575 22.5063 39.6883 23.0382C39.1194 23.5709 38.4293 23.8367 37.6176 23.8367C36.7911 23.8367 36.0915 23.5709 35.5193 23.0382C34.9464 22.5063 34.6602 21.8238 34.6602 20.9912C34.6602 20.1586 34.9464 19.4758 35.5193 18.9438C36.0915 18.4115 36.7911 18.1454 37.6176 18.1454C38.4293 18.1454 39.1194 18.4115 39.6883 18.9438Z" fill="white"/>
<path fill-rule="evenodd" clip-rule="evenodd" d="M43.7508 16.454C43.2992 16.3454 42.8479 16.2363 42.3963 16.1277C42.2611 16.095 42.1501 16.1446 42.1475 16.2374C42.0509 18.5554 41.6401 20.747 40.9121 22.8579C42.1916 20.8626 43.1261 18.7547 43.7508 16.454Z" fill="white"/>
<path fill-rule="evenodd" clip-rule="evenodd" d="M45.7887 16.263C45.4132 16.1114 45.0373 15.9597 44.6621 15.8078C44.608 15.7861 44.5562 15.7758 44.5103 15.7758C44.4247 15.7758 44.3596 15.8114 44.3453 15.8753C43.7665 18.2736 42.8589 20.484 41.6113 22.5504C43.3116 20.6385 44.6874 18.5677 45.7887 16.263Z" fill="white"/>
<mask id="mask1_7708_7705" style="mask-type:luminance" maskUnits="userSpaceOnUse" x="40" y="15" width="11" height="11">
<path fill-rule="evenodd" clip-rule="evenodd" d="M40.9502 15.788H50.4519V25.8038H40.9502V15.788Z" fill="white"/>
</mask>
<g mask="url(#mask1_7708_7705)">
<path fill-rule="evenodd" clip-rule="evenodd" d="M50.2743 17.8232C49.116 17.1635 47.9577 16.5038 46.7995 15.8445C46.733 15.8067 46.665 15.788 46.6062 15.788C46.5316 15.788 46.4717 15.8173 46.4474 15.8742C45.104 18.8529 43.3063 21.4785 41.0137 23.8284C40.9339 23.908 40.9284 24.0299 41.0023 24.1015C41.57 24.6511 42.1378 25.2006 42.7059 25.7502C42.743 25.7858 42.7974 25.8038 42.8554 25.8038C42.9131 25.8038 42.9741 25.7858 43.0245 25.7505C45.9749 23.6165 48.431 21.0941 50.426 18.1632C50.4933 18.0611 50.4249 17.9087 50.2743 17.8232Z" fill="white"/>
</g>
</svg>
