<svg width="111" height="63" viewBox="0 0 111 63" fill="none" xmlns="http://www.w3.org/2000/svg">
<path d="M28.2697 4.73757C27.3637 1.45507 24.0417 -0.463928 20.7701 0.394572C19.0587 0.849072 17.6997 2.01057 16.9447 3.47507C16.2904 2.56607 15.4851 1.80857 14.4784 1.25307C12.7167 0.192572 10.6027 -0.0599276 8.58939 0.445072C8.33772 0.495572 7.58272 0.748072 7.58272 0.748072C7.58272 0.748072 7.68339 1.20257 7.73372 1.35407C7.63305 1.30357 7.63305 1.30357 7.53239 1.25307C5.72039 0.192572 3.65672 -0.0599276 1.64339 0.445072C1.34139 0.546072 0.687052 0.697572 0.636719 0.748072L3.60639 11.7571L4.81439 16.2516C5.51905 18.9281 7.23039 21.1501 9.59605 22.5136C11.2067 23.4226 12.9684 23.8771 14.7301 23.8771C15.6361 23.8771 16.5421 23.7761 17.3977 23.5236C22.5317 22.1601 25.7531 17.0091 24.8974 11.8581C26.0551 11.3531 27.0114 10.4946 27.6154 9.33307C28.4711 7.96957 28.6724 6.30307 28.2697 4.73757ZM23.4377 10.1411C23.1357 10.2421 22.3807 10.4441 22.3807 10.4441C22.3807 10.4441 22.5821 11.1511 22.6324 11.4541C23.7901 15.7971 21.2231 20.2916 16.8441 21.5036C14.7301 22.0591 12.5154 21.7561 10.6531 20.6956C8.74039 19.5846 7.43172 17.8171 6.82772 15.7466L3.20372 2.31357C4.31105 2.21257 5.46872 2.46507 6.47539 3.07107C7.78405 3.82857 8.74039 5.04057 9.14305 6.55557C9.14305 6.60607 9.19339 6.65657 9.19339 6.75757L10.9551 13.1711C11.1061 13.6256 11.5087 13.9791 11.9617 13.9791C12.0624 13.9791 12.1631 13.9791 12.2637 13.9286C12.8174 13.7771 13.1697 13.1711 13.0187 12.6156L10.2001 2.31357C11.3074 2.21257 12.4651 2.46507 13.4717 3.07107C14.7804 3.82857 15.7367 5.04057 16.1394 6.55557L17.4481 11.4036C17.5991 11.9591 18.2031 12.3126 18.7567 12.1611C19.3104 12.0096 19.6627 11.4036 19.5117 10.8481L18.6057 7.41407C18.6057 7.36357 18.6057 7.36357 18.6057 7.31307C18.0521 5.19207 19.3104 3.02057 21.4244 2.41457C23.5384 1.85907 25.7027 3.12157 26.3067 5.24257C26.7597 7.36357 25.5517 9.58557 23.4377 10.1411ZM23.9411 6.25257C23.9411 7.11107 23.2364 7.81807 22.3807 7.81807C21.5251 7.81807 20.8204 7.11107 20.8204 6.25257C20.8204 5.39407 21.5251 4.68707 22.3807 4.68707C23.2364 4.68707 23.9411 5.39407 23.9411 6.25257Z" fill="#009BDE"/>
<path d="M90.4812 10.5451C92.7966 13.0196 93.9039 16.1506 93.9039 20.0391V39.1281H88.3169C86.8572 39.1281 85.6492 37.9161 85.6492 36.4516V21.8066C85.6492 19.5846 85.0956 17.8171 83.9379 16.4536C82.7802 15.0901 81.2702 14.4336 79.3576 14.4336C74.1732 14.4336 71.6062 18.0191 71.6062 25.2406V39.1281H66.0192C64.5596 39.1281 63.3516 37.9161 63.3516 36.4516V7.81808H68.9386C70.3982 7.81808 71.6062 9.03008 71.6062 10.4946V10.6461C74.1229 8.12108 77.3946 6.85858 81.4212 6.85858C85.1459 6.85858 88.1659 8.07058 90.4812 10.5451Z" fill="#A35EB5"/>
<path d="M56.5569 11.7066C53.4362 8.77757 49.6109 7.26257 45.1312 7.26257C40.5509 7.26257 36.6752 8.72707 33.5546 11.7066C30.3836 14.6861 28.8232 18.4736 28.8232 23.0691C28.8232 27.7151 30.3836 31.5026 33.5546 34.4316C34.2592 35.0881 35.0646 35.6941 35.8699 36.1991C38.5879 32.0076 42.7152 27.4121 47.7989 23.1196C48.6546 22.4126 49.5102 21.7056 50.3659 21.0491C50.3659 21.0491 47.0942 23.2711 45.2319 24.6851C43.2689 26.1496 38.6886 30.2906 38.6886 30.2906L39.5442 27.6141C40.0476 25.9981 39.4939 24.2811 38.1349 23.2711L32.2962 19.0291H39.4939C41.1549 19.0291 42.6649 17.9686 43.1682 16.3526L45.4332 9.43407L47.6479 16.3021C48.1512 17.9181 49.6612 18.9786 51.3222 18.9786H53.0839H58.5199L58.0669 19.3321H58.0166C54.3422 21.2511 50.4162 23.8771 46.4902 27.0586L47.0439 26.7051C47.6479 26.3011 48.2519 25.9476 48.8559 25.5436L51.6746 34.1791L44.3259 28.9271C41.1549 31.7046 38.2859 34.5326 35.9706 37.3101C35.3162 38.1181 34.5109 39.1281 33.9572 39.8856C33.7559 40.1381 33.5546 40.3906 33.4036 40.6431C33.4036 40.6431 33.4036 40.5926 33.4539 40.5926C33.3029 40.7946 33.2022 40.9461 33.2022 40.8956C33.2022 40.8451 36.4236 37.6636 37.1282 37.0071C39.4939 38.2696 42.1616 38.8756 45.1312 38.8756C49.6109 38.8756 53.4362 37.4111 56.5569 34.4316C59.6776 31.4521 61.2882 27.6646 61.2882 23.0691C61.2379 18.4231 59.6776 14.6356 56.5569 11.7066Z" fill="#A35EB5"/>
<path d="M64.5597 49.5311C65.6167 50.5916 66.1704 51.9551 66.1704 53.6216V62.4086H63.704C63.0497 62.4086 62.496 61.8531 62.496 61.1966V54.3791C62.496 53.4701 62.2444 52.7126 61.6907 52.1571C61.1874 51.6016 60.533 51.3491 59.7277 51.3491C58.721 51.3491 57.9157 51.7026 57.362 52.4601C56.758 53.1671 56.5064 54.2781 56.5064 55.6921V62.4591H53.9897C53.3354 62.4591 52.7817 61.9036 52.7817 61.2471V54.4296C52.7817 53.5206 52.53 52.7631 51.9764 52.2076C51.473 51.6521 50.8187 51.3996 50.0134 51.3996C49.0067 51.3996 48.2014 51.7531 47.6477 52.4601C47.094 53.1671 46.792 54.2781 46.792 55.6921V62.4591H44.2754C43.621 62.4591 43.0674 61.9036 43.0674 61.2471V48.3696H45.6344C46.2887 48.3696 46.792 48.8746 46.792 49.5311C47.849 48.4706 49.2584 47.9656 50.9697 47.9656C52.983 47.9656 54.5434 48.7231 55.6004 50.2886C56.8587 48.7231 58.5197 47.9656 60.7344 47.9656C62.194 47.9656 63.4524 48.4706 64.5597 49.5311Z" fill="#009BDE"/>
<path d="M82.9815 62.459H80.3641C79.7601 62.459 79.2568 61.954 79.2568 61.348C77.9985 62.358 76.4381 62.863 74.6261 62.863C72.7638 62.863 71.1531 62.156 69.7941 60.742C68.4351 59.328 67.7305 57.5605 67.7305 55.389C67.7305 53.268 68.4351 51.45 69.7941 50.036C71.1531 48.622 72.7638 47.915 74.6261 47.915C76.4885 47.915 78.0488 48.42 79.2568 49.4805V48.3695H81.7735C82.4278 48.3695 82.9815 48.925 82.9815 49.5815V62.459ZM78.0488 58.4695C78.8541 57.712 79.2568 56.6515 79.2568 55.4395C79.2568 54.177 78.8541 53.167 78.0488 52.4095C77.2435 51.6015 76.3375 51.248 75.2805 51.248C74.1228 51.248 73.2168 51.652 72.4618 52.4095C71.7068 53.167 71.3545 54.2275 71.3545 55.49C71.3545 56.7525 71.7068 57.813 72.4618 58.5705C73.2168 59.328 74.1228 59.732 75.2805 59.732C76.2871 59.631 77.2435 59.227 78.0488 58.4695Z" fill="#009BDE"/>
<path d="M110.212 62.4086H107.595C106.991 62.4086 106.487 61.9036 106.487 61.2976C105.229 62.3076 103.669 62.8126 101.857 62.8126C99.9943 62.8126 98.3836 62.1056 97.0246 60.6916C95.6656 59.2776 94.9609 57.5101 94.9609 55.3386C94.9609 53.1671 95.6656 51.3996 97.0246 49.9856C98.3836 48.5716 99.9943 47.8646 101.857 47.8646C103.719 47.8646 105.279 48.3696 106.487 49.4301V48.3191H109.004C109.658 48.3191 110.212 48.8746 110.212 49.5311V62.4086ZM105.33 58.4191C106.135 57.6616 106.538 56.6011 106.538 55.3891C106.538 54.1266 106.135 53.1166 105.33 52.3591C104.524 51.5511 103.568 51.1471 102.561 51.1471C101.404 51.1471 100.447 51.5511 99.7426 52.3086C98.9876 53.0661 98.6353 54.1266 98.6353 55.3891C98.6353 56.6516 98.9876 57.7121 99.7426 58.4696C100.498 59.2271 101.404 59.6311 102.561 59.6311C103.568 59.5806 104.474 59.2271 105.33 58.4191Z" fill="#009BDE"/>
<path d="M24.6455 49.5815C25.6522 50.6925 26.2058 52.1065 26.2058 53.874V62.459H23.6892C23.0348 62.459 22.4812 61.9035 22.4812 61.247V54.682C22.4812 53.672 22.2295 52.864 21.7262 52.3085C21.2228 51.7025 20.5182 51.3995 19.6625 51.3995C17.3472 51.3995 16.1895 53.0155 16.1895 56.2475V62.459H13.6728C13.0185 62.459 12.4648 61.9035 12.4648 61.247V48.3695H14.9815C15.6358 48.3695 16.1895 48.925 16.1895 49.5815V49.632C17.2968 48.521 18.8068 47.915 20.6188 47.915C22.2295 47.9655 23.5885 48.521 24.6455 49.5815Z" fill="#009BDE"/>
<path d="M94.3067 48.2686L94.1557 51.0461C94.1053 51.5006 93.753 51.8541 93.3 51.8541C89.978 51.8541 88.2667 53.8741 88.2667 57.9141V62.4591H85.75C85.0957 62.4591 84.542 61.9036 84.542 61.2471V48.3191H87.0587C87.713 48.3191 88.2667 48.8746 88.2667 49.5311V50.8946C89.525 49.0261 91.2363 48.1171 93.3 48.1171C93.753 48.1171 94.055 48.1676 94.3067 48.2686Z" fill="#009BDE"/>
<path d="M41.4564 62.4591H38.9397C38.2854 62.4591 37.7317 61.9036 37.7317 61.2471V61.1966C36.6244 62.3076 35.1144 62.9136 33.3024 62.9136C31.591 62.9136 30.2824 62.3581 29.2254 61.2471C28.2187 60.1361 27.665 58.7221 27.665 56.9546V48.3696H30.1817C30.836 48.3696 31.3897 48.9251 31.3897 49.5816V56.1466C31.3897 57.1566 31.6414 57.9646 32.1447 58.5201C32.648 59.1261 33.3527 59.4291 34.2084 59.4291C36.5237 59.4291 37.6814 57.8131 37.6814 54.5811V48.3696H40.198C40.8524 48.3696 41.406 48.9251 41.406 49.5816V62.4591H41.4564Z" fill="#009BDE"/>
</svg>
