<svg width="24" height="27" viewBox="0 0 24 27" fill="none" xmlns="http://www.w3.org/2000/svg">
<path d="M3.48189 19.5237H6.64725V22.6344H8.863V19.5237H12.0284V17.2316H8.863V13.9572H6.64725V17.2316H3.48189V19.5237ZM7.43859 10.1916C3.32362 10.3553 0 13.9572 0 18.3777C0 22.7981 3.48189 26.4 7.75512 26.4C10.4457 26.4 12.6614 25.0902 14.0858 23.1256C16.6181 23.2893 19.3087 22.9619 21.3662 21.8158C23.5819 20.3423 25.0063 17.8865 23.1071 15.4307C22.9488 15.267 22.6323 14.9395 22.474 14.6121C24.0567 13.1386 24.5315 11.0102 23.1071 9.2093C22.9488 8.88186 22.6323 8.71814 22.474 8.3907C25.0063 6.0986 24.215 2.98791 21.3662 1.3507C18.2008 -0.450233 13.1362 -0.450233 9.97087 1.3507C7.12205 2.98791 6.17244 6.0986 8.863 8.3907C8.54646 8.71814 8.22992 8.88186 8.07166 9.2093C7.75512 9.53674 7.59685 9.86419 7.43859 10.1916ZM15.1937 20.9972C15.5102 20.1786 15.6685 19.36 15.6685 18.3777C15.6685 17.8865 15.5102 17.2316 15.5102 16.9042C17.2512 16.9042 18.9921 16.5767 20.5748 15.7581C21.0496 16.0856 21.3662 16.413 21.6827 16.7405C22.6323 18.0502 21.5244 19.1963 20.4165 20.0149C18.9921 20.8335 17.0929 21.1609 15.1937 20.9972ZM14.8772 14.7758C13.7693 12.6474 11.8701 11.0102 9.65433 10.5191C9.8126 10.1916 10.2874 9.86419 10.6039 9.53674C13.611 10.8465 17.5677 10.8465 20.5748 9.53674C21.0496 9.86419 21.3662 10.1916 21.6827 10.5191C22.6323 11.8288 21.5244 12.9749 20.4165 13.6298C18.8339 14.4484 16.7764 14.9395 14.8772 14.7758ZM7.75512 12.32C11.0787 12.32 13.611 14.9395 13.611 18.3777C13.611 21.6521 11.0787 24.4353 7.75512 24.4353C4.58976 24.4353 1.89921 21.6521 1.89921 18.3777C1.89921 14.9395 4.58976 12.32 7.75512 12.32ZM10.9205 3.15163C13.4528 1.67814 17.726 1.67814 20.4165 3.15163C22.6323 4.4614 22.6323 6.0986 20.4165 7.40837C17.726 8.88186 13.4528 8.88186 10.9205 7.40837C8.70473 6.0986 8.70473 4.4614 10.9205 3.15163Z" fill="white"/>
</svg>
