<svg width="143" height="69" viewBox="0 0 143 69" fill="none" xmlns="http://www.w3.org/2000/svg">
<path d="M28.5906 5.1708C27.7349 1.8883 24.3626 -0.0307 21.0909 0.8278C19.3796 1.2823 18.0206 2.4438 17.2656 3.9083C16.6112 2.9993 15.8059 2.2418 14.7992 1.6863C13.0376 0.6258 10.9236 0.3733 8.91023 0.8783C8.65856 0.9288 7.90356 1.1813 7.90356 1.1813C7.90356 1.1813 8.00423 1.6358 8.05456 1.8378C7.95389 1.7368 7.95389 1.7368 7.85323 1.6863C6.04123 0.6258 3.92723 0.3733 1.91389 0.8783C1.61189 0.9793 0.95756 1.1308 0.907227 1.1813L3.87689 12.2408L5.13523 16.7858C5.83989 19.4623 7.55123 21.6843 9.91689 23.0478C11.5276 23.9568 13.2892 24.4618 15.0509 24.4618C15.9569 24.4618 16.8629 24.3608 17.7186 24.1083C22.9029 22.6943 26.0739 17.5938 25.2182 12.3923C26.3759 11.8873 27.3322 10.9783 27.9866 9.8673C28.7919 8.4028 29.0436 6.7363 28.5906 5.1708ZM23.7586 10.6248C23.4566 10.7258 22.7016 10.9278 22.7016 10.9278C22.7016 10.9278 22.9029 11.6348 22.9532 11.9378C24.1612 16.2808 21.5439 20.8258 17.2152 21.9873C15.1012 22.5428 12.8866 22.2398 11.0242 21.1793C9.11156 20.0683 7.75256 18.3008 7.19889 16.1798L3.52456 2.7973C4.68223 2.6963 5.78956 2.9488 6.79623 3.5548C8.10489 4.3123 9.06123 5.5748 9.46389 7.0393C9.46389 7.0898 9.51423 7.1403 9.51423 7.2413L11.2759 13.7053C11.4269 14.1598 11.8296 14.5133 12.2826 14.5133C12.3832 14.5133 12.4839 14.5133 12.5846 14.4628C13.1382 14.3113 13.4906 13.7053 13.3396 13.1498L10.5209 2.7973C11.6786 2.6963 12.7859 2.9488 13.7926 3.5548C15.1012 4.3123 16.0576 5.5748 16.4602 7.0393L17.7689 11.9378C17.9199 12.4933 18.5239 12.8468 19.0776 12.6953C19.6312 12.5438 19.9836 11.9378 19.8326 11.3823L18.9266 7.9483C18.9266 7.8978 18.9266 7.8978 18.9266 7.8473C18.2722 5.6758 19.5306 3.4538 21.6949 2.8983C23.8089 2.3428 26.0236 3.6053 26.5772 5.7263C27.1309 7.8473 25.8726 10.0188 23.7586 10.6248ZM24.2619 6.6858C24.2619 7.5443 23.5572 8.2513 22.7016 8.2513C21.8459 8.2513 21.1412 7.5443 21.1412 6.6858C21.1412 5.8273 21.8459 5.1203 22.7016 5.1203C23.5572 5.1203 24.2619 5.8273 24.2619 6.6858Z" fill="#009BDE"/>
<path d="M97.0943 15.8768C99.2586 18.0988 100.366 20.9268 100.366 24.3103C100.366 27.6938 99.309 30.5218 97.1446 32.7438C94.9803 34.9658 92.4133 36.0768 89.494 36.0768C86.5746 36.0768 84.1586 35.2688 82.1453 33.6528V43.0458H78.018C77.0616 43.0458 76.3066 42.2883 76.3066 41.3288V13.2003H80.3836C81.3903 13.2003 82.1453 14.0083 82.1453 14.9678C84.1083 13.3518 86.5243 12.4933 89.494 12.4933C92.363 12.5438 94.93 13.6548 97.0943 15.8768ZM92.9166 29.2088C94.0743 27.9968 94.6783 26.3808 94.6783 24.3608C94.6783 22.3408 94.0743 20.7248 92.9166 19.5128C91.759 18.3008 90.249 17.6948 88.437 17.6948C86.776 17.6948 85.3163 18.3008 84.058 19.5633C82.7996 20.8258 82.1453 22.4418 82.1453 24.3608C82.1453 26.3303 82.7996 27.9463 84.058 29.1583C85.3163 30.3703 86.776 31.0268 88.437 31.0268C90.249 30.9763 91.759 30.4208 92.9166 29.2088Z" fill="#FF5000"/>
<path d="M122.764 25.5728H108.017C108.319 27.1383 108.973 28.3503 109.98 29.2593C110.986 30.1683 112.144 30.6228 113.503 30.6228C115.567 30.6228 117.177 29.9663 118.285 28.6028C118.738 28.0978 119.392 27.7948 120.046 27.9463L124.073 28.8048C123.117 31.0268 121.758 32.6933 119.946 33.8548C118.134 35.0163 115.969 35.5718 113.503 35.5718C110.382 35.5718 107.715 34.5113 105.55 32.3398C103.386 30.1683 102.329 27.3908 102.329 24.0073C102.329 20.6238 103.436 17.8463 105.601 15.6748C107.765 13.5033 110.433 12.3923 113.604 12.3923C116.573 12.3923 119.14 13.4528 121.254 15.5233C123.419 17.5938 124.526 20.2703 124.627 23.5528V23.6538C124.627 24.7143 123.771 25.5728 122.764 25.5728ZM110.231 18.5028C109.174 19.2098 108.52 20.2198 108.218 21.4823H118.738C118.385 20.1188 117.731 19.1088 116.825 18.4523C115.919 17.7958 114.812 17.4423 113.604 17.4423C112.396 17.4423 111.288 17.7958 110.231 18.5028Z" fill="#FF5000"/>
<path d="M142.092 12.9983L141.841 17.2908C141.79 17.9978 141.237 18.5533 140.482 18.5533C135.297 18.5533 132.73 21.6843 132.73 27.9463V35.0163H128.855C127.798 35.0163 126.992 34.1578 126.992 33.1478V13.1498H130.868C131.925 13.1498 132.73 14.0083 132.73 15.0183V17.1393C134.693 14.2608 137.311 12.8468 140.532 12.8468C141.237 12.8468 141.74 12.8973 142.092 12.9983Z" fill="#FF5000"/>
<path d="M33.2216 28.3503C34.0269 28.1988 34.8323 28.5523 35.1846 29.2593C35.8389 30.4208 37.1979 31.0268 39.3119 31.0268C40.3689 31.0268 41.1743 30.8248 41.7783 30.4208C42.3823 30.0168 42.6843 29.4613 42.6843 28.8553C42.6843 27.8958 41.8789 27.2393 40.2683 26.8858L35.7886 25.9768C33.8256 25.5728 32.2653 24.8153 31.2083 23.7548C30.1513 22.6943 29.5976 21.3308 29.5976 19.7653C29.5976 17.6443 30.4029 15.8768 32.0136 14.5638C33.6243 13.2003 35.7886 12.5438 38.5066 12.5438C41.0233 12.5438 43.1373 13.1498 44.8486 14.3618C46.5599 15.5738 47.6169 17.1393 47.9693 19.0583L44.1943 19.7653C43.4393 19.9168 42.6339 19.5633 42.2313 18.8563C42.0299 18.5028 41.7279 18.1493 41.3253 17.8463C40.5703 17.2908 39.6139 17.0383 38.4563 17.0383C37.3993 17.0383 36.6443 17.2403 36.1913 17.6948C35.7383 18.0988 35.4866 18.6038 35.4866 19.2098C35.4866 20.1693 36.1409 20.7753 37.4496 21.0278L42.6339 22.1893C44.4963 22.5933 45.9056 23.3508 46.9123 24.4618C47.8686 25.5728 48.3719 26.8858 48.3719 28.4008C48.3719 30.7743 47.5163 32.5923 45.7546 33.8548C44.0433 35.1173 41.6776 35.7233 38.8086 35.7233C36.2416 35.7233 34.0269 35.1678 32.1646 34.1073C30.3526 33.0468 29.2956 31.4308 29.0439 29.2593L33.2216 28.3503Z" fill="#FF5000"/>
<path d="M62.1131 35.6223H62.0627C55.1671 35.5718 49.5801 29.9158 49.5801 22.9973C49.5801 21.4318 50.8384 20.2198 52.3987 20.2198C53.9591 20.2198 55.2174 21.4823 55.1671 23.0478C55.1671 26.8858 58.2374 30.0168 62.0627 30.0168C63.9251 30.0168 65.6364 29.3098 66.9451 27.9968C68.2537 26.6838 69.0088 24.9668 69.0088 23.0983C69.0088 21.5328 70.2671 20.2703 71.8274 20.3208C73.3877 20.3208 74.6461 21.5833 74.5957 23.1488C74.5957 30.0673 68.9584 35.6223 62.1131 35.6223Z" fill="#FF5000"/>
<path d="M54.8151 17.4928C54.2614 16.9373 54.0098 16.2808 54.0098 15.4223C54.0098 14.6143 54.2614 13.9578 54.8151 13.4023C55.3688 12.8468 56.0734 12.5438 56.8788 12.5438C57.7344 12.5438 58.3888 12.8468 58.9928 13.4023C59.5464 13.9578 59.8484 14.6648 59.8484 15.4223C59.8484 16.2808 59.5968 16.9373 59.0431 17.4928C58.4894 18.0483 57.7848 18.3008 56.9291 18.3008C56.0734 18.3008 55.3688 18.0483 54.8151 17.4928Z" fill="#FF5000"/>
<path d="M65.234 17.4928C64.6804 16.9373 64.4287 16.2808 64.4287 15.4223C64.4287 14.6143 64.6804 13.9578 65.234 13.4023C65.7877 12.8468 66.4924 12.5438 67.2977 12.5438C68.103 12.5438 68.8077 12.8468 69.4117 13.4023C70.0157 13.9578 70.2674 14.6648 70.2674 15.4223C70.2674 16.2808 70.0157 16.9373 69.462 17.4928C68.9084 18.0483 68.2037 18.3008 67.348 18.3008C66.442 18.3008 65.7877 18.0483 65.234 17.4928Z" fill="#FF5000"/>
<path d="M55.6192 68.2958C62.0406 68.2958 67.2462 63.073 67.2462 56.6303C67.2462 50.1876 62.0406 44.9648 55.6192 44.9648C49.1978 44.9648 43.9922 50.1876 43.9922 56.6303C43.9922 63.073 49.1978 68.2958 55.6192 68.2958Z" fill="#009BDE"/>
<path d="M75.9541 68.3968C81.6527 68.3968 86.2724 63.7618 86.2724 58.0443C86.2724 52.3267 81.6527 47.6918 75.9541 47.6918C70.2554 47.6918 65.6357 52.3267 65.6357 58.0443C65.6357 63.7618 70.2554 68.3968 75.9541 68.3968Z" fill="#009BDE"/>
<path d="M96.4395 68.2958C102.861 68.2958 108.066 63.073 108.066 56.6303C108.066 50.1876 102.861 44.9648 96.4395 44.9648C90.0181 44.9648 84.8125 50.1876 84.8125 56.6303C84.8125 63.073 90.0181 68.2958 96.4395 68.2958Z" fill="#009BDE"/>
<path d="M116.774 68.3968C122.473 68.3968 127.093 63.7618 127.093 58.0443C127.093 52.3267 122.473 47.6918 116.774 47.6918C111.076 47.6918 106.456 52.3267 106.456 58.0443C106.456 63.7618 111.076 68.3968 116.774 68.3968Z" fill="#009BDE"/>
<path d="M80.1316 53.9033C81.2893 54.9638 81.843 56.3778 81.843 58.0443C81.843 59.7108 81.2893 61.1248 80.1316 62.1853C78.974 63.2458 77.5646 63.8013 75.954 63.8013C74.293 63.8013 72.8836 63.2458 71.726 62.1853C70.5683 61.1248 70.0146 59.7108 70.0146 58.0443C70.0146 56.3778 70.5683 54.9638 71.726 53.9033C72.8836 52.8428 74.293 52.2873 75.954 52.2873C77.615 52.2873 79.0243 52.7923 80.1316 53.9033ZM78.1183 60.4178C78.7726 59.8118 79.0746 59.0038 79.0746 58.0443C79.0746 57.0848 78.7726 56.2768 78.1183 55.6708C77.464 55.0648 76.7593 54.7618 75.954 54.7618C75.0983 54.7618 74.3936 55.0648 73.7393 55.6708C73.085 56.2768 72.783 57.0848 72.783 58.0443C72.783 59.0543 73.085 59.8118 73.7393 60.4178C74.3936 61.0238 75.0983 61.3268 75.954 61.3268C76.7593 61.3268 77.5143 61.0238 78.1183 60.4178Z" fill="white"/>
<path d="M120.952 53.9033C122.11 54.9638 122.663 56.3778 122.663 58.0443C122.663 59.7108 122.11 61.1248 120.952 62.1853C119.794 63.2458 118.385 63.8013 116.774 63.8013C115.113 63.8013 113.704 63.2458 112.546 62.1853C111.389 61.1248 110.835 59.7108 110.835 58.0443C110.835 56.3778 111.389 54.9638 112.546 53.9033C113.704 52.8428 115.113 52.2873 116.774 52.2873C118.435 52.2873 119.845 52.7923 120.952 53.9033ZM118.939 60.4178C119.593 59.8118 119.895 59.0038 119.895 58.0443C119.895 57.0848 119.593 56.2768 118.939 55.6708C118.284 55.0648 117.58 54.7618 116.774 54.7618C115.919 54.7618 115.214 55.0648 114.56 55.6708C113.905 56.2768 113.603 57.0848 113.603 58.0443C113.603 59.0543 113.905 59.8118 114.56 60.4178C115.214 61.0238 115.919 61.3268 116.774 61.3268C117.58 61.3268 118.335 61.0238 118.939 60.4178Z" fill="white"/>
<path d="M100.517 61.6803C100.668 62.1348 100.466 62.6903 99.9631 62.8923C99.2584 63.1953 98.5537 63.3468 97.8994 63.3468C96.5404 63.3468 95.4834 62.9933 94.7284 62.2358C93.9734 61.5288 93.5708 60.4178 93.5708 58.9533V54.4083H92.1614C91.6581 54.4083 91.2051 54.0043 91.2051 53.4488V52.0348H93.5708V48.7018H95.5337C96.0371 48.7018 96.4901 49.1058 96.4901 49.6613V52.0348H99.1074C99.6108 52.0348 100.064 52.4388 100.064 52.9943V54.4083H96.5404V58.7513C96.5404 60.0138 97.0941 60.6703 98.1511 60.6703C98.7047 60.6703 99.3087 60.5188 99.9631 60.1653L100.517 61.6803Z" fill="white"/>
<path d="M59.1428 62.2358C59.2938 62.7408 59.0925 63.2458 58.5891 63.4478C57.8845 63.7508 57.1798 63.9023 56.5255 63.9023C55.1665 63.9023 54.0591 63.5488 53.3041 62.7913C52.4988 62.0338 52.1465 60.9228 52.1465 59.4078V54.7618V52.3378L52.1968 48.0453H54.2102C54.7638 48.0453 55.1665 48.4493 55.1665 49.0048L55.1161 52.3378V54.7618V59.2058C55.1161 60.5188 55.6698 61.1248 56.7771 61.1248C57.3308 61.1248 57.9851 60.9228 58.6395 60.5693L59.1428 62.2358Z" fill="white"/>
</svg>
