<svg width="120" height="29" viewBox="0 0 120 29" fill="none" xmlns="http://www.w3.org/2000/svg">
<path fill-rule="evenodd" clip-rule="evenodd" d="M18.6157 7.41855C18.6157 7.80389 18.2995 8.11581 17.9095 8.11581C17.5201 8.11581 17.2045 7.80389 17.2045 7.41855C17.2045 7.03321 17.5201 6.72072 17.9095 6.72072C18.2995 6.72072 18.6157 7.03321 18.6157 7.41855ZM18.3859 9.14207C18.2603 9.17622 17.9101 9.26957 17.9101 9.26957C17.9101 9.26957 17.9959 9.58035 18.0339 9.72151C18.5564 11.6488 17.3951 13.6364 15.4448 14.1527C14.5002 14.4031 13.514 14.2745 12.6667 13.7907C11.82 13.308 11.2135 12.5276 10.9612 11.5941C10.9606 11.5936 10.9606 11.593 10.9606 11.593C10.9606 11.5924 10.96 11.5919 10.96 11.5913L9.32248 5.69221C9.82936 5.65407 10.3357 5.76791 10.7849 6.02405C11.3759 6.36101 11.7976 6.90458 11.9744 7.55517C11.9819 7.58363 11.9922 7.61038 12.0043 7.63656L12.7906 10.474C12.8476 10.6834 13.0394 10.8212 13.2491 10.8212C13.29 10.8212 13.3314 10.8155 13.3729 10.8041C13.6269 10.7364 13.7767 10.4785 13.7076 10.2287L12.4565 5.69278C12.9634 5.65407 13.4697 5.76734 13.9207 6.02405C14.5105 6.36101 14.9327 6.90458 15.109 7.55517L15.6959 9.70329C15.7639 9.95374 16.0243 10.1023 16.2777 10.0357C16.5317 9.96797 16.6821 9.71069 16.6135 9.46025L16.2005 7.95132C16.1982 7.93425 16.1948 7.91831 16.1901 7.90181C15.9361 6.96435 16.5006 5.99729 17.4499 5.74628C18.398 5.4947 19.3766 6.05364 19.6312 6.99053C19.8835 7.92343 19.3265 8.88992 18.3859 9.14207ZM20.5488 6.74748C20.1594 5.30971 18.6584 4.45365 17.2034 4.83899C16.4385 5.04105 15.836 5.5482 15.4932 6.19195C15.2064 5.7958 14.8354 5.46168 14.396 5.21067C13.5855 4.74849 12.6415 4.62611 11.7383 4.86517C11.6162 4.89705 11.2781 4.98812 11.2781 4.98812C11.2781 4.98812 11.3316 5.17993 11.3547 5.26645C11.3126 5.24027 11.304 5.23515 11.2602 5.21067C10.4503 4.74849 9.50685 4.62611 8.6031 4.86517C8.48445 4.89591 8.17801 4.97901 8.16016 4.98356L9.49015 9.8473L10.0437 11.84V11.8406C10.3634 13.0148 11.1254 13.9967 12.1916 14.6046C12.9024 15.0099 13.6909 15.217 14.4898 15.217C14.8907 15.217 15.2939 15.1647 15.6914 15.0599C18.0046 14.4475 19.4371 12.1907 19.0454 9.90194C19.5604 9.67085 19.9884 9.28892 20.2764 8.796C20.641 8.17103 20.7383 7.44417 20.5488 6.74748Z" fill="white"/>
<path fill-rule="evenodd" clip-rule="evenodd" d="M18.6157 7.41855C18.6157 7.80389 18.2995 8.11581 17.9095 8.11581C17.5201 8.11581 17.2045 7.80389 17.2045 7.41855C17.2045 7.03321 17.5201 6.72072 17.9095 6.72072C18.2995 6.72072 18.6157 7.03321 18.6157 7.41855ZM18.3859 9.14207C18.2603 9.17622 17.9101 9.26957 17.9101 9.26957C17.9101 9.26957 17.9959 9.58035 18.0339 9.72151C18.5564 11.6488 17.3951 13.6364 15.4448 14.1527C14.5002 14.4031 13.514 14.2745 12.6667 13.7907C11.82 13.308 11.2135 12.5276 10.9612 11.5941C10.9606 11.5936 10.9606 11.593 10.9606 11.593C10.9606 11.5924 10.96 11.5919 10.96 11.5913L9.32248 5.69221C9.82936 5.65407 10.3357 5.76791 10.7849 6.02405C11.3759 6.36101 11.7976 6.90458 11.9744 7.55517C11.9819 7.58363 11.9922 7.61038 12.0043 7.63656L12.7906 10.474C12.8476 10.6834 13.0394 10.8212 13.2491 10.8212C13.29 10.8212 13.3314 10.8155 13.3729 10.8041C13.6269 10.7364 13.7767 10.4785 13.7076 10.2287L12.4565 5.69278C12.9634 5.65407 13.4697 5.76734 13.9207 6.02405C14.5105 6.36101 14.9327 6.90458 15.109 7.55517L15.6959 9.70329C15.7639 9.95374 16.0243 10.1023 16.2777 10.0357C16.5317 9.96797 16.6821 9.71069 16.6135 9.46025L16.2005 7.95132C16.1982 7.93425 16.1948 7.91831 16.1901 7.90181C15.9361 6.96435 16.5006 5.99729 17.4499 5.74628C18.398 5.4947 19.3766 6.05364 19.6312 6.99053C19.8835 7.92343 19.3265 8.88992 18.3859 9.14207ZM20.5488 6.74748C20.1594 5.30971 18.6584 4.45365 17.2034 4.83899C16.4385 5.04105 15.836 5.5482 15.4932 6.19195C15.2064 5.7958 14.8354 5.46168 14.396 5.21067C13.5855 4.74849 12.6415 4.62611 11.7383 4.86517C11.6162 4.89705 11.2781 4.98812 11.2781 4.98812C11.2781 4.98812 11.3316 5.17993 11.3547 5.26645C11.3126 5.24027 11.304 5.23515 11.2602 5.21067C10.4503 4.74849 9.50685 4.62611 8.6031 4.86517C8.48445 4.89591 8.17801 4.97901 8.16016 4.98356L9.49015 9.8473L10.0437 11.84V11.8406C10.3634 13.0148 11.1254 13.9967 12.1916 14.6046C12.9024 15.0099 13.6909 15.217 14.4898 15.217C14.8907 15.217 15.2939 15.1647 15.6914 15.0599C18.0046 14.4475 19.4371 12.1907 19.0454 9.90194C19.5604 9.67085 19.9884 9.28892 20.2764 8.796C20.641 8.17103 20.7383 7.44417 20.5488 6.74748Z" fill="white"/>
<path fill-rule="evenodd" clip-rule="evenodd" d="M49.729 17.6851C50.2682 17.1387 50.5372 16.4073 50.5372 15.4903C50.5372 14.5728 50.2682 13.838 49.729 13.2853C49.1899 12.7326 48.5039 12.4554 47.6721 12.4554C46.9078 12.4554 46.2321 12.7394 45.6452 13.3058C45.0582 13.8721 44.7651 14.6001 44.7651 15.4903C44.7651 16.38 45.0582 17.1051 45.6452 17.6647C46.2321 18.2242 46.9078 18.5042 47.6721 18.5042C48.5039 18.5042 49.1899 18.231 49.729 17.6851ZM51.6535 11.6568C52.6563 12.6746 53.158 13.9524 53.158 15.4903C53.158 17.0277 52.6598 18.3021 51.6633 19.313C50.6674 20.325 49.4935 20.8305 48.1428 20.8305C46.8053 20.8305 45.6792 20.4668 44.7651 19.7382V23.9662H42.8608C42.4202 23.9662 42.0625 23.6127 42.0625 23.1767V10.4331H43.946C44.3982 10.4331 44.7651 10.7957 44.7651 11.2425C45.6654 10.5002 46.7909 10.1297 48.1428 10.1297C49.4797 10.1297 50.6507 10.6386 51.6535 11.6568Z" fill="white"/>
<path fill-rule="evenodd" clip-rule="evenodd" d="M57.7094 12.8431C57.233 13.1613 56.9214 13.6121 56.7739 14.1949H61.6216C61.4609 13.5853 61.1654 13.1277 60.7368 12.8232C60.3077 12.5187 59.8112 12.3661 59.2479 12.3661C58.6984 12.3661 58.1851 12.5249 57.7094 12.8431ZM63.4751 16.0431H56.6932C56.828 16.7455 57.1258 17.3056 57.5883 17.7228C58.0514 18.1406 58.5906 18.3489 59.2081 18.3489C60.1579 18.3489 60.8929 18.0455 61.4153 17.4376C61.6152 17.2043 61.9181 17.0824 62.2211 17.1462L64.0758 17.5338C63.6467 18.5413 63.0097 19.3034 62.1647 19.8203C61.3203 20.3371 60.3341 20.5955 59.2081 20.5955C57.7594 20.5955 56.5394 20.1048 55.547 19.1241C54.554 18.144 54.0586 16.8849 54.0586 15.3476C54.0586 13.8102 54.5574 12.5483 55.5568 11.5613C56.5561 10.5743 57.7865 10.0803 59.2478 10.0803C60.6158 10.0803 61.7926 10.5544 62.7781 11.5015C63.7642 12.4492 64.2832 13.6645 64.3374 15.1489V15.1916C64.3374 15.6617 63.9514 16.0431 63.4751 16.0431Z" fill="white"/>
<path fill-rule="evenodd" clip-rule="evenodd" d="M72.37 10.3435L72.2617 12.2924C72.2433 12.6151 71.9737 12.8684 71.646 12.8684C69.259 12.8684 68.0655 14.2863 68.0655 17.1214V20.322H66.2724C65.7961 20.322 65.4102 19.9406 65.4102 19.4699V10.4032H67.2033C67.6796 10.4032 68.0655 10.7846 68.0655 11.2553V12.2121C68.9773 10.9132 70.1771 10.2638 71.6661 10.2638C71.9743 10.2638 72.2093 10.2905 72.37 10.3435Z" fill="white"/>
<path fill-rule="evenodd" clip-rule="evenodd" d="M22.2502 17.3094C22.6096 17.2371 22.9857 17.3925 23.1614 17.7107C23.4563 18.2463 24.0888 18.5132 25.0599 18.5132C25.5426 18.5132 25.9251 18.4205 26.2062 18.2349C26.4878 18.0494 26.6289 17.8109 26.6289 17.5194C26.6289 17.0823 26.2603 16.7835 25.5224 16.6247L23.4707 16.2069C22.5589 16.0219 21.8579 15.6844 21.3689 15.1937C20.8793 14.7037 20.6345 14.1003 20.6345 13.3848C20.6345 12.4172 21.0066 11.6295 21.7514 11.0193C22.495 10.4102 23.4909 10.1052 24.7379 10.1052C25.9049 10.1052 26.8801 10.3767 27.6646 10.9197C28.4497 11.4633 28.9289 12.1725 29.1029 13.0473L27.2942 13.4019C26.9348 13.4719 26.569 13.3114 26.3864 12.9978C26.2868 12.8276 26.1497 12.6785 25.9752 12.5504C25.633 12.2983 25.1935 12.1725 24.6579 12.1725C24.1746 12.1725 23.8261 12.2687 23.6113 12.4605C23.397 12.6523 23.2899 12.8817 23.2899 13.1469C23.2899 13.5704 23.5911 13.8487 24.1948 13.9808L26.5886 14.4982C27.4463 14.6837 28.1006 15.0247 28.5499 15.5216C28.9992 16.0185 29.2233 16.6116 29.2233 17.3003C29.2233 18.3738 28.8247 19.1951 28.0263 19.7649C27.2291 20.3352 26.1595 20.6198 24.8186 20.6198C23.6251 20.6198 22.6056 20.3785 21.7606 19.8947C20.9162 19.4109 20.4335 18.6789 20.3125 17.6987L22.2502 17.3094Z" fill="white"/>
<path fill-rule="evenodd" clip-rule="evenodd" d="M35.5459 20.6095H35.5142C32.3329 20.593 29.7582 18.0214 29.7755 14.8777C29.7789 14.1742 30.3572 13.6073 31.068 13.6073H31.0749C31.7892 13.6107 32.3646 14.1862 32.3606 14.8908C32.3508 16.6269 33.7724 18.0458 35.528 18.0555C36.3816 18.0584 37.18 17.7368 37.7854 17.1454C38.3896 16.554 38.7254 15.7657 38.7294 14.925C38.7335 14.2192 39.3129 13.65 40.0289 13.6545C40.7431 13.6585 41.318 14.2334 41.3151 14.9392C41.2972 18.072 38.7127 20.6095 35.5459 20.6095Z" fill="white"/>
<path fill-rule="evenodd" clip-rule="evenodd" d="M32.1877 12.3863C31.9348 12.141 31.8081 11.8296 31.8081 11.4511C31.8081 11.0948 31.9348 10.7891 32.1877 10.533C32.4411 10.2774 32.7597 10.1494 33.1421 10.1494C33.5252 10.1494 33.846 10.2803 34.1052 10.5415C34.3638 10.8034 34.4934 11.1062 34.4934 11.4511C34.4934 11.8296 34.3667 12.141 34.1138 12.3863C33.8598 12.631 33.5367 12.7534 33.1421 12.7534C32.7597 12.7534 32.4411 12.631 32.1877 12.3863Z" fill="white"/>
<path fill-rule="evenodd" clip-rule="evenodd" d="M36.9768 12.3863C36.7234 12.141 36.5967 11.8296 36.5967 11.4511C36.5967 11.0948 36.7234 10.7891 36.9768 10.533C37.2297 10.2774 37.5482 10.1494 37.9307 10.1494C38.3137 10.1494 38.6346 10.2803 38.8938 10.5415C39.1524 10.8034 39.2826 11.1062 39.2826 11.4511C39.2826 11.8296 39.1553 12.141 38.9024 12.3863C38.649 12.631 38.3253 12.7534 37.9307 12.7534C37.5482 12.7534 37.2297 12.631 36.9768 12.3863Z" fill="white"/>
<path fill-rule="evenodd" clip-rule="evenodd" d="M88.2981 14.6213C87.9133 14.6213 87.5741 14.7573 87.2803 15.0311C86.9877 15.3043 86.8408 15.6646 86.8408 16.1108C86.8408 16.5577 86.9877 16.918 87.2803 17.1912C87.5741 17.4644 87.9133 17.601 88.2981 17.601C88.6691 17.601 88.9997 17.4627 89.29 17.186C89.5803 16.91 89.7254 16.5514 89.7254 16.1108C89.7254 15.6714 89.5803 15.3128 89.29 15.0362C88.9997 14.759 88.6691 14.6213 88.2981 14.6213Z" fill="white"/>
<path fill-rule="evenodd" clip-rule="evenodd" d="M90.2256 17.9964C89.6957 18.4859 89.0534 18.7312 88.2977 18.7312C87.5282 18.7312 86.8779 18.4859 86.3445 17.9964C85.8117 17.5063 85.545 16.8779 85.545 16.1106C85.545 15.3445 85.8117 14.7155 86.3445 14.226C86.8779 13.736 87.5282 13.4906 88.2977 13.4906C89.0534 13.4906 89.6957 13.736 90.2256 14.226C90.7555 14.7155 91.0205 15.3445 91.0205 16.1106C91.0205 16.8779 90.7555 17.5063 90.2256 17.9964ZM88.2825 11.4074C85.6537 11.4074 83.5225 13.5134 83.5225 16.1106C83.5225 18.709 85.6537 20.8144 88.2825 20.8144C90.9108 20.8144 93.0426 18.709 93.0426 16.1106C93.0426 13.5134 90.9108 11.4074 88.2825 11.4074Z" fill="white"/>
<path fill-rule="evenodd" clip-rule="evenodd" d="M107.095 14.6213C106.711 14.6213 106.372 14.7573 106.078 15.0311C105.785 15.3043 105.638 15.6646 105.638 16.1108C105.638 16.5577 105.785 16.918 106.078 17.1912C106.372 17.4644 106.711 17.601 107.095 17.601C107.467 17.601 107.797 17.4627 108.087 17.186C108.378 16.91 108.523 16.5514 108.523 16.1108C108.523 15.6714 108.378 15.3128 108.087 15.0362C107.797 14.759 107.467 14.6213 107.095 14.6213Z" fill="white"/>
<mask id="mask0_7718_7414" style="mask-type:luminance" maskUnits="userSpaceOnUse" x="102" y="11" width="10" height="10">
<path fill-rule="evenodd" clip-rule="evenodd" d="M102.32 11.4074H111.84V20.8144H102.32V11.4074Z" fill="white"/>
</mask>
<g mask="url(#mask0_7718_7414)">
<path fill-rule="evenodd" clip-rule="evenodd" d="M109.023 17.9964C108.494 18.4859 107.851 18.7312 107.096 18.7312C106.326 18.7312 105.676 18.4859 105.143 17.9964C104.609 17.5063 104.343 16.8779 104.343 16.1106C104.343 15.3445 104.609 14.7155 105.143 14.226C105.676 13.736 106.326 13.4906 107.096 13.4906C107.851 13.4906 108.494 13.736 109.023 14.226C109.553 14.7155 109.818 15.3445 109.818 16.1106C109.818 16.8779 109.553 17.5063 109.023 17.9964ZM107.08 11.4074C104.452 11.4074 102.32 13.5134 102.32 16.1106C102.32 18.709 104.452 20.8144 107.08 20.8144C109.709 20.8144 111.84 18.709 111.84 16.1106C111.84 13.5134 109.709 11.4074 107.08 11.4074Z" fill="white"/>
</g>
<path fill-rule="evenodd" clip-rule="evenodd" d="M99.349 18.2932C99.0219 18.4236 98.7085 18.4885 98.409 18.4885C97.7886 18.4885 97.3025 18.3234 96.9523 17.9938C96.6009 17.6637 96.4258 17.1651 96.4258 16.4986V14.4279H95.7767C95.537 14.4279 95.3429 14.236 95.3429 13.9993V13.3481H96.4258V11.8375H97.3278C97.5675 11.8375 97.7616 12.0299 97.7616 12.2661V13.3481H98.9775C99.2171 13.3481 99.4112 13.5393 99.4112 13.7761V14.4279H97.7616V16.3984C97.7616 16.9716 98.0081 17.2584 98.5 17.2584C98.7569 17.2584 99.0368 17.1782 99.3404 17.0182L99.5979 17.7542C99.6733 17.9705 99.5633 18.2078 99.349 18.2932ZM97.7332 10.1766C94.7754 10.1766 92.377 12.5461 92.377 15.47C92.377 18.3934 94.7754 20.763 97.7332 20.763C100.692 20.763 103.089 18.3934 103.089 15.47C103.089 12.5461 100.692 10.1766 97.7332 10.1766Z" fill="white"/>
<path fill-rule="evenodd" clip-rule="evenodd" d="M80.3012 18.56C79.9665 18.6943 79.6469 18.7621 79.341 18.7632C78.7062 18.7655 78.2086 18.5987 77.8486 18.2629C77.4886 17.9265 77.3077 17.4171 77.3054 16.7358L77.2968 14.6184L77.2927 13.5141L77.3152 11.5664L78.238 11.563C78.4833 11.5618 78.6821 11.7576 78.6832 11.9995L78.659 13.509L78.663 14.6132L78.6705 16.6282C78.6728 17.2145 78.9257 17.5064 79.4291 17.5047C79.6918 17.5042 79.9775 17.4211 80.2879 17.2566L80.5535 18.0079C80.6318 18.2287 80.5201 18.4724 80.3012 18.56ZM78.9359 10.1764C75.9776 10.1764 73.5791 12.5465 73.5791 15.4699C73.5791 18.3932 75.9776 20.7628 78.9359 20.7628C81.8943 20.7628 84.2922 18.3932 84.2922 15.4699C84.2922 12.5465 81.8943 10.1764 78.9359 10.1764Z" fill="white"/>
</svg>
