<svg width="106" height="20" viewBox="0 0 106 20" fill="none" xmlns="http://www.w3.org/2000/svg">
<mask id="mask0_3342_13776" style="mask-type:luminance" maskUnits="userSpaceOnUse" x="0" y="0" width="14" height="12">
<path fill-rule="evenodd" clip-rule="evenodd" d="M0.200195 0.508484H13.1281V11.3573H0.200195V0.508484Z" fill="white"/>
</mask>
<g mask="url(#mask0_3342_13776)">
<path fill-rule="evenodd" clip-rule="evenodd" d="M11.0282 3.27774C11.0282 3.67627 10.7008 3.99997 10.2971 3.99997C9.89346 3.99997 9.56665 3.67627 9.56665 3.27774C9.56665 2.87864 9.89346 2.55494 10.2971 2.55494C10.7008 2.55494 11.0282 2.87864 11.0282 3.27774ZM10.7898 5.06386C10.6601 5.09866 10.298 5.19554 10.298 5.19554C10.298 5.19554 10.386 5.5175 10.4259 5.6631C10.967 7.65979 9.76404 9.71914 7.74427 10.254C6.76607 10.5133 5.74445 10.3805 4.86718 9.87983C3.9905 9.3792 3.36262 8.57113 3.10032 7.6041C3.10032 7.60352 3.10032 7.60294 3.09973 7.60236V7.6012L1.40446 1.4893C1.92848 1.44985 2.45308 1.56703 2.919 1.83272C3.53044 2.18194 3.96761 2.74521 4.15011 3.41928C4.15832 3.44829 4.16947 3.47671 4.18179 3.5034L4.9951 6.44333C5.05437 6.66029 5.25329 6.80299 5.46982 6.80299C5.51266 6.80299 5.55608 6.79719 5.59892 6.78559C5.86122 6.7154 6.01614 6.44797 5.94513 6.18867L4.64889 1.4893C5.17408 1.44985 5.69926 1.56645 6.16577 1.83272C6.77663 2.18194 7.2138 2.74521 7.39688 3.41928L8.00422 5.64512C8.07464 5.90442 8.34456 6.05815 8.60686 5.98853C8.86975 5.9195 9.02525 5.65266 8.95542 5.39277L8.52647 3.82941C8.52413 3.81201 8.52119 3.79519 8.51591 3.77836C8.25302 2.8067 8.83806 1.80487 9.82037 1.54499C10.8027 1.28452 11.8161 1.86288 12.0796 2.83396C12.3413 3.80041 11.7644 4.80165 10.7898 5.06386ZM13.0306 2.58209C12.6269 1.09298 11.0725 0.206013 9.56613 0.60454C8.77336 0.814535 8.14959 1.33952 7.79458 2.00663C7.49766 1.59651 7.1133 1.24961 6.65794 0.990304C5.81882 0.511144 4.84179 0.384103 3.90585 0.631804C3.7791 0.66545 3.42936 0.759426 3.42936 0.759426C3.42936 0.759426 3.48511 0.957819 3.50858 1.04773C3.46516 1.02047 3.45636 1.01525 3.41176 0.990304C2.57263 0.511144 1.59502 0.384103 0.659074 0.631804C0.535846 0.66429 0.218973 0.750144 0.200195 0.754785L1.57859 5.79351L2.15072 7.85808L2.15131 7.85866C2.48227 9.0757 3.27151 10.0926 4.37529 10.7226C5.11172 11.1426 5.92855 11.3572 6.75594 11.3572C7.17081 11.3572 7.58861 11.3033 7.99996 11.1942C10.3959 10.5596 11.8793 8.22122 11.4738 5.85036C12.0066 5.61078 12.4497 5.21515 12.7484 4.70409C13.1257 4.05728 13.226 3.30373 13.0306 2.58209Z" fill="white"/>
</g>
<mask id="mask1_3342_13776" style="mask-type:luminance" maskUnits="userSpaceOnUse" x="0" y="0" width="14" height="12">
<path fill-rule="evenodd" clip-rule="evenodd" d="M0.200195 0.508484H13.1281V11.3573H0.200195V0.508484Z" fill="white"/>
</mask>
<g mask="url(#mask1_3342_13776)">
<path fill-rule="evenodd" clip-rule="evenodd" d="M11.0282 3.27774C11.0282 3.67627 10.7008 3.99997 10.2971 3.99997C9.89346 3.99997 9.56665 3.67627 9.56665 3.27774C9.56665 2.87864 9.89346 2.55494 10.2971 2.55494C10.7008 2.55494 11.0282 2.87864 11.0282 3.27774ZM10.7898 5.06386C10.6601 5.09866 10.298 5.19554 10.298 5.19554C10.298 5.19554 10.386 5.5175 10.4259 5.6631C10.967 7.65979 9.76404 9.71914 7.74427 10.254C6.76607 10.5133 5.74445 10.3805 4.86718 9.87983C3.9905 9.3792 3.36262 8.57113 3.10032 7.6041C3.10032 7.60352 3.10032 7.60294 3.09973 7.60236V7.6012L1.40446 1.4893C1.92848 1.44985 2.45308 1.56703 2.919 1.83272C3.53044 2.18194 3.96761 2.74521 4.15011 3.41928C4.15832 3.44829 4.16947 3.47671 4.18179 3.5034L4.9951 6.44333C5.05437 6.66029 5.25329 6.80299 5.46982 6.80299C5.51266 6.80299 5.55608 6.79719 5.59892 6.78559C5.86122 6.7154 6.01614 6.44797 5.94513 6.18867L4.64889 1.4893C5.17408 1.44985 5.69926 1.56645 6.16577 1.83272C6.77663 2.18194 7.2138 2.74521 7.39688 3.41928L8.00422 5.64512C8.07464 5.90442 8.34456 6.05815 8.60686 5.98853C8.86975 5.9195 9.02525 5.65266 8.95542 5.39277L8.52647 3.82941C8.52413 3.81201 8.52119 3.79519 8.51591 3.77836C8.25302 2.8067 8.83806 1.80487 9.82037 1.54499C10.8027 1.28452 11.8161 1.86288 12.0796 2.83396C12.3413 3.80041 11.7644 4.80165 10.7898 5.06386ZM13.0306 2.58209C12.6269 1.09298 11.0725 0.206013 9.56613 0.60454C8.77336 0.814535 8.14959 1.33952 7.79458 2.00663C7.49766 1.59651 7.1133 1.24961 6.65794 0.990304C5.81882 0.511144 4.84179 0.384103 3.90585 0.631804C3.7791 0.66545 3.42936 0.759426 3.42936 0.759426C3.42936 0.759426 3.48511 0.957819 3.50858 1.04773C3.46516 1.02047 3.45636 1.01525 3.41176 0.990304C2.57263 0.511144 1.59502 0.384103 0.659074 0.631804C0.535846 0.66429 0.218973 0.750144 0.200195 0.754785L1.57859 5.79351L2.15072 7.85808L2.15131 7.85866C2.48227 9.0757 3.27151 10.0926 4.37529 10.7226C5.11172 11.1426 5.92855 11.3572 6.75594 11.3572C7.17081 11.3572 7.58861 11.3033 7.99996 11.1942C10.3959 10.5596 11.8793 8.22122 11.4738 5.85036C12.0066 5.61078 12.4497 5.21515 12.7484 4.70409C13.1257 4.05728 13.226 3.30373 13.0306 2.58209Z" fill="white"/>
</g>
<path fill-rule="evenodd" clip-rule="evenodd" d="M81.4438 10.7397C81.0454 10.7397 80.6945 10.8813 80.3899 11.1644C80.0866 11.448 79.9346 11.8205 79.9346 12.2834C79.9346 12.7463 80.0866 13.1193 80.3899 13.4024C80.6945 13.6861 81.0454 13.8276 81.4438 13.8276C81.8276 13.8276 82.1703 13.6843 82.4707 13.3972C82.7712 13.1106 82.922 12.7393 82.922 12.2834C82.922 11.8274 82.7712 11.4562 82.4707 11.1696C82.1703 10.883 81.8276 10.7397 81.4438 10.7397Z" fill="white"/>
<path fill-rule="evenodd" clip-rule="evenodd" d="M83.4401 14.2367C82.8914 14.7443 82.226 14.9978 81.4438 14.9978C80.6469 14.9978 79.9727 14.7443 79.4205 14.2367C78.8683 13.7291 78.5925 13.0777 78.5925 12.2835C78.5925 11.4894 78.8683 10.8379 79.4205 10.3304C79.9727 9.82277 80.6469 9.56869 81.4438 9.56869C82.226 9.56869 82.8914 9.82277 83.4401 10.3304C83.9888 10.8379 84.2628 11.4894 84.2628 12.2835C84.2628 13.0777 83.9888 13.7291 83.4401 14.2367ZM81.4272 7.41016C78.7056 7.41016 76.498 9.59248 76.498 12.2836C76.498 14.9746 78.7056 17.1564 81.4272 17.1564C84.1499 17.1564 86.3569 14.9746 86.3569 12.2836C86.3569 9.59248 84.1499 7.41016 81.4272 7.41016Z" fill="white"/>
<path fill-rule="evenodd" clip-rule="evenodd" d="M100.911 10.7397C100.512 10.7397 100.161 10.8813 99.8567 11.1644C99.5533 11.448 99.4014 11.8205 99.4014 12.2834C99.4014 12.7463 99.5533 13.1193 99.8567 13.4024C100.161 13.6861 100.512 13.8276 100.911 13.8276C101.294 13.8276 101.637 13.6843 101.938 13.3972C102.238 13.1106 102.388 12.7393 102.388 12.2834C102.388 11.8274 102.238 11.4562 101.938 11.1696C101.637 10.883 101.294 10.7397 100.911 10.7397Z" fill="white"/>
<mask id="mask2_3342_13776" style="mask-type:luminance" maskUnits="userSpaceOnUse" x="95" y="7" width="11" height="11">
<path fill-rule="evenodd" clip-rule="evenodd" d="M95.9658 7.41016H105.825V17.1564H95.9658V7.41016Z" fill="white"/>
</mask>
<g mask="url(#mask2_3342_13776)">
<path fill-rule="evenodd" clip-rule="evenodd" d="M102.908 14.2367C102.358 14.7443 101.693 14.9978 100.911 14.9978C100.114 14.9978 99.4402 14.7443 98.888 14.2367C98.3358 13.7291 98.06 13.0777 98.06 12.2835C98.06 11.4894 98.3358 10.8379 98.888 10.3304C99.4402 9.82277 100.114 9.56869 100.911 9.56869C101.693 9.56869 102.358 9.82277 102.908 10.3304C103.456 10.8379 103.73 11.4894 103.73 12.2835C103.73 13.0777 103.456 13.7291 102.908 14.2367ZM100.895 7.41016C98.1728 7.41016 95.9658 9.59248 95.9658 12.2836C95.9658 14.9746 98.1728 17.1564 100.895 17.1564C103.618 17.1564 105.825 14.9746 105.825 12.2836C105.825 9.59248 103.618 7.41016 100.895 7.41016Z" fill="white"/>
</g>
<path fill-rule="evenodd" clip-rule="evenodd" d="M92.8881 14.5443C92.5489 14.6789 92.225 14.7468 91.9152 14.7468C91.272 14.7468 90.7697 14.5757 90.4065 14.2334C90.0421 13.8917 89.8614 13.3754 89.8614 12.6846V10.5399H89.1883C88.9401 10.5399 88.74 10.341 88.74 10.0962V9.42092H89.8614V7.8564H90.7955C91.0432 7.8564 91.2444 8.05479 91.2444 8.30018V9.42092H92.5037C92.7519 9.42092 92.9526 9.61932 92.9526 9.8647V10.5399H91.2444V12.5807C91.2444 13.1753 91.4997 13.4717 92.0096 13.4717C92.2749 13.4717 92.5647 13.3888 92.8793 13.2235L93.1457 13.9857C93.2243 14.2096 93.1105 14.4562 92.8881 14.5443ZM91.215 6.13525C88.1519 6.13525 85.668 8.59023 85.668 11.6195C85.668 14.6476 88.1519 17.1032 91.215 17.1032C94.2787 17.1032 96.7626 14.6476 96.7626 11.6195C96.7626 8.59023 94.2787 6.13525 91.215 6.13525Z" fill="white"/>
<path fill-rule="evenodd" clip-rule="evenodd" d="M73.1612 14.8208C72.815 14.96 72.4841 15.0302 72.1672 15.0314C71.51 15.0337 70.9948 14.8608 70.6216 14.5122C70.2489 14.1641 70.0612 13.6368 70.0588 12.9303L70.05 10.7369L70.0459 9.59239L70.0694 7.57481L71.0247 7.57133C71.2788 7.57017 71.4853 7.7732 71.4865 8.02381L71.4613 9.58775L71.4648 10.7317L71.473 12.8195C71.4754 13.4268 71.7371 13.7296 72.2587 13.7279C72.5304 13.7267 72.8268 13.6409 73.1477 13.4698L73.4229 14.2488C73.5039 14.478 73.3883 14.7297 73.1612 14.8208ZM71.7472 6.13501C68.6835 6.13501 66.2002 8.59056 66.2002 11.6193C66.2002 14.6479 68.6835 17.1029 71.7472 17.1029C74.8109 17.1029 77.2943 14.6479 77.2943 11.6193C77.2943 8.59056 74.8109 6.13501 71.7472 6.13501Z" fill="white"/>
<path fill-rule="evenodd" clip-rule="evenodd" d="M40.6323 16.2368L41.1041 8.89972L42.5541 8.99079C42.9396 9.01516 43.2324 9.34349 43.2078 9.72404L42.7354 17.0611L41.2848 16.97C40.8999 16.9457 40.6077 16.6173 40.6323 16.2368Z" fill="white"/>
<path fill-rule="evenodd" clip-rule="evenodd" d="M57.7345 13.8082C58.2016 13.3621 58.4352 12.7849 58.4352 12.076C58.4352 11.3666 58.2016 10.7865 57.7345 10.3352C57.2668 9.88385 56.7287 9.65819 56.1202 9.65819C55.4571 9.65819 54.9108 9.87862 54.4819 10.3189C54.0529 10.7598 53.8376 11.3451 53.8376 12.076C53.8376 12.8064 54.0529 13.3894 54.4819 13.8244C54.9108 14.2595 55.4571 14.4771 56.1202 14.4771C56.7287 14.4771 57.2668 14.2543 57.7345 13.8082ZM60.6838 17.2662L58.9457 17.0637C58.5438 17.0173 58.2562 16.6565 58.3032 16.2585C57.3895 16.8264 56.3221 17.0393 55.1016 16.8972C53.8681 16.7539 52.8518 16.1669 52.052 15.1378C51.2528 14.1081 50.9371 12.8911 51.1037 11.4878C51.271 10.0834 51.8683 8.97018 52.8946 8.14645C53.921 7.32329 55.0441 6.98277 56.2652 7.12489C57.4987 7.26876 58.4857 7.72704 59.2274 8.50031L59.3154 7.76126L60.9814 7.95501C61.4238 8.00664 61.7401 8.40285 61.6879 8.83966L60.6838 17.2662Z" fill="white"/>
<path fill-rule="evenodd" clip-rule="evenodd" d="M28.6237 14.7044C29.0914 14.2583 29.3243 13.6811 29.3243 12.9722C29.3243 12.2628 29.0914 11.6827 28.6237 11.2314C28.1566 10.7801 27.6185 10.5544 27.01 10.5544C26.3469 10.5544 25.8 10.7748 25.3711 11.2151C24.9421 11.656 24.7273 12.2413 24.7273 12.9722C24.7273 13.7026 24.9421 14.2856 25.3711 14.7207C25.8 15.1557 26.3469 15.3733 27.01 15.3733C27.6185 15.3733 28.1566 15.1505 28.6237 14.7044ZM31.1722 17.2893L29.66 17.1814C29.3097 17.1565 29.0462 16.8554 29.072 16.5091C28.3027 17.0358 27.3879 17.2615 26.3252 17.1855C25.2519 17.1089 24.3494 16.6402 23.6165 15.7799C22.8836 14.9202 22.5621 13.8789 22.6512 12.6573C22.741 11.4356 23.2128 10.4488 24.069 9.69643C24.9245 8.94405 25.8839 8.60585 26.9466 8.68184C28.0199 8.75842 28.8925 9.11692 29.5649 9.75734L29.6119 9.1146L31.0613 9.21785C31.4468 9.24512 31.7361 9.57635 31.7079 9.95632L31.1722 17.2893Z" fill="white"/>
<path fill-rule="evenodd" clip-rule="evenodd" d="M61.634 17.3989L62.8317 3.17322L64.7271 3.32868C65.2294 3.36987 65.6037 3.80668 65.5609 4.30383L64.3632 18.5301L62.469 18.3741C61.9662 18.3323 61.5924 17.8961 61.634 17.3989Z" fill="white"/>
<path fill-rule="evenodd" clip-rule="evenodd" d="M45.4027 14.188C45.7125 14.0969 46.0558 14.2037 46.2353 14.4699C46.5364 14.9172 47.1132 15.1028 47.9664 15.0274C48.3901 14.9903 48.7181 14.8789 48.951 14.6944C49.1834 14.5094 49.2879 14.289 49.265 14.0326C49.2298 13.6485 48.883 13.4147 48.2228 13.3324L46.3873 13.1247C45.5717 13.033 44.9291 12.7906 44.4608 12.3978C43.992 12.0045 43.7285 11.494 43.6722 10.8652C43.5953 10.0154 43.8594 9.29374 44.4649 8.7003C45.0705 8.10744 45.9202 7.7617 47.0158 7.6654C48.0403 7.57491 48.9182 7.73792 49.6505 8.15443C50.3828 8.57094 50.8605 9.15625 51.0829 9.91096L49.5226 10.3634C49.2122 10.4534 48.8789 10.3397 48.6923 10.0792C48.5925 9.93706 48.4599 9.8164 48.2962 9.71721C47.9764 9.52287 47.5803 9.4463 47.1091 9.48749C46.6854 9.5252 46.3867 9.63657 46.2136 9.82221C46.0405 10.0073 45.9642 10.2167 45.9853 10.4499C46.0188 10.8223 46.3057 11.0433 46.8468 11.1129L48.9898 11.3815C49.7585 11.4778 50.3594 11.7267 50.7936 12.1287C51.2278 12.5301 51.4719 13.0336 51.5271 13.6392C51.6116 14.5825 51.327 15.3355 50.6715 15.8976C50.0155 16.4603 49.0989 16.7938 47.9212 16.8977C46.8732 16.9905 45.9589 16.857 45.1785 16.4974C44.3981 16.1377 43.9163 15.5321 43.732 14.6799L45.4027 14.188Z" fill="white"/>
<path fill-rule="evenodd" clip-rule="evenodd" d="M15.9604 14.4446C16.3641 14.3182 16.8166 14.4504 17.0577 14.795C17.4632 15.3745 18.2237 15.6048 19.3404 15.487C19.8949 15.4285 20.3227 15.2753 20.6231 15.0276C20.9236 14.7799 21.0562 14.4887 21.0198 14.1534C20.9652 13.6505 20.504 13.3523 19.6367 13.2595L17.2261 13.0286C16.1552 12.9265 15.3079 12.6231 14.6841 12.1184C14.0603 11.6143 13.7042 10.9513 13.615 10.1281C13.4947 9.01606 13.8239 8.06354 14.6037 7.27229C15.3836 6.48104 16.4897 6.00942 17.9238 5.85743C19.2647 5.71589 20.4201 5.90964 21.3889 6.43927C22.3583 6.96832 22.9973 7.72534 23.3072 8.70977L21.2721 9.33743C20.8678 9.46216 20.4271 9.32119 20.1778 8.98358C20.0428 8.80026 19.8662 8.6448 19.6496 8.51892C19.2254 8.27064 18.7049 8.17956 18.0887 8.24453C17.5336 8.30312 17.1452 8.45627 16.9222 8.70339C16.6992 8.94993 16.6047 9.22606 16.637 9.53119C16.6898 10.0185 17.0718 10.3016 17.7818 10.381L20.5973 10.6838C21.6066 10.7929 22.4011 11.1062 22.9791 11.6224C23.5571 12.1393 23.8899 12.7942 23.9749 13.5866C24.1087 14.8205 23.7525 15.8136 22.9064 16.566C22.0602 17.3184 20.8661 17.7761 19.3245 17.9391C17.9532 18.0841 16.752 17.9298 15.7204 17.4768C14.6888 17.0231 14.0422 16.24 13.7822 15.1274L15.9604 14.4446Z" fill="white"/>
<mask id="mask3_3342_13776" style="mask-type:luminance" maskUnits="userSpaceOnUse" x="31" y="8" width="11" height="12">
<path fill-rule="evenodd" clip-rule="evenodd" d="M31.4111 8.1955H41.1403V19.9661H31.4111V8.1955Z" fill="white"/>
</mask>
<g mask="url(#mask3_3342_13776)">
<path fill-rule="evenodd" clip-rule="evenodd" d="M36.1877 19.8723L34.1374 19.9663L35.3685 16.731L31.4111 8.64101L33.4532 8.54761C33.7525 8.53369 34.03 8.6996 34.1574 8.96761L36.4793 13.8607L38.6047 8.31152L41.1403 8.1955L36.8455 19.4007C36.7405 19.6733 36.4823 19.8589 36.1877 19.8723Z" fill="white"/>
</g>
<path fill-rule="evenodd" clip-rule="evenodd" d="M30.2436 6.52073L30.5886 2.52618L31.3784 2.5929C31.5878 2.61088 31.7433 2.79303 31.7251 3.00012L31.3801 6.99467L30.591 6.92796C30.3809 6.90998 30.2254 6.72783 30.2436 6.52073Z" fill="white"/>
<path fill-rule="evenodd" clip-rule="evenodd" d="M38.9482 6.49186L39.4452 2.51355L40.2314 2.60927C40.4403 2.63479 40.5887 2.82274 40.5629 3.02926L40.0659 7.00756L39.2791 6.91185C39.0709 6.88632 38.9224 6.69837 38.9482 6.49186Z" fill="white"/>
<path fill-rule="evenodd" clip-rule="evenodd" d="M36.9793 5.72025C37.3472 5.51548 37.552 5.20745 37.5925 4.795C37.633 4.38255 37.4934 4.04087 37.173 3.76996C36.9693 3.59767 36.7176 3.4979 36.4512 3.47353C36.0821 3.43989 35.767 3.5211 35.5041 3.71717C35.24 3.91499 35.0898 4.19227 35.0546 4.54903C35.0194 4.90579 35.1115 5.20628 35.3322 5.45167C35.551 5.69415 35.8444 5.83395 36.213 5.87224C36.4788 5.8995 36.7464 5.85019 36.9793 5.72025ZM38.5812 6.98603C38.512 7.68098 38.235 8.19901 37.7491 8.53953C37.2627 8.88063 36.6377 9.01405 35.8719 8.9398C34.7905 8.8348 34.0681 8.42351 33.7061 7.70535L34.4677 7.24359C34.6373 7.14091 34.855 7.18152 34.9823 7.33235C35.0839 7.45359 35.1848 7.54988 35.2869 7.62123C35.4577 7.74015 35.6889 7.81383 35.9811 7.84225C36.3795 7.88112 36.7064 7.79758 36.9622 7.59281C37.2181 7.38804 37.3653 7.0858 37.4058 6.68612L37.4123 6.61245C37.0303 6.86073 36.5274 6.9547 35.906 6.89437C35.3086 6.83636 34.8045 6.5672 34.3944 6.08688C33.9836 5.60598 33.8087 5.05546 33.8704 4.43418C33.9314 3.81928 34.2101 3.31691 34.7071 2.92767C35.2047 2.53842 35.7516 2.37251 36.349 2.43052C36.9581 2.48911 37.4322 2.67822 37.7714 2.9967L37.7996 2.71071L38.5853 2.7867C38.8059 2.80817 38.9679 3.00192 38.9468 3.22004L38.5812 6.98603Z" fill="white"/>
<path fill-rule="evenodd" clip-rule="evenodd" d="M28.7759 5.28712C28.6192 5.68971 28.3123 5.92059 27.8558 5.97918C27.4972 6.02442 27.1927 5.94959 26.941 5.75236C26.6886 5.55512 26.539 5.27436 26.4915 4.9089C26.4434 4.54343 26.5155 4.2325 26.7086 3.9761C26.9011 3.71912 27.1757 3.56771 27.5342 3.52246C27.9937 3.46329 28.3387 3.6089 28.5687 3.9587C28.6667 4.10778 28.8533 4.17275 29.0188 4.10256L29.7693 3.78467C29.5634 3.32929 29.2436 2.98297 28.8105 2.74513C28.3769 2.50729 27.9068 2.42144 27.3981 2.48583C26.752 2.56878 26.2327 2.85129 25.8407 3.33393C25.4487 3.81599 25.2962 4.38855 25.383 5.05044C25.4693 5.71233 25.7644 6.2263 26.2673 6.59118C26.5895 6.82554 26.9427 6.96708 27.3247 7.01639L27.3834 7.46364C27.4104 7.66958 27.6011 7.81518 27.81 7.7885L28.5952 7.68814L28.4925 6.89805C28.8005 6.79247 29.0752 6.62772 29.3152 6.40149C29.6784 6.05923 29.8885 5.6375 29.9466 5.13745L29.1726 5.04464C28.9989 5.02376 28.8381 5.12643 28.7759 5.28712Z" fill="white"/>
<path fill-rule="evenodd" clip-rule="evenodd" d="M44.8256 2.68495C45.1871 2.9895 45.3995 3.41181 45.4605 3.95304L45.761 6.60525L44.9747 6.69226C44.7652 6.71547 44.5774 6.56696 44.5539 6.36045L44.3233 4.32663C44.2881 4.01801 44.179 3.77959 43.9965 3.61137C43.8134 3.44372 43.5869 3.37411 43.3164 3.40427C42.587 3.4849 42.2783 4.02556 42.3922 5.02622L42.6104 6.95389L41.8241 7.04148C41.6146 7.06411 41.4263 6.9156 41.4034 6.70909L40.9521 2.72962L41.739 2.6426C41.948 2.6194 42.1363 2.7679 42.1592 2.97442L42.1615 2.99356C42.4749 2.6049 42.9173 2.37982 43.4877 2.31659C44.017 2.258 44.463 2.3804 44.8256 2.68495Z" fill="white"/>
<path fill-rule="evenodd" clip-rule="evenodd" d="M32.4886 6.59292L32.2861 0.652144L33.0776 0.62546C33.2877 0.618499 33.4637 0.780926 33.4707 0.988601L33.6732 6.92996L32.8817 6.95606C32.6716 6.9636 32.4962 6.8006 32.4886 6.59292Z" fill="white"/>
</svg>
