<svg width="24" height="26" viewBox="0 0 24 26" fill="none" xmlns="http://www.w3.org/2000/svg">
<path fill-rule="evenodd" clip-rule="evenodd" d="M4.46657 3.04561C4.46657 4.70028 6.00602 6.04675 7.92425 6.09015H0.468457C0.209735 6.09015 0 6.29989 0 6.55861V11.7129C0 11.9716 0.209736 12.1814 0.468457 12.1814H10.9642V6.09281H11.5658H11.5767H12.1823V12.1814H22.678C22.9367 12.1814 23.1465 11.9716 23.1465 11.7129V6.55861C23.1465 6.29989 22.9367 6.09015 22.678 6.09015H15.2182C17.1364 6.04675 18.6759 4.70028 18.6759 3.04561C18.6759 1.36357 17.085 0 15.1226 0C13.1983 0 11.6313 1.31115 11.5712 2.94804C11.5111 1.31115 9.94409 0 8.01978 0C6.0574 0 4.46657 1.36357 4.46657 3.04561ZM10.3822 3.0432V3.04349H10.3847V5.07607H8.01335V5.07361C6.70512 5.07358 5.64461 4.16454 5.64461 3.0432C5.64461 1.92183 6.70516 1.01279 8.01342 1.01279C9.32168 1.01279 10.3822 1.92183 10.3822 3.0432ZM1.68688 13.3968C1.42816 13.3968 1.21842 13.6065 1.21842 13.8652V25.1108C1.21842 25.3695 1.42816 25.5792 1.68688 25.5792H10.9644V13.3968H1.68688ZM21.4598 13.3968H12.1823V25.5792H21.4598C21.7185 25.5792 21.9282 25.3695 21.9282 25.1108V13.8652C21.9282 13.6065 21.7185 13.3968 21.4598 13.3968ZM12.7605 3.04349V3.0432C12.7605 1.92183 13.8211 1.01279 15.1293 1.01279C16.4376 1.01279 17.4981 1.92183 17.4981 3.0432C17.4981 4.16454 16.4376 5.07358 15.1294 5.07361V5.07607H12.758V3.04349H12.7605Z" fill="white"/>
</svg>
