<svg width="28" height="24" viewBox="0 0 28 24" fill="none" xmlns="http://www.w3.org/2000/svg">
<path d="M23.3497 16.3378C22.6399 16.3378 22.0625 16.8966 22.0625 17.5833C22.0625 18.27 22.6399 18.8287 23.3497 18.8287C24.0594 18.8287 24.6368 18.27 24.6368 17.5833C24.6368 16.8965 24.0594 16.3378 23.3497 16.3378Z" fill="white"/>
<path d="M25.8751 5.2096H19.7655L24.5586 1.11069C24.8302 0.878433 24.8558 0.477227 24.6158 0.214433C24.3759 -0.0482966 23.9612 -0.0729951 23.6896 0.159132L17.8029 5.19316C17.7968 5.19843 17.7914 5.20414 17.7856 5.20954H2.49297C1.40751 5.20954 0.524414 6.06401 0.524414 7.1143V22.0952C0.524414 23.1455 1.40751 24 2.49297 24H25.8751C26.9606 24 27.8437 23.1455 27.8437 22.0952V7.11436C27.8437 6.06408 26.9605 5.2096 25.8751 5.2096ZM15.4156 5.20962L10.6224 1.11071C10.3508 0.878453 10.3253 0.477247 10.5653 0.214454C10.8052 -0.0482759 11.2199 -0.0729743 11.4915 0.159152L17.3782 5.19318C17.3843 5.19845 17.3897 5.20416 17.3955 5.20956L15.4156 5.20962ZM18.2942 20.4947C18.2942 20.8453 18.0004 21.1296 17.638 21.1296H3.4888C3.12639 21.1296 2.83261 20.8453 2.83261 20.4947V8.39646C2.83261 8.04579 3.12639 7.76154 3.4888 7.76154H17.6379C18.0003 7.76154 18.2942 8.04579 18.2942 8.39646V20.4947ZM21.2565 10.3032H25.2104C25.5728 10.3032 25.8666 10.5875 25.8666 10.9382C25.8666 11.2888 25.5728 11.5731 25.2104 11.5731H21.2565C20.894 11.5731 20.6003 11.2888 20.6003 10.9382C20.6003 10.5875 20.894 10.3032 21.2565 10.3032ZM23.3477 20.097C21.915 20.097 20.7495 18.9693 20.7495 17.5831C20.7495 16.1968 21.915 15.0691 23.3477 15.0691C24.7803 15.0691 25.9458 16.1968 25.9458 17.5831C25.9458 18.9693 24.7803 20.097 23.3477 20.097Z" fill="white"/>
</svg>
