<?xml version="1.0" encoding="UTF-8"?>
<svg width="128px" height="26px" viewBox="0 0 128 26" version="1.1" xmlns="http://www.w3.org/2000/svg" xmlns:xlink="http://www.w3.org/1999/xlink">
    <title>278EF6DB-6EF7-492C-A2AB-195153568890</title>
    <g id="06-Draw-Result-Evoluzioni-Finetuning" stroke="none" stroke-width="1" fill="none" fill-rule="evenodd">
        <g id="06_1-EVO-Result-Mobile-A-Not-Available" transform="translate(-96.000000, -1421.000000)" fill-rule="nonzero">
            <g id="Draw-Result" transform="translate(0.000000, 115.000000)">
                <g id="List" transform="translate(14.000000, 222.000000)">
                    <g id="Components-/-Results-/-Mobile-/-EVO-/-ON-A-FT" transform="translate(0.000000, 1080.000000)">
                        <g id="LOGO" transform="translate(77.000000, 0.000000)">
                            <g id="MP-Playslips-Dikey-Logolar_ON_outline" transform="translate(5.682353, 4.053803)">
                                <g id="Group" fill="#FFFFFF">
                                    <path d="M14.5818563,9.57327955 C12.6684,9.57327955 11.1508312,8.07541948 11.1508312,6.18681331 C11.1508312,4.29820714 12.6684,2.80034708 14.5818563,2.80034708 C16.4953125,2.80034708 18.0128813,4.29820714 18.0128813,6.18681331 C18.0128813,8.07541948 16.4953125,9.57327955 14.5818563,9.57327955 Z" id="Path"></path>
                                    <path d="M10.557,17.9743208 C9.17139375,17.9743208 7.7857875,17.5835747 6.53214375,16.9323312 C4.68466875,15.8903416 3.2990625,14.1319841 2.7712125,12.1131292 L2.1114,9.7686526 L0.52785,4.03770974 C0.1319625,2.67009838 0.98971875,1.23736266 2.375325,0.846616558 L2.903175,0.716367857 C3.49700625,0.586119156 4.0908375,0.455870455 4.68466875,0.455870455 C5.2785,0.455870455 5.9383125,0.520994805 6.53214375,0.716367857 L6.66410625,0.716367857 C7.2579375,0.586119156 7.85176875,0.455870455 8.4456,0.455870455 C9.56728125,0.455870455 10.6889625,0.716367857 11.6786812,1.30248701 C12.14055,1.04198961 12.6024187,0.846616558 13.1302688,0.716367857 C13.5921375,0.586119156 14.1199875,0.520994805 14.6478375,0.520994805 C17.2870875,0.520994805 19.5964312,2.27935227 20.322225,4.81920195 C20.7181125,6.31706201 20.5201687,7.88004643 19.7283937,9.18253344 C19.4644687,9.6384039 19.0685812,10.0942744 18.6726937,10.4850205 C18.5407312,13.8714867 16.1654063,16.8672068 12.6684,17.7789477 C12.0085875,17.9091964 11.2827937,17.9743208 10.557,17.9743208 Z" id="Path"></path>
                                    <path d="M89.0087062,24.4867558 C87.7550625,24.4867558 86.6993625,23.8355123 86.03955,22.9237714 C85.6436625,23.8355123 84.719925,24.4867558 83.5982437,24.4867558 L81.7507687,24.4867558 C80.5631062,24.4867558 79.441425,23.9006367 78.8475937,22.9237714 C78.4517062,23.8355123 77.5279687,24.4867558 76.4722687,24.4867558 L74.6247937,24.4867558 C72.7113375,24.4867558 71.1277875,22.9237714 71.1277875,21.0351653 L71.1277875,11.6572588 C71.1277875,10.2245231 72.31545,9.05228474 73.7670375,9.05228474 L75.6804937,9.05228474 C76.0763812,9.05228474 76.4722687,9.11740909 76.8681562,9.24765779 C77.7259125,8.92203604 78.64965,8.72666299 79.6393687,8.72666299 C80.9589937,8.72666299 82.1466562,9.05228474 83.136375,9.6384039 C84.192075,9.05228474 85.4457187,8.72666299 86.831325,8.72666299 C88.6128187,8.72666299 90.26235,9.37790649 91.5159937,10.6152692 C92.7696375,11.8526318 93.4954312,13.5458649 93.4954312,15.4344711 L93.4954312,21.8166575 C93.4954312,23.2493932 92.3077687,24.4216315 90.8561812,24.4216315 L89.0087062,24.4216315 L89.0087062,24.4867558 Z" id="Path"></path>
                                    <path d="M97.0584187,24.8123776 C95.013,24.8123776 93.0995437,24.0308854 91.581975,22.467901 C90.1303875,20.9700409 89.3386125,19.0163104 89.3386125,16.8020825 C89.3386125,14.5878545 90.1303875,12.634124 91.581975,11.0711396 C93.0995437,9.57327955 94.9470187,8.72666299 97.0584187,8.72666299 C98.0481375,8.72666299 98.9058937,8.85691169 99.76365,9.11740909 C100.027575,9.05228474 100.225519,8.98716039 100.489444,8.98716039 L102.336919,8.98716039 C104.250375,8.98716039 105.833925,10.5501448 105.833925,12.438751 L105.833925,21.8166575 C105.833925,23.2493932 104.646262,24.4216315 103.194675,24.4216315 L101.281219,24.4216315 C100.885331,24.4216315 100.423462,24.3565071 100.093556,24.2262584 C99.2358,24.6170045 98.1801,24.8123776 97.0584187,24.8123776 Z M97.5862687,16.2810877 C97.4543063,16.2810877 97.388325,16.2810877 97.388325,16.346212 C97.3223437,16.4113364 97.3223437,16.7369581 97.3223437,16.8020825 C97.3223437,17.0625799 97.388325,17.1928286 97.388325,17.2579529 C97.388325,17.2579529 97.4543062,17.3230773 97.5862687,17.3230773 C97.65225,17.3230773 97.7182312,17.3230773 97.8501938,17.1928286 C97.916175,17.1277042 97.916175,17.1277042 97.916175,16.8672068 C97.916175,16.6067094 97.8501938,16.5415851 97.7842125,16.4764607 C97.65225,16.2810877 97.65225,16.2810877 97.5862687,16.2810877 Z" id="Shape"></path>
                                    <path d="M117.314663,24.7472532 C115.269244,24.7472532 113.355788,23.965761 111.838219,22.4027766 C110.386631,20.9049166 109.594856,18.951186 109.594856,16.7369581 C109.594856,14.4576058 110.386631,12.5689997 111.838219,11.0060153 C113.355788,9.50815519 115.203263,8.66153864 117.314663,8.66153864 C118.304381,8.66153864 119.162138,8.79178734 120.019894,9.05228474 C120.283819,8.98716039 120.481763,8.92203604 120.745688,8.92203604 L122.593163,8.92203604 C124.506619,8.92203604 126.090169,10.4850205 126.090169,12.3736266 L126.090169,21.7515331 C126.090169,23.1842688 124.902506,24.3565071 123.450919,24.3565071 L121.537463,24.3565071 C121.141575,24.3565071 120.679706,24.2913828 120.3498,24.1611341 C119.426063,24.6170045 118.370363,24.7472532 117.314663,24.7472532 Z M117.776531,16.2159633 C117.644569,16.2159633 117.578588,16.2159633 117.578588,16.2810877 C117.512606,16.346212 117.512606,16.6718338 117.512606,16.7369581 C117.512606,16.9323312 117.512606,17.1277042 117.578588,17.1928286 C117.578588,17.1928286 117.644569,17.2579529 117.776531,17.2579529 C117.842513,17.2579529 117.908494,17.2579529 118.040456,17.1277042 C118.106438,17.0625799 118.106438,17.0625799 118.106438,16.8020825 C118.106438,16.5415851 118.040456,16.4764607 117.974475,16.4113364 C117.842513,16.2159633 117.842513,16.2159633 117.776531,16.2159633 Z" id="Shape"></path>
                                    <path d="M59.383125,24.4867558 C58.0635,24.4867558 56.8758375,23.770388 56.2820062,22.663274 C55.9521,23.7052636 54.9623812,24.4867558 53.7747187,24.4867558 L51.9272437,24.4867558 C50.0137875,24.4867558 48.4302375,22.9237714 48.4302375,21.0351653 L48.4302375,11.6572588 C48.4302375,10.2245231 49.6179,9.05228474 51.0694875,9.05228474 L52.9169625,9.05228474 C53.3788312,9.05228474 53.7747187,9.11740909 54.1706062,9.31278214 C55.0283625,8.98716039 56.0180812,8.79178734 57.0737812,8.79178734 C59.0532187,8.79178734 60.7687312,9.50815519 62.022375,10.8106422 C63.2100375,12.1131292 63.86985,13.8063623 63.86985,15.6949685 L63.86985,21.9469062 C63.86985,23.3796419 62.6821875,24.5518802 61.2306,24.5518802 L59.383125,24.5518802 L59.383125,24.4867558 Z" id="Path"></path>
                                    <path d="M105.372056,24.4867558 C103.4586,24.4867558 101.87505,22.9237714 101.87505,21.0351653 L101.87505,11.5921344 C101.87505,10.1593987 103.062713,8.98716039 104.5143,8.98716039 L106.361775,8.98716039 C107.021587,8.98716039 107.615419,9.18253344 108.077287,9.44303084 C108.935044,9.05228474 109.924762,8.85691169 110.980462,8.85691169 C111.574294,8.85691169 112.102144,8.92203604 112.564012,9.05228474 C113.685694,9.44303084 114.411487,10.4850205 114.345506,11.6572588 L114.147562,13.6761136 C114.081581,15.3693468 112.629994,16.7369581 110.914481,16.7369581 C110.254669,16.7369581 109.7928,16.7369581 109.7928,18.5604399 L109.7928,21.8817818 C109.7928,23.3145175 108.605137,24.4867558 107.15355,24.4867558 L105.372056,24.4867558 Z" id="Path"></path>
                                    <path d="M66.5091,24.8123776 C64.5296625,24.8123776 62.81415,24.0960097 61.5605063,22.7935227 C60.3728438,21.4910357 59.7130313,19.8629269 59.7130313,17.9091964 L59.7130313,11.6572588 C59.7130313,10.2245231 60.9006938,9.05228474 62.3522813,9.05228474 L64.1997563,9.05228474 C65.5193813,9.05228474 66.7070438,9.7686526 67.300875,10.8757666 C67.6307813,9.83377695 68.6205,9.05228474 69.8081625,9.05228474 L71.6556375,9.05228474 C73.5690938,9.05228474 75.1526438,10.6152692 75.1526438,12.5038753 L75.1526438,21.8817818 C75.1526438,23.3145175 73.9649813,24.4867558 72.5133938,24.4867558 L70.6659188,24.4867558 C70.20405,24.4867558 69.8081625,24.4216315 69.412275,24.2262584 C68.5545188,24.6170045 67.5648,24.8123776 66.5091,24.8123776 Z" id="Path"></path>
                                    <path d="M44.9992125,24.4867558 C42.8878125,24.4867558 41.1723,22.7935227 41.1723,20.7095435 L41.1723,14.3924815 C41.1723,14.0668597 41.1063187,13.8714867 41.0403375,13.8063623 C41.0403375,13.8063623 40.9743562,13.8063623 40.9743562,13.8063623 C40.7104312,13.8063623 40.5784688,13.8063623 40.5124875,13.8714867 C40.4465063,13.936611 40.1825812,14.4576058 40.1825812,15.8903416 L40.1825812,21.8817818 C40.1825812,23.3145175 38.9949188,24.4867558 37.5433313,24.4867558 L35.102025,24.4867558 C32.990625,24.4867558 31.2751125,22.7935227 31.2751125,20.7095435 L31.2751125,8.33591688 C31.2751125,6.90318117 32.462775,5.73094286 33.9143625,5.73094286 L36.3556687,5.73094286 C36.9495,5.73094286 37.47735,5.86119156 38.0052,6.12168896 C39.1268813,5.60069416 40.4465063,5.34019675 41.8321125,5.34019675 C44.2074375,5.34019675 46.2528563,6.18681331 47.7044438,7.74979773 C49.1560313,9.31278214 49.9478063,11.2665127 49.9478063,13.6109893 L49.9478063,21.8817818 C49.9478063,23.3145175 48.7601438,24.4867558 47.3085563,24.4867558 L44.9992125,24.4867558 L44.9992125,24.4867558 Z" id="Path"></path>
                                    <path d="M20.322225,25.2031237 C19.3984875,25.2031237 18.5407312,24.7472532 18.0788625,23.9006367 C17.6169937,23.1191445 17.6169937,22.1422792 18.0788625,21.2956627 C18.0788625,21.2305383 18.1448437,21.165414 18.210825,21.1002896 C16.627275,19.4070565 15.8355,17.2579529 15.8355,14.8483519 C15.8355,12.1782536 16.8252188,9.7686526 18.738675,8.01029513 C20.6521313,6.25193766 22.961475,5.4053211 25.600725,5.4053211 C28.239975,5.4053211 30.5493188,6.31706201 32.3967938,8.01029513 C34.31025,9.7686526 35.2999688,12.1131292 35.2999688,14.7832276 C35.2999688,17.453326 34.31025,19.8629269 32.3967938,21.6212844 C30.5493188,23.3796419 28.239975,24.2262584 25.600725,24.2262584 C24.6110063,24.2262584 23.6212875,24.0960097 22.69755,23.8355123 C22.4996063,24.0308854 22.3016625,24.2262584 22.2356812,24.2913828 C21.7738125,24.9426263 21.0480188,25.2031237 20.322225,25.2031237 C20.322225,25.2031237 20.322225,25.2031237 20.322225,25.2031237 Z" id="Path"></path>
                                </g>
                                <g id="Group" transform="translate(2.639250, 2.604974)">
                                    <path d="M15.1097062,2.80034708 C14.6478375,1.10711396 12.8663437,0.0651243506 11.1508312,0.520994805 C10.2270937,0.781492208 9.5013,1.36761136 9.1054125,2.14910357 C8.77550625,1.69323312 8.3136375,1.30248701 7.7857875,0.97686526 C6.79606875,0.455870455 5.74036875,0.260497403 4.6186875,0.586119156 C4.486725,0.651243506 4.0908375,0.716367857 4.0908375,0.716367857 C4.0908375,0.716367857 4.15681875,0.911740909 4.15681875,1.04198961 C4.0908375,1.04198961 4.0908375,0.97686526 4.02485625,0.97686526 C3.0351375,0.455870455 1.9794375,0.260497403 0.85775625,0.586119156 C0.72579375,0.651243506 0.32990625,0.716367857 0.32990625,0.716367857 L1.91345625,6.44731071 C1.91345625,6.44731071 1.91345625,6.44731071 1.91345625,6.44731071 L2.57326875,8.79178734 C2.57326875,8.79178734 2.57326875,8.79178734 2.57326875,8.79178734 C2.96915625,10.1593987 3.8269125,11.331637 5.1465375,12.0480049 C6.00429375,12.5038753 6.92803125,12.7643727 7.85176875,12.7643727 C8.3136375,12.7643727 8.77550625,12.6992484 9.30335625,12.5689997 C12.0745687,11.8526318 13.7241,9.18253344 13.2622312,6.44731071 C13.8560625,6.18681331 14.3839125,5.73094286 14.7138187,5.1448237 C15.1756875,4.42845584 15.30765,3.58183929 15.1097062,2.80034708 Z M12.5364375,5.60069416 C12.404475,5.66581851 11.9426062,5.73094286 11.9426062,5.73094286 C11.9426062,5.73094286 12.0745687,6.12168896 12.0745687,6.25193766 C12.6684,8.53128994 11.348775,10.8757666 9.03943125,11.4618857 C7.91775,11.7875075 6.7300875,11.5921344 5.74036875,11.0060153 C4.75065,10.4198961 4.02485625,9.50815519 3.69495,8.40104123 C3.69495,8.40104123 3.69495,8.40104123 3.69495,8.40104123 C3.69495,8.40104123 3.69495,8.40104123 3.69495,8.40104123 L1.78149375,1.43273571 C2.375325,1.36761136 2.96915625,1.49786006 3.49700625,1.82348182 C4.2228,2.21422792 4.68466875,2.86547143 4.8826125,3.64696364 C4.8826125,3.71208799 4.8826125,3.71208799 4.94859375,3.71208799 L5.9383125,7.16367857 C6.00429375,7.42417597 6.2022375,7.55442468 6.4661625,7.55442468 C6.53214375,7.55442468 6.53214375,7.55442468 6.598125,7.55442468 C6.92803125,7.48930032 7.05999375,7.16367857 6.9940125,6.90318117 L5.542425,1.56298442 C6.13625625,1.49786006 6.7300875,1.62810877 7.2579375,1.95373052 C7.98373125,2.34447662 8.4456,2.99572013 8.64354375,3.77721234 L9.3693375,6.31706201 C9.43531875,6.64268377 9.765225,6.77293247 10.02915,6.70780812 C10.3590562,6.64268377 10.4910187,6.31706201 10.4250375,6.05656461 L9.96316875,4.29820714 C9.96316875,4.29820714 9.96316875,4.23308279 9.96316875,4.23308279 C9.6332625,3.12596883 10.3590562,1.95373052 11.4807375,1.69323312 C12.6024187,1.36761136 13.7900812,2.08397922 14.0540062,3.19109318 C14.3179312,4.16795844 13.6581187,5.34019675 12.5364375,5.60069416 Z M12.8003625,3.58183929 C12.8003625,4.03770974 12.404475,4.42845584 11.9426062,4.42845584 C11.4807375,4.42845584 11.08485,4.03770974 11.08485,3.58183929 C11.08485,3.12596883 11.4807375,2.73522273 11.9426062,2.73522273 C12.404475,2.73522273 12.8003625,3.12596883 12.8003625,3.58183929 Z" id="Shape" fill="#009ADE"></path>
                                    <path d="M86.9632875,9.8989013 C87.7550625,10.6803935 88.15095,11.6572588 88.15095,12.8946214 L88.15095,19.2768078 L86.303475,19.2768078 C85.8416063,19.2768078 85.3797375,18.8860617 85.3797375,18.3650669 L85.3797375,13.4156162 C85.3797375,12.7643727 85.1817938,12.1782536 84.7859063,11.7875075 C84.3900188,11.3967614 83.92815,11.2013883 83.3343188,11.2013883 C82.608525,11.2013883 82.0146938,11.4618857 81.552825,11.9828805 C81.0909563,12.5038753 80.8930125,13.2853675 80.8930125,14.3273571 L80.8930125,19.2768078 L79.0455375,19.2768078 C78.5836688,19.2768078 78.1218,18.8860617 78.1218,18.3650669 L78.1218,13.4156162 C78.1218,12.7643727 77.9238563,12.1782536 77.5279688,11.7875075 C77.1320813,11.3967614 76.6702125,11.2013883 76.0763813,11.2013883 C75.3505875,11.2013883 74.7567563,11.4618857 74.2948875,11.9828805 C73.8330188,12.5038753 73.7010563,13.2853675 73.7010563,14.3273571 L73.7010563,19.2768078 L71.8535813,19.2768078 C71.3917125,19.2768078 70.9298438,18.8860617 70.9298438,18.3650669 L70.9298438,9.05228474 L72.8433,9.05228474 C73.3051688,9.05228474 73.7010563,9.44303084 73.7010563,9.8989013 L73.7010563,9.8989013 C74.4928313,9.11740909 75.48255,8.72666299 76.802175,8.72666299 C78.3197438,8.72666299 79.441425,9.31278214 80.2332,10.4198961 C81.1569375,9.31278214 82.4105813,8.72666299 83.9941313,8.72666299 C85.247775,8.72666299 86.1715125,9.11740909 86.9632875,9.8989013 Z" id="Path" fill="#009ADE"></path>
                                    <path d="M100.621406,19.2768078 L98.70795,19.2768078 C98.2460813,19.2768078 97.916175,18.8860617 97.916175,18.4953156 L97.916175,18.4953156 C96.9924375,19.2116834 95.8707563,19.6024295 94.48515,19.6024295 C93.0995438,19.6024295 91.9118813,19.0814347 90.9221625,18.0394451 C89.9324438,16.9974555 89.4045938,15.6949685 89.4045938,14.1319841 C89.4045938,12.5689997 89.9324438,11.2665127 90.9221625,10.2245231 C91.9118813,9.18253344 93.165525,8.66153864 94.48515,8.66153864 C95.8707563,8.66153864 96.9924375,9.05228474 97.916175,9.7686526 L97.916175,8.92203604 L99.76365,8.92203604 C100.225519,8.92203604 100.687388,9.31278214 100.687388,9.83377695 L100.687388,19.2768078 L100.621406,19.2768078 Z M96.9924375,16.346212 C97.5862688,15.7600929 97.916175,15.043725 97.916175,14.1319841 C97.916175,13.2202432 97.5862688,12.5038753 96.9924375,11.9177562 C96.3986063,11.331637 95.7387938,11.0711396 94.9470188,11.0711396 C94.0892625,11.0711396 93.42945,11.331637 92.8356188,11.9177562 C92.3077688,12.5038753 92.0438438,13.2202432 92.0438438,14.1319841 C92.0438438,15.043725 92.3077688,15.8252172 92.8356188,16.346212 C93.3634688,16.9323312 94.0892625,17.1928286 94.9470188,17.1928286 C95.7387938,17.2579529 96.3986063,16.9323312 96.9924375,16.346212 Z" id="Shape" fill="#009ADE"></path>
                                    <path d="M120.811669,19.2768078 L118.898212,19.2768078 C118.436344,19.2768078 118.106438,18.8860617 118.106438,18.4953156 L118.106438,18.4953156 C117.1827,19.2116834 115.995038,19.6024295 114.675413,19.6024295 C113.289806,19.6024295 112.102144,19.0814347 111.112425,18.0394451 C110.122706,16.9974555 109.594856,15.6949685 109.594856,14.1319841 C109.594856,12.5689997 110.122706,11.2665127 111.112425,10.2245231 C112.102144,9.18253344 113.355788,8.66153864 114.675413,8.66153864 C116.061019,8.66153864 117.1827,9.05228474 118.106438,9.7686526 L118.106438,8.92203604 L119.953913,8.92203604 C120.415781,8.92203604 120.87765,9.31278214 120.87765,9.83377695 L120.87765,19.2768078 L120.811669,19.2768078 Z M117.1827,16.346212 C117.776531,15.7600929 118.106438,15.043725 118.106438,14.1319841 C118.106438,13.2202432 117.776531,12.5038753 117.1827,11.9177562 C116.588869,11.331637 115.863075,11.0711396 115.137281,11.0711396 C114.279525,11.0711396 113.619713,11.331637 113.025881,11.9177562 C112.498031,12.5038753 112.234106,13.2202432 112.234106,14.1319841 C112.234106,15.043725 112.498031,15.8252172 113.025881,16.346212 C113.553731,16.9323312 114.279525,17.1928286 115.137281,17.1928286 C115.929056,17.1928286 116.588869,16.9323312 117.1827,16.346212 Z" id="Shape" fill="#009ADE"></path>
                                    <path d="M57.4696688,9.8989013 C58.2614438,10.6803935 58.59135,11.7223831 58.59135,13.0248701 L58.59135,19.2768078 L56.743875,19.2768078 C56.2820063,19.2768078 55.8201375,18.8860617 55.8201375,18.3650669 L55.8201375,13.5458649 C55.8201375,12.8294971 55.6221938,12.2433779 55.2263063,11.7875075 C54.8304188,11.331637 54.3025687,11.136264 53.7087375,11.136264 C51.993225,11.136264 51.1354688,12.3085023 51.1354688,14.6529789 L51.1354688,19.2116834 L49.2879937,19.2116834 C48.826125,19.2116834 48.3642562,18.8209373 48.3642562,18.2999425 L48.3642562,9.05228474 L50.2117312,9.05228474 C50.6736,9.05228474 51.1354688,9.44303084 51.1354688,9.96402565 L51.1354688,10.02915 C51.993225,9.18253344 53.048925,8.79178734 54.4345312,8.79178734 C55.688175,8.72666299 56.6778938,9.11740909 57.4696688,9.8989013 Z" id="Path" fill="#009ADE"></path>
                                    <path d="M109.001025,8.92203604 L108.869063,10.9408909 C108.869063,11.2665127 108.539156,11.5270101 108.20925,11.5270101 L108.20925,11.5270101 C105.701963,11.5270101 104.5143,13.0248701 104.5143,15.9554659 L104.5143,19.2768078 L102.666825,19.2768078 C102.204956,19.2768078 101.743088,18.8860617 101.743088,18.3650669 L101.743088,8.98716039 L103.590563,8.98716039 C104.052431,8.98716039 104.5143,9.37790649 104.5143,9.8989013 L104.5143,10.8757666 C105.438038,9.50815519 106.691681,8.85691169 108.275231,8.85691169 C108.605138,8.85691169 108.869063,8.85691169 109.001025,8.92203604 Z" id="Path" fill="#009ADE"></path>
                                    <path d="M69.940125,19.2768078 L68.09265,19.2768078 C67.6307812,19.2768078 67.1689125,18.8860617 67.1689125,18.3650669 L67.1689125,18.2999425 C66.3111562,19.1465591 65.2554562,19.5373052 63.86985,19.5373052 C62.6162062,19.5373052 61.6264875,19.1465591 60.8347125,18.3650669 C60.0429375,17.5835747 59.7130312,16.5415851 59.7130312,15.2390981 L59.7130312,8.98716039 L61.5605062,8.98716039 C62.022375,8.98716039 62.4842437,9.37790649 62.4842437,9.8989013 L62.4842437,14.7181032 C62.4842437,15.4344711 62.6821875,16.0205903 63.078075,16.4764607 C63.4739625,16.9323312 64.0018125,17.1277042 64.5956437,17.1277042 C66.3111562,17.1277042 67.1689125,15.9554659 67.1689125,13.6109893 L67.1689125,9.05228474 L69.0163875,9.05228474 C69.4782562,9.05228474 69.940125,9.44303084 69.940125,9.96402565 L69.940125,19.2768078 Z" id="Path" fill="#009ADE"></path>
                                    <path d="M43.2837,6.90318117 C44.2734188,7.94517078 44.8012688,9.31278214 44.8012688,11.0060153 L44.8012688,19.2768078 L42.3599625,19.2768078 C41.70015,19.2768078 41.1723,18.755813 41.1723,18.1045695 L41.1723,11.7875075 C41.1723,10.8106422 40.908375,10.02915 40.4465063,9.50815519 C39.9186563,8.92203604 39.2588438,8.66153864 38.4010875,8.66153864 C36.0917438,8.66153864 34.9700625,10.2245231 34.9700625,13.3504919 L34.9700625,19.3419321 L32.5287563,19.3419321 C31.8689438,19.3419321 31.3410938,18.8209373 31.3410938,18.1696938 L31.3410938,5.79606721 L33.7824,5.79606721 C34.4422125,5.79606721 34.9700625,6.31706201 34.9700625,6.96830552 L34.9700625,7.03342987 C36.0917438,5.92631591 37.5433313,5.4053211 39.324825,5.4053211 C40.9743563,5.2750724 42.2939813,5.79606721 43.2837,6.90318117 Z" id="Path" fill="#A25EB5"></path>
                                    <path d="M27.97605,7.35905162 C26.5904438,6.05656461 24.9409125,5.47044545 22.961475,5.47044545 C20.9820375,5.47044545 19.266525,6.12168896 17.8809188,7.35905162 C16.4953125,8.66153864 15.7695187,10.2896474 15.7695187,12.3085023 C15.7695187,14.3273571 16.4953125,15.9554659 17.8809188,17.2579529 C18.210825,17.5835747 18.5407313,17.7789477 18.8706375,18.0394451 C20.0583,16.2159633 21.905775,14.2622328 24.1491375,12.3736266 C24.545025,12.0480049 24.8749313,11.7875075 25.2708188,11.4618857 C25.2708188,11.4618857 23.8192313,12.438751 23.0274563,13.0248701 C22.1697,13.6761136 20.1902625,15.4344711 20.1902625,15.4344711 L20.58615,14.2622328 C20.7840938,13.5458649 20.58615,12.8294971 19.9923188,12.3736266 L17.41905,10.5501448 L20.58615,10.5501448 C21.3119438,10.5501448 21.9717563,10.0942744 22.2356813,9.37790649 L23.2254,6.38218636 L24.2151188,9.37790649 C24.4130625,10.0942744 25.072875,10.5501448 25.86465,10.5501448 L26.656425,10.5501448 L29.03175,10.5501448 L28.8338063,10.6803935 L28.8338063,10.6803935 C27.2502563,11.5270101 25.4687625,12.634124 23.75325,14.0017354 L24.017175,13.8714867 C24.2811,13.6761136 24.545025,13.5458649 24.80895,13.3504919 L26.0625938,17.0625799 L22.8295125,14.7832276 C21.4439063,15.9554659 20.1902625,17.1928286 19.1345625,18.4301912 C18.8706375,18.755813 18.47475,19.2116834 18.210825,19.5373052 C18.1448437,19.6675539 18.0128813,19.7326782 17.9469,19.8629269 C17.9469,19.8629269 17.9469,19.8629269 17.9469,19.8629269 C17.8809188,19.9280513 17.8149375,19.9931756 17.8149375,19.9931756 C17.8149375,19.9931756 19.266525,18.6255643 19.53045,18.2999425 C20.58615,18.8209373 21.7738125,19.1465591 23.0934375,19.1465591 C25.072875,19.1465591 26.7224063,18.4953156 28.1080125,17.2579529 C29.4936187,15.9554659 30.1534312,14.3273571 30.1534312,12.3085023 C30.08745,10.2896474 29.3616563,8.66153864 27.97605,7.35905162 Z" id="Path" fill="#A25EB5"></path>
                                </g>
                                <ellipse id="Oval" fill="#FFFFFF" cx="97.916175" cy="17.1277042" rx="1.7155125" ry="1.69323312"></ellipse>
                                <ellipse id="Oval" fill="#FFFFFF" cx="117.842513" cy="17.1277042" rx="1.7155125" ry="1.69323312"></ellipse>
                            </g>
                        </g>
                    </g>
                </g>
            </g>
        </g>
    </g>
</svg>