<svg width="141" height="69" viewBox="0 0 141 69" fill="none" xmlns="http://www.w3.org/2000/svg">
<path d="M28.1129 5.22256C27.2069 1.94006 23.8849 0.0210577 20.6636 0.879558C18.9523 1.33406 17.6436 2.49556 16.8383 3.96006C16.1839 3.05106 15.3786 2.29356 14.3719 1.73806C12.6103 0.677558 10.4963 0.425058 8.48294 0.930058C8.23127 0.980558 7.47627 1.23306 7.47627 1.23306C7.47627 1.23306 7.57694 1.68756 7.62727 1.83906C7.52661 1.78856 7.52661 1.78856 7.42594 1.73806C5.61394 0.677558 3.55027 0.425058 1.53694 0.930058C1.23494 1.03106 0.580607 1.18256 0.530273 1.23306L3.49994 12.2421L4.70794 16.7366C5.41261 19.4131 7.12394 21.5846 9.48961 22.9986C11.0499 23.9076 12.8116 24.3621 14.6236 24.3621C15.5296 24.3621 16.4356 24.2611 17.2913 24.0086C22.4253 22.6451 25.6466 17.5446 24.7406 12.3431C25.8983 11.8381 26.8546 10.9796 27.4586 9.86856C28.3143 8.40406 28.5156 6.78806 28.1129 5.22256ZM23.2809 10.6261C22.9789 10.7271 22.2239 10.9291 22.2239 10.9291C22.2239 10.9291 22.4253 11.6361 22.4756 11.9391C23.6333 16.2821 21.0663 20.7766 16.7376 21.9381C14.6236 22.4936 12.4593 22.1906 10.5466 21.1301C8.68427 20.0191 7.32527 18.2516 6.77161 16.1811L3.09727 2.79856C4.20461 2.69756 5.36227 2.95006 6.36894 3.55606C7.67761 4.31356 8.63394 5.52556 9.03661 6.99006C9.03661 7.04056 9.08694 7.09106 9.08694 7.19206L10.8486 13.6056C10.9996 14.0601 11.4023 14.4136 11.8553 14.4136C11.9559 14.4136 12.0566 14.4136 12.1573 14.3631C12.7109 14.2116 13.0633 13.6056 12.9123 13.0501L10.0936 2.79856C11.2009 2.69756 12.3586 2.95006 13.3653 3.55606C14.6739 4.31356 15.6303 5.52556 16.0329 6.99006L17.3416 11.8381C17.4926 12.3936 18.0966 12.7471 18.6503 12.5956C19.2039 12.4441 19.5563 11.8381 19.4053 11.2826L18.4993 7.84856C18.4993 7.79806 18.4993 7.79806 18.4993 7.74756C17.9456 5.62656 19.2039 3.45506 21.3179 2.89956C23.4319 2.34406 25.5963 3.60656 26.1499 5.72756C26.6029 7.84856 25.3949 10.0201 23.2809 10.6261ZM23.7843 6.73756C23.7843 7.59606 23.0796 8.30306 22.2239 8.30306C21.3683 8.30306 20.6636 7.59606 20.6636 6.73756C20.6636 5.87906 21.3683 5.17206 22.2239 5.17206C23.0796 5.12156 23.7843 5.82856 23.7843 6.73756Z" fill="#009BDE"/>
<path d="M28.1129 5.22256C27.2069 1.94006 23.8849 0.0210577 20.6636 0.879558C18.9523 1.33406 17.6436 2.49556 16.8383 3.96006C16.1839 3.05106 15.3786 2.29356 14.3719 1.73806C12.6103 0.677558 10.4963 0.425058 8.48294 0.930058C8.23127 0.980558 7.47627 1.23306 7.47627 1.23306C7.47627 1.23306 7.57694 1.68756 7.62727 1.83906C7.52661 1.78856 7.52661 1.78856 7.42594 1.73806C5.61394 0.677558 3.55027 0.425058 1.53694 0.930058C1.23494 1.03106 0.580607 1.18256 0.530273 1.23306L3.49994 12.2421L4.70794 16.7366C5.41261 19.4131 7.12394 21.5846 9.48961 22.9986C11.0499 23.9076 12.8116 24.3621 14.6236 24.3621C15.5296 24.3621 16.4356 24.2611 17.2913 24.0086C22.4253 22.6451 25.6466 17.5446 24.7406 12.3431C25.8983 11.8381 26.8546 10.9796 27.4586 9.86856C28.3143 8.40406 28.5156 6.78806 28.1129 5.22256ZM23.2809 10.6261C22.9789 10.7271 22.2239 10.9291 22.2239 10.9291C22.2239 10.9291 22.4253 11.6361 22.4756 11.9391C23.6333 16.2821 21.0663 20.7766 16.7376 21.9381C14.6236 22.4936 12.4593 22.1906 10.5466 21.1301C8.68427 20.0191 7.32527 18.2516 6.77161 16.1811L3.09727 2.79856C4.20461 2.69756 5.36227 2.95006 6.36894 3.55606C7.67761 4.31356 8.63394 5.52556 9.03661 6.99006C9.03661 7.04056 9.08694 7.09106 9.08694 7.19206L10.8486 13.6056C10.9996 14.0601 11.4023 14.4136 11.8553 14.4136C11.9559 14.4136 12.0566 14.4136 12.1573 14.3631C12.7109 14.2116 13.0633 13.6056 12.9123 13.0501L10.0936 2.79856C11.2009 2.69756 12.3586 2.95006 13.3653 3.55606C14.6739 4.31356 15.6303 5.52556 16.0329 6.99006L17.3416 11.8381C17.4926 12.3936 18.0966 12.7471 18.6503 12.5956C19.2039 12.4441 19.5563 11.8381 19.4053 11.2826L18.4993 7.84856C18.4993 7.79806 18.4993 7.79806 18.4993 7.74756C17.9456 5.62656 19.2039 3.45506 21.3179 2.89956C23.4319 2.34406 25.5963 3.60656 26.1499 5.72756C26.6029 7.84856 25.3949 10.0201 23.2809 10.6261ZM23.7843 6.73756C23.7843 7.59606 23.0796 8.30306 22.2239 8.30306C21.3683 8.30306 20.6636 7.59606 20.6636 6.73756C20.6636 5.87906 21.3683 5.17206 22.2239 5.17206C23.0796 5.12156 23.7843 5.82856 23.7843 6.73756Z" fill="#009BDE"/>
<path d="M54.4876 68.3476C61.0758 68.3476 66.4166 62.9891 66.4166 56.3791C66.4166 49.7691 61.0758 44.4106 54.4876 44.4106C47.8994 44.4106 42.5586 49.7691 42.5586 56.3791C42.5586 62.9891 47.8994 68.3476 54.4876 68.3476Z" fill="#009BDE"/>
<path d="M75.2751 68.4486C81.1127 68.4486 85.8451 63.7006 85.8451 57.8436C85.8451 51.9866 81.1127 47.2386 75.2751 47.2386C69.4374 47.2386 64.7051 51.9866 64.7051 57.8436C64.7051 63.7006 69.4374 68.4486 75.2751 68.4486Z" fill="#009BDE"/>
<path d="M96.264 68.3476C102.852 68.3476 108.193 62.9891 108.193 56.3791C108.193 49.7691 102.852 44.4106 96.264 44.4106C89.6758 44.4106 84.335 49.7691 84.335 56.3791C84.335 62.9891 89.6758 68.3476 96.264 68.3476Z" fill="#009BDE"/>
<path d="M117.102 68.4486C122.94 68.4486 127.672 63.7006 127.672 57.8436C127.672 51.9866 122.94 47.2386 117.102 47.2386C111.265 47.2386 106.532 51.9866 106.532 57.8436C106.532 63.7006 111.265 68.4486 117.102 68.4486Z" fill="#009BDE"/>
<path d="M79.604 53.6016C80.7617 54.7126 81.3657 56.1266 81.3657 57.8436C81.3657 59.5606 80.7617 60.9746 79.604 62.0856C78.4464 63.1966 76.9867 63.7521 75.3257 63.7521C73.6144 63.7521 72.1547 63.1966 70.997 62.0856C69.789 60.9746 69.2354 59.5606 69.2354 57.8436C69.2354 56.1266 69.8394 54.7126 70.997 53.6016C72.205 52.4906 73.6144 51.9351 75.3257 51.9351C76.9867 51.9351 78.396 52.4906 79.604 53.6016ZM77.49 60.2676C78.1443 59.6616 78.4464 58.8536 78.4464 57.8436C78.4464 56.8336 78.1443 56.0256 77.49 55.4196C76.8357 54.8136 76.131 54.4601 75.2754 54.4601C74.4197 54.4601 73.6647 54.7631 73.0104 55.3691C72.356 55.9751 72.054 56.7831 72.054 57.7931C72.054 58.8031 72.356 59.6111 73.0104 60.2171C73.6647 60.8231 74.4197 61.1261 75.2754 61.1261C76.131 61.2271 76.8357 60.9241 77.49 60.2676Z" fill="white"/>
<path d="M121.38 53.6016C122.538 54.7126 123.142 56.1266 123.142 57.8436C123.142 59.5606 122.538 60.9746 121.38 62.0856C120.223 63.1966 118.763 63.7521 117.102 63.7521C115.391 63.7521 113.931 63.1966 112.773 62.0856C111.565 60.9746 111.012 59.5606 111.012 57.8436C111.012 56.1266 111.616 54.7126 112.773 53.6016C113.981 52.4906 115.391 51.9351 117.102 51.9351C118.813 51.9351 120.223 52.4906 121.38 53.6016ZM119.317 60.2676C119.971 59.6616 120.273 58.8536 120.273 57.8436C120.273 56.8336 119.971 56.0256 119.317 55.4196C118.662 54.8136 117.958 54.4601 117.102 54.4601C116.246 54.4601 115.491 54.7631 114.837 55.3691C114.183 55.9751 113.881 56.7831 113.881 57.7931C113.881 58.8031 114.183 59.6111 114.837 60.2171C115.491 60.8231 116.246 61.1261 117.102 61.1261C117.958 61.2271 118.662 60.9241 119.317 60.2676Z" fill="white"/>
<path d="M100.442 61.5806C100.593 62.0856 100.341 62.5906 99.8885 62.7926C99.1838 63.0956 98.4792 63.2471 97.7745 63.2471C96.4155 63.2471 95.3082 62.8936 94.5532 62.1361C93.7478 61.3786 93.3955 60.2676 93.3955 58.7526V54.0561H91.9358C91.3822 54.0561 90.9795 53.6016 90.9795 53.0966V51.6321H93.3955V48.1981H95.4088C95.9625 48.1981 96.3652 48.6526 96.3652 49.1576V51.5816H99.0832C99.6368 51.5816 100.039 52.0361 100.039 52.5411V54.0056H96.3652V58.4496C96.3652 59.7626 96.9188 60.3686 98.0262 60.3686C98.5798 60.3686 99.2342 60.1666 99.8885 59.8131L100.442 61.5806Z" fill="white"/>
<path d="M58.0609 62.1361C58.2119 62.6411 58.0106 63.1966 57.5073 63.3986C56.7523 63.7016 56.0476 63.8531 55.3933 63.8531C53.9839 63.8531 52.8766 63.4996 52.0713 62.7421C51.2659 61.9846 50.8633 60.8231 50.8633 59.3081V54.5106V52.0361L50.9136 47.6426H52.9773C53.5309 47.6426 53.9839 48.0971 53.9839 48.6526L53.9336 52.0866V54.5611V59.1061C53.9336 60.4191 54.4873 61.0756 55.6449 61.0756C56.2489 61.0756 56.8529 60.8736 57.5576 60.5201L58.0609 62.1361Z" fill="white"/>
<path d="M87.3553 34.9671L88.3619 18.9586L91.4826 19.1606C92.2879 19.2111 92.9423 19.9181 92.8919 20.7766L91.8853 36.7851L88.7646 36.5831C87.9593 36.5326 87.3049 35.7751 87.3553 34.9671Z" fill="#EB0029"/>
<path d="M130.44 37.189L126.716 36.7345C125.86 36.6335 125.256 35.8255 125.357 34.967C123.394 36.2295 121.078 36.684 118.461 36.381C115.793 36.078 113.629 34.765 111.918 32.543C110.206 30.321 109.502 27.6445 109.904 24.564C110.257 21.4835 111.565 19.0595 113.73 17.292C115.944 15.474 118.36 14.767 120.978 15.07C123.645 15.373 125.759 16.383 127.32 18.0495L127.521 16.4335L131.095 16.8375C132.051 16.9385 132.705 17.797 132.605 18.7565L130.44 37.189ZM124.098 29.6645C125.105 28.705 125.608 27.4425 125.608 25.877C125.608 24.3115 125.105 23.049 124.098 22.0895C123.092 21.13 121.934 20.625 120.625 20.625C119.216 20.625 118.008 21.13 117.102 22.0895C116.196 23.049 115.743 24.3115 115.743 25.9275C115.743 27.5435 116.196 28.806 117.102 29.715C118.008 30.6745 119.216 31.129 120.625 31.129C121.934 31.129 123.092 30.624 124.098 29.6645Z" fill="#EB0029"/>
<path d="M67.0708 37.2396L63.7991 36.9871C63.0441 36.9366 62.4904 36.2801 62.5408 35.5226C60.8798 36.6841 58.9168 37.1386 56.6518 36.9871C54.3364 36.8356 52.4238 35.7751 50.8131 33.9066C49.2528 32.0381 48.5481 29.7656 48.7494 27.0891C48.9508 24.4126 49.9574 22.2916 51.8198 20.6251C53.6821 19.0091 55.6954 18.2516 58.0108 18.4031C60.3261 18.5546 62.1884 19.3626 63.6481 20.7261L63.7488 19.3121L66.8694 19.5141C67.6748 19.5646 68.3291 20.2716 68.2788 21.1301L67.0708 37.2396ZM61.5844 31.6341C62.5911 30.6746 63.0944 29.4121 63.0944 27.8466C63.0944 26.2811 62.5911 25.0186 61.5844 24.0591C60.5778 23.0996 59.4201 22.5946 58.1114 22.5946C56.7021 22.5946 55.4941 23.0996 54.5881 24.0591C53.6821 25.0186 53.2291 26.2811 53.2291 27.8971C53.2291 29.5131 53.6821 30.7756 54.5881 31.6846C55.4941 32.6441 56.7021 33.0986 58.1114 33.0986C59.4201 33.0986 60.5778 32.5936 61.5844 31.6341Z" fill="#EB0029"/>
<path d="M132.505 37.492L135.072 6.48505L139.149 6.83855C140.206 6.93955 141.011 7.89905 140.961 8.95955L138.394 39.9665L134.317 39.613C133.209 39.512 132.404 38.603 132.505 37.492Z" fill="#EB0029"/>
<path d="M97.6233 30.5231C98.2777 30.3211 99.0327 30.5736 99.4353 31.1291C100.09 32.0886 101.298 32.4926 103.16 32.3411C104.066 32.2401 104.771 32.0381 105.274 31.6341C105.777 31.2301 105.979 30.7756 105.928 30.1696C105.878 29.3111 105.123 28.8061 103.714 28.6546L99.7877 28.2001C98.026 27.9981 96.667 27.4931 95.6603 26.6346C94.6537 25.7761 94.1 24.6651 93.949 23.3016C93.798 21.4331 94.3517 19.8676 95.6603 18.6051C96.969 17.2921 98.781 16.5346 101.147 16.3326C103.361 16.1306 105.224 16.4841 106.784 17.3931C108.344 18.3021 109.401 19.5646 109.854 21.2311L106.482 22.2411C105.828 22.4431 105.123 22.1906 104.72 21.6351C104.519 21.3321 104.217 21.0796 103.865 20.8271C103.16 20.4231 102.304 20.2211 101.298 20.3221C100.392 20.4231 99.7373 20.6251 99.385 21.0291C99.0327 21.4331 98.8313 21.8876 98.8817 22.3926C98.932 23.2006 99.5863 23.7056 100.744 23.8571L105.324 24.4631C106.985 24.6651 108.244 25.2206 109.2 26.0791C110.156 26.9376 110.66 28.0486 110.76 29.3616C110.962 31.4321 110.307 33.0481 108.898 34.2601C107.489 35.4721 105.526 36.2296 103.009 36.4316C100.744 36.6336 98.781 36.3306 97.12 35.5731C95.459 34.7651 94.402 33.4521 93.9993 31.6341L97.6233 30.5231Z" fill="#EB0029"/>
<path d="M34.4043 31.0786C35.26 30.8261 36.2666 31.0786 36.77 31.8361C37.6256 33.0986 39.2866 33.6036 41.6523 33.3511C42.8603 33.1996 43.7663 32.8966 44.4206 32.3411C45.075 31.7856 45.3266 31.1796 45.2763 30.4221C45.1756 29.3111 44.169 28.6546 42.3066 28.4526L37.1223 27.9476C34.807 27.7456 32.995 27.0386 31.6863 25.9781C30.3273 24.8671 29.5723 23.4531 29.371 21.6351C29.1193 19.2111 29.824 17.1406 31.485 15.4236C33.146 13.7066 35.5116 12.6461 38.6323 12.3431C41.5013 12.0401 44.018 12.4441 46.0816 13.6056C48.1453 14.7671 49.5546 16.4336 50.209 18.5546L45.83 19.9181C44.9743 20.1706 44.018 19.8676 43.4643 19.1606C43.1623 18.7566 42.81 18.4031 42.3066 18.1506C41.4006 17.5951 40.2933 17.3931 38.9343 17.5446C37.7263 17.6961 36.921 17.9991 36.4176 18.5546C35.9143 19.1101 35.713 19.7161 35.8136 20.3726C35.9143 21.4331 36.77 22.0391 38.28 22.2411L44.32 22.8976C46.4843 23.1501 48.1956 23.8066 49.454 24.9681C50.7123 26.0791 51.417 27.5436 51.6183 29.2606C51.9203 31.9371 51.115 34.1086 49.303 35.7751C47.491 37.3911 44.924 38.4011 41.602 38.7546C38.6323 39.0576 36.0653 38.7546 33.8506 37.7446C31.636 36.7346 30.2266 35.0681 29.673 32.6441L34.4043 31.0786Z" fill="#EB0029"/>
<path d="M77.8427 42.8956L73.4637 43.0976L76.1313 36.0276L67.625 18.4031L72.004 18.2011C72.6583 18.1506 73.2623 18.5546 73.514 19.1101L78.497 29.7656L83.0773 17.6456L88.5133 17.3931L79.3023 41.8351C79.0003 42.4411 78.4467 42.8451 77.8427 42.8956Z" fill="#EB0029"/>
<path d="M65.0575 13.8076L65.8125 5.12158L67.5239 5.27308C67.9769 5.32358 68.3292 5.72758 68.2789 6.18208L67.5239 14.8176L65.8125 14.6661C65.3595 14.6156 65.0072 14.2116 65.0575 13.8076Z" fill="#EB0029"/>
<path d="M83.7819 13.7066L84.8389 5.02057L86.5503 5.22257C87.0033 5.27307 87.3053 5.67707 87.2549 6.13157L86.1979 14.8176L84.4866 14.6156C84.0336 14.5651 83.6813 14.1611 83.7819 13.7066Z" fill="#EB0029"/>
<path d="M82.9762 14.8176C82.8252 16.3326 82.2212 17.4436 81.1642 18.2011C80.1072 18.9586 78.7985 19.2111 77.1375 19.0596C74.8222 18.8071 73.2618 17.9486 72.5068 16.3831L74.1678 15.3731C74.5202 15.1711 75.0235 15.2216 75.2752 15.5751C75.4765 15.8276 75.7282 16.0296 75.9295 16.1811C76.2818 16.4336 76.7852 16.5851 77.4395 16.6861C78.2952 16.7871 78.9998 16.5851 79.5535 16.1306C80.1072 15.6761 80.4092 15.0196 80.5098 14.1611V14.0096C79.7045 14.5651 78.5972 14.7671 77.2885 14.6156C76.0302 14.5146 74.9228 13.9086 74.0168 12.8481C73.1108 11.7876 72.7585 10.5756 72.9095 9.26259C73.0605 7.89909 73.6645 6.83859 74.7215 5.98009C75.7785 5.12159 76.9865 4.76809 78.2448 4.91959C79.5535 5.07109 80.5602 5.47509 81.3152 6.13159L81.3655 5.52559L83.0768 5.67709C83.5298 5.72759 83.8822 6.13159 83.8318 6.63659L82.9762 14.8176ZM79.5535 12.0401C80.3588 11.5856 80.7615 10.9291 80.8622 10.0201C80.9628 9.11109 80.6608 8.35359 79.9562 7.79809C79.5032 7.44459 78.9998 7.19209 78.3958 7.14159C77.5905 7.09109 76.9362 7.24259 76.3825 7.69709C75.8288 8.15159 75.4765 8.75759 75.4262 9.51509C75.3255 10.2726 75.5268 10.9291 76.0302 11.4846C76.4832 11.9896 77.1375 12.3431 77.9428 12.3936C78.4462 12.4441 79.0502 12.3431 79.5535 12.0401Z" fill="#EB0029"/>
<path d="M61.8864 11.0805C61.5341 11.939 60.8797 12.444 59.9234 12.5955C59.1684 12.6965 58.5141 12.545 57.9604 12.0905C57.4067 11.636 57.1047 11.03 57.0041 10.2725C56.9034 9.46454 57.0544 8.80804 57.4571 8.25254C57.8597 7.69704 58.4637 7.34354 59.2187 7.24254C60.2254 7.09104 60.9301 7.44454 61.4334 8.20204C61.6347 8.50504 62.0374 8.65654 62.3897 8.50504L64.0004 7.79804C63.5474 6.78804 62.8931 6.03054 61.9367 5.52554C61.0307 5.02054 59.9737 4.81854 58.9167 4.97004C57.5074 5.17204 56.4001 5.77804 55.5947 6.83854C54.7391 7.89904 54.4371 9.16154 54.5881 10.5755C54.7894 12.04 55.3934 13.151 56.5007 13.959C57.2054 14.464 57.9604 14.767 58.7657 14.868L58.9167 15.8275C58.9671 16.282 59.3697 16.585 59.8227 16.5345L61.5341 16.3325L61.3327 14.6155C61.9871 14.363 62.5911 14.0095 63.0944 13.555C63.8997 12.7975 64.3024 11.8885 64.4534 10.7775L62.7924 10.5755C62.3897 10.525 62.0374 10.727 61.8864 11.0805Z" fill="#EB0029"/>
<path d="M96.3651 5.42453C97.1201 6.08103 97.5731 6.99003 97.7241 8.20203L98.3784 13.959L96.6671 14.161C96.2141 14.2115 95.8114 13.9085 95.7611 13.454L95.2578 9.01003C95.2074 8.35353 94.9558 7.79803 94.5531 7.44453C94.1504 7.09103 93.6974 6.93953 93.0934 6.99003C91.5331 7.14153 90.8788 8.35353 91.1304 10.525L91.5834 14.7165L89.8721 14.9185C89.4191 14.969 89.0164 14.666 88.9661 14.2115L88.0098 5.52553L89.7211 5.32353C90.1741 5.27303 90.5768 5.57603 90.6271 6.03053V6.08103C91.2814 5.22253 92.2378 4.76803 93.4961 4.61653C94.6538 4.51553 95.6101 4.76803 96.3651 5.42453Z" fill="#EB0029"/>
<path d="M69.8895 13.959L69.4365 1.03103L71.1479 0.98053C71.6009 0.98053 71.9532 1.33403 72.0035 1.78853L72.4565 14.7165L70.7452 14.767C70.2922 14.767 69.8895 14.4135 69.8895 13.959Z" fill="#EB0029"/>
</svg>
