<?xml version="1.0" encoding="UTF-8"?>
<svg width="153px" height="35px" viewBox="0 0 153 35" version="1.1" xmlns="http://www.w3.org/2000/svg" xmlns:xlink="http://www.w3.org/1999/xlink">
    <title>28CA4D8D-A5C2-4B69-BA40-05AFD25EDC84</title>
    <g id="06-Draw-Result-Evoluzioni-Finetuning" stroke="none" stroke-width="1" fill="none" fill-rule="evenodd">
        <g id="06_1-EVO-Result-Desktop-A-FT" transform="translate(-194.000000, -1602.000000)">
            <g id="Contenuto-pagina" transform="translate(0.000000, 189.000000)">
                <g id="list-result" transform="translate(162.000000, 305.000000)">
                    <g id="Components-/-Results-/-Desktop-/-EVO-/-Master-Large-A-FT" transform="translate(0.000000, 1064.000000)">
                        <g id="Group-75" transform="translate(32.000000, 44.795053)">
                            <path d="M12.23744,21.4913054 C10.53424,21.4913054 8.84784,21.0382664 7.35984,20.1809281 C5.10064,18.877742 3.48384,16.7747463 2.80624,14.2586622 L2.01904,11.3902145 L0.11104,4.34294174 C-0.34576,2.65463253 0.65184,0.915985652 2.34064,0.455755597 L2.98704,0.280772294 C3.68544,0.0946028448 4.40064,0.000319604205 5.11664,0.000319604205 C5.87344,0.000319604205 6.62624,0.106588002 7.35264,0.314330736 L7.47504,0.280772294 C8.17264,0.0946028448 8.88784,0.000319604205 9.60384,0.000319604205 C10.96384,0.000319604205 12.31104,0.344693135 13.51184,0.998283735 C14.06624,0.667493383 14.66784,0.411810019 15.30064,0.24241979 C15.89904,0.0826176871 16.51504,0.00111861472 17.13264,0.00111861472 C20.33344,0.00111861472 23.14864,2.158447 23.97664,5.24582362 C24.46704,7.07236166 24.21584,8.97880074 23.26944,10.6159733 C22.92544,11.2104371 22.50464,11.7441761 22.01824,12.2068032 C21.82704,16.3752411 18.97984,20.0315132 14.77824,21.15652 C13.94624,21.3786449 13.09104,21.4913054 12.23744,21.4913054" id="Fill-1" fill="#FEFEFE"></path>
                            <path d="M17.13272,11.2173086 C14.82552,11.2173086 12.94792,9.34282993 12.94792,7.03848361 C12.94792,4.73333828 14.82552,2.85885962 17.13272,2.85885962 C19.43992,2.85885962 21.31672,4.73333828 21.31672,7.03848361 C21.31672,9.34282993 19.43992,11.2173086 17.13272,11.2173086" id="Fill-3" fill="#FEFEFE"></path>
                            <path d="M142.35808,29.5899161 C139.88368,29.5899161 137.55968,28.6710541 135.77648,27.1089885 C133.88288,28.6342996 131.49248,29.5148092 128.97808,29.5148092 C126.41568,29.5148092 124.00288,28.6175203 122.10368,27.0618469 C120.31808,28.6550738 117.97328,29.5899161 115.45008,29.5899161 C112.97568,29.5899161 110.65168,28.6710541 108.86848,27.1089885 C106.97488,28.6342996 104.58448,29.5148092 102.07008,29.5148092 C96.09168,29.5148092 91.22768,24.6576242 91.22768,18.6866187 C91.22768,12.7156131 96.09168,7.85762919 102.07008,7.85762919 C105.16128,7.85762919 107.98688,9.13205096 109.98208,11.263012 C111.57568,10.2203033 113.46528,9.63862362 115.45008,9.63862362 C117.46128,9.63862362 119.39488,10.2578568 121.01648,11.3477071 C123.02208,9.17999159 125.88448,7.85762919 128.97808,7.85762919 C132.07008,7.85762919 134.89488,9.13205096 136.89008,11.263012 C138.48368,10.2203033 140.37328,9.63862362 142.35808,9.63862362 C147.86528,9.63862362 152.34608,14.1138815 152.34608,19.6142699 C152.34608,25.1146583 147.86528,29.5899161 142.35808,29.5899161" id="Fill-5" fill="#FEFEFE"></path>
                            <path d="M61.76824,29.4502491 L59.76344,29.3232064 C57.48504,29.1777865 55.74984,27.2090246 55.89384,24.9350407 L56.54584,14.6877309 C56.65304,13.0082108 58.04984,11.7178088 59.71144,11.7178088 C59.77944,11.7178088 59.84744,11.7202058 59.91544,11.7242009 L61.92024,11.8520425 C64.20024,11.9974625 65.93544,13.9670234 65.78984,16.2418063 L65.13784,26.4875181 C65.03064,28.1662392 63.63384,29.4566412 61.97224,29.4566412 C61.90424,29.4566412 61.83624,29.4542442 61.76824,29.4502491" id="Fill-7" fill="#FEFEFE"></path>
                            <path d="M80.49096,19.4145972 C80.49256,19.3914259 80.49416,19.3610635 80.49416,19.324309 C80.49416,19.2891525 80.49256,19.2595891 80.49096,19.2356188 C80.48936,19.2627852 80.49016,19.3874308 80.49096,19.4145972 M86.78136,29.7434061 C86.65736,29.7434061 86.53256,29.736215 86.40616,29.7218328 L84.00456,29.4389831 C83.47576,29.3766602 82.98136,29.2184562 82.53736,28.9835471 C81.74376,29.1856967 80.91256,29.2871711 80.04856,29.2871711 C79.60536,29.2871711 79.14776,29.2600047 78.68936,29.206471 C77.10376,29.0203015 75.65096,28.4554011 74.39016,27.5469262 C73.06216,28.4793714 71.39336,29.0394778 69.41976,29.2160591 C69.02616,29.2512156 68.64296,29.2687938 68.26936,29.2687938 C66.71656,29.2687938 65.28136,28.9667678 64.00456,28.372304 C62.03736,27.457437 60.70056,25.7707258 60.24136,23.6229855 C60.01496,22.5618996 60.34856,21.5040096 61.05256,20.768121 C60.51976,19.9299589 60.19576,18.9671513 60.10136,17.9164524 C59.91096,15.7790993 60.61016,13.857479 62.12456,12.3585353 C63.49496,11.0002174 65.33896,10.209197 67.60296,10.0070474 C67.95256,9.97588596 68.29256,9.96070476 68.62456,9.96070476 C70.28696,9.96070476 71.79656,10.3434308 73.11096,11.1000938 C73.35256,11.2391216 73.58376,11.3877375 73.80456,11.5459416 C73.87176,11.4884129 73.94056,11.4308841 74.01016,11.3741544 C75.79416,9.92874434 77.78776,9.19525269 79.93336,9.19525269 C80.29816,9.19525269 80.67096,9.21762498 81.04056,9.26077155 C82.24376,9.40299542 83.34536,9.70901645 84.33736,10.1756386 C84.51736,10.1436782 84.70056,10.127698 84.88536,10.127698 C85.00856,10.127698 85.13256,10.1348891 85.25656,10.1492712 L87.55896,10.4201358 C89.90856,10.6973925 91.59416,12.8307505 91.31816,15.1758464 L89.93016,26.9436732 C89.74056,28.5560764 88.36856,29.7434061 86.78136,29.7434061" id="Fill-9" fill="#FEFEFE"></path>
                            <path d="M40.25464,20.6626516 C40.25624,20.6394803 40.25784,20.6107159 40.25784,20.5755594 C40.25784,20.542001 40.25624,20.5140356 40.25464,20.4908643 C40.25384,20.5164327 40.25384,20.6362842 40.25464,20.6626516 L40.25464,20.6626516 Z M28.27384,30.7565514 C26.48264,30.7565514 24.82184,30.422565 23.33784,29.7633813 C20.99304,28.7222706 19.44344,26.8334098 18.85624,24.3005464 C18.54664,22.9661989 19.13144,21.6198662 20.23864,20.9127419 C19.29864,19.8117054 18.72424,18.4597796 18.56184,16.9424586 C18.29464,14.4479478 19.07224,12.1875471 20.81064,10.4041556 C22.41304,8.76059097 24.60824,7.77940606 27.33624,7.48856623 C27.83784,7.43423352 28.33544,7.40706716 28.81464,7.40706716 C30.72744,7.40706716 32.47144,7.83453779 33.99864,8.67669487 C35.39704,9.44853902 36.50984,10.5008359 37.28744,11.7744586 C38.07864,11.5259664 38.90264,11.3989237 39.74504,11.3989237 C39.95304,11.3989237 40.16264,11.4069138 40.37384,11.422095 C41.42104,11.497202 42.38904,11.7129348 43.27464,12.0660975 C43.45464,12.034137 43.63784,12.0181568 43.82584,12.0181568 C43.90264,12.0181568 43.97944,12.0205539 44.05784,12.0261469 L46.06184,12.1707678 C47.16424,12.2498699 48.17144,12.7540455 48.89464,13.5890115 C49.61864,14.4247765 49.97304,15.4906565 49.89384,16.592492 L49.15304,26.8334098 C49.03224,28.5017437 47.63864,29.7753665 45.98904,29.7753665 C45.91304,29.7753665 45.83544,29.7729694 45.75784,29.7673764 L43.66744,29.6163634 C43.21704,29.584403 42.78264,29.4789336 42.37784,29.3087443 C41.57464,29.5356633 40.72424,29.6507208 39.83224,29.6507208 C39.57864,29.6507208 39.32024,29.6411327 39.05704,29.6219565 C37.87464,29.5372613 36.76264,29.2200542 35.75064,28.6871142 C34.20264,29.7545922 32.25624,30.4185699 29.94824,30.6654642 C29.37944,30.726189 28.81624,30.7565514 28.27384,30.7565514 L28.27384,30.7565514 Z" id="Fill-11" fill="#FEFEFE"></path>
                            <path d="M91.8632,31.5081806 C91.776,31.5081806 91.688,31.5041855 91.6,31.4969944 L88.9816,31.2788646 C87.8008,31.1813853 86.728,30.629269 85.9624,29.7263871 C85.196,28.8227062 84.8288,27.6753271 84.9264,26.4951886 L86.5824,6.62859122 C86.652,5.79042919 87.052,5.01458998 87.6952,4.47126283 C88.2704,3.98546444 88.9976,3.72099196 89.7464,3.72099196 C89.8336,3.72099196 89.9216,3.72498701 90.0096,3.73217811 L92.628,3.94950897 C93.8096,4.04778726 94.8816,4.59910451 95.6472,5.50278541 C96.4136,6.4064663 96.7808,7.5546444 96.6824,8.73558194 L95.0272,28.5997823 C94.9576,29.4379443 94.5568,30.2137835 93.9136,30.7579097 C93.3392,31.2437081 92.6112,31.5081806 91.8632,31.5081806" id="Fill-13" fill="#FEFEFE"></path>
                            <path d="M50.08472,33.5139367 C49.07192,33.5139367 48.11672,33.0305353 47.51752,32.2075545 C46.88952,31.3446231 46.73752,30.2244104 47.11352,29.2264463 L48.33592,25.9808656 L43.45912,15.90774 C42.99432,14.9489274 43.04312,13.8215236 43.58952,12.9058575 C44.13512,11.9901915 45.10472,11.4093108 46.17032,11.3597722 L48.99272,11.2295335 C49.04152,11.2271364 49.13752,11.2247394 49.18712,11.2247394 C50.80632,11.2247394 52.29832,12.1715669 52.98632,13.6369521 L53.00952,13.6864908 L53.29112,12.94421 C53.73912,11.7624735 54.84872,10.9586689 56.11352,10.9003411 L59.61832,10.738142 C59.66712,10.735745 59.71592,10.7341469 59.76552,10.7341469 C60.77912,10.7341469 61.73592,11.2191463 62.33512,12.0437252 C62.96232,12.9082545 63.11272,14.0300653 62.73352,15.0288284 L56.79672,30.6766503 C56.20312,32.2403139 54.73992,33.3006009 53.06792,33.3797029 L50.23192,33.5107406 C50.18312,33.5131377 50.13352,33.5139367 50.08472,33.5139367" id="Fill-15" fill="#FEFEFE"></path>
                            <path d="M46.27376,15.3996492 C46.18416,15.3996492 46.09376,15.3956542 46.00336,15.3876641 L44.91136,15.2949788 C43.92736,15.2110827 43.03376,14.7492547 42.39616,13.9933907 C41.75856,13.2367278 41.45456,12.2787142 41.54016,11.2943332 L42.01616,5.71883785 C42.08816,4.88067582 42.49056,4.10563562 43.13376,3.56390649 C43.70816,3.08050513 44.43376,2.81763067 45.17936,2.81763067 C45.26976,2.81763067 45.35936,2.82162573 45.44976,2.82961583 L46.54176,2.92230105 C47.52576,3.00619716 48.42016,3.46802523 49.05696,4.22388918 C49.69456,4.97975312 49.99936,5.93856574 49.91376,6.92294669 L49.43696,12.4984421 C49.36496,13.3366041 48.96336,14.1116443 48.31936,14.6533734 C47.74416,15.1367748 47.01936,15.3996492 46.27376,15.3996492" id="Fill-17" fill="#FEFEFE"></path>
                            <path d="M58.2788,15.4180265 C58.1492,15.4180265 58.0196,15.4100364 57.8892,15.3940562 L56.802,15.2598224 C55.8228,15.1391718 54.9468,14.6437853 54.3388,13.865549 C53.73,13.0873128 53.462,12.1189121 53.5828,11.1385262 L54.2692,5.58220705 C54.3724,4.74724106 54.8028,3.98738207 55.4668,3.47042226 C56.0276,3.03336351 56.7156,2.79925343 57.4196,2.79925343 C57.5492,2.79925343 57.6788,2.80724354 57.8092,2.82322375 L58.8964,2.95745751 C60.9212,3.20674879 62.366,5.05565912 62.1164,7.07795473 L61.4292,12.6358719 C61.3268,13.4700388 60.8956,14.2298978 60.2316,14.7468576 C59.6708,15.1839164 58.9828,15.4180265 58.2788,15.4180265" id="Fill-19" fill="#FEFEFE"></path>
                            <path d="M53.03152,18.1439307 C52.75472,18.1439307 52.46832,18.1295485 52.17232,18.1007842 C48.70032,17.7604057 47.22032,15.7844527 46.64752,14.6370736 C46.09072,13.5232529 46.24992,12.2280569 46.96832,11.2916166 C46.59552,10.3735535 46.45392,9.37878541 46.55552,8.34326778 C46.72512,6.62459617 47.53552,5.1448287 48.90032,4.06376747 C50.05472,3.15049845 51.41152,2.6678961 52.82512,2.6678961 C53.03152,2.6678961 53.23952,2.67828324 53.45072,2.6982585 C54.07632,2.76058132 54.65872,2.88602597 55.19632,3.07539147 C55.28272,3.07698949 55.36992,3.08178355 55.45712,3.09057267 L56.54352,3.19684106 C58.58512,3.39579468 60.08832,5.21913667 59.89232,7.26060853 L59.38752,12.5188967 C59.15152,14.9191243 57.91232,16.264658 56.91472,16.9725813 C55.81632,17.7500186 54.51072,18.1439307 53.03152,18.1439307" id="Fill-21" fill="#FEFEFE"></path>
                            <path d="M41.27024,16.5131503 C39.93504,16.5131503 38.74304,15.7940408 38.09104,14.7057885 C37.82784,14.5635646 37.57264,14.4021645 37.32624,14.2207891 C35.92784,13.1948596 35.06624,11.7079011 34.83504,9.92051453 C34.60384,8.13872109 35.05504,6.48237229 36.13984,5.13204453 C37.19584,3.81847124 38.65584,3.00907359 40.36224,2.78854669 C40.64624,2.7509932 40.93424,2.73261596 41.21504,2.73261596 C42.29184,2.73261596 43.31744,2.99788745 44.26224,3.52203834 C45.45344,4.18282004 46.38144,5.19516636 46.94384,6.44881385 C47.20624,7.03448856 47.28304,7.68008905 47.17264,8.30171923 C47.41024,8.81308596 47.51424,9.39316759 47.44544,9.99322449 C47.28224,11.4274484 46.64704,12.7074632 45.60944,13.6958392 C45.59024,13.7142165 45.57104,13.7325937 45.55184,13.7501719 C45.31664,15.0789264 44.24224,16.1599876 42.83184,16.342162 L41.74544,16.4819889 C41.61024,16.4995671 41.40624,16.5131503 41.27024,16.5131503" id="Fill-23" fill="#FEFEFE"></path>
                            <path d="M60.64984,15.4682043 C58.76344,15.4682043 57.18264,14.0563528 56.97224,12.1842711 L56.34904,6.62555498 C56.15384,4.88531008 57.40744,3.31685244 59.15064,3.12109487 L60.23784,2.99964527 C60.35464,2.9868611 60.53224,2.97647396 60.65064,2.97647396 C60.74024,2.97647396 60.82984,2.97967001 60.91864,2.98606209 C61.45464,2.76233915 62.03704,2.61372319 62.65544,2.54420928 C62.89464,2.51784193 63.12744,2.50505776 63.35464,2.50505776 C64.68904,2.50505776 65.91944,2.95090563 66.91304,3.79386172 C68.03304,4.74468423 68.71544,6.07024267 68.89064,7.62831317 L69.30584,11.3317269 C69.40024,12.1674919 69.15704,13.0064529 68.63224,13.6632396 C68.10664,14.3208252 67.34104,14.7419038 66.50424,14.836187 L65.41704,14.9576366 C65.30024,14.9712198 65.12264,14.9808079 65.00424,14.9808079 C64.53464,14.9808079 64.08424,14.8929168 63.66904,14.7331147 C63.23784,15.0487238 62.71944,15.2588636 62.14984,15.3227844 L61.06264,15.445033 C60.94504,15.4578172 60.76744,15.4682043 60.64984,15.4682043 L60.64984,15.4682043 Z" id="Fill-25" fill="#FEFEFE"></path>
                            <path d="M48.3312,15.3461954 C46.3248,15.3461954 44.7,13.7777378 44.6328,11.7746184 L44.3528,3.47769326 C44.3248,2.6371342 44.632,1.81974644 45.2072,1.20530736 C45.7816,0.591667285 46.5784,0.230514533 47.4192,0.201750155 C47.4192,0.201750155 48.6024,0.16339765 48.6376,0.16339765 C50.644,0.16339765 52.2688,1.73185529 52.336,3.73497464 L52.6152,12.0318998 C52.644,12.8724589 52.3368,13.6898466 51.7616,14.3042857 C51.1864,14.9179258 50.3904,15.2798776 49.5488,15.3078429 C49.5488,15.3078429 48.3664,15.3461954 48.3312,15.3461954" id="Fill-27" fill="#FEFEFE"></path>
                            <path d="M18.14248,7.03816401 C18.14248,7.59507434 17.69048,8.04651528 17.13288,8.04651528 C16.57528,8.04651528 16.12248,7.59507434 16.12248,7.03816401 C16.12248,6.48125368 16.57528,6.02901373 17.13288,6.02901373 C17.69048,6.02901373 18.14248,6.48125368 18.14248,7.03816401 M17.81368,9.53187582 C17.63448,9.58061546 17.13368,9.71644725 17.13368,9.71644725 C17.13368,9.71644725 17.25608,10.1654912 17.31048,10.3692388 C18.05848,13.1577855 16.39608,16.0334244 13.60488,16.7804992 C12.25208,17.142451 10.84008,16.9570805 9.62728,16.2579463 C8.41528,15.5588121 7.54808,14.4298103 7.18568,13.0794825 C7.18568,13.0786835 7.18488,13.0778845 7.18488,13.0770855 C7.18488,13.0770855 7.18488,13.0762865 7.18408,13.0754874 L4.84088,4.54045714 C5.56568,4.48612443 6.29048,4.64912257 6.93448,5.02066246 C7.77928,5.50725986 8.38328,6.29428522 8.63608,7.2355196 C8.64728,7.27706815 8.66168,7.31621967 8.68008,7.35297415 L9.80408,11.4590892 C9.88648,11.7619142 10.16088,11.9608678 10.46008,11.9608678 C10.51928,11.9608678 10.57928,11.9528777 10.63928,11.9368975 C11.00168,11.8386192 11.21608,11.4654813 11.11768,11.1027305 L9.32568,4.54045714 C10.05208,4.48532542 10.77688,4.64912257 11.42168,5.02066246 C12.26648,5.50725986 12.87128,6.29428522 13.12328,7.2355196 L13.96328,10.3436705 C14.06088,10.7064213 14.43368,10.9213551 14.79688,10.8238758 C15.15928,10.7271955 15.37528,10.3540576 15.27768,9.99210588 L14.68568,7.80841014 C14.68168,7.78443983 14.67688,7.76046951 14.67048,7.73729821 C14.30728,6.38057835 15.11528,4.98151095 16.47368,4.61796116 C17.83128,4.25521039 19.23208,5.06221101 19.59608,6.41893086 C19.95848,7.76845962 19.16088,9.16672801 17.81368,9.53187582 M20.91048,6.06736623 C20.35208,3.98754187 18.20408,2.74827656 16.12168,3.3059859 C15.02568,3.59842375 14.16328,4.3319154 13.67368,5.26356166 C13.26248,4.69067112 12.73128,4.20647075 12.10168,3.84371998 C10.94248,3.17494818 9.59128,2.99756784 8.29768,3.34353939 C8.12328,3.39068101 7.63928,3.52171874 7.63928,3.52171874 C7.63928,3.52171874 7.71528,3.79897539 7.74888,3.92442004 C7.68888,3.88686654 7.67608,3.87887644 7.61448,3.84371998 C6.45528,3.17494818 5.10408,2.99756784 3.81048,3.34353939 C3.64008,3.38908299 3.20168,3.50813556 3.17608,3.51532665 L5.08088,10.5514132 L5.08008,10.5514132 L5.87208,13.4350422 C5.87288,13.4350422 5.87288,13.4350422 5.87288,13.4358412 C6.32968,15.1345375 7.42168,16.5551782 8.94728,17.4348888 C9.96408,18.0213625 11.09288,18.3209915 12.23768,18.3209915 C12.81048,18.3209915 13.38808,18.2450855 13.95688,18.0932735 C17.26808,17.2071708 19.31848,13.9416148 18.75848,10.6313143 C19.49448,10.2973279 20.10728,9.74361361 20.52008,9.03089623 C21.04248,8.12721534 21.18088,7.07491849 20.91048,6.06736623" id="Fill-29" fill="#030100"></path>
                            <g id="Group-3" transform="translate(3.176080, 3.170834)" fill="#23AAE2">
                                <path d="M14.9664,3.86732982 C14.9664,4.42424015 14.5144,4.87568109 13.9568,4.87568109 C13.3992,4.87568109 12.9464,4.42424015 12.9464,3.86732982 C12.9464,3.31041949 13.3992,2.85817954 13.9568,2.85817954 C14.5144,2.85817954 14.9664,3.31041949 14.9664,3.86732982 M14.6376,6.36104163 C14.4584,6.40978127 13.9576,6.54561306 13.9576,6.54561306 C13.9576,6.54561306 14.08,6.99465697 14.1344,7.19840465 C14.8824,9.98695134 13.22,12.8625902 10.4288,13.609665 C9.076,13.9716168 7.664,13.7862463 6.4512,13.0871121 C5.2392,12.3879779 4.372,11.2589761 4.0096,9.90864831 C4.0096,9.9078493 4.0088,9.90705029 4.0088,9.90625128 C4.0088,9.90625128 4.0088,9.90545227 4.008,9.90465326 L1.6648,1.36962296 C2.3896,1.31529024 3.1144,1.47828839 3.7584,1.84982828 C4.6032,2.33642568 5.2072,3.12345103 5.46,4.06468542 C5.4712,4.10623396 5.4856,4.14538548 5.504,4.18213996 L6.628,8.28825499 C6.7104,8.59107998 6.9848,8.79003359 7.284,8.79003359 C7.3432,8.79003359 7.4032,8.78204349 7.4632,8.76606328 C7.8256,8.66778499 8.04,8.29464708 7.9416,7.9318963 L6.1496,1.36962296 C6.876,1.31449123 7.6008,1.47828839 8.2456,1.84982828 C9.0904,2.33642568 9.6952,3.12345103 9.9472,4.06468542 L10.7872,7.17283631 C10.8848,7.53558709 11.2576,7.75052092 11.6208,7.65304163 C11.9832,7.55636136 12.1992,7.18322345 12.1016,6.82127169 L11.5096,4.63757596 C11.5056,4.61360564 11.5008,4.58963533 11.4944,4.56646402 C11.1312,3.20974417 11.9392,1.81067676 13.2976,1.44712698 C14.6552,1.0843762 16.056,1.89137682 16.42,3.24809667 C16.7824,4.59762543 15.9848,5.99589383 14.6376,6.36104163 M17.7344,2.89653205 C17.176,0.816707681 15.028,-0.422557625 12.9456,0.135151714 C11.8496,0.427589562 10.9872,1.16108121 10.4976,2.09272747 C10.0864,1.51983693 9.5552,1.03563656 8.9256,0.672885789 C7.7664,0.00411398946 6.4152,-0.173266344 5.1216,0.172705208 C4.9472,0.219846828 4.4632,0.350884552 4.4632,0.350884552 C4.4632,0.350884552 4.5392,0.6281412 4.5728,0.753585851 C4.5128,0.716032357 4.5,0.708042252 4.4384,0.672885789 C3.2792,0.00411398946 1.928,-0.173266344 0.6344,0.172705208 C0.464,0.218248807 0.0256,0.337301374 -2.11386464e-13,0.344492468 L1.9048,7.38057905 L1.904,7.38057905 L2.696,10.264208 C2.6968,10.264208 2.6968,10.264208 2.6968,10.265007 C3.1536,11.9637034 4.2456,13.384344 5.7712,14.2640546 C6.788,14.8505283 7.9168,15.1501573 9.0616,15.1501573 C9.6344,15.1501573 10.212,15.0742513 10.7808,14.9224393 C14.092,14.0363366 16.1424,10.7707807 15.5824,7.4604801 C16.3184,7.1264937 16.9312,6.57277942 17.344,5.86006204 C17.8664,4.95638115 18.0048,3.9040843 17.7344,2.89653205" id="Fill-31"></path>
                                <path d="M106.56096,15.5157845 C106.56096,19.7449471 103.12816,23.1735012 98.89376,23.1735012 C94.65936,23.1735012 91.22656,19.7449471 91.22656,15.5157845 C91.22656,11.2866218 94.65936,7.85806773 98.89376,7.85806773 C103.12816,7.85806773 106.56096,11.2866218 106.56096,15.5157845" id="Fill-33"></path>
                                <path d="M119.08712,16.4435156 C119.08712,20.2020611 116.03672,23.2486881 112.27352,23.2486881 C108.51032,23.2486881 105.45992,20.2020611 105.45992,16.4435156 C105.45992,12.6849701 108.51032,9.63834306 112.27352,9.63834306 C116.03672,9.63834306 119.08712,12.6849701 119.08712,16.4435156" id="Fill-35"></path>
                                <path d="M133.46912,15.5157845 C133.46912,19.7449471 130.03632,23.1735012 125.80192,23.1735012 C121.56752,23.1735012 118.13472,19.7449471 118.13472,15.5157845 C118.13472,11.2866218 121.56752,7.85806773 125.80192,7.85806773 C130.03632,7.85806773 133.46912,11.2866218 133.46912,15.5157845" id="Fill-37"></path>
                                <path d="M145.99528,16.4435156 C145.99528,20.2020611 142.94488,23.2486881 139.18168,23.2486881 C135.41928,23.2486881 132.36888,20.2020611 132.36888,16.4435156 C132.36888,12.6849701 135.41928,9.63834306 139.18168,9.63834306 C142.94488,9.63834306 145.99528,12.6849701 145.99528,16.4435156" id="Fill-39"></path>
                            </g>
                            <path d="M116.89096,21.1698635 C117.30696,20.7695592 117.51416,20.2510014 117.51416,19.61419 C117.51416,18.9773786 117.30696,18.4588208 116.89096,18.0585165 C116.47576,17.6582122 116.00296,17.4584596 115.47176,17.4584596 C114.92136,17.4584596 114.43576,17.6566142 114.01576,18.0521244 C113.59496,18.4468356 113.38536,18.9685895 113.38536,19.61419 C113.38536,20.2605895 113.59496,20.7815443 114.01576,21.1770545 C114.43576,21.5725647 114.92136,21.7699203 115.47176,21.7699203 C116.00296,21.7699203 116.47576,21.5701677 116.89096,21.1698635 M118.23096,16.8871671 C118.98936,17.5958894 119.36856,18.5051634 119.36856,19.61419 C119.36856,20.7232166 118.98936,21.6324905 118.23096,22.3420119 C117.47336,23.0507342 116.55336,23.4054949 115.47176,23.4054949 C114.37016,23.4054949 113.43816,23.0507342 112.67496,22.3420119 C111.91256,21.6324905 111.53096,20.7232166 111.53096,19.61419 C111.53096,18.5051634 111.91256,17.5958894 112.67496,16.8871671 C113.43816,16.1776458 114.37016,15.8236841 115.47176,15.8236841 C116.55336,15.8236841 117.47336,16.1776458 118.23096,16.8871671" id="Fill-41" fill="#FEFEFE"></path>
                            <path d="M143.79952,21.1698635 C144.21472,20.7695592 144.42272,20.2510014 144.42272,19.61419 C144.42272,18.9773786 144.21472,18.4588208 143.79952,18.0585165 C143.38432,17.6582122 142.91072,17.4584596 142.37952,17.4584596 C141.82912,17.4584596 141.34432,17.6566142 140.92352,18.0521244 C140.50352,18.4468356 140.29392,18.9685895 140.29392,19.61419 C140.29392,20.2605895 140.50352,20.7815443 140.92352,21.1770545 C141.34432,21.5725647 141.82912,21.7699203 142.37952,21.7699203 C142.91072,21.7699203 143.38432,21.5701677 143.79952,21.1698635 M145.13952,16.8871671 C145.89792,17.5958894 146.27712,18.5051634 146.27712,19.61419 C146.27712,20.7232166 145.89792,21.6324905 145.13952,22.3420119 C144.38112,23.0507342 143.46112,23.4054949 142.37952,23.4054949 C141.27872,23.4054949 140.34672,23.0507342 139.58352,22.3420119 C138.82032,21.6324905 138.43952,20.7232166 138.43952,19.61419 C138.43952,18.5051634 138.82032,17.5958894 139.58352,16.8871671 C140.34672,16.1776458 141.27872,15.8236841 142.37952,15.8236841 C143.46112,15.8236841 144.38112,16.1776458 145.13952,16.8871671" id="Fill-43" fill="#FEFEFE"></path>
                            <path d="M131.6468,21.991486 C131.7548,22.3046981 131.5972,22.6482726 131.29,22.7713202 C130.822,22.9590877 130.3732,23.0541699 129.946,23.0541699 C129.0572,23.0541699 128.362,22.8152658 127.8596,22.3374575 C127.3572,21.8596492 127.106,21.1389417 127.106,20.1745361 L127.106,17.1790456 L126.1772,17.1790456 C125.834,17.1790456 125.5564,16.901789 125.5564,16.5590135 L125.5564,15.6161811 L127.106,15.6161811 L127.106,13.4316863 L128.3972,13.4316863 C128.7404,13.4316863 129.018,13.709742 129.018,14.0517185 L129.018,15.6161811 L130.7588,15.6161811 C131.102,15.6161811 131.3796,15.8942367 131.3796,16.2370122 L131.3796,17.1790456 L129.018,17.1790456 L129.018,20.0299152 C129.018,20.8592881 129.3708,21.2739745 130.0756,21.2739745 C130.4428,21.2739745 130.8436,21.158118 131.2788,20.9264049 L131.6468,21.991486 Z" id="Fill-45" fill="#FEFEFE"></path>
                            <path d="M104.38544,22.3590308 C104.49744,22.678635 104.33744,23.0301996 104.02384,23.1580413 C103.54544,23.3522009 103.08704,23.4496801 102.65024,23.4513268 C101.74064,23.4552732 101.02944,23.213173 100.51344,22.7265756 C99.99824,22.2407772 99.73904,21.5040895 99.73584,20.5173116 L99.72384,17.4547043 L99.71824,15.8566832 L99.75104,13.0385732 L101.07104,13.0337774 C101.42144,13.0329801 101.70704,13.3158298 101.70784,13.6657964 L101.67344,15.8494921 L101.67984,17.4475132 L101.69024,20.3623035 C101.69344,21.2108527 102.05504,21.6335293 102.77664,21.6311322 C103.15184,21.6295342 103.56144,21.5096826 104.00464,21.2715775 L104.38544,22.3590308 Z" id="Fill-47" fill="#FEFEFE"></path>
                            <g id="Group-2" transform="translate(21.685113, 3.333978)" fill="#EA0029">
                                <path d="M37.3768875,21.8008953 L38.0288875,11.5551835 L40.0344875,11.6822262 C40.5664875,11.7157846 40.9704875,12.1744167 40.9368875,12.7057587 L40.2840875,22.9514705 L38.2792875,22.8244278 C37.7472875,22.7908694 37.3432875,22.3322373 37.3768875,21.8008953" id="Fill-49"></path>
                                <path d="M61.0148075,18.4097349 C61.6612075,17.7873057 61.9836075,16.9803051 61.9836075,15.9903311 C61.9836075,14.9995581 61.6612075,14.1893614 61.0148075,13.5597411 C60.3684075,12.9293218 59.6252075,12.6145117 58.7836075,12.6145117 C57.8676075,12.6145117 57.1124075,12.9213317 56.5188075,13.5365698 C55.9260075,14.1518079 55.6292075,14.9699947 55.6292075,15.9903311 C55.6292075,17.0106675 55.9260075,17.8248592 56.5188075,18.4321072 C57.1124075,19.0401542 57.8676075,19.3437782 58.7836075,19.3437782 C59.6252075,19.3437782 60.3684075,19.0321641 61.0148075,18.4097349 L61.0148075,18.4097349 Z M65.0924075,23.2381555 L62.6900075,22.9561047 C62.1332075,22.8905859 61.7356075,22.3872093 61.8012075,21.8310979 C60.5380075,22.6245154 59.0628075,22.9217473 57.3756075,22.7227937 C55.6708075,22.523041 54.2660075,21.7040553 53.1612075,20.2658363 C52.0556075,18.8284164 51.6188075,17.1289211 51.8500075,15.1681493 C52.0812075,13.2081765 52.9060075,11.652503 54.3252075,10.5027269 C55.7436075,9.35374976 57.2972075,8.87833851 58.9844075,9.07649311 C60.6892075,9.27704475 62.0540075,9.91705217 63.0788075,10.9965154 L63.2004075,9.96499281 L65.5028075,10.2358574 C66.1148075,10.3077683 66.5516075,10.8606836 66.4796075,11.4711276 L65.0924075,23.2381555 Z" id="Fill-51"></path>
                                <path d="M20.7784875,19.6609854 C21.4248875,19.0385562 21.7472875,18.2315556 21.7472875,17.2415816 C21.7472875,16.2508085 21.4248875,15.4414109 20.7784875,14.8109916 C20.1328875,14.1805723 19.3888875,13.8657621 18.5472875,13.8657621 C17.6312875,13.8657621 16.8760875,14.1733812 16.2824875,14.7886193 C15.6896875,15.4038574 15.3928875,16.2212451 15.3928875,17.2415816 C15.3928875,18.261918 15.6896875,19.0761097 16.2824875,19.6833577 C16.8760875,20.2914047 17.6312875,20.5950287 18.5472875,20.5950287 C19.3888875,20.5950287 20.1328875,20.2834146 20.7784875,19.6609854 L20.7784875,19.6609854 Z M24.3008875,23.2709149 L22.2112875,23.1199019 C21.7272875,23.0847454 21.3624875,22.6644659 21.3976875,22.1810645 C20.3352875,22.9169532 19.0696875,23.2317634 17.6016875,23.125495 C16.1176875,23.0192266 14.8696875,22.364837 13.8576875,21.1631251 C12.8448875,19.9622123 12.4000875,18.5088122 12.5232875,16.8021258 C12.6464875,15.0962383 13.3000875,13.7179452 14.4832875,12.6672464 C15.6656875,11.6173465 16.9920875,11.1443323 18.4600875,11.2506007 C19.9432875,11.3576681 21.1496875,11.8578487 22.0792875,12.7527405 L22.1440875,11.8546527 L24.1480875,11.9992736 C24.6800875,12.0376261 25.0800875,12.4994542 25.0416875,13.0307961 L24.3008875,23.2709149 Z" id="Fill-53"></path>
                                <path d="M66.4054475,23.4238455 L68.0606475,3.5580471 L70.6798475,3.77537796 C71.3750475,3.83290672 71.8918475,4.44255174 71.8334475,5.13689188 L70.1782475,25.0034893 L67.5598475,24.7853594 C66.8646475,24.7278307 66.3478475,24.1181856 66.4054475,23.4238455" id="Fill-55"></path>
                                <path d="M43.9706475,18.9399583 C44.3994475,18.8129156 44.8730475,18.9623306 45.1210475,19.3338705 C45.5370475,19.9578977 46.3346475,20.2175761 47.5138475,20.1121067 C48.0994475,20.060171 48.5538475,19.905163 48.8746475,19.6470826 C49.1962475,19.3890022 49.3410475,19.0805841 49.3090475,18.7234264 C49.2610475,18.1864914 48.7810475,17.8604951 47.8682475,17.7454376 L45.3314475,17.4553968 C44.2042475,17.3267561 43.3162475,16.9879756 42.6690475,16.4398544 C42.0202475,15.8909342 41.6570475,15.1782168 41.5786475,14.2993052 C41.4722475,13.1135736 41.8370475,12.1052224 42.6738475,11.2766485 C43.5106475,10.4480746 44.6866475,9.96627122 46.2002475,9.83123845 C47.6162475,9.70499478 48.8306475,9.93271278 49.8418475,10.5143924 C50.8538475,11.0960721 51.5138475,11.9134598 51.8218475,12.9673547 L49.6650475,13.598573 C49.2362475,13.7240177 48.7746475,13.5658136 48.5186475,13.2014648 C48.3786475,13.0041092 48.1962475,12.835518 47.9698475,12.6972892 C47.5274475,12.4248266 46.9802475,12.3177592 46.3290475,12.3760869 C45.7434475,12.4288216 45.3306475,12.5838297 45.0906475,12.8435081 C44.8514475,13.1023875 44.7466475,13.3948253 44.7754475,13.7192236 C44.8218475,14.2393794 45.2194475,14.5485965 45.9666475,14.6452768 L48.9290475,15.0200127 C49.9906475,15.1550455 50.8218475,15.5026151 51.4218475,16.0635204 C52.0210475,16.6252248 52.3594475,17.3283541 52.4354475,18.1737072 C52.5530475,19.4904765 52.1586475,20.5419744 51.2530475,21.3274017 C50.3466475,22.112829 49.0794475,22.5786522 47.4522475,22.7232731 C46.0034475,22.8527128 44.7394475,22.6665433 43.6610475,22.1647647 C42.5818475,21.6629861 41.9154475,20.816834 41.6610475,19.6271073 L43.9706475,18.9399583 Z" id="Fill-57"></path>
                                <path d="M3.27496746,19.2984743 C3.83416746,19.121094 4.45896746,19.3064644 4.79176746,19.7882678 C5.35256746,20.5968664 6.40376746,20.9188676 7.94696746,20.7542715 C8.71336746,20.6719734 9.30456746,20.4586376 9.72056746,20.112666 C10.1357675,19.7666945 10.3181675,19.3599981 10.2685675,18.891778 C10.1925675,18.1894477 9.55576746,17.7731632 8.35656746,17.6429245 L5.02536746,17.3209233 C3.54456746,17.1779004 2.37336746,16.7544248 1.51096746,16.0504966 C0.648567464,15.3457693 0.156567464,14.4197161 0.0333674639,13.270739 C-0.133032536,11.7166636 0.322967464,10.3879091 1.40056746,9.28207852 C2.47736746,8.17704698 4.00776746,7.51866232 5.98856746,7.30692453 C7.84216746,7.10876992 9.43896746,7.37963449 10.7789675,8.11871921 C12.1189675,8.85780394 13.0021675,9.91489485 13.4301675,11.2899919 L10.6165675,12.1665065 C10.0581675,12.3406908 9.45016746,12.1441342 9.10456746,11.671919 C8.91736746,11.4162356 8.67416746,11.1997038 8.37496746,11.0231224 C7.78856746,10.6763519 7.06856746,10.5493092 6.21656746,10.6403964 C5.44936746,10.7218955 4.91256746,10.9352313 4.60456746,11.2804038 C4.29656746,11.6255764 4.16536746,12.0106994 4.21096746,12.436572 C4.28376746,13.117329 4.81096746,13.5128392 5.79256746,13.6231026 L9.68456746,14.0465782 C11.0797675,14.1991892 12.1773675,14.636248 12.9765675,15.3577545 C13.7757675,16.079261 14.2349675,16.993329 14.3533675,18.0999585 C14.5381675,19.8234242 14.0453675,21.2105065 12.8757675,22.2612053 C11.7061675,23.3111051 10.0557675,23.9503135 7.92536746,24.1780315 C6.02936746,24.3809802 4.36856746,24.1652474 2.94296746,23.532431 C1.51736746,22.8988157 0.624567464,21.8057693 0.263767464,20.2508948 L3.27496746,19.2984743 Z" id="Fill-59"></path>
                                <path d="M31.2339275,26.8778081 L28.4003275,27.0088459 L30.1019275,22.4912404 L24.6323275,11.1940308 L27.4539275,11.0629931 C27.8675275,11.0438168 28.2515275,11.2755298 28.4275275,11.6494668 L31.6363275,18.4826047 L34.5747275,10.7338007 L38.0803275,10.5716016 L32.1427275,26.2194235 C31.9987275,26.5997525 31.6411275,26.8594309 31.2339275,26.8778081" id="Fill-61"></path>
                                <path d="M23.0175275,8.23249831 L23.4943275,2.65460592 L24.5863275,2.74809015 C24.8759275,2.77285947 25.0911275,3.02694482 25.0663275,3.31698563 L24.5887275,8.89487803 L23.4975275,8.8013938 C23.2071275,8.77662447 22.9927275,8.52174012 23.0175275,8.23249831" id="Fill-63"></path>
                                <path d="M35.0484075,8.19230808 L35.7348075,2.63598897 L36.8220075,2.77022274 C37.1108075,2.80617821 37.3156075,3.06825366 37.2804075,3.35669645 L36.5940075,8.91301556 L35.5068075,8.7787818 C35.2180075,8.74282632 35.0132075,8.48075088 35.0484075,8.19230808" id="Fill-65"></path>
                                <path d="M32.3284875,7.11516201 C32.8372875,6.82991525 33.1196875,6.39924859 33.1764875,5.82316201 C33.2324875,5.24787444 33.0396875,4.77006615 32.5956875,4.39133517 C32.3148875,4.150833 31.9668875,4.01180517 31.5980875,3.97824673 C31.0884875,3.93110511 30.6524875,4.04456461 30.2900875,4.3178262 C29.9244875,4.59428384 29.7172875,4.98180394 29.6684875,5.47958749 C29.6196875,5.97737104 29.7468875,6.39765057 30.0524875,6.73962707 C30.3548875,7.07840752 30.7604875,7.2741651 31.2692875,7.32689979 C31.6372875,7.36445329 32.0060875,7.29653739 32.3284875,7.11516201 L32.3284875,7.11516201 Z M34.5420875,8.88257326 C34.4468875,9.85337104 34.0628875,10.5764756 33.3916875,11.0526858 C32.7196875,11.5280971 31.8556875,11.7142665 30.7980875,11.6111942 C29.3020875,11.4641762 28.3036875,10.8904867 27.8028875,9.88772849 L28.8564875,9.24212799 C29.0908875,9.0983061 29.3916875,9.15503585 29.5668875,9.36677363 C29.7076875,9.53616386 29.8476875,9.67039763 29.9892875,9.76947493 C30.2244875,9.93566912 30.5444875,10.0387415 30.9484875,10.077893 C31.4988875,10.1322257 31.9500875,10.0163692 32.3044875,9.72952441 C32.6580875,9.44427765 32.8620875,9.02160109 32.9164875,8.46309274 L32.9268875,8.3608194 C32.3980875,8.70758996 31.7036875,8.83862769 30.8444875,8.75473158 C30.0188875,8.67403152 29.3220875,8.29769757 28.7540875,7.62652874 C28.1868875,6.95535991 27.9452875,6.18671179 28.0300875,5.31898637 C28.1148875,4.46005007 28.5004875,3.75931785 29.1876875,3.21519169 C29.8748875,2.67106553 30.6308875,2.43935248 31.4564875,2.52085156 C32.2988875,2.60314964 32.9540875,2.86682311 33.4228875,3.31187196 L33.4620875,2.91236671 L34.5484875,3.01863511 C34.8532875,3.0481985 35.0764875,3.31906306 35.0468875,3.62348606 L34.5420875,8.88257326 Z" id="Fill-67"></path>
                                <path d="M20.9882475,6.51047085 C20.7714475,7.07297425 20.3474475,7.39497549 19.7162475,7.47647456 C19.2218475,7.5403954 18.8002475,7.43492602 18.4522475,7.15926739 C18.1042475,6.88440777 17.8970475,6.49209361 17.8306475,5.98152589 C17.7650475,5.47175718 17.8650475,5.03789448 18.1306475,4.67913876 C18.3962475,4.32038303 18.7770475,4.10944426 19.2714475,4.04552342 C19.9066475,3.96322534 20.3842475,4.16617401 20.7026475,4.65516844 C20.8378475,4.86291117 21.0954475,4.95399837 21.3242475,4.85651909 L22.3618475,4.41226924 C22.0762475,3.77625688 21.6346475,3.29285551 21.0362475,2.96046714 C20.4370475,2.62887778 19.7866475,2.50822719 19.0842475,2.59851538 C18.1906475,2.7143719 17.4730475,3.1090831 16.9314475,3.78264896 C16.3898475,4.45621482 16.1786475,5.25522534 16.2986475,6.1796805 C16.4186475,7.10413566 16.8258475,7.8216471 17.5210475,8.33141581 C17.9666475,8.65901012 18.4546475,8.85556671 18.9826475,8.92508062 L19.0634475,9.54990684 C19.1010475,9.83755063 19.3650475,10.0404993 19.6530475,10.0037448 L20.7394475,9.86311897 L20.5962475,8.75968545 C21.0218475,8.61266751 21.4018475,8.38255248 21.7338475,8.06694333 C22.2354475,7.58833603 22.5266475,7.0002643 22.6058475,6.3011301 L21.5362475,6.17169039 C21.2970475,6.14292602 21.0746475,6.2859489 20.9882475,6.51047085" id="Fill-69"></path>
                                <path d="M43.1726475,2.87625143 C43.6726475,3.30132503 43.9654475,3.8917938 44.0502475,4.64685873 L44.4662475,8.35107147 L43.3782475,8.47252107 C43.0894475,8.50448149 42.8294475,8.29753777 42.7974475,8.00909497 L42.4782475,5.1686126 C42.4302475,4.73794593 42.2798475,4.40555756 42.0270475,4.17064846 C41.7742475,3.93573937 41.4606475,3.8390591 41.0870475,3.88060765 C40.0782475,3.99326813 39.6526475,4.74833307 39.8086475,6.14580245 L40.1110475,8.83766887 L39.0238475,8.95991748 C38.7350475,8.9918779 38.4742475,8.78493418 38.4422475,8.49649138 L37.8190475,2.93857425 L38.9062475,2.81712465 C39.1950475,2.78516423 39.4558475,2.99290697 39.4878475,3.28055075 L39.4902475,3.3069181 C39.9238475,2.76518897 40.5350475,2.44957982 41.3238475,2.36168866 C42.0558475,2.27939058 42.6718475,2.45117784 43.1726475,2.87625143" id="Fill-71"></path>
                                <path d="M26.1206475,8.33397264 L25.8406475,0.0370474749 L26.9350475,0.000292991279 C27.2246475,-0.00929513488 27.4686475,0.217623851 27.4782475,0.507664667 L27.7574475,8.80458984 L26.6638475,8.84134432 C26.3734475,8.85093245 26.1302475,8.62401346 26.1206475,8.33397264" id="Fill-73"></path>
                            </g>
                        </g>
                    </g>
                </g>
            </g>
        </g>
    </g>
</svg>