<?xml version="1.0" encoding="UTF-8"?>
<svg width="125px" height="29px" viewBox="0 0 125 29" version="1.1" xmlns="http://www.w3.org/2000/svg" xmlns:xlink="http://www.w3.org/1999/xlink">
    <title>B35B573B-6E8D-4575-A465-859227CE2744</title>
    <defs>
        <polygon id="path-1" points="0 0.0375619048 19.733534 0.0375619048 19.733534 17.5179657 0 17.5179657"></polygon>
        <polygon id="path-3" points="0.429715765 0.445367619 48.9864282 0.445367619 48.9864282 17.7639962 0.429715765 17.7639962"></polygon>
    </defs>
    <g id="06-Draw-Result-Evoluzioni-Finetuning" stroke="none" stroke-width="1" fill="none" fill-rule="evenodd">
        <g id="06_1-EVO-Result-Mobile-A-Not-Available" transform="translate(-98.000000, -346.000000)">
            <g id="Draw-Result" transform="translate(0.000000, 115.000000)">
                <g id="List" transform="translate(14.000000, 222.000000)">
                    <g id="Logo-testata" transform="translate(77.000000, 6.000000)">
                        <g id="Assets-/-Logo-/-line-/-Super-Loto" transform="translate(7.305882, 3.238095)">
                            <g id="Group-61-Copy" transform="translate(0.000000, -0.000000)">
                                <path d="M13.9634569,9.75916571 C12.0879558,9.75916571 10.5624875,8.23790857 10.5624875,6.36758476 C10.5624875,4.49726095 12.0879558,2.97600381 13.9634569,2.97600381 C15.8389581,2.97600381 17.3644264,4.49726095 17.3644264,6.36758476 C17.3644264,8.23790857 15.8389581,9.75916571 13.9634569,9.75916571" id="Fill-1" fill="#FEFEFE"></path>
                                <g id="Group-5" transform="translate(0.000000, 0.609992)">
                                    <mask id="mask-2" fill="white">
                                        <use xlink:href="#path-1"></use>
                                    </mask>
                                    <g id="Clip-4"></g>
                                    <path d="M9.96996424,17.5179657 C8.58282071,17.5179657 7.20931482,17.1494705 5.99751247,16.4519848 C4.15707953,15.39248 2.84007247,13.6821181 2.28872188,11.6356419 L1.64645365,9.29968 L0.0898136471,3.55918476 C-0.281000471,2.19076571 0.528166588,0.782194286 1.89972424,0.409165714 L2.42899482,0.265394286 C2.99593129,0.113851429 3.57845365,0.037432381 4.160976,0.037432381 C4.77856659,0.037432381 5.39291012,0.124860952 5.98517365,0.293889524 L6.09102776,0.265394286 C6.65666541,0.113851429 7.23918776,0.037432381 7.82106071,0.037432381 C8.93155482,0.037432381 10.0303595,0.319146667 11.0103219,0.852784762 C11.4629619,0.582727619 11.9545666,0.372899048 12.4714984,0.23495619 C12.9592066,0.104784762 13.4605525,0.038727619 13.9631972,0.038727619 C16.5692866,0.038727619 18.8597619,1.79183238 19.5345007,4.30135619 C19.9332395,5.78634667 19.7286748,7.33609905 18.9584725,8.66630857 C18.6779266,9.15072762 18.3337384,9.58528 17.9369478,9.96219429 C17.7830372,13.3537752 15.4633384,16.3302324 12.0396395,17.2453181 C11.3623031,17.4260038 10.6654842,17.5179657 9.96996424,17.5179657" id="Fill-3" fill="#FEFEFE" mask="url(#mask-2)"></path>
                                </g>
                                <path d="M48.2998701,14.6327581 C48.194016,14.6327581 48.0491972,14.6327581 47.8017713,14.87432 C47.7134513,14.9598057 47.5796725,15.0906248 47.5796725,15.5368343 C47.5796725,15.9739771 47.7063078,16.0957295 47.7900819,16.1766819 C48.0212725,16.3988152 48.1634936,16.4175962 48.2998701,16.4175962 C48.6297713,16.4175962 48.7180913,16.3275771 48.7882278,16.2550438 C48.834336,16.2084152 48.9739595,16.065939 48.9739595,15.5368343 C48.9739595,14.9986629 48.8265431,14.8464724 48.7778372,14.7959581 C48.7038042,14.719539 48.6206795,14.6327581 48.2998701,14.6327581 L48.2998701,14.6327581 Z M42.8428631,27.8098629 C40.9225525,27.8098629 39.3600678,26.2516914 39.3600678,24.3366819 L39.3600678,9.74712 C39.3600678,8.32753905 40.5134231,7.17736762 41.9369336,7.17736762 L44.0734984,7.17736762 C44.5573101,7.17736762 45.0177431,7.2751581 45.4372631,7.45260571 C46.4633336,7.03812952 47.5991548,6.83024381 48.834336,6.83024381 C51.0345431,6.83024381 53.0503172,7.70323429 54.663456,9.3559581 C56.2804913,11.01192 57.1006984,13.0920724 57.1006984,15.5368343 C57.1006984,17.9815962 56.2843878,20.0572152 54.6751454,21.7060533 C53.0691501,23.3510057 51.0494795,24.2207581 48.834336,24.2207581 C48.4044254,24.2207581 47.9862042,24.195501 47.5796725,24.1449867 L47.5796725,25.2401105 C47.5796725,26.6596914 46.4256678,27.8098629 45.0021572,27.8098629 L42.8428631,27.8098629 Z" id="Fill-6" fill="#FEFEFE"></path>
                                <path d="M61.3870108,23.9511543 C59.0757544,23.9511543 57.0099755,23.1086019 55.4111238,21.5141638 C53.7908414,19.8983543 52.9686861,17.8324495 52.9686861,15.37344 C52.9686861,12.9157257 53.7940885,10.8465829 55.4221638,9.22170667 C57.0294579,7.62014476 59.1069261,6.77370667 61.4324696,6.77370667 C63.6398202,6.77370667 65.6458532,7.58776381 67.2336649,9.12844952 C68.8390108,10.6853257 69.6955849,12.6793448 69.7806579,15.0548114 C69.7819567,15.0852495 69.7826061,15.1156876 69.7826061,15.1461257 C69.7826061,15.8041067 69.6111614,16.4174019 69.3104838,16.9445638 C69.5520649,17.56304 69.5455708,18.2553448 69.2845073,18.8744686 C68.5876885,20.5233067 67.5161591,21.8030019 66.0978438,22.6785829 C64.7295332,23.5230781 63.1449685,23.9511543 61.3870108,23.9511543" id="Fill-8" fill="#FEFEFE"></path>
                                <path d="M69.4003624,23.6380952 C67.4404376,23.6380952 65.8454824,22.0475429 65.8454824,20.0930286 L65.8454824,9.7136381 C65.8454824,8.29405714 66.9994871,7.1432381 68.4229976,7.1432381 L70.4569553,7.1432381 C71.1466306,7.1432381 71.7908471,7.34011429 72.3363529,7.68011429 C73.3020282,7.21965714 74.3703106,6.98392381 75.51912,6.98392381 C76.1633365,6.98392381 76.6763718,7.0551619 77.1342071,7.20735238 C78.2356094,7.57390476 78.9551576,8.63017143 78.8908659,9.78617143 L78.7674776,12.017219 C78.6713647,13.7489524 77.2342165,15.1050667 75.4963906,15.1050667 C74.6670918,15.1050667 74.0118353,15.1050667 74.0118353,17.4047619 L74.0118353,21.0683429 C74.0118353,22.4879238 72.85848,23.6380952 71.4349694,23.6380952 L69.4003624,23.6380952 Z" id="Fill-10" fill="#FEFEFE"></path>
                                <path d="M22.3753525,23.9795848 C20.5686889,23.9795848 18.9665901,23.5838895 17.6151642,22.802861 C15.9481242,21.8398514 14.941536,20.30888 14.7057995,18.3750895 C14.5863078,17.3965371 15.0363501,16.4717371 15.8065525,15.9445752 C15.3104019,15.1104419 15.0525854,14.1552038 15.0525854,13.1267848 C15.0525854,11.2493371 15.8130466,9.62899429 17.2514936,8.43996571 C18.5659031,7.35326095 20.2589195,6.80213714 22.2837854,6.80213714 C24.1411031,6.80213714 25.7555407,7.27230857 27.0835878,8.20034667 C28.5122936,9.19897524 29.4390042,10.5965371 29.7643595,12.2427848 C29.9364536,13.1138324 29.6455172,13.9686895 29.061696,14.5541371 C29.6448678,15.4523848 29.9500913,16.4937562 29.9500913,17.6096038 C29.9500913,19.6742133 29.1117007,21.3703276 27.5245384,22.5140229 C26.1757101,23.4867467 24.4430795,23.9795848 22.3753525,23.9795848" id="Fill-12" fill="#FEFEFE"></path>
                                <path d="M34.5087021,23.96728 C32.0610692,23.9543276 29.7764386,22.9952038 28.0613421,21.266061 C26.3462456,19.5375657 25.4084951,17.24888 25.421986,14.8216038 C25.4331727,12.6106324 27.2469798,10.8115467 29.4647209,10.8115467 C30.5667727,10.8167276 31.5798551,11.2422133 32.3396668,12.0070514 C33.0994786,12.7731848 33.5144527,13.7880038 33.5079586,14.8649943 C33.5053609,15.4342514 33.9677421,15.8998895 34.5385751,15.9031276 C34.8243162,15.9031276 35.0710927,15.8027467 35.2717609,15.6052229 C35.4717798,15.407699 35.5776339,15.1557752 35.5795821,14.8760038 C35.5912715,12.6643848 37.4037798,10.8659467 39.6202221,10.8659467 C40.7242221,10.8711276 41.7373045,11.2966133 42.4971162,12.062099 C43.256928,12.8282324 43.6719021,13.8430514 43.6661183,14.9200419 C43.6394315,19.9086514 39.547488,23.96728 34.5450692,23.96728 L34.5087021,23.96728 Z" id="Fill-14" fill="#FEFEFE"></path>
                                <path d="M31.8181892,14.9736648 C30.7050974,14.9736648 29.7076009,14.5747314 28.9335021,13.8209029 C28.1444668,13.0508838 27.7275445,12.045779 27.7275445,10.9130933 C27.7275445,9.82768381 28.1301798,8.84265524 28.893888,8.06486476 C29.6705845,7.27217905 30.6817186,6.8525219 31.8181892,6.8525219 C32.9533609,6.8525219 33.9683915,7.27476952 34.7522315,8.07393143 C35.5217845,8.85884571 35.9283162,9.83998857 35.9283162,10.9130933 C35.9283162,12.0464267 35.5107445,13.052179 34.7204104,13.8215505 C33.9482598,14.5747314 32.9442692,14.9736648 31.8181892,14.9736648" id="Fill-16" fill="#FEFEFE"></path>
                                <path d="M37.2503238,14.9736648 C36.137232,14.9736648 35.1397355,14.5747314 34.3656367,13.8209029 C33.5772508,13.052179 33.1596791,12.0464267 33.1596791,10.9130933 C33.1596791,9.82638857 33.5629638,8.84136 34.326672,8.06421714 C35.1027191,7.27217905 36.1138532,6.8525219 37.2503238,6.8525219 C38.3861449,6.8525219 39.4011755,7.27541714 40.1850155,8.07522667 C40.9539191,8.8581981 41.3604508,9.83934095 41.3604508,10.9130933 C41.3604508,12.045779 40.9435285,13.0508838 40.1538438,13.8209029 C39.3803944,14.5747314 38.3764038,14.9736648 37.2503238,14.9736648" id="Fill-18" fill="#FEFEFE"></path>
                                <g id="Group-22" transform="translate(74.682353, 6.438564)">
                                    <mask id="mask-4" fill="white">
                                        <use xlink:href="#path-3"></use>
                                    </mask>
                                    <g id="Clip-21"></g>
                                    <path d="M41.0101581,17.7639962 C39.0521816,17.7639962 37.2117487,17.0444914 35.7934334,15.8191962 C34.2880969,17.0140533 32.3963605,17.7044152 30.4065628,17.7044152 C28.3797487,17.7044152 26.4704781,17.0017486 24.9605958,15.7822819 C23.5403322,17.031539 21.6830146,17.7639962 19.6860734,17.7639962 C17.7280969,17.7639962 15.887664,17.0444914 14.4693487,15.8191962 C12.9640122,17.0140533 11.0722758,17.7044152 9.08247812,17.7044152 C4.31124988,17.7044152 0.429715765,13.8329486 0.429715765,9.07489143 C0.429715765,4.31683429 4.31124988,0.445367619 9.08247812,0.445367619 C11.5320593,0.445367619 13.7725299,1.44593905 15.3629393,3.12197714 C16.6266946,2.30792 18.1183934,1.85458667 19.6860734,1.85458667 C21.2745346,1.85458667 22.8026005,2.33706286 24.0884358,3.1886819 C25.6872875,1.48350095 27.9556828,0.445367619 30.4065628,0.445367619 C32.856144,0.445367619 35.0966146,1.44593905 36.687024,3.12197714 C37.9507793,2.30792 39.4424781,1.85458667 41.0101581,1.85458667 C45.408624,1.85458667 48.9868828,5.42296762 48.9868828,9.80929143 C48.9868828,14.1956152 45.408624,17.7639962 41.0101581,17.7639962" id="Fill-20" fill="#FEFEFE" mask="url(#mask-4)"></path>
                                </g>
                                <path d="M14.7876254,6.36771429 C14.7876254,6.82169524 14.4187595,7.18954286 13.9635219,7.18954286 C13.5082842,7.18954286 13.1394184,6.82169524 13.1394184,6.36771429 C13.1394184,5.91373333 13.5082842,5.54588571 13.9635219,5.54588571 C14.4187595,5.54588571 14.7876254,5.91373333 14.7876254,6.36771429 M14.5187689,8.39929524 C14.3726513,8.4388 13.9641713,8.54954286 13.9641713,8.54954286 C13.9641713,8.54954286 14.0641807,8.91544762 14.1089901,9.0812381 C14.7187878,11.3524381 13.362816,13.6948762 11.0853289,14.3036381 C9.98197835,14.5983048 8.82992188,14.4467619 7.84086776,13.8775048 C6.85181365,13.3082476 6.14395482,12.3886286 5.84847247,11.2883238 C5.84847247,11.2883238 5.84847247,11.2876762 5.84847247,11.2870286 C5.84782306,11.286381 5.84782306,11.2857333 5.84782306,11.2850857 L3.93595482,4.33289524 C4.52756894,4.28885714 5.11853365,4.42226667 5.64390776,4.72405714 C6.33293365,5.12104762 6.82583718,5.76154286 7.03235012,6.52897143 C7.04079247,6.562 7.05313129,6.59373333 7.06806776,6.62417143 L7.98503718,9.96847619 C8.05192659,10.215219 8.27597365,10.3771238 8.52080188,10.3771238 C8.56820894,10.3771238 8.61756424,10.3712952 8.66627012,10.3576952 C8.96175247,10.2780381 9.13644424,9.97365714 9.05656659,9.67899048 L7.59474071,4.33354286 C8.18700424,4.28885714 8.77926776,4.42161905 9.30464188,4.72405714 C9.99431718,5.12104762 10.4865713,5.76154286 10.6930842,6.52897143 L11.3782136,9.06051429 C11.4574419,9.35518095 11.7613666,9.53068571 12.0574984,9.45167619 C12.3536301,9.37266667 12.5296207,9.06893333 12.4503925,8.77361905 L11.9672301,6.99525714 C11.9639831,6.97518095 11.9600866,6.9564 11.9555407,6.93697143 C11.6581101,5.83213333 12.3179125,4.69297143 13.4258089,4.39700952 C14.5337054,4.10104762 15.6766701,4.75838095 15.9734513,5.86321905 C16.2682842,6.96222857 15.6182231,8.10139048 14.5187689,8.39929524 M17.0456301,5.57697143 C16.5897431,3.8828 14.8376301,2.8731619 13.1387689,3.32779048 C12.2445289,3.56611429 11.541216,4.16321905 11.1411784,4.92222857 C10.8067313,4.45529524 10.3729242,4.06089524 9.85988894,3.76558095 C8.913696,3.22093333 7.81164424,3.07651429 6.75635012,3.35822857 C6.61412894,3.3964381 6.21928659,3.50329524 6.21928659,3.50329524 C6.21928659,3.50329524 6.28098071,3.72931429 6.308256,3.83099048 C6.25955012,3.80055238 6.24915953,3.79472381 6.19850541,3.76558095 C5.25296188,3.22093333 4.15091012,3.07651429 3.095616,3.35822857 C2.95664188,3.39514286 2.598816,3.49293333 2.57803482,3.49811429 L4.13142776,9.22954286 L4.77759247,11.5778095 C4.77759247,11.5784571 4.77759247,11.5784571 4.77759247,11.5784571 C5.15100424,12.9630667 6.04134776,14.1197143 7.28562071,14.835981 C8.11621835,15.3139238 9.03708424,15.5580762 9.97028894,15.5580762 C10.4378654,15.5580762 10.9086889,15.4965524 11.3723689,15.3728571 C14.0739219,14.6507619 15.7468066,11.9909905 15.2896207,9.29430476 C15.8903266,9.02230476 16.3903736,8.5715619 16.7267689,7.99064762 C17.1527831,7.25495238 17.2657807,6.39750476 17.0456301,5.57697143" id="Fill-23" fill="#23AAE2"></path>
                                <g id="Group-4" transform="translate(17.264287, 9.343524)" fill="#FF5100">
                                    <path d="M33.3693741,8.70600762 C33.9804706,8.08105524 34.2869929,7.24303619 34.2869929,6.19324571 C34.2869929,5.14345524 33.9804706,4.3021981 33.3693741,3.66947429 C32.7582776,3.03610286 31.9796329,2.71941714 31.0353882,2.71941714 C30.1684235,2.71941714 29.4021176,3.04387429 28.7364706,3.69214095 C28.0708235,4.34040762 27.7383247,5.17454095 27.7383247,6.19324571 C27.7383247,7.21195048 28.0708235,8.0421981 28.7364706,8.68269333 C29.4021176,9.32383619 30.1684235,9.64376 31.0353882,9.64376 C31.9796329,9.64376 32.7582776,9.33096 33.3693741,8.70600762 M35.5520471,1.80497905 C36.6904659,2.97069333 37.2593506,4.43301714 37.2593506,6.19324571 C37.2593506,7.95347429 36.6943624,9.41256 35.5637365,10.5698552 C34.43376,11.7284457 33.1024659,12.3074171 31.5698541,12.3074171 C30.0528282,12.3074171 28.7754353,11.8903505 27.7383247,11.0562171 L27.7383247,15.8965219 L25.5783812,15.8965219 C25.0783341,15.8965219 24.6724518,15.4924076 24.6724518,14.9930933 L24.6724518,0.403531429 L26.8090165,0.403531429 C27.3220518,0.403531429 27.7383247,0.818655238 27.7383247,1.33027429 C28.7598494,0.481245714 30.0372424,0.056407619 31.5698541,0.056407619 C33.08688,0.056407619 34.4142776,0.639264762 35.5520471,1.80497905" id="Fill-25"></path>
                                    <path d="M42.4224339,3.16297143 C41.8821233,3.52693333 41.5288433,4.04308571 41.3612951,4.71078095 L46.8605139,4.71078095 C46.6780292,4.01264762 46.3435821,3.48872381 45.8565233,3.14030476 C45.3701139,2.7912381 44.8070739,2.61702857 44.1680527,2.61702857 C43.5446174,2.61702857 42.9627445,2.79900952 42.4224339,3.16297143 M48.9633092,6.82655238 L41.2703774,6.82655238 C41.4223398,7.63024762 41.7606833,8.27139048 42.2860574,8.74933333 C42.8107821,9.22727619 43.422528,9.46624762 44.1225939,9.46624762 C45.199968,9.46624762 46.0344621,9.11847619 46.6260762,8.42358095 C46.8533704,8.15546667 47.1969092,8.01622857 47.5410974,8.0887619 L49.6445421,8.53302857 C49.1581327,9.6864381 48.4353374,10.5581333 47.4768056,11.1500571 C46.5182739,11.741981 45.3999868,12.0379429 44.1225939,12.0379429 C42.4795821,12.0379429 41.0950362,11.4764571 39.9696056,10.3541333 C38.8441751,9.2311619 38.2811351,7.79020952 38.2811351,6.02998095 C38.2811351,4.2704 38.8480715,2.8255619 39.9806456,1.69546667 C41.1145186,0.565371429 42.5101045,-8.55611878e-14 44.1680527,-8.55611878e-14 C45.7201468,-8.55611878e-14 47.054688,0.542704762 48.1723256,1.62681905 C49.2906127,2.71158095 49.8802786,4.1039619 49.9413233,5.80266667 L49.9413233,5.8512381 C49.9413233,6.39005714 49.5029704,6.82655238 48.9633092,6.82655238" id="Fill-27"></path>
                                    <path d="M59.0534795,0.301531429 L58.9300913,2.53257905 C58.9093101,2.90236952 58.6034372,3.19120762 58.2319736,3.19120762 C55.5239266,3.19120762 54.1705525,4.81478857 54.1705525,8.06130286 L54.1705525,11.7248838 L52.1359454,11.7248838 C51.5962842,11.7248838 51.1585807,11.2883886 51.1585807,10.7495695 L51.1585807,0.369531429 L53.1925384,0.369531429 C53.7328489,0.369531429 54.1705525,0.806674286 54.1705525,1.34484571 L54.1705525,2.44061714 C55.2050654,0.95368381 56.5662325,0.210217143 58.2547031,0.210217143 C58.604736,0.210217143 58.8709948,0.240655238 59.0534795,0.301531429" id="Fill-29"></path>
                                    <path d="M2.19760941,8.27624762 C2.60544,8.19335238 3.03275294,8.3708 3.23147294,8.73540952 C3.56527059,9.34805714 4.28352,9.65373333 5.38557176,9.65373333 C5.93237647,9.65373333 6.36618353,9.54752381 6.68569412,9.33575238 C7.00520471,9.12268571 7.16496,8.8500381 7.16496,8.51651429 C7.16496,8.01590476 6.74673882,7.6739619 5.90964706,7.49198095 L3.58215529,7.0140381 C2.54829176,6.80226667 1.75276235,6.41499048 1.19816471,5.85350476 C0.642268235,5.29266667 0.364969412,4.60230476 0.364969412,3.78306667 C0.364969412,2.6756381 0.787087059,1.77285714 1.63132235,1.07537143 C2.47555765,0.377238095 3.60488471,0.0288190476 5.01995294,0.0288190476 C6.34345412,0.0288190476 7.45005176,0.33967619 8.33974588,0.961390476 C9.23008941,1.58375238 9.77364706,2.39457143 9.97171765,3.3964381 L7.91957647,3.80249524 C7.51239529,3.8828 7.09742118,3.69887619 6.88960941,3.34009524 C6.77661176,3.1451619 6.62140235,2.97419048 6.42333176,2.82718095 C6.03563294,2.53899048 5.53688471,2.39457143 4.92903529,2.39457143 C4.38093176,2.39457143 3.98544,2.50466667 3.74191059,2.72485714 C3.49838118,2.94504762 3.37694118,3.20668571 3.37694118,3.51041905 C3.37694118,3.99548571 3.71918118,4.31411429 4.40366118,4.46565714 L7.11950118,5.05758095 C8.09296941,5.26935238 8.83459765,5.66051429 9.34373647,6.22912381 C9.85352471,6.79838095 10.1087435,7.47708571 10.1087435,8.26588571 C10.1087435,9.49441905 9.65610353,10.4347619 8.75082353,11.0875619 C7.84554353,11.7397143 6.63244235,12.0661143 5.11087059,12.0661143 C3.75749647,12.0661143 2.60154353,11.7889333 1.64301176,11.235219 C0.68448,10.6815048 0.137025882,9.84348571 -3.59053963e-13,8.7211619 L2.19760941,8.27624762 Z" id="Fill-31"></path>
                                    <path d="M17.2802626,12.0538095 L17.2445449,12.0538095 C13.6357638,12.034381 10.7153591,9.09095238 10.7347445,5.49213333 C10.7387379,4.68714286 11.3946438,4.03758095 12.2005638,4.03758095 L12.2083567,4.03758095 C13.0188226,4.04211429 13.6714814,4.70009524 13.6669355,5.50767619 C13.6558955,7.49392381 15.2683849,9.1188 17.2601308,9.12980952 C18.2284038,9.13304762 19.1343332,8.7652 19.8207614,8.08779048 C20.5065402,7.41167619 20.8870955,6.50824762 20.8922908,5.54653333 C20.8968367,4.73895238 21.5540414,4.0868 22.3664555,4.09262857 C23.176272,4.09651429 23.8289308,4.75449524 23.8244085,5.56272381 C23.8049026,9.1492381 20.8728085,12.0538095 17.2802626,12.0538095" id="Fill-33"></path>
                                    <path d="M13.4713327,2.63963048 C13.1842927,2.35921143 13.0401233,2.00302095 13.0401233,1.56976381 C13.0401233,1.16176381 13.1842927,0.811401905 13.4713327,0.518678095 C13.7583727,0.225306667 14.1200951,0.0789447619 14.5539021,0.0789447619 C14.9883586,0.0789447619 15.3520292,0.228544762 15.6462127,0.528392381 C15.9397468,0.827592381 16.0865139,1.17471619 16.0865139,1.56976381 C16.0865139,2.00302095 15.9429939,2.35921143 15.6553045,2.63963048 C15.3682645,2.92004952 15.0006974,3.05993524 14.5539021,3.05993524 C14.1200951,3.05993524 13.7583727,2.92004952 13.4713327,2.63963048" id="Fill-35"></path>
                                    <path d="M18.9034673,2.63963048 C18.6157779,2.35921143 18.4722579,2.00302095 18.4722579,1.56976381 C18.4722579,1.16176381 18.6157779,0.811401905 18.9034673,0.518678095 C19.1905073,0.225306667 19.5515802,0.0789447619 19.9860367,0.0789447619 C20.4204932,0.0789447619 20.7841638,0.228544762 21.0783473,0.528392381 C21.3718814,0.827592381 21.5186485,1.17471619 21.5186485,1.56976381 C21.5186485,2.00302095 21.3751285,2.35921143 21.0880885,2.63963048 C20.8003991,2.92004952 20.432832,3.05993524 19.9860367,3.05993524 C19.5515802,3.05993524 19.1905073,2.92004952 18.9034673,2.63963048" id="Fill-37"></path>
                                </g>
                                <path d="M89.8412471,15.5134552 C89.8412471,18.8597029 87.1208612,21.572579 83.7653506,21.572579 C80.4091906,21.572579 77.6888047,18.8597029 77.6888047,15.5134552 C77.6888047,12.1672076 80.4091906,9.45433143 83.7653506,9.45433143 C87.1208612,9.45433143 89.8412471,12.1672076 89.8412471,15.5134552" id="Fill-39" fill="#23AAE2"></path>
                                <path d="M99.7679605,16.2477257 C99.7679605,19.2215924 97.3502005,21.6320305 94.3687511,21.6320305 C91.3866522,21.6320305 88.9688922,19.2215924 88.9688922,16.2477257 C88.9688922,13.273859 91.3866522,10.863421 94.3687511,10.863421 C97.3502005,10.863421 99.7679605,13.273859 99.7679605,16.2477257" id="Fill-41" fill="#23AAE2"></path>
                                <path d="M111.165332,15.5134552 C111.165332,18.8597029 108.444946,21.572579 105.089435,21.572579 C101.733275,21.572579 99.0128894,18.8597029 99.0128894,15.5134552 C99.0128894,12.1672076 101.733275,9.45433143 105.089435,9.45433143 C108.444946,9.45433143 111.165332,12.1672076 111.165332,15.5134552" id="Fill-43" fill="#23AAE2"></path>
                                <path d="M121.09198,16.2477257 C121.09198,19.2215924 118.67422,21.6320305 115.692771,21.6320305 C112.710672,21.6320305 110.292912,19.2215924 110.292912,16.2477257 C110.292912,13.273859 112.710672,10.863421 115.692771,10.863421 C118.67422,10.863421 121.09198,13.273859 121.09198,16.2477257" id="Fill-45" fill="#23AAE2"></path>
                                <path d="M95.5106118,17.478461 C95.8398635,17.1617752 96.0041647,16.7511848 96.0041647,16.2479848 C96.0041647,15.7441371 95.8398635,15.3335467 95.5106118,15.016861 C95.1820094,14.7001752 94.8066494,14.5415086 94.3858306,14.5415086 C93.9494259,14.5415086 93.5649741,14.6982324 93.2318259,15.0110324 C92.8993271,15.3238324 92.7324282,15.7363657 92.7324282,16.2479848 C92.7324282,16.7589562 92.8993271,17.1708419 93.2318259,17.4842895 C93.5649741,17.7970895 93.9494259,17.9538133 94.3858306,17.9538133 C94.8066494,17.9538133 95.1820094,17.7951467 95.5106118,17.478461 M96.5724,14.0894705 C97.1737553,14.6503086 97.4737835,15.3698133 97.4737835,16.2479848 C97.4737835,17.1255086 97.1737553,17.8443657 96.5724,18.4058514 C95.9716941,18.9666895 95.2424047,19.2471086 94.3858306,19.2471086 C93.5130212,19.2471086 92.77464,18.9666895 92.1700376,18.4058514 C91.5654353,17.8443657 91.2628094,17.1255086 91.2628094,16.2479848 C91.2628094,15.3698133 91.5654353,14.6503086 92.1700376,14.0894705 C92.77464,13.5286324 93.5130212,13.2482133 94.3858306,13.2482133 C95.2424047,13.2482133 95.9716941,13.5286324 96.5724,14.0894705" id="Fill-47" fill="#FEFEFE"></path>
                                <path d="M116.834632,17.478461 C117.163883,17.1617752 117.328184,16.7511848 117.328184,16.2479848 C117.328184,15.7441371 117.163883,15.3335467 116.834632,15.016861 C116.50538,14.7001752 116.130669,14.5415086 115.70985,14.5415086 C115.273446,14.5415086 114.888994,14.6982324 114.555846,15.0110324 C114.223347,15.3238324 114.056448,15.7363657 114.056448,16.2479848 C114.056448,16.7589562 114.223347,17.1708419 114.555846,17.4842895 C114.888994,17.7970895 115.273446,17.9538133 115.70985,17.9538133 C116.130669,17.9538133 116.50538,17.7951467 116.834632,17.478461 M117.89642,14.0894705 C118.497775,14.6503086 118.797803,15.3698133 118.797803,16.2479848 C118.797803,17.1255086 118.497775,17.8443657 117.89642,18.4058514 C117.295714,18.9666895 116.566424,19.2471086 115.70985,19.2471086 C114.837041,19.2471086 114.09866,18.9666895 113.494057,18.4058514 C112.889455,17.8443657 112.586829,17.1255086 112.586829,16.2479848 C112.586829,15.3698133 112.889455,14.6503086 113.494057,14.0894705 C114.09866,13.5286324 114.837041,13.2482133 115.70985,13.2482133 C116.566424,13.2482133 117.295714,13.5286324 117.89642,14.0894705" id="Fill-49" fill="#FEFEFE"></path>
                                <path d="M107.20418,18.1286057 C107.289902,18.3759962 107.165215,18.6479962 106.921686,18.7457867 C106.550222,18.894739 106.194994,18.9692152 105.856001,18.9692152 C105.152039,18.9692152 104.600688,18.7801105 104.202599,18.4025486 C103.805159,18.024339 103.605789,17.4537867 103.605789,16.6908914 L103.605789,14.3212533 L102.869356,14.3212533 C102.597902,14.3212533 102.377102,14.1010629 102.377102,13.8303581 L102.377102,13.084301 L103.605789,13.084301 L103.605789,11.3558057 L104.629262,11.3558057 C104.901366,11.3558057 105.120867,11.5753486 105.120867,11.8460533 L105.120867,13.084301 L106.500867,13.084301 C106.772321,13.084301 106.992472,13.3038438 106.992472,13.5751962 L106.992472,14.3212533 L105.120867,14.3212533 L105.120867,16.5762629 C105.120867,17.2329486 105.400763,17.5612914 105.959257,17.5612914 C106.250194,17.5612914 106.567756,17.4693295 106.911944,17.2860533 L107.20418,18.1286057 Z" id="Fill-51" fill="#FEFEFE"></path>
                                <path d="M85.6004584,18.4195162 C85.6894278,18.6720876 85.5627925,18.9505638 85.3140678,19.0515924 C84.9348113,19.2050781 84.5717901,19.2827924 84.2250042,19.2841136 C83.5048066,19.2866781 82.9404678,19.0956305 82.5319878,18.7109448 C82.1235078,18.3256114 81.9182936,17.7434019 81.9150466,16.9623733 L81.9066042,14.5389829 L81.9014089,13.2741829 L81.9273854,11.0444305 L82.9742372,11.0405434 C83.251536,11.0398971 83.4775313,11.2639733 83.4788301,11.5405067 L83.4509054,13.2683543 L83.4561007,14.5331543 L83.4645431,16.8399733 C83.4671407,17.5109067 83.7541807,17.8457257 84.3256631,17.8431352 C84.6230936,17.8424876 84.9471501,17.7472876 85.2991313,17.5588305 L85.6004584,18.4195162 Z" id="Fill-53" fill="#FEFEFE"></path>
                                <path d="M12.3697355,12.0805562 C12.3697355,12.7255848 11.5391379,13.2482133 10.5137167,13.2482133 C9.48894494,13.2482133 8.65834729,12.7255848 8.65834729,12.0805562 C8.65834729,11.4355276 9.48894494,10.912899 10.5137167,10.912899 C11.5391379,10.912899 12.3697355,11.4355276 12.3697355,12.0805562" id="Fill-55" fill="#FEFEFE"></path>
                                <path d="M37.2601299,15.0739162 C37.2601299,16.3147543 36.1002805,17.319859 34.6696264,17.319859 C33.2389722,17.319859 32.0791228,16.3147543 32.0791228,15.0739162 C32.0791228,13.8330781 33.2389722,12.8273257 34.6696264,12.8273257 C36.1002805,12.8273257 37.2601299,13.8330781 37.2601299,15.0739162" id="Fill-57" fill="#FEFEFE"></path>
                                <path d="M50.8670598,15.0739162 C50.8670598,16.3147543 49.7072104,17.319859 48.2765562,17.319859 C46.8459021,17.319859 45.6860527,16.3147543 45.6860527,15.0739162 C45.6860527,13.8330781 46.8459021,12.8273257 48.2765562,12.8273257 C49.7072104,12.8273257 50.8670598,13.8330781 50.8670598,15.0739162" id="Fill-59" fill="#FEFEFE"></path>
                            </g>
                        </g>
                    </g>
                </g>
            </g>
        </g>
    </g>
</svg>