<?xml version="1.0" encoding="UTF-8"?>
<svg width="24px" height="24px" viewBox="0 0 24 24" version="1.1" xmlns="http://www.w3.org/2000/svg" xmlns:xlink="http://www.w3.org/1999/xlink">
    <!-- Generator: Sketch 61.2 (89653) - https://sketch.com -->
    <title>Icon_24/faq</title>
    <desc>Created with Sketch.</desc>
    <g id="Icon_24/faq" stroke="none" stroke-width="1" fill="none" fill-rule="evenodd">
        <path d="M0.0976373273,11.951208 C0.0976373273,8.75941433 1.34112281,5.75740537 3.59807634,3.50044682 C5.85502986,1.24348826 8.85703212,0 12.0488187,0 C15.2406052,0 18.2426075,1.24348826 20.499561,3.50044682 C22.7565145,5.75740537 24,8.75941433 24,11.951208 C24,15.1429947 22.7565195,18.1450046 20.4995591,20.4020193 C18.242595,22.6589391 15.2405892,23.902416 12.0488187,23.902416 C9.79764999,23.902416 7.62056822,23.2788001 5.72322783,22.0923218 L0,24 L1.90772749,18.2768563 C0.721249055,16.3794156 0.0976373273,14.2023291 0.0976373273,11.951208 Z M5.89527722,19.9890799 L6.11223173,20.0194023 L6.40887904,20.222123 C8.07424921,21.3601662 10.024097,21.9615672 12.0488187,21.9615672 C17.5683246,21.9615672 22.0591556,17.4707262 22.0591556,11.951208 C22.0591556,6.43168978 17.5683246,1.94084874 12.0488187,1.94084874 C6.52931277,1.94084874 2.03848174,6.43168978 2.03848174,11.951208 C2.03848174,13.9758984 2.63988858,15.9257979 3.77793607,17.5912289 L3.98060951,17.887879 L4.01091571,18.1048135 L3.06874112,20.9312607 L5.89527722,19.9890799 Z" id="Icon" fill="#5AB7F0"></path>
    </g>
</svg>