<?xml version="1.0" encoding="UTF-8"?>
<svg width="155px" height="69px" viewBox="0 0 155 69" version="1.1" xmlns="http://www.w3.org/2000/svg" xmlns:xlink="http://www.w3.org/1999/xlink">
    <!-- Generator: Sketch 62 (91390) - https://sketch.com -->
    <title>Logos / Footer</title>
    <desc>Created with Sketch.</desc>
    <defs>
        <polygon id="path-1" points="0.421308 0.491616 12.988728 0.491616 12.988728 17.28 0.421308 17.28"></polygon>
    </defs>
    <g id="Logos-/-Footer" stroke="none" stroke-width="1" fill="none" fill-rule="evenodd">
        <g id="Group-29" transform="translate(0.000000, 8.000000)">
            <g id="Group-28">
                <path d="M50.62986,13.098672 C50.62986,14.985972 49.10004,16.515792 47.21274,16.515792 C45.32598,16.515792 43.79616,14.985972 43.79616,13.098672 C43.79616,11.211372 45.32598,9.681552 47.21274,9.681552 C49.10004,9.681552 50.62986,11.211372 50.62986,13.098672 M49.51692,21.545892 C48.90996,21.710592 47.21598,22.170132 47.21598,22.170132 C47.21598,22.170132 47.62962,23.691852 47.81484,24.382512 C50.34528,33.825492 44.72118,43.566552 35.2782,46.096992 C30.70332,47.322792 25.9254,46.693692 21.82464,44.325792 C17.72334,41.957892 14.78952,38.134692 13.56372,33.560352 C13.56318,33.558192 13.5621,33.556032 13.56156,33.553872 C13.56102,33.551172 13.56102,33.549552 13.56048,33.547392 L5.63058,4.639572 C8.08488,4.453812 10.53594,5.007852 12.7143,6.264972 C15.57252,7.915212 17.61642,10.579572 18.4707,13.767732 C18.5085,13.907592 18.55926,14.039892 18.6192,14.165712 L22.42242,28.072332 C22.70052,29.097252 23.62878,29.771712 24.64236,29.771712 C24.84162,29.771712 25.04466,29.745252 25.24608,29.690712 C26.47296,29.358072 27.1971,28.093932 26.86446,26.867052 L20.80404,4.640112 C23.25942,4.453272 25.71426,5.006772 27.89424,6.264972 C30.75246,7.915212 32.7969,10.579572 33.65118,13.767732 L36.49212,24.294492 C36.82098,25.522452 38.08242,26.250372 39.31092,25.922052 C40.53888,25.593192 41.26734,24.331212 40.93794,23.103252 L38.93562,15.707412 C38.9232,15.626952 38.907,15.546492 38.88486,15.466032 C37.6542,10.872252 40.39038,6.133752 44.98362,4.902552 C49.57686,3.671892 54.3159,6.407532 55.54656,11.001312 C56.77128,15.571872 54.07452,20.308212 49.51692,21.545892 M59.99238,9.810072 C58.10508,2.765232 50.8383,-1.430568 43.79238,0.456732 C40.08636,1.449792 37.16874,3.932712 35.51094,7.087932 C34.1226,5.147172 32.32386,3.507732 30.19572,2.279232 C26.27262,0.014472 21.70206,-0.587088 17.32698,0.585252 C16.73622,0.743472 15.09894,1.188972 15.09894,1.188972 C15.09894,1.188972 15.35706,2.129112 15.46884,2.551932 C15.26688,2.423952 15.22314,2.399652 15.01524,2.279232 C11.09214,0.014472 6.52212,-0.587088 2.1465,0.585252 C1.5714,0.739152 0.08694,1.143072 0,1.166832 L6.44382,24.999192 L6.44274,24.999192 L9.12168,34.765092 C9.12168,34.765632 9.12222,34.766712 9.12222,34.767252 C10.66932,40.522572 14.36184,45.331812 19.52316,48.312072 C22.96458,50.298732 26.78292,51.313392 30.6531,51.313392 C32.59278,51.313392 34.54542,51.058512 36.46944,50.542812 C47.67228,47.540952 54.60858,36.482292 52.71318,25.268112 C55.20366,24.136272 57.27618,22.263552 58.671,19.847592 C60.43788,16.787412 60.90714,13.222872 59.99238,9.810072" id="Fill-1" fill="#FFFFFF"></path>
                <path d="M83.393982,16.360866 C84.300102,17.258886 84.753162,18.415566 84.753162,19.830366 L84.753162,27.271026 L82.650942,27.271026 C82.086642,27.271026 81.629262,26.813106 81.629262,26.249346 L81.629262,20.474586 C81.629262,19.695366 81.406782,19.071666 80.961822,18.602406 C80.516322,18.133146 79.960122,17.899326 79.292142,17.899326 C78.433542,17.899326 77.758002,18.204966 77.264982,18.817326 C76.772502,19.429146 76.525722,20.339586 76.525722,21.547566 L76.525722,27.271026 L74.399742,27.271026 C73.835442,27.271026 73.378062,26.813106 73.378062,26.249346 L73.378062,20.474586 C73.378062,19.695366 73.155582,19.071666 72.710082,18.602406 C72.265122,18.133146 71.708922,17.899326 71.041482,17.899326 C70.182342,17.899326 69.514902,18.201186 69.038082,18.804906 C68.560722,19.409166 68.322582,20.323386 68.322582,21.547566 L68.322582,27.271026 L66.196602,27.271026 C65.632302,27.271026 65.174382,26.813106 65.174382,26.249346 L65.174382,15.371046 L67.344642,15.371046 C67.884642,15.371046 68.322582,15.808986 68.322582,16.348986 C69.212502,15.458526 70.397262,15.013566 71.875782,15.013566 C73.592442,15.013566 74.896542,15.665346 75.787002,16.968906 C76.835682,15.665346 78.282882,15.013566 80.126982,15.013566 C81.398682,15.013566 82.487862,15.462306 83.393982,16.360866" id="Fill-3" fill="#FFFFFF"></path>
                <path d="M87.682338,26.249076 L87.682338,15.370776 L89.808318,15.370776 C90.372618,15.370776 90.829998,15.828696 90.829998,16.392996 L90.829998,27.270756 L88.704018,27.270756 C88.139718,27.270756 87.682338,26.813376 87.682338,26.249076 M90.615078,11.175516 C90.981198,11.549196 91.163718,11.990376 91.163718,12.499056 C91.163718,13.023936 90.981198,13.460796 90.615078,13.810716 C90.249498,14.160636 89.796438,14.335596 89.255898,14.335596 C88.699698,14.335596 88.242858,14.160636 87.884838,13.810716 C87.527358,13.460796 87.348078,13.023936 87.348078,12.499056 C87.348078,11.990376 87.531138,11.549196 87.896718,11.175516 C88.262298,10.801836 88.715358,10.614996 89.255898,10.614996 C89.796438,10.614996 90.249498,10.801836 90.615078,11.175516" id="Fill-5" fill="#FFFFFF"></path>
                <path d="M93.908916,26.249076 L93.908916,10.100916 L96.034896,10.100916 C96.599196,10.100916 97.056576,10.558296 97.056576,11.122596 L97.056576,27.270756 L94.930596,27.270756 C94.366296,27.270756 93.908916,26.813376 93.908916,26.249076" id="Fill-7" fill="#FFFFFF"></path>
                <path d="M100.044828,26.249076 L100.044828,10.100916 L102.170808,10.100916 C102.735108,10.100916 103.192488,10.558296 103.192488,11.122596 L103.192488,27.270756 L101.066508,27.270756 C100.502208,27.270756 100.044828,26.813376 100.044828,26.249076" id="Fill-9" fill="#FFFFFF"></path>
                <path d="M106.27119,26.249076 L106.27119,15.370776 L108.39717,15.370776 C108.96147,15.370776 109.41885,15.828696 109.41885,16.392996 L109.41885,27.270756 L107.29287,27.270756 C106.72857,27.270756 106.27119,26.813376 106.27119,26.249076 M109.20393,11.175516 C109.57005,11.549196 109.75257,11.990376 109.75257,12.499056 C109.75257,13.023936 109.57005,13.460796 109.20393,13.810716 C108.83835,14.160636 108.38529,14.335596 107.84475,14.335596 C107.28855,14.335596 106.83171,14.160636 106.47369,13.810716 C106.11621,13.460796 105.93693,13.023936 105.93693,12.499056 C105.93693,11.990376 106.11999,11.549196 106.48557,11.175516 C106.85115,10.801836 107.30421,10.614996 107.84475,10.614996 C108.38529,10.614996 108.83835,10.801836 109.20393,11.175516" id="Fill-11" fill="#FFFFFF"></path>
                <path d="M74.105604,43.933266 C74.733084,43.289586 75.047364,42.426666 75.047364,41.345586 C75.047364,40.264506 74.733084,39.398346 74.105604,38.746566 C73.477584,38.094246 72.678384,37.768626 71.709084,37.768626 C70.818624,37.768626 70.031844,38.102886 69.347664,38.770326 C68.664024,39.437766 68.322744,40.296366 68.322744,41.345586 C68.322744,42.394806 68.664024,43.249626 69.347664,43.909506 C70.031844,44.568846 70.818624,44.899326 71.709084,44.899326 C72.678384,44.899326 73.477584,44.576946 74.105604,43.933266 M76.347144,36.826866 C77.515704,38.026746 78.099444,39.533346 78.099444,41.345586 C78.099444,43.157826 77.519484,44.660646 76.359024,45.852966 C75.198024,47.045286 73.831284,47.641446 72.257184,47.641446 C70.699284,47.641446 69.387624,47.212146 68.322744,46.353546 L68.322744,51.337746 L66.104964,51.337746 C65.590884,51.337746 65.174544,50.921406 65.174544,50.407866 L65.174544,35.383986 L67.368564,35.383986 C67.895604,35.383986 68.322744,35.811126 68.322744,36.338166 C69.371424,35.463366 70.683084,35.025966 72.257184,35.025966 C73.815084,35.025966 75.178584,35.626446 76.347144,36.826866" id="Fill-13" fill="#FFFFFF"></path>
                <path d="M79.785108,46.353492 L79.785108,35.383932 L81.911088,35.383932 C82.475388,35.383932 82.932768,35.841312 82.932768,36.406152 L82.932768,47.283912 L80.714988,47.283912 C80.201448,47.283912 79.785108,46.867032 79.785108,46.353492 M82.717848,31.143312 C83.083968,31.516452 83.266488,31.957632 83.266488,32.466852 C83.266488,32.991192 83.083968,33.428052 82.717848,33.777972 C82.352268,34.127892 81.899748,34.302852 81.358668,34.302852 C80.802468,34.302852 80.345628,34.127892 79.987608,33.777972 C79.630128,33.428052 79.450848,32.991192 79.450848,32.466852 C79.450848,31.957632 79.633908,31.516452 79.999488,31.143312 C80.365068,30.769632 80.818128,30.582252 81.358668,30.582252 C81.899748,30.582252 82.352268,30.769632 82.717848,31.143312" id="Fill-15" fill="#FFFFFF"></path>
                <path d="M106.667226,43.90929 C107.350866,43.24941 107.692146,42.39513 107.692146,41.34591 C107.692146,40.29669 107.350866,39.43809 106.667226,38.77011 C105.983586,38.10267 105.196266,37.76841 104.306346,37.76841 C103.336506,37.76841 102.537846,38.09457 101.909286,38.74635 C101.281806,39.39813 100.967526,40.26429 100.967526,41.34591 C100.967526,42.42645 101.281806,43.28937 101.909286,43.93305 C102.537846,44.57673 103.336506,44.89911 104.306346,44.89911 C105.196266,44.89911 105.983586,44.56917 106.667226,43.90929 L106.667226,43.90929 Z M110.840346,47.28375 L108.622566,47.28375 C108.108486,47.28375 107.692146,46.86741 107.692146,46.35333 C106.627266,47.21193 105.316146,47.64123 103.757706,47.64123 C102.184146,47.64123 100.816866,47.04507 99.656406,45.85275 C98.495406,44.66043 97.915446,43.15815 97.915446,41.34591 C97.915446,39.53313 98.499726,38.02707 99.668286,36.82665 C100.836306,35.62677 102.199806,35.02629 103.757706,35.02629 C105.331266,35.02629 106.643466,35.46315 107.692146,36.33795 L107.692146,35.38377 L109.818126,35.38377 C110.382426,35.38377 110.840346,35.84169 110.840346,36.40599 L110.840346,47.28375 Z" id="Fill-17" fill="#FFFFFF"></path>
                <path d="M123.493464,36.421272 C124.367724,37.351152 124.804584,38.555892 124.804584,40.033872 L124.804584,47.283912 L122.587344,47.283912 C122.073804,47.283912 121.657464,46.867032 121.657464,46.353492 L121.657464,40.701852 C121.657464,39.859452 121.438224,39.183372 121.001364,38.674692 C120.563964,38.166012 119.979684,37.911672 119.248524,37.911672 C117.276984,37.911672 116.291484,39.278952 116.291484,42.013512 L116.291484,47.283912 L114.073704,47.283912 C113.559624,47.283912 113.143284,46.867032 113.143284,46.353492 L113.143284,35.383932 L115.269804,35.383932 C115.833564,35.383932 116.291484,35.841312 116.291484,36.406152 L116.291484,36.456912 C117.245124,35.503272 118.493064,35.026452 120.035304,35.026452 C121.466304,35.026452 122.618664,35.491392 123.493464,36.421272" id="Fill-19" fill="#FFFFFF"></path>
                <g id="Group-23" transform="translate(125.820000, 34.534566)">
                    <mask id="mask-2" fill="white">
                        <use xlink:href="#path-1"></use>
                    </mask>
                    <g id="Clip-22"></g>
                    <path d="M8.616348,8.760096 C9.496008,8.145036 9.936108,7.304796 9.936108,6.238836 C9.936108,5.172876 9.496008,4.332636 8.616348,3.717576 C8.057988,3.327156 7.395408,3.134916 6.714468,3.13864133 C5.772168,3.144096 4.994028,3.429756 4.380048,3.997296 C3.759588,4.569696 3.450168,5.317056 3.450168,6.238836 C3.450168,7.161156 3.759588,7.907976 4.380048,8.480376 C4.994028,9.047376 5.772168,9.333576 6.714468,9.33903067 C7.395408,9.342756 8.057988,9.150516 8.616348,8.760096 L8.616348,8.760096 Z M12.988728,11.604276 C12.988728,13.400856 12.416328,14.795676 11.271528,15.789816 C10.126728,16.782876 8.576928,17.280216 6.621588,17.280216 C3.855168,17.280216 1.923588,16.405416 0.826308,14.656896 L2.639628,13.284756 C3.042468,12.979116 3.604608,13.028796 3.963168,13.384656 C4.250988,13.670316 4.532868,13.891716 4.808808,14.048856 C5.269968,14.311296 5.874228,14.441976 6.621588,14.441976 C7.638948,14.441976 8.445708,14.148216 9.042408,13.560156 C9.638028,12.971556 9.936108,12.160476 9.936108,11.127456 L9.936108,10.936836 C9.029988,11.667996 7.782048,12.033576 6.192288,12.033576 C4.666248,12.033576 3.322728,11.469276 2.162268,10.340676 C1.001268,9.211536 0.421308,7.844796 0.421308,6.238836 C0.421308,4.649076 1.001268,3.293676 2.162268,2.172636 C3.322728,1.052136 4.666248,0.491616 6.192288,0.491616 C7.750188,0.491616 8.998128,0.857196 9.936108,1.588896 L9.936108,0.849636 L11.945448,0.849636 C12.508668,0.849636 12.966048,1.305396 12.967128,1.869156 L12.988728,11.604276 Z" id="Fill-21" fill="#FFFFFF" mask="url(#mask-2)"></path>
                </g>
                <path d="M148.992912,43.90929 C149.676552,43.24941 150.018372,42.39513 150.018372,41.34591 C150.018372,40.29669 149.676552,39.44187 148.992912,38.78199 C148.309272,38.12265 147.530592,37.79271 146.655792,37.79271 C145.749672,37.79271 144.951012,38.11833 144.259272,38.77011 C143.567532,39.42189 143.221932,40.28049 143.221932,41.34591 C143.221932,42.41079 143.567532,43.26939 144.259272,43.92117 C144.951012,44.57295 145.749672,44.89911 146.655792,44.89911 C147.530592,44.89911 148.309272,44.56917 148.992912,43.90929 M151.198812,36.85041 C152.446752,38.01897 153.070992,39.51747 153.070992,41.34591 C153.070992,43.17435 152.446752,44.67231 151.198812,45.84087 C149.950332,47.00943 148.436172,47.59371 146.655792,47.59371 C144.843012,47.59371 143.309412,47.00943 142.053372,45.84087 C140.797332,44.67231 140.169852,43.17435 140.169852,41.34591 C140.169852,39.51747 140.797332,38.01897 142.053372,36.85041 C143.309412,35.68185 144.843012,35.09757 146.655792,35.09757 C148.436172,35.09757 149.950332,35.68185 151.198812,36.85041" id="Fill-24" fill="#FFFFFF"></path>
                <path d="M90.230706,51.326082 L87.403266,51.326082 L89.306226,46.901322 L84.381966,35.387442 L87.197526,35.387442 C87.610086,35.387442 87.981606,35.636382 88.139826,36.017082 L91.019106,42.976602 L94.302306,35.387442 L97.799346,35.387442 L91.165986,50.711562 C91.004526,51.084702 90.636786,51.326082 90.230706,51.326082" id="Fill-26" fill="#FFFFFF"></path>
            </g>
        </g>
    </g>
</svg>