<?xml version="1.0" encoding="UTF-8"?>
<svg width="24px" height="24px" viewBox="0 0 24 24" version="1.1" xmlns="http://www.w3.org/2000/svg" xmlns:xlink="http://www.w3.org/1999/xlink">
    <!-- Generator: Sketch 61.2 (89653) - https://sketch.com -->
    <title>Icon_24/phone</title>
    <desc>Created with Sketch.</desc>
    <g id="Icon_24/phone" stroke="none" stroke-width="1" fill="none" fill-rule="evenodd">
        <path d="M5.23601923,0 C4.75387714,0 4.27893074,0.172900536 3.88314162,0.489884851 L3.82557236,0.518701607 L3.79678773,0.547518363 L0.918324714,3.51564423 L0.947109344,3.54446098 C0.0583836585,4.36573853 -0.215070328,5.59405252 0.169924331,6.65667062 C0.173522179,6.66387527 0.166326482,6.67828365 0.169924331,6.68548738 C0.950707193,8.92238783 2.94764114,13.2412994 6.84795852,17.1459698 C10.7626682,21.0650486 15.1343342,22.9849647 17.2967793,23.8314572 L17.3255639,23.8314572 C18.4445666,24.206075 19.6571189,23.9395205 20.5206578,23.1974885 L23.4279055,20.2869962 C24.1906982,19.5233522 24.1906982,18.1977814 23.4279055,17.4341374 L19.6859036,13.6879591 L19.6571189,13.6303256 C18.8943262,12.8666815 17.5414486,12.8666815 16.7786559,13.6303256 L14.9364396,15.4745979 C14.2707952,15.1540118 12.6840427,14.3327342 11.165653,12.8810899 C9.65805781,11.4402521 8.88806941,9.78328865 8.60382096,9.13491164 L10.4460373,7.29063926 C11.2196245,6.51618871 11.2340168,5.22663934 10.4172527,4.46659717 L10.4460373,4.43778042 L10.3596834,4.35133015 L6.67525074,0.547518363 L6.64646611,0.518701607 L6.58889685,0.489884851 C6.19310865,0.172900536 5.71816225,0 5.23601923,0 Z M5.23601923,1.84427238 C5.30438296,1.84427238 5.37274669,1.876691 5.43751164,1.93072265 L9.1219443,5.70571768 L9.20829819,5.79216795 C9.20110249,5.78496422 9.2622696,5.88222008 9.15072893,5.99388524 L6.84795852,8.29922571 L6.41618907,8.7026603 L6.61768148,9.27899542 C6.61768148,9.27899542 7.6755171,12.113844 9.89912931,14.2354774 L10.1006217,14.408378 C12.2414788,16.3643155 14.7637318,17.4341374 14.7637318,17.4341374 L15.3394244,17.6934882 L18.0739643,14.9558963 C18.2322797,14.7974042 18.2034951,14.7974042 18.3618106,14.9558963 L22.1325971,18.7308914 C22.2909126,18.8893835 22.2909126,18.83175 22.1325971,18.9902422 L19.3117034,21.8142843 C18.8871305,22.1780956 18.43737,22.2537402 17.9012565,22.0736351 C15.8143708,21.2523575 11.7593358,19.4693205 8.14326688,15.8492158 C4.49841332,12.2002943 2.59502988,8.06148794 1.89700214,6.05151875 C1.75667684,5.67690092 1.85742304,5.12217883 2.18484844,4.841215 L2.2424177,4.78358149 L5.03452682,1.93072265 C5.0992927,1.876691 5.16765551,1.84427238 5.23601923,1.84427238 Z" id="Iocn" fill="#5AB7F0" transform="translate(12.000000, 12.000000) scale(-1, 1) translate(-12.000000, -12.000000) "></path>
    </g>
</svg>