<svg width="118" height="38" viewBox="0 0 118 38" fill="none" xmlns="http://www.w3.org/2000/svg">
<mask id="mask0_14362_2054" style="mask-type:luminance" maskUnits="userSpaceOnUse" x="14" y="11" width="12" height="10">
<path fill-rule="evenodd" clip-rule="evenodd" d="M14.1287 11.3477H25.2594V20.8032H14.1287V11.3477Z" fill="white"/>
</mask>
<g mask="url(#mask0_14362_2054)">
<path fill-rule="evenodd" clip-rule="evenodd" d="M23.4513 13.7616C23.4513 14.109 23.1696 14.3909 22.8219 14.3909C22.4748 14.3909 22.1931 14.109 22.1931 13.7616C22.1931 13.4137 22.4748 13.1318 22.8219 13.1318C23.1696 13.1318 23.4513 13.4137 23.4513 13.7616ZM23.2467 15.3182C23.1343 15.3479 22.8224 15.4326 22.8224 15.4326C22.8224 15.4326 22.8985 15.7135 22.9333 15.8405C23.3989 17.5807 22.3634 19.3757 20.6245 19.8421C19.7826 20.0675 18.9028 19.9516 18.1475 19.5154C17.3922 19.0792 16.8515 18.3743 16.6263 17.5317C16.6263 17.5317 16.6258 17.5312 16.6258 17.5307C16.6258 17.5302 16.6258 17.5297 16.6253 17.5297L15.1655 12.2025C15.6175 12.1687 16.069 12.2706 16.4701 12.502C16.9956 12.8061 17.3725 13.2972 17.5297 13.8846C17.5368 13.9103 17.5459 13.935 17.5574 13.9582L18.2573 16.5208C18.3087 16.7093 18.4795 16.8339 18.666 16.8339C18.7027 16.8339 18.74 16.8288 18.7773 16.8183C19.0031 16.7572 19.1366 16.5243 19.0751 16.2984L17.9595 12.2025C18.4115 12.1682 18.864 12.2701 19.2646 12.502C19.7911 12.8061 20.1675 13.2972 20.3247 13.8846L20.8482 15.8244C20.9087 16.0508 21.141 16.1849 21.3667 16.1244C21.593 16.0634 21.727 15.831 21.6665 15.6046L21.2982 14.2421C21.2957 14.2275 21.2927 14.2124 21.2886 14.1972C21.0624 13.3511 21.5658 12.4778 22.4118 12.2514C23.2573 12.0245 24.13 12.5287 24.3567 13.3748C24.582 14.2169 24.0856 15.0897 23.2467 15.3182ZM25.1754 13.1555C24.8272 11.8576 23.4894 11.0841 22.1919 11.432C21.5092 11.6151 20.9725 12.0724 20.6672 12.6538C20.4117 12.2963 20.0807 11.9943 19.6882 11.7679C18.9661 11.3503 18.1246 11.2394 17.319 11.4557C17.2101 11.4845 16.9088 11.5667 16.9088 11.5667C16.9088 11.5667 16.9562 11.7401 16.9768 11.8183C16.9395 11.7946 16.932 11.79 16.8932 11.7679C16.1711 11.3503 15.3297 11.2394 14.5235 11.4557C14.4176 11.484 14.1445 11.5586 14.1284 11.5631L15.315 15.9545L15.8078 17.7536L15.8083 17.7541C16.0925 18.8145 16.7728 19.701 17.7236 20.2501C18.3574 20.6162 19.0598 20.8032 19.7728 20.8032C20.1296 20.8032 20.4893 20.7558 20.8436 20.661C22.9064 20.1079 24.1837 18.0703 23.8351 16.0034C24.2936 15.7952 24.675 15.4503 24.9315 15.005C25.257 14.4413 25.3437 13.7843 25.1754 13.1555Z" fill="white"/>
</g>
<path fill-rule="evenodd" clip-rule="evenodd" d="M79.3289 18.5794C79.9255 19.1708 80.2233 19.9322 80.2233 20.8636V25.7617H78.8402C78.4693 25.7617 78.168 25.4602 78.168 25.089V21.2871C78.168 20.7748 78.0219 20.3639 77.7286 20.0553C77.4359 19.7462 77.0701 19.5919 76.6312 19.5919C76.0658 19.5919 75.6219 19.7931 75.2974 20.1965C74.9729 20.5993 74.8107 21.1984 74.8107 21.9935V25.7617H73.4124C73.0411 25.7617 72.7403 25.4602 72.7403 25.089V21.2871C72.7403 20.7748 72.5936 20.3639 72.3009 20.0553C72.0081 19.7462 71.6418 19.5919 71.2024 19.5919C70.6381 19.5919 70.1987 19.7905 69.8848 20.1884C69.5709 20.5857 69.4142 21.1883 69.4142 21.9935V25.7617H68.0154C67.6446 25.7617 67.3433 25.4602 67.3433 25.089V17.9279H68.7712C69.1265 17.9279 69.4142 18.2158 69.4142 18.5713C69.9997 17.9854 70.7787 17.6919 71.7517 17.6919C72.8814 17.6919 73.7389 18.1215 74.3244 18.9797C75.0148 18.1215 75.9666 17.6919 77.1799 17.6919C78.0168 17.6919 78.7328 17.9879 79.3289 18.5794Z" fill="white"/>
<path fill-rule="evenodd" clip-rule="evenodd" d="M86.8632 23.542C87.3137 23.1073 87.5384 22.5441 87.5384 21.8528C87.5384 21.1615 87.3137 20.5957 86.8632 20.156C86.4127 19.7158 85.8948 19.4965 85.3088 19.4965C84.6704 19.4965 84.1443 19.7108 83.7306 20.1404C83.3174 20.5695 83.1109 21.1403 83.1109 21.8528C83.1109 22.5653 83.3174 23.133 83.7306 23.5576C84.1443 23.9816 84.6704 24.1939 85.3088 24.1939C85.8948 24.1939 86.4127 23.9766 86.8632 23.542ZM89.6108 25.7651H88.1505C87.8124 25.7651 87.5383 25.4908 87.5383 25.152C86.8369 25.7177 85.9733 26.0006 84.9474 26.0006C83.9119 26.0006 83.011 25.6083 82.2471 24.8222C81.4828 24.0366 81.1008 23.0473 81.1008 21.8528C81.1008 20.6587 81.4858 19.6659 82.2547 18.8753C83.0246 18.0846 83.922 17.6893 84.9474 17.6893C85.9839 17.6893 86.8475 17.9772 87.5383 18.5531V17.9248H88.9376C89.3095 17.9248 89.6108 18.2263 89.6108 18.5979V25.7651Z" fill="white"/>
<path fill-rule="evenodd" clip-rule="evenodd" d="M102.076 23.5262C102.527 23.0915 102.752 22.5278 102.752 21.8355C102.752 21.1437 102.527 20.5774 102.076 20.1372C101.626 19.6965 101.107 19.4767 100.52 19.4767C99.8816 19.4767 99.3546 19.692 98.9404 20.1216C98.5272 20.5517 98.3201 21.1225 98.3201 21.8355C98.3201 22.549 98.5272 23.1172 98.9404 23.5418C99.3546 23.9669 99.8816 24.1792 100.52 24.1792C101.107 24.1792 101.626 23.9613 102.076 23.5262ZM104.826 25.7518H103.365C103.026 25.7518 102.752 25.477 102.752 25.1382C102.05 25.7044 101.185 25.9878 100.159 25.9878C99.1217 25.9878 98.2208 25.5945 97.4554 24.8079C96.6905 24.0213 96.3086 23.031 96.3086 21.8354C96.3086 20.6404 96.6931 19.6471 97.4635 18.8554C98.2334 18.0638 99.1318 17.668 100.159 17.668C101.196 17.668 102.06 17.9564 102.752 18.5332V17.9039H104.152C104.524 17.9039 104.826 18.2055 104.826 18.5781V25.7518Z" fill="white"/>
<path fill-rule="evenodd" clip-rule="evenodd" d="M57.0693 18.6109C57.6442 19.2231 57.9314 20.0152 57.9314 20.9884V25.7584H56.5341C56.1623 25.7584 55.862 25.4574 55.862 25.0863V21.4276C55.862 20.8729 55.7179 20.4282 55.4302 20.0934C55.143 19.7591 54.759 19.5917 54.2778 19.5917C52.9818 19.5917 52.3338 20.4912 52.3338 22.2908V25.7584H50.9356C50.5647 25.7584 50.2634 25.4574 50.2634 25.0863V17.9282H51.6617C52.033 17.9282 52.3338 18.2292 52.3338 18.6003V18.6346C52.9607 18.0069 53.7815 17.6932 54.7953 17.6932C55.736 17.6932 56.4938 17.9988 57.0693 18.6109Z" fill="white"/>
<path fill-rule="evenodd" clip-rule="evenodd" d="M95.9301 17.8585L95.8455 19.4014C95.8314 19.6566 95.6202 19.8568 95.3643 19.8568C93.4979 19.8568 92.5647 20.9792 92.5647 23.225V25.7583H91.163C90.7906 25.7583 90.4888 25.4563 90.4888 25.0842V17.9054H91.8911C92.2634 17.9054 92.5647 18.2074 92.5647 18.58V19.3379C93.2777 18.3098 94.2164 17.7955 95.3799 17.7955C95.6212 17.7955 95.8046 17.8161 95.9301 17.8585Z" fill="white"/>
<path fill-rule="evenodd" clip-rule="evenodd" d="M66.4651 25.7671H65.0673C64.696 25.7671 64.3957 25.4656 64.3957 25.0945V25.0612C63.7678 25.6884 62.9475 26.0026 61.9337 26.0026C60.9925 26.0026 60.2347 25.696 59.6598 25.0844C59.0848 24.4727 58.7971 23.6796 58.7971 22.7074V17.9369H60.1954C60.5662 17.9369 60.867 18.2379 60.867 18.6095V22.2677C60.867 22.8219 61.0106 23.2666 61.2984 23.6014C61.5856 23.9362 61.97 24.1036 62.4507 24.1036C63.7467 24.1036 64.3957 23.2041 64.3957 21.405V17.9369H65.7929C66.1638 17.9369 66.4651 18.2379 66.4651 18.6095V25.7671Z" fill="white"/>
<path fill-rule="evenodd" clip-rule="evenodd" d="M46.4177 16.2921C47.1785 17.1019 47.5589 18.1512 47.5589 19.438V25.7515H45.7092C45.2179 25.7515 44.8194 25.3531 44.8194 24.8615V20.0199C44.8194 19.2857 44.6289 18.6978 44.2485 18.255C43.868 17.8118 43.3601 17.59 42.7237 17.59C41.0081 17.59 40.1505 18.781 40.1505 21.162V25.7515H38.3002C37.8089 25.7515 37.4109 25.3531 37.4109 24.8615V15.389H39.2611C39.7519 15.389 40.1505 15.7873 40.1505 16.279V16.3233C40.9803 15.4923 42.0662 15.0774 43.408 15.0774C44.6536 15.0774 45.6563 15.4823 46.4177 16.2921Z" fill="white"/>
<path fill-rule="evenodd" clip-rule="evenodd" d="M34.8963 16.6752C33.8538 15.699 32.5896 15.2109 31.1027 15.2109C29.589 15.2109 28.3082 15.699 27.2596 16.6752C26.2106 17.6519 25.6865 18.9044 25.6865 20.4317C25.6865 21.9596 26.2106 23.2116 27.2596 24.1883C27.5 24.4127 27.7574 24.6028 28.023 24.7747C28.9239 23.3946 30.2864 21.8749 31.9754 20.4554C32.2591 20.2169 32.5443 19.9885 32.8289 19.7702C32.8289 19.7702 31.7451 20.5028 31.1294 20.9677C30.4824 21.4558 28.9693 22.8238 28.9693 22.8238L29.2585 21.9344C29.4298 21.4049 29.2419 20.8245 28.7924 20.4978L26.8575 19.0915H29.2489C29.8052 19.0915 30.2975 18.733 30.4698 18.2035L31.2085 15.9284L31.9472 18.2035C32.119 18.733 32.6123 19.0915 33.1681 19.0915H33.7576H35.5589L35.4022 19.2054L35.3851 19.2034C34.1723 19.8418 32.8622 20.7091 31.5597 21.7619L31.736 21.6464C31.9371 21.5164 32.1376 21.3898 32.3387 21.2668L33.2658 24.1232L30.8462 22.3635C29.7896 23.2781 28.8529 24.2201 28.0799 25.1373C27.8638 25.401 27.5982 25.7393 27.4047 25.9874C27.3433 26.0696 27.2788 26.1523 27.2203 26.234C27.2228 26.2269 27.2264 26.2204 27.2294 26.2133C27.1765 26.2824 27.1437 26.3242 27.1457 26.3212C27.1538 26.3091 28.2155 25.2578 28.4437 25.0309C29.2318 25.4448 30.1181 25.6531 31.1027 25.6531C32.5896 25.6531 33.8538 25.1645 34.8963 24.1883C35.9384 23.2116 36.4599 21.9596 36.4599 20.4317C36.4599 18.9044 35.9384 17.6519 34.8963 16.6752Z" fill="white"/>
</svg>
