<svg width="118" height="38" viewBox="0 0 118 38" fill="none" xmlns="http://www.w3.org/2000/svg">
<path d="M22.6467 16.0273C21.2341 16.0273 20.1138 14.9201 20.1138 13.5242C20.1138 12.1282 21.2341 11.021 22.6467 11.021C24.0593 11.021 25.1797 12.1282 25.1797 13.5242C25.1797 14.9201 24.0593 16.0273 22.6467 16.0273Z" fill="white"/>
<path d="M19.6755 22.237C18.6525 22.237 17.6296 21.9482 16.7041 21.4668C15.3402 20.6966 14.3173 19.3969 13.9276 17.9047L13.4405 16.1717L12.2714 11.9356C11.9792 10.9247 12.6124 9.86566 13.6353 9.57684L14.025 9.48056C14.4634 9.38428 14.9018 9.28801 15.3402 9.28801C15.7786 9.28801 16.2657 9.33615 16.7041 9.48056H16.8015C17.2399 9.38428 17.6783 9.28801 18.1167 9.28801C18.9448 9.28801 19.7729 9.48056 20.5036 9.9138C20.8445 9.72125 21.1855 9.57684 21.5752 9.48056C21.9162 9.38428 22.3059 9.33615 22.6955 9.33615C24.644 9.33615 26.3488 10.6359 26.8847 12.5132C27.1769 13.6204 27.0308 14.7757 26.4463 15.7385C26.2514 16.0754 25.9592 16.4124 25.6669 16.7012C25.5695 19.2044 23.8159 21.4187 21.2342 22.0926C20.7471 22.1889 20.2113 22.237 19.6755 22.237Z" fill="white"/>
<path d="M77.5925 27.0508C76.6669 27.0508 75.8876 26.5695 75.4005 25.8955C75.1082 26.5695 74.4263 27.0508 73.5982 27.0508H72.2343C71.3575 27.0508 70.5294 26.6176 70.091 25.8955C69.7987 26.5695 69.1168 27.0508 68.3374 27.0508H66.9735C65.5609 27.0508 64.3918 25.8955 64.3918 24.4995V17.5677C64.3918 16.5087 65.2686 15.6422 66.3403 15.6422H67.7529C68.0451 15.6422 68.3374 15.6903 68.6297 15.7866C69.2629 15.5459 69.9449 15.4015 70.6755 15.4015C71.6497 15.4015 72.5265 15.6422 73.2572 16.0754C74.0366 15.6422 74.9621 15.4015 75.985 15.4015C77.3002 15.4015 78.518 15.8829 79.4435 16.7975C80.369 17.7121 80.9048 18.9637 80.9048 20.3597V25.0772C80.9048 26.1362 80.028 27.0027 78.9564 27.0027H77.5925V27.0508Z" fill="white"/>
<path fill-rule="evenodd" clip-rule="evenodd" d="M79.4923 25.5586C80.6127 26.7139 82.0253 27.2915 83.5353 27.2915C84.3634 27.2915 85.1428 27.1471 85.776 26.8583C86.0196 26.9546 86.3606 27.0027 86.6528 27.0027H88.0654C89.1371 27.0027 90.0139 26.1362 90.0139 25.0772V18.1454C90.0139 16.7494 88.8448 15.5941 87.4322 15.5941H86.0683C85.9069 15.5941 85.7789 15.6271 85.629 15.6658C85.5979 15.6738 85.5659 15.6821 85.5325 15.6903C84.8992 15.4978 84.266 15.4015 83.5353 15.4015C81.9766 15.4015 80.6127 16.0273 79.4923 17.1345C78.4207 18.2898 77.8362 19.7339 77.8362 21.3706C77.8362 23.0073 78.4207 24.4514 79.4923 25.5586ZM83.7789 21.0336C83.7789 20.9855 83.8276 20.9855 83.9251 20.9855C83.9377 20.9855 83.947 20.9855 83.9556 20.988C83.9803 20.9952 83.999 21.0229 84.0712 21.1299C84.1199 21.1781 84.1686 21.2262 84.1686 21.4187C84.1686 21.5558 84.1686 21.5953 84.151 21.6241C84.1439 21.6357 84.1339 21.6456 84.1199 21.6594C84.0225 21.7557 83.9738 21.7557 83.9251 21.7557C83.8276 21.7557 83.7789 21.7076 83.7789 21.7076C83.7789 21.6915 83.7735 21.6701 83.7663 21.6416C83.7519 21.5846 83.7302 21.499 83.7302 21.3706C83.7302 21.3225 83.7302 21.0818 83.7789 21.0336Z" fill="white"/>
<path fill-rule="evenodd" clip-rule="evenodd" d="M94.4467 25.5104C95.567 26.6657 96.9797 27.2434 98.4897 27.2434C99.2691 27.2434 100.048 27.1471 100.73 26.8101C100.974 26.9064 101.315 26.9545 101.607 26.9545H103.02C104.091 26.9545 104.968 26.0881 104.968 25.029V18.0972C104.968 16.7012 103.799 15.5459 102.387 15.5459H101.023C100.861 15.5459 100.733 15.579 100.583 15.6177C100.552 15.6257 100.52 15.6339 100.487 15.6422C99.8536 15.4496 99.2203 15.3534 98.4897 15.3534C96.9309 15.3534 95.567 15.9792 94.4467 17.0863C93.3751 18.2416 92.7905 19.6376 92.7905 21.3224C92.7905 22.9591 93.3751 24.4032 94.4467 25.5104ZM98.6845 20.9855C98.6845 20.9374 98.7332 20.9374 98.8306 20.9374C98.8432 20.9374 98.8526 20.9374 98.8612 20.9399C98.8858 20.947 98.9045 20.9748 98.9767 21.0818C99.0254 21.1299 99.0742 21.1781 99.0742 21.3706C99.0742 21.5077 99.0742 21.5472 99.0566 21.5759C99.0495 21.5876 99.0395 21.5974 99.0254 21.6113C98.928 21.7076 98.8793 21.7076 98.8306 21.7076C98.7332 21.7076 98.6845 21.6594 98.6845 21.6594C98.6358 21.6113 98.6358 21.4669 98.6358 21.3225C98.6358 21.2743 98.6358 21.0336 98.6845 20.9855Z" fill="white"/>
<path d="M55.7215 27.0508C54.7473 27.0508 53.8705 26.5213 53.4321 25.703C53.1885 26.4732 52.4579 27.0508 51.5811 27.0508H50.2172C48.8046 27.0508 47.6355 25.8955 47.6355 24.4995V17.5677C47.6355 16.5087 48.5123 15.6422 49.5839 15.6422H50.9478C51.2888 15.6422 51.5811 15.6903 51.8733 15.8347C52.5066 15.5941 53.2372 15.4496 54.0166 15.4496C55.4779 15.4496 56.7444 15.9792 57.6699 16.9419C58.5467 17.9047 59.0338 19.1562 59.0338 20.5522V25.1735C59.0338 26.2325 58.157 27.099 57.0854 27.099H55.7215V27.0508Z" fill="white"/>
<path d="M89.6727 27.0508C88.2601 27.0508 87.0911 25.8955 87.0911 24.4995V17.5196C87.0911 16.4606 87.9679 15.5941 89.0395 15.5941H90.4034C90.8905 15.5941 91.3289 15.7385 91.6699 15.931C92.3031 15.6422 93.0338 15.4978 93.8131 15.4978C94.2515 15.4978 94.6412 15.5459 94.9822 15.6422C95.8103 15.931 96.3461 16.7012 96.2974 17.5677L96.1513 19.06C96.1025 20.3116 95.0309 21.3225 93.7644 21.3225C93.2773 21.3225 92.9364 21.3225 92.9364 22.6703V25.1253C92.9364 26.1844 92.0596 27.0508 90.9879 27.0508H89.6727Z" fill="white"/>
<path d="M60.9823 27.2915C59.521 27.2915 58.2545 26.762 57.329 25.7992C56.4522 24.8365 55.9651 23.633 55.9651 22.1889V17.5677C55.9651 16.5086 56.8419 15.6422 57.9135 15.6422H59.2774C60.2516 15.6422 61.1284 16.1717 61.5668 16.99C61.8104 16.2198 62.541 15.6422 63.4178 15.6422H64.7817C66.1943 15.6422 67.3634 16.7975 67.3634 18.1935V25.1253C67.3634 26.1843 66.4866 27.0508 65.415 27.0508H64.0511C63.7101 27.0508 63.4178 27.0027 63.1256 26.8582C62.4923 27.1471 61.7617 27.2915 60.9823 27.2915Z" fill="white"/>
<path d="M45.1025 27.0508C43.5438 27.0508 42.2773 25.7992 42.2773 24.2588V19.5895C42.2773 19.3488 42.2286 19.2044 42.1799 19.1562H42.1312C41.9363 19.1562 41.8389 19.1562 41.7902 19.2044C41.7415 19.2525 41.5467 19.6376 41.5467 20.6966V25.1253C41.5467 26.1843 40.6699 27.0508 39.5982 27.0508H37.7959C36.2372 27.0508 34.9707 25.7992 34.9707 24.2588V15.1127C34.9707 14.0536 35.8475 13.1872 36.9191 13.1872H38.7214C39.1598 13.1872 39.5495 13.2834 39.9392 13.476C40.7673 13.0909 41.7415 12.8983 42.7644 12.8983C44.518 12.8983 46.028 13.5241 47.0997 14.6794C48.1713 15.8347 48.7558 17.2789 48.7558 19.0118V25.1253C48.7558 26.1843 47.879 27.0508 46.8074 27.0508H45.1025Z" fill="white"/>
<path d="M26.8846 27.5803C26.2026 27.5803 25.5694 27.2433 25.2284 26.6175C24.8875 26.0399 24.8875 25.3178 25.2284 24.692C25.2284 24.6439 25.2771 24.5958 25.3259 24.5476C24.1568 23.296 23.5723 21.7075 23.5723 19.9264C23.5723 17.9528 24.3029 16.1717 25.7155 14.8719C27.1281 13.5722 28.833 12.9464 30.7815 12.9464C32.7299 12.9464 34.4348 13.6204 35.7987 14.8719C37.2113 16.1717 37.9419 17.9046 37.9419 19.8783C37.9419 21.8519 37.2113 23.633 35.7987 24.9327C34.4348 26.2324 32.7299 26.8582 30.7815 26.8582C30.0508 26.8582 29.3201 26.762 28.6382 26.5694C28.492 26.7138 28.3459 26.8582 28.2972 26.9064C27.9562 27.3877 27.4204 27.5803 26.8846 27.5803Z" fill="white"/>
<path fill-rule="evenodd" clip-rule="evenodd" d="M24.9849 12.9465C24.644 11.6949 23.3288 10.9247 22.0623 11.2617C21.3803 11.4542 20.8445 11.8875 20.5523 12.4651C20.3087 12.1282 19.9677 11.8393 19.578 11.5986C18.8474 11.2135 18.068 11.0691 17.2399 11.3098C17.1425 11.358 16.8502 11.4061 16.8502 11.4061C16.8502 11.4061 16.899 11.5505 16.899 11.6468C16.8746 11.6468 16.8624 11.6347 16.8502 11.6227C16.8381 11.6107 16.8259 11.5986 16.8015 11.5986C16.0709 11.2135 15.2915 11.0691 14.4634 11.3098C14.366 11.358 14.0737 11.4061 14.0737 11.4061L15.2428 15.6422L15.7299 17.3752C16.0222 18.3861 16.6554 19.2525 17.6296 19.782C18.2629 20.119 18.9448 20.3116 19.6268 20.3116C19.9677 20.3116 20.3087 20.2634 20.6984 20.1671C22.7442 19.6376 23.962 17.664 23.621 15.6422C24.0594 15.4497 24.4491 15.1127 24.6927 14.6795C25.0336 14.1499 25.1311 13.5242 24.9849 12.9465ZM23.0852 15.0164C22.9878 15.0645 22.6468 15.1127 22.6468 15.1127C22.6468 15.1127 22.7442 15.4015 22.7442 15.4978C23.1826 17.1826 22.2084 18.9155 20.5035 19.3488C19.6754 19.5895 18.7986 19.445 18.068 19.0118C17.3373 18.5786 16.8015 17.9046 16.5579 17.0863L15.1453 11.9356C15.5837 11.8874 16.0221 11.9837 16.4118 12.2244C16.9476 12.5132 17.2886 12.9946 17.4347 13.5722C17.4347 13.5962 17.4347 13.6083 17.4407 13.6143C17.4468 13.6204 17.459 13.6204 17.4834 13.6204H17.4834L18.2141 16.1717C18.2628 16.3642 18.4089 16.4605 18.6038 16.4605H18.7012C18.9448 16.4124 19.0422 16.1717 18.9935 15.9791L17.9218 12.0318C18.3602 11.9837 18.7986 12.08 19.1883 12.3207C19.7241 12.6095 20.0651 13.0909 20.2112 13.6685L20.7471 15.5459C20.7958 15.7866 21.0393 15.8829 21.2342 15.8347C21.4777 15.7866 21.5751 15.5459 21.5264 15.3533L21.1855 14.0536V14.0055C20.9419 13.1871 21.4777 12.3207 22.3058 12.1281C23.1339 11.8874 24.0107 12.4169 24.2055 13.2353C24.4004 13.9573 23.9133 14.8238 23.0852 15.0164ZM22.6468 14.1499C22.9878 14.1499 23.2801 13.8611 23.2801 13.5241C23.2801 13.1871 22.9878 12.8983 22.6468 12.8983C22.3059 12.8983 22.0136 13.1871 22.0136 13.5241C22.0136 13.8611 22.3059 14.1499 22.6468 14.1499Z" fill="#009ADE"/>
<path d="M78.031 18.1935C78.6156 18.7711 78.9078 19.4932 78.9078 20.4078V25.1253H77.5439C77.203 25.1253 76.862 24.8365 76.862 24.4514V20.7929C76.862 20.3115 76.7159 19.8783 76.4236 19.5895C76.1313 19.3007 75.7903 19.1562 75.352 19.1562C74.8161 19.1562 74.3777 19.3488 74.0368 19.7339C73.6958 20.119 73.5497 20.6966 73.5497 21.4668V25.1253H72.1858C71.8448 25.1253 71.5038 24.8365 71.5038 24.4514V20.7929C71.5038 20.3115 71.3577 19.8783 71.0654 19.5895C70.7731 19.3007 70.4322 19.1562 69.9938 19.1562C69.458 19.1562 69.0196 19.3488 68.6786 19.7339C68.3376 20.119 68.2402 20.6966 68.2402 21.4668V25.1253H66.8763C66.5353 25.1253 66.1943 24.8365 66.1943 24.4514V17.5677H67.6069C67.9479 17.5677 68.2402 17.8565 68.2402 18.1935C68.8247 17.6158 69.5554 17.327 70.5296 17.327C71.6499 17.327 72.478 17.7602 73.0625 18.5786C73.7445 17.7602 74.67 17.327 75.8391 17.327C76.7646 17.327 77.4465 17.6158 78.031 18.1935Z" fill="#009ADE"/>
<path fill-rule="evenodd" clip-rule="evenodd" d="M86.7017 25.1253H88.1143H88.163V18.1453C88.163 17.7602 87.8221 17.4714 87.4811 17.4714H86.1172V18.0972C85.4352 17.5677 84.6071 17.2788 83.5842 17.2788C82.61 17.2788 81.6845 17.6639 80.9538 18.4341C80.2232 19.2043 79.8335 20.1671 79.8335 21.3224C79.8335 22.4777 80.2232 23.4405 80.9538 24.2107C81.6845 24.9809 82.5613 25.366 83.5842 25.366C84.6071 25.366 85.4352 25.0771 86.1172 24.5476C86.1172 24.8365 86.3607 25.1253 86.7017 25.1253ZM86.1172 21.3224C86.1172 21.9963 85.8737 22.5258 85.4353 22.9591C84.9969 23.3923 84.5098 23.633 83.9252 23.5848C83.292 23.5848 82.7562 23.3923 82.3665 22.9591C81.9768 22.574 81.782 21.9963 81.782 21.3224C81.782 20.6484 81.9768 20.1189 82.3665 19.6857C82.8049 19.2525 83.292 19.0599 83.9252 19.0599C84.5098 19.0599 84.9969 19.2525 85.4353 19.6857C85.8737 20.1189 86.1172 20.6484 86.1172 21.3224Z" fill="#009ADE"/>
<path fill-rule="evenodd" clip-rule="evenodd" d="M101.607 25.1253H103.02H103.069V18.1453C103.069 17.7602 102.728 17.4714 102.387 17.4714H101.023V18.0972C100.341 17.5677 99.5127 17.2788 98.4897 17.2788C97.5155 17.2788 96.59 17.6639 95.8594 18.4341C95.1287 19.2043 94.739 20.1671 94.739 21.3224C94.739 22.4777 95.1287 23.4405 95.8594 24.2107C96.59 24.9809 97.4668 25.366 98.4897 25.366C99.464 25.366 100.341 25.0771 101.023 24.5476C101.023 24.8365 101.266 25.1253 101.607 25.1253ZM101.023 21.3224C101.023 21.9963 100.779 22.5258 100.341 22.9591C99.9022 23.3923 99.4151 23.5848 98.8306 23.5848C98.1973 23.5848 97.6615 23.3923 97.2718 22.9591C96.8821 22.574 96.6873 21.9963 96.6873 21.3224C96.6873 20.6484 96.8821 20.1189 97.2718 19.6857C97.7102 19.2525 98.1973 19.0599 98.8306 19.0599C99.3664 19.0599 99.9022 19.2525 100.341 19.6857C100.779 20.1189 101.023 20.6484 101.023 21.3224Z" fill="#009ADE"/>
<path d="M56.2575 18.1935C56.842 18.7711 57.0856 19.5413 57.0856 20.5041V25.1253H55.7217C55.3807 25.1253 55.0397 24.8365 55.0397 24.4514V20.8892C55.0397 20.3597 54.8936 19.9264 54.6013 19.5895C54.3091 19.2525 53.9194 19.1081 53.481 19.1081C52.2145 19.1081 51.5813 19.9746 51.5813 21.7075V25.0772H50.2174C49.8764 25.0772 49.5354 24.7883 49.5354 24.4032V17.5677H50.8993C51.2403 17.5677 51.5813 17.8565 51.5813 18.2416V18.2898C52.2145 17.664 52.9939 17.3751 54.0168 17.3751C54.9423 17.327 55.673 17.6158 56.2575 18.1935Z" fill="#009ADE"/>
<path d="M94.3003 17.4714L94.2029 18.9637C94.2029 19.2044 93.9593 19.3969 93.7158 19.3969C91.8648 19.3969 90.988 20.5041 90.988 22.6703V25.1253H89.6241C89.2831 25.1253 88.9421 24.8365 88.9421 24.4514V17.5195H90.306C90.647 17.5195 90.988 17.8084 90.988 18.1935V18.9155C91.6699 17.9046 92.5954 17.4233 93.7645 17.4233C94.0081 17.4233 94.2029 17.4233 94.3003 17.4714Z" fill="#009ADE"/>
<path d="M65.4635 25.1253H64.0996C63.7586 25.1253 63.4176 24.8365 63.4176 24.4514V24.4032C62.7844 25.029 62.005 25.3178 60.9821 25.3178C60.0566 25.3178 59.3259 25.029 58.7414 24.4514C58.1569 23.8737 57.9133 23.1035 57.9133 22.1407V17.5195H59.2772C59.6182 17.5195 59.9592 17.8084 59.9592 18.1935V21.7556C59.9592 22.2852 60.1053 22.7184 60.3976 23.0554C60.6898 23.3923 61.0795 23.5367 61.5179 23.5367C62.7844 23.5367 63.4176 22.6703 63.4176 20.9373V17.5677H64.7815C65.1225 17.5677 65.4635 17.8565 65.4635 18.2416V25.1253Z" fill="#009ADE"/>
<path d="M45.7844 15.9791C46.5151 16.7493 46.9048 17.7602 46.9048 19.0118V25.1253H45.1025C44.6154 25.1253 44.2257 24.7402 44.2257 24.2588V19.5895C44.2257 18.8674 44.0308 18.2897 43.6899 17.9046C43.3002 17.4714 42.8131 17.2789 42.1798 17.2789C40.4749 17.2789 39.6469 18.4342 39.6469 20.7448V25.1734H37.8446C37.3575 25.1734 36.9678 24.7883 36.9678 24.307V15.1608H38.7701C39.2572 15.1608 39.6469 15.5459 39.6469 16.0273V16.0754C40.4749 15.2571 41.5466 14.872 42.8618 14.872C44.0795 14.7757 45.0538 15.1608 45.7844 15.9791Z" fill="#A25EB5"/>
<path d="M34.4837 16.3161C33.4607 15.3534 32.243 14.9201 30.7816 14.9201C29.3203 14.9201 28.0538 15.4015 27.0309 16.3161C26.008 17.2789 25.4722 18.4823 25.4722 19.9746C25.4722 21.4668 26.008 22.6703 27.0309 23.633C27.2745 23.8737 27.518 24.0181 27.7616 24.2107C28.6384 22.8628 30.0023 21.4187 31.6584 20.0227C31.9507 19.782 32.1942 19.5895 32.4865 19.3488C32.4865 19.3488 31.4149 20.0708 30.8303 20.5041C30.1971 20.9855 28.7358 22.2852 28.7358 22.2852L29.0281 21.4187C29.1742 20.8892 29.0281 20.3597 28.5897 20.0227L26.6899 18.6749H29.0281C29.5639 18.6749 30.051 18.3379 30.2458 17.8084L30.9765 15.594L31.7071 17.8084C31.8533 18.3379 32.3404 18.6749 32.9249 18.6749H33.5094H35.263L35.1169 18.7711C33.9478 19.3969 32.6326 20.2153 31.3662 21.2262L31.561 21.1299C31.7559 20.9855 31.9507 20.8892 32.1455 20.7448L33.071 23.4886L30.6842 21.8038C29.6613 22.6703 28.7358 23.5849 27.9564 24.4995C27.7616 24.7402 27.4693 25.0772 27.2745 25.3179C27.2258 25.4141 27.1283 25.4623 27.0796 25.5585C27.0309 25.6067 26.9822 25.6548 26.9822 25.6548C26.9822 25.6548 28.0538 24.6439 28.2487 24.4032C29.0281 24.7883 29.9048 25.029 30.8791 25.029C32.3404 25.029 33.5581 24.5477 34.5811 23.633C35.604 22.6703 36.0911 21.4668 36.0911 19.9746C36.0424 18.4823 35.5066 17.2789 34.4837 16.3161Z" fill="#A25EB5"/>
<ellipse cx="84.1686" cy="21.6112" rx="1.26648" ry="1.25158" fill="white"/>
<ellipse cx="98.879" cy="21.6112" rx="1.26648" ry="1.25158" fill="white"/>
</svg>
