<svg width="118" height="38" viewBox="0 0 118 38" fill="none" xmlns="http://www.w3.org/2000/svg">
<path fill-rule="evenodd" clip-rule="evenodd" d="M21.7223 12.818C21.7223 13.1654 21.4411 13.4461 21.0942 13.4461C20.7469 13.4461 20.4651 13.1654 20.4651 12.818C20.4651 12.4707 20.7469 12.1894 21.0942 12.1894C21.4411 12.1894 21.7223 12.4707 21.7223 12.818ZM21.5177 14.3723C21.4058 14.4023 21.0945 14.4867 21.0945 14.4867C21.0945 14.4867 21.1703 14.7669 21.2039 14.8936C21.6698 16.6309 20.6348 18.4231 18.898 18.889C18.0563 19.1143 17.1769 18.9983 16.4227 18.563C15.6685 18.1266 15.1289 17.4238 14.9036 16.5821C14.9031 16.5815 14.9031 16.581 14.9031 16.5805C14.9031 16.5805 14.9026 16.58 14.9026 16.5795L13.444 11.2613C13.8951 11.2277 14.3462 11.3294 14.7469 11.5608C15.2723 11.8644 15.6492 12.3547 15.8058 12.9411C15.8129 12.9665 15.8221 12.991 15.8333 13.0143L16.5331 15.5725C16.5839 15.7612 16.7548 15.8853 16.9415 15.8853C16.9781 15.8853 17.0152 15.8802 17.0523 15.8705C17.2781 15.809 17.4114 15.5766 17.3499 15.3508L16.235 11.2618C16.6872 11.2272 17.1383 11.3289 17.5396 11.5608C18.0654 11.8644 18.4418 12.3547 18.5984 12.9411L19.1213 14.8778C19.1818 15.1036 19.4142 15.2374 19.64 15.1773C19.8658 15.1168 19.9996 14.8839 19.939 14.6586L19.5713 13.2976C19.5688 13.2829 19.5658 13.2681 19.5617 13.2534C19.3354 12.4081 19.8384 11.5364 20.6836 11.3101C21.5284 11.0838 22.4001 11.5868 22.6264 12.432C22.8522 13.2732 22.3558 14.1439 21.5177 14.3723ZM23.4447 12.2133C23.0973 10.917 21.7603 10.1449 20.4644 10.4923C19.7829 10.6749 19.2458 11.1316 18.9407 11.7119C18.6854 11.3548 18.3543 11.0533 17.9627 10.8274C17.241 10.4109 16.4003 10.3 15.5952 10.5162C15.4869 10.5447 15.1853 10.6266 15.1853 10.6266C15.1853 10.6266 15.2331 10.7995 15.2535 10.8778C15.2163 10.8544 15.2082 10.8498 15.1701 10.8274C14.4484 10.4109 13.6077 10.3 12.8031 10.5162C12.6968 10.5442 12.4242 10.6184 12.408 10.623L13.5935 15.0075L14.0858 16.8038V16.8043C14.3706 17.8632 15.05 18.7476 15.9996 19.2958C16.6328 19.6615 17.3351 19.8482 18.0471 19.8482C18.4041 19.8482 18.7632 19.8009 19.1172 19.7068C21.1785 19.1539 22.454 17.1196 22.1056 15.0563C22.5633 14.8483 22.9448 14.5035 23.2016 14.059C23.5266 13.4965 23.613 12.8409 23.4447 12.2133Z" fill="white"/>
<path fill-rule="evenodd" clip-rule="evenodd" d="M40.6553 22.1046C41.2544 21.5269 41.5539 20.7783 41.5539 19.8587C41.5539 18.9392 41.2544 18.187 40.6553 17.6017C40.0562 17.0168 39.367 16.7244 38.5869 16.7244C37.7375 16.7244 37.0372 17.0097 36.4869 17.5808C35.9367 18.1525 35.6615 18.9118 35.6615 19.8587C35.6615 20.8057 35.9367 21.562 36.4869 22.126C37.0372 22.69 37.7375 22.9723 38.5869 22.9723C39.367 22.9723 40.0562 22.6829 40.6553 22.1046ZM44.3114 25.0615H42.3686C41.9185 25.0615 41.5539 24.6969 41.5539 24.2468C40.6206 24.9985 39.4712 25.3753 38.1062 25.3753C36.7269 25.3753 35.5292 24.8525 34.5121 23.8079C33.4954 22.7632 32.9868 21.4465 32.9868 19.8587C32.9868 18.2704 33.499 16.9507 34.5227 15.8989C35.5465 14.8472 36.7412 14.3213 38.1062 14.3213C39.485 14.3213 40.6344 14.7043 41.5539 15.4707V14.6346H43.4168C43.9106 14.6346 44.3114 15.0358 44.3114 15.5302V25.0615Z" fill="white"/>
<path fill-rule="evenodd" clip-rule="evenodd" d="M54.332 15.7727C55.0847 16.5732 55.4616 17.6102 55.4616 18.8832V25.125H53.6312C53.145 25.125 52.7513 24.7308 52.7513 24.2451V19.4584C52.7513 18.7326 52.5626 18.1508 52.1863 17.7129C51.8099 17.275 51.3075 17.0558 50.6773 17.0558C48.9802 17.0558 48.1319 18.2332 48.1319 20.5874V25.125H46.301C45.8153 25.125 45.4211 24.7308 45.4211 24.2451V14.8796H47.2515C47.7377 14.8796 48.1319 15.2737 48.1319 15.7594V15.8037C48.9527 14.9823 50.0274 14.5719 51.3548 14.5719C52.5866 14.5719 53.5793 14.9722 54.332 15.7727Z" fill="white"/>
<path fill-rule="evenodd" clip-rule="evenodd" d="M58.451 21.8592C58.8182 21.7849 59.2027 21.9451 59.3812 22.2737C59.6823 22.826 60.3277 23.1022 61.3194 23.1022C61.8117 23.1022 62.2018 23.0066 62.4891 22.8148C62.777 22.6231 62.9204 22.3769 62.9204 22.0759C62.9204 21.6242 62.5446 21.3165 61.7914 21.1518L59.697 20.721C58.7663 20.5293 58.0513 20.1799 57.5513 19.6733C57.0519 19.1673 56.8022 18.5443 56.8022 17.8053C56.8022 16.8059 57.1821 15.9917 57.9419 15.3621C58.7012 14.7324 59.7179 14.4176 60.9903 14.4176C62.1814 14.4176 63.1772 14.6984 63.9778 15.2593C64.7788 15.8208 65.268 16.5527 65.446 17.4564L63.5994 17.8226C63.2327 17.8953 62.8599 17.729 62.6727 17.4056C62.5715 17.2296 62.4317 17.076 62.2537 16.9427C61.9043 16.6829 61.4557 16.5527 60.9085 16.5527C60.4156 16.5527 60.0601 16.6523 59.8404 16.8502C59.6218 17.049 59.5124 17.285 59.5124 17.5591C59.5124 17.9965 59.8201 18.2844 60.436 18.4212L62.8797 18.9552C63.7555 19.1464 64.4228 19.4989 64.8815 20.0125C65.3397 20.5257 65.5691 21.138 65.5691 21.8495C65.5691 22.9588 65.1617 23.8071 64.3475 24.3955C63.5333 24.9849 62.4418 25.2789 61.0727 25.2789C59.8547 25.2789 58.8146 25.0287 57.9521 24.5293C57.0895 24.0298 56.5967 23.2736 56.4736 22.2605L58.451 21.8592Z" fill="white"/>
<path fill-rule="evenodd" clip-rule="evenodd" d="M31.9923 20.0127C31.5336 19.499 30.8663 19.1465 29.9901 18.9553L27.5473 18.4213C26.9314 18.2845 26.6232 17.9966 26.6232 17.5593C26.6232 17.2851 26.7326 17.0492 26.9518 16.8503C27.171 16.6525 27.5265 16.5528 28.0193 16.5528C28.567 16.5528 29.0151 16.683 29.364 16.9429C29.5425 17.0761 29.6824 17.2297 29.7836 17.4057C29.9707 17.7291 30.344 17.8954 30.7102 17.8222L32.5569 17.4565C32.3789 16.5528 31.8896 15.8209 31.0891 15.2595C30.2881 14.6985 29.2918 14.4178 28.1017 14.4178C26.8287 14.4178 25.8126 14.7326 25.0522 15.3617C24.2924 15.9918 23.913 16.8061 23.913 17.8054C23.913 18.5444 24.1627 19.1674 24.6627 19.6734C25.1621 20.18 25.8772 20.5294 26.8084 20.7211L28.9022 21.1519C29.6549 21.3162 30.0318 21.6244 30.0318 22.076C30.0318 22.3765 29.8873 22.6232 29.6005 22.8149C29.3126 23.0067 28.9231 23.1023 28.4302 23.1023C27.439 23.1023 26.7926 22.8261 26.4925 22.2738C26.3135 21.9453 25.929 21.7846 25.5618 21.8593L23.5845 22.2606C23.7075 23.2737 24.2009 24.0294 25.0629 24.5294C25.7164 24.9083 26.4732 25.1417 27.3317 25.2338V27.264H28.3306C28.9871 27.264 29.5196 26.7315 29.5196 26.075V25.1549C30.2774 25.0207 30.932 24.776 31.4583 24.3956C32.2731 23.8072 32.6805 22.9589 32.6805 21.8497C32.6805 21.1382 32.4506 20.5258 31.9923 20.0127Z" fill="white"/>
<path fill-rule="evenodd" clip-rule="evenodd" d="M103.953 25.1163H102.571C102.204 25.1163 101.907 24.8188 101.907 24.4516V24.4185C101.286 25.039 100.474 25.3493 99.4714 25.3493C98.5412 25.3493 97.7921 25.0466 97.2235 24.4419C96.6549 23.8372 96.3706 23.054 96.3706 22.0928V17.3793H97.7534C98.1196 17.3793 98.4171 17.6768 98.4171 18.044V21.6585C98.4171 22.2062 98.5595 22.6461 98.8438 22.9767C99.1281 23.3073 99.508 23.4731 99.9831 23.4731C101.265 23.4731 101.907 22.5841 101.907 20.8056V17.3793H103.288C103.655 17.3793 103.953 17.6768 103.953 18.044V25.1163Z" fill="white"/>
<path fill-rule="evenodd" clip-rule="evenodd" d="M92.9499 22.8938C92.5344 23.32 92.0055 23.5331 91.3636 23.5331C90.7747 23.5331 90.2539 23.3144 89.8018 22.878C89.3491 22.4411 89.1233 21.8761 89.1233 21.1819C89.1233 20.4877 89.3491 19.9191 89.8018 19.4776C90.2539 19.0357 90.7747 18.8144 91.3636 18.8144C92.0055 18.8144 92.5344 19.0301 92.9499 19.4619C93.3649 19.8931 93.5729 20.4668 93.5729 21.1819C93.5729 21.897 93.3649 22.4676 92.9499 22.8938ZM94.433 18.1914C93.66 17.397 92.7578 16.9998 91.7269 16.9998C90.8267 16.9998 90.0577 17.2175 89.4169 17.6488C89.0797 17.9097 88.7054 18.1838 88.2965 18.4717C87.9059 18.7453 87.4883 19.0265 87.0489 19.3139L87.0403 27.1781C87.0403 27.5183 87.3159 27.7934 87.6557 27.7934H89.1234V24.4953C89.8278 25.0639 90.6955 25.3477 91.7269 25.3477C92.7684 25.3477 93.6732 24.953 94.4412 24.1642C95.2086 23.3749 95.5926 22.3811 95.5926 21.1819C95.5926 19.9821 95.2066 18.9853 94.433 18.1914Z" fill="white"/>
<path fill-rule="evenodd" clip-rule="evenodd" d="M68.3854 19.2061H69.4244V22.5571C69.4244 23.6363 69.7046 24.4434 70.2656 24.978C70.318 25.0273 70.3739 25.0721 70.4299 25.1173C71.4526 24.7283 72.718 24.2141 74.1522 23.587L74.0871 23.3988C73.6014 23.6582 73.1533 23.7879 72.7429 23.7879C71.9556 23.7879 71.5609 23.3236 71.5609 22.3954V19.2061H74.2005V18.1513C74.2005 17.7683 73.8892 17.4576 73.5063 17.4576H71.5609V15.7065C71.5609 15.3231 71.2507 15.0128 70.8672 15.0128H69.4244V17.4576H67.6917V18.5124C67.6917 18.8953 68.0024 19.2061 68.3854 19.2061Z" fill="white"/>
<path fill-rule="evenodd" clip-rule="evenodd" d="M74.5271 21.6462C73.631 22.1365 72.8905 22.5891 72.3682 22.9812C72.3748 22.9868 72.3804 22.9929 72.387 22.999C72.4205 23.0275 72.4551 23.055 72.4902 23.0809C72.4963 23.085 72.4994 23.0875 72.5034 23.0911C72.5218 23.1017 72.5553 23.1231 72.5838 23.1409C73.0522 22.8434 73.7357 22.4533 74.5876 22.0032C74.5424 21.8908 74.5225 21.7682 74.5271 21.6462Z" fill="white"/>
<path fill-rule="evenodd" clip-rule="evenodd" d="M84.4727 16.4913C84.2016 16.6291 83.9249 16.772 83.6406 16.9221C83.7281 16.9963 83.8303 17.0874 83.9326 17.183C84.1985 17.0421 84.4564 16.9073 84.7071 16.7776C84.6207 16.6896 84.5418 16.594 84.4727 16.4913Z" fill="white"/>
<path fill-rule="evenodd" clip-rule="evenodd" d="M88.2505 14.8757C88.25 14.867 88.2484 14.8589 88.2474 14.8498C88.2291 14.8553 88.2098 14.862 88.1915 14.8676C88.2108 14.951 88.2271 15.0359 88.2368 15.1234C88.2403 15.1218 88.2449 15.1198 88.249 15.1188C88.251 15.0852 88.2535 15.045 88.2556 15.0242V15.0079C88.2551 14.9637 88.2535 14.9199 88.2505 14.8757Z" fill="white"/>
<path fill-rule="evenodd" clip-rule="evenodd" d="M91.4955 14.5543C91.375 14.0697 90.1076 14.2614 88.1959 14.8839C88.2208 14.9933 88.2355 15.1057 88.2426 15.2206C89.8793 14.6423 90.9086 14.383 90.9727 14.5091C91.1283 14.8147 86.3243 18.0661 79.8841 21.348C77.7842 22.4186 75.7717 23.3589 74.0044 24.1304C74.603 24.1518 75.138 24.4249 75.5057 24.8486C77.0513 24.2067 78.7327 23.4357 80.4756 22.5477C87.1131 19.1646 91.7447 15.5557 91.4955 14.5543Z" fill="white"/>
<path fill-rule="evenodd" clip-rule="evenodd" d="M72.3783 24.8229C69.6025 25.9728 67.738 26.5688 67.649 26.3949C67.5895 26.2769 68.2222 25.7174 69.399 24.8788C69.3339 24.8147 69.2826 24.7389 69.246 24.656C67.9201 25.6478 67.1359 26.3583 67.4583 26.8038C67.767 27.2295 69.4199 26.9935 71.8433 26.2123C71.8433 25.6788 72.0472 25.1926 72.3783 24.8229Z" fill="white"/>
<path fill-rule="evenodd" clip-rule="evenodd" d="M85.2421 21.0998C85.2421 23.9097 82.9642 26.1877 80.1543 26.1877C77.3443 26.1877 75.0664 23.9097 75.0664 21.0998C75.0664 18.2904 77.3443 16.012 80.1543 16.012C82.9642 16.012 85.2421 18.2904 85.2421 21.0998Z" fill="white"/>
<path fill-rule="evenodd" clip-rule="evenodd" d="M87.9045 15.3435C87.9045 16.291 87.1366 17.059 86.1891 17.059C85.2416 17.059 84.4736 16.291 84.4736 15.3435C84.4736 14.396 85.2416 13.6281 86.1891 13.6281C87.1366 13.6281 87.9045 14.396 87.9045 15.3435Z" fill="white"/>
<path fill-rule="evenodd" clip-rule="evenodd" d="M75.667 26.2135C75.667 27.1727 74.8893 27.9498 73.9301 27.9498C72.971 27.9498 72.1938 27.1727 72.1938 26.2135C72.1938 25.2543 72.971 24.4767 73.9301 24.4767C74.8893 24.4767 75.667 25.2543 75.667 26.2135Z" fill="white"/>
</svg>
