<svg width="110" height="26" viewBox="0 0 110 26" fill="none" xmlns="http://www.w3.org/2000/svg">
<path d="M12.2657 8.62899C10.5931 8.62899 9.2666 7.31543 9.2666 5.65919C9.2666 4.00296 10.5931 2.68939 12.2657 2.68939C13.0731 2.68939 13.8229 2.97495 14.3996 3.54607C14.9764 4.11718 15.2647 4.85963 15.2647 5.65919C15.2647 6.45876 14.9764 7.20121 14.3996 7.77232C13.8806 8.34344 13.0731 8.62899 12.2657 8.62899Z" fill="white"/>
<path d="M49.6962 21.936C47.8507 21.936 46.4088 20.4511 46.4088 18.6806V13.255C46.4088 12.9695 46.3511 12.8553 46.3511 12.7981C46.1204 12.7981 46.0051 12.8553 46.0051 12.8553C46.0051 12.8553 45.7167 13.1979 45.7167 14.5686V19.7086C45.7167 20.9651 44.6786 21.9931 43.4097 21.9931H41.2758C40.6414 21.9931 39.9493 21.8218 39.4302 21.422C39.2572 21.3078 39.0842 21.1935 38.9111 21.0222C38.2767 20.394 37.9307 19.5944 37.9307 18.7377V8.00077C37.9307 6.74432 38.9688 5.71631 40.2376 5.71631H42.3139C42.5446 5.71631 42.7753 5.71631 43.006 5.77342C43.2944 5.83053 43.5251 5.88764 43.7558 6.00187C44.7362 5.54497 45.8321 5.31653 47.0432 5.31653C47.2739 5.31653 47.5046 5.31653 47.7353 5.37364C48.7158 5.43075 49.6386 5.71631 50.446 6.1732C50.6767 6.28742 50.8497 6.40165 51.0228 6.51587C51.4265 6.80143 51.7725 7.08699 52.1186 7.42966C52.4646 7.77233 52.753 8.115 52.9837 8.51478C53.099 8.68611 53.2144 8.91456 53.3297 9.143C53.7911 10.171 54.0795 11.2561 54.0795 12.5126V19.5944C54.0795 20.8509 53.0414 21.8789 51.7725 21.8789H49.6962V21.936Z" fill="white"/>
<path d="M19.4747 24.3918C18.2059 24.3918 17.1678 23.3638 17.1678 22.1073V21.5933C17.1101 21.5933 17.0524 21.5362 16.9947 21.5362C16.8794 21.4791 16.764 21.422 16.6487 21.422C16.3026 21.2507 15.9566 21.1364 15.6682 20.9651C15.0915 20.6224 14.5724 20.2227 14.111 19.7087C13.8226 19.366 13.5919 18.9662 13.3613 18.5664C13.0729 17.9953 12.8999 17.3671 12.7845 16.6817C12.6692 15.7108 13.1882 14.7399 14.0533 14.3402C13.4189 13.4835 13.1306 12.4555 13.1306 11.3133C13.1306 9.71413 13.7073 8.34345 14.8031 7.20122C14.9761 7.02988 15.0915 6.91566 15.2645 6.74433C16.245 5.94476 17.4561 5.43076 18.898 5.25943C19.3017 5.20231 19.7631 5.1452 20.2245 5.1452C22.0701 5.1452 23.685 5.6021 24.9538 6.51588C25.2999 6.74433 25.5882 7.02988 25.8766 7.25833C26.165 7.54389 26.4533 7.88656 26.6264 8.17212C27.0878 8.85745 27.3761 9.5999 27.5492 10.3995C27.7222 11.2561 27.3761 12.1128 26.684 12.6268C26.7994 12.741 26.8571 12.8553 26.9724 13.0266C27.4915 13.8833 27.7799 14.7971 27.7799 15.8251C27.7799 16.796 27.6068 17.7097 27.2031 18.4522C26.7994 19.2518 26.2227 19.9942 25.4152 20.5653C25.1268 20.7938 24.8385 20.9651 24.4347 21.1364C24.3194 21.1936 24.204 21.2507 24.031 21.3078C23.858 22.2787 23.2813 23.0782 22.4738 23.6493C22.0701 23.9349 21.6087 24.1062 21.1473 24.2205C20.9166 24.2776 20.6859 24.2776 20.3975 24.2776H19.4747V24.3918Z" fill="white"/>
<path d="M84.5314 12.9124C83.9546 12.9124 83.3779 12.6839 82.9742 12.2841C82.8588 12.227 82.8011 12.1128 82.6858 12.0557C82.109 11.5417 81.8207 10.8564 81.8783 10.0568C81.936 9.31434 82.3974 8.629 83.0895 8.28633C83.4355 8.115 83.7816 7.94367 84.07 7.77233C84.416 7.601 84.7621 7.54388 85.1081 7.54388C85.8579 7.54388 86.55 7.88655 87.0114 8.51478C87.5304 9.02878 87.7611 9.77123 87.6458 10.4566C87.5304 11.1419 87.069 11.7701 86.4346 12.1128C86.1462 12.2841 85.8579 12.3984 85.5695 12.5697C85.2811 12.7981 84.9351 12.9124 84.5314 12.9124Z" fill="white"/>
<path d="M80.206 23.1353C78.4758 23.1353 76.7456 22.5642 75.3614 21.5362C75.1884 21.5933 75.0153 21.5933 74.8423 21.5933C74.2079 21.5933 73.5735 21.3077 73.1121 20.7937C72.0163 20.7366 71.0935 19.9942 70.9205 18.9091C70.7474 17.881 71.2088 16.853 72.1893 16.3961C72.1316 15.9393 72.0739 15.4824 72.0739 15.0255C72.0739 10.5708 75.7074 6.97274 80.206 6.97274C82.4553 6.97274 84.5316 7.88652 86.0311 9.37142L86.5502 9.02875C86.7809 8.85742 87.0116 8.7432 87.2423 8.62897C87.2423 8.57186 87.2423 8.51475 87.2423 8.45764V8.34342C87.0116 7.20118 87.7037 6.11606 88.7995 5.7734H88.8572C88.9725 5.7734 89.0302 5.71628 89.1456 5.71628C89.607 5.54495 90.0684 5.43073 90.4721 5.3165C90.7604 5.25939 90.9911 5.20228 91.2218 5.14517C91.2218 5.14517 91.2795 5.14517 91.3372 5.14517C91.5679 5.08806 91.7986 5.08806 91.9716 5.03094C92.0293 5.03094 92.087 5.03094 92.1446 5.03094C92.3177 5.03094 92.4907 5.03094 92.6637 5.03094H92.7214C92.8367 5.03094 92.8944 5.03094 93.0098 5.03094C93.1828 5.03094 93.3558 5.08806 93.5865 5.08806C93.8172 5.14517 93.9902 5.20228 94.1056 5.25939C94.2786 5.3165 94.5093 5.43073 94.74 5.60206C95.1437 5.94473 95.4897 6.40162 95.6051 6.97274C96.0088 8.62897 94.6823 10.1139 93.3558 11.3132C92.1446 12.3983 90.4721 13.5977 88.5111 14.8541C88.5111 14.9112 88.5111 14.9684 88.5111 14.9684C88.3381 19.5373 84.7046 23.1353 80.206 23.1353Z" fill="white"/>
<path d="M66.4223 24.1062C66.2493 24.1062 66.0763 24.1062 65.9033 24.1062C64.7498 23.992 64.0577 23.4209 63.7693 22.964C63.3079 22.3358 62.5005 20.6795 64.6921 18.6806C65.0958 18.3379 65.5572 17.9382 66.307 17.367C66.7107 17.0815 67.1721 16.9102 67.6912 16.9102C67.8642 16.9102 68.0949 16.9102 68.2679 16.9673C68.7293 17.0815 69.133 17.3099 69.4214 17.6526C69.7675 17.5384 70.0558 17.367 70.4019 17.2528C70.6902 17.1386 70.9786 17.0815 71.267 17.0815C72.0168 17.0815 72.7089 17.4242 73.1126 18.0524C73.747 18.9091 73.6893 20.1084 72.9396 20.8509V20.908C72.9396 21.8789 72.3051 22.7926 71.3247 23.0782C70.4019 23.3638 69.5368 23.5922 68.787 23.7635C68.1526 23.9349 67.5758 23.992 67.0568 24.0491C66.8837 24.0491 66.653 24.1062 66.4223 24.1062Z" fill="white"/>
<path d="M8.8052 15.9393C8.17078 15.9393 7.59404 15.8822 7.01729 15.7108C6.44055 15.5395 5.86381 15.311 5.34474 15.0255C3.72985 14.1117 2.57636 12.6268 2.05729 10.7992L1.48055 8.74321L0.0963632 3.71739C-0.249683 2.51804 0.500084 1.26159 1.71125 0.91892L2.17264 0.804697C2.63404 0.690473 3.15311 0.633362 3.67218 0.633362C3.72985 0.633362 3.78753 0.633362 3.8452 0.633362C4.3066 0.633362 4.76799 0.747585 5.22939 0.861808H5.34474C5.86381 0.747585 6.3252 0.690473 6.84427 0.690473C7.07497 0.690473 7.36334 0.690473 7.59404 0.747585C8.28613 0.861808 8.97822 1.03314 9.61264 1.37581C9.72799 1.3187 9.78567 1.26159 9.90102 1.20448C10.2471 1.03314 10.5354 0.91892 10.8815 0.804697C11.2275 0.690473 11.5736 0.633362 11.9196 0.633362C12.035 0.633362 12.0926 0.633362 12.208 0.633362C12.7847 0.633362 13.3038 0.747585 13.8806 0.91892C14.515 1.14737 15.0917 1.43292 15.5531 1.88982C16.3029 2.57516 16.8796 3.43183 17.1103 4.40273C17.2257 4.7454 17.2257 5.03095 17.2833 5.37362C17.2833 5.71629 17.2833 6.05896 17.2257 6.34452C17.1103 6.97275 16.9373 7.60097 16.5912 8.2292C16.4759 8.45765 16.3029 8.68609 16.1299 8.85743C16.0145 9.02876 15.8415 9.2001 15.6685 9.31432C15.6685 9.48566 15.6685 9.59988 15.6108 9.77121C15.5531 10.3994 15.3801 11.0277 15.1494 11.5988C14.8033 12.3983 14.3996 13.0837 13.7652 13.7119C13.5922 13.8832 13.4768 13.9975 13.3038 14.1688C12.4964 14.9113 11.5159 15.4253 10.4201 15.7108C10.3047 15.7679 10.1317 15.7679 10.0164 15.7679H9.95869C9.67032 15.8822 9.20892 15.9393 8.8052 15.9393Z" fill="white"/>
<path fill-rule="evenodd" clip-rule="evenodd" d="M30.2604 22.0502C30.7794 22.1644 31.3562 22.2215 31.8753 22.2215C33.1441 22.2215 34.2976 21.9931 35.3357 21.5933C35.7394 21.7647 36.2585 21.8789 36.7199 21.8789H38.9692C40.238 21.8789 41.2762 20.8509 41.2762 19.5944V8.74321C41.2762 7.82943 40.9301 7.02987 40.2957 6.40164C40.0074 6.11608 39.6613 5.88764 39.2576 5.7163C38.8539 5.54497 38.4501 5.43074 37.9887 5.43074H35.8548C35.5664 5.43074 35.278 5.48785 34.9897 5.60208C34.7013 5.48785 34.3553 5.37363 34.0669 5.31652C33.3748 5.14519 32.625 5.08807 31.8753 5.08807C31.0678 5.08807 30.2604 5.2023 29.5106 5.43074C28.7608 5.65919 28.0687 6.05897 27.3767 6.51586C26.9729 6.80142 26.5692 7.14409 26.1655 7.54387C25.185 8.57188 24.4929 9.77122 24.0892 11.1419C23.8585 11.9415 23.7432 12.7981 23.7432 13.6548C23.7432 14.8542 23.9162 15.9393 24.3199 16.9673C24.4929 17.4813 24.7813 17.9953 25.0697 18.4522C25.358 18.9091 25.7041 19.366 26.1078 19.7657C27.319 20.9651 28.7032 21.7075 30.2604 22.0502ZM31.8027 12.5477C31.9179 12.4875 32.0886 12.3984 32.3943 12.3984C32.5096 12.3984 32.5673 12.3984 32.5096 12.5126C32.5345 12.5249 32.5646 12.5372 32.599 12.5512C32.7243 12.6022 32.9053 12.676 33.0864 12.8553C33.2594 13.0266 33.3171 13.1979 33.3748 13.4264C33.4324 13.5406 33.4324 13.6548 33.4324 13.769V14.1117C33.4324 14.3402 33.3171 14.5115 33.1441 14.6828C32.9134 14.9684 32.6827 15.0255 32.5673 15.0255H32.3366C32.0309 15.0255 31.8602 14.9363 31.7451 14.8762C31.7299 14.8682 31.7156 14.8608 31.7022 14.8542C31.6445 14.8542 31.5869 14.797 31.5292 14.7399L31.3562 14.3973C31.2985 14.2259 31.2408 13.9975 31.2408 13.7119C31.2408 13.4264 31.2985 13.1979 31.3562 13.0266C31.4138 12.9124 31.4715 12.7981 31.5869 12.6839C31.6157 12.6554 31.6445 12.6411 31.6734 12.6268C31.7022 12.6125 31.731 12.5983 31.7599 12.5697C31.7733 12.563 31.7875 12.5556 31.8027 12.5477Z" fill="white"/>
<path d="M58.2324 22.1073C56.9059 22.1073 55.6948 21.8789 54.5989 21.4791C54.1952 21.3078 53.8492 21.1364 53.5031 20.9651C52.0613 20.1655 51.1385 18.9091 50.7924 17.3671C50.7348 17.1386 50.6771 16.9673 50.6771 16.7388C50.5617 15.7679 51.0808 14.8541 51.9459 14.3973C51.5422 13.769 51.2538 13.1408 51.0808 12.3983C51.0231 12.0557 50.9655 11.713 50.9655 11.3703C50.9655 9.99966 51.3692 8.80032 52.1766 7.77231C52.465 7.42964 52.7534 7.14408 53.0994 6.85852C54.2529 5.94474 55.6948 5.37362 57.3673 5.2594C57.598 5.2594 57.8287 5.2594 58.0594 5.2594C59.4436 5.2594 60.6548 5.48785 61.7506 6.00185C62.0966 6.17318 62.5003 6.40163 62.8464 6.63008C63.3655 6.97275 63.8269 7.37253 64.1729 7.82942C64.2882 8.00075 64.4036 8.17209 64.5189 8.34342C64.7496 8.68609 64.9227 9.02876 65.0957 9.42854C65.2687 9.77121 65.3841 10.171 65.4417 10.5708C65.6148 11.4274 65.2687 12.2841 64.5766 12.7981C64.865 13.1979 65.0957 13.5977 65.2687 14.0546C65.4994 14.6828 65.6148 15.311 65.6148 15.9964C65.6148 17.2528 65.3264 18.3379 64.692 19.2517C64.3459 19.8228 63.8269 20.3369 63.2501 20.7366C62.9041 20.9651 62.5003 21.1935 62.0966 21.422C61.6929 21.5933 61.2892 21.7646 60.8278 21.8789C60.1357 21.9931 59.2706 22.1073 58.2324 22.1073Z" fill="white"/>
<path d="M102.411 22.1645C101.604 22.1645 100.796 22.0502 100.104 21.7647C99.7581 21.5933 99.412 21.422 99.066 21.1936C98.7199 20.9651 98.4316 20.7367 98.1432 20.4511C97.6241 19.88 97.2204 19.2518 96.932 18.5093C96.7013 17.824 96.5283 17.0815 96.5283 16.2248V10.8564C96.5283 9.59991 97.5665 8.5719 98.8353 8.5719H100.45C100.854 8.5719 101.258 8.62901 101.661 8.80035C102.296 9.0859 102.757 9.48568 103.103 10.0568C103.449 9.20013 104.257 8.5719 105.237 8.5719H106.852C108.525 8.5719 109.909 9.94258 109.909 11.5988V19.6515C109.909 20.908 108.871 21.936 107.602 21.936H105.987C105.583 21.936 105.237 21.8789 104.891 21.7647C104.487 21.936 104.084 22.0502 103.622 22.1073C103.219 22.1645 102.815 22.1645 102.411 22.1645Z" fill="white"/>
<path fill-rule="evenodd" clip-rule="evenodd" d="M85.8008 21.9931C85.8008 23.6493 87.1273 24.9629 88.7999 24.9629V25.02H90.4147C91.6836 25.02 92.7217 23.992 92.7217 22.7356V22.1644C92.9524 22.2215 93.1831 22.2215 93.4138 22.2215C94.1059 22.2215 94.7403 22.1073 95.3747 21.936C96.4129 21.6504 97.3357 21.0793 98.1431 20.2226C98.4892 19.88 98.7775 19.5373 99.0082 19.1375C99.4119 18.5664 99.7003 17.9382 99.8733 17.2528C100.046 16.6246 100.162 15.9393 100.162 15.1968C100.162 13.7119 99.8157 12.3984 99.0659 11.2561C98.8352 10.8563 98.5468 10.5137 98.2008 10.171C97.3933 9.31433 96.4705 8.74322 95.4324 8.40055C94.798 8.22921 94.1636 8.11499 93.4715 8.11499C92.7217 8.11499 92.0296 8.22921 91.3952 8.40055C90.7031 8.57188 90.0687 8.85744 89.4919 9.25722L89.3766 9.37144C89.329 9.40285 89.2771 9.43425 89.2232 9.46684C89.0811 9.55279 88.9253 9.64699 88.7999 9.77123C88.692 9.87805 88.5617 9.96267 88.4229 10.0528C88.3392 10.1072 88.2523 10.1636 88.1654 10.2281C88.0576 10.3349 87.9273 10.4196 87.7885 10.5097C87.7047 10.5641 87.6179 10.6205 87.531 10.685C87.4157 10.7707 87.3003 10.8421 87.185 10.9135C87.0696 10.9848 86.9543 11.0562 86.8389 11.1419C86.2045 11.5417 85.8008 12.2841 85.8008 13.0266V21.9931ZM93.01 14.7399H93.0677C93.1254 14.7399 93.1831 14.7399 93.1831 14.6828L93.2407 14.7399C93.2984 14.797 93.2984 14.8542 93.2984 14.9113V15.1397V15.3682C93.2984 15.4351 93.2786 15.4628 93.2622 15.4857C93.2506 15.502 93.2407 15.5158 93.2407 15.5395L93.1831 15.5966H93.0677H93.01C93.01 15.5966 92.9524 15.5966 92.837 15.4824C92.7793 15.4824 92.7793 15.4253 92.7793 15.3682V15.1968V15.0255C92.837 14.9684 92.837 14.9113 92.837 14.9113L92.8947 14.8542C92.9524 14.7399 93.01 14.7399 93.01 14.7399Z" fill="white"/>
<path d="M69.0171 21.936C68.498 21.936 67.979 21.7647 67.5752 21.422C67.5176 21.3649 67.5176 21.3649 67.4599 21.3078C67.4022 21.2506 67.3445 21.1935 67.2869 21.1364C66.9985 20.8509 66.7101 20.5082 66.4794 20.1655C65.9027 19.2517 65.6143 18.0524 65.6143 16.7388V14.9684C65.3836 14.9113 65.1529 14.797 64.9799 14.6257C64.1148 14.0546 63.5957 13.0837 63.5957 12.1128V10.9135C63.5957 9.77122 64.4608 8.80032 65.6143 8.6861V8.1721C65.6143 6.91564 66.6524 5.88763 67.9213 5.88763H69.5938C69.8245 5.88763 69.9976 5.88763 70.2283 5.94475C71.0357 6.11608 71.7278 6.57297 72.1892 7.25831C72.4776 7.7152 72.6506 8.1721 72.7083 8.6861C74.3808 8.6861 75.765 10.0568 75.765 11.7701V12.9695C75.765 14.2259 74.7269 15.2539 73.458 15.2539H72.7083V15.5966C72.8813 15.5395 73.112 15.5395 73.3427 15.5395C73.6311 15.5395 73.9194 15.5966 74.2078 15.7108C74.8422 15.9393 75.3036 16.4533 75.5343 17.0815L75.592 17.3099C75.9957 18.4522 75.419 19.6515 74.3231 20.1084C73.458 20.4511 72.7083 20.7938 71.9585 21.0793C71.2087 21.3649 70.5166 21.6504 69.9399 21.8789C69.5938 21.8789 69.3055 21.936 69.0171 21.936Z" fill="white"/>
<path d="M71.4976 19.6515C71.0939 19.6515 70.6325 19.5373 70.2865 19.3088L70.1134 19.1946L70.0558 19.1375C69.9981 19.0804 69.8828 19.0233 69.8251 18.9662C69.7674 18.9662 69.7674 18.909 69.7097 18.8519C69.2483 18.395 68.96 17.7668 68.96 17.1386C68.96 16.4532 69.306 15.825 69.8828 15.4252C70.5748 14.9112 71.44 14.3972 72.6511 13.7119C72.9972 13.5406 73.3432 13.4263 73.7469 13.4263C74.1507 13.4263 74.5544 13.5406 74.9581 13.769C75.5925 14.1688 75.9962 14.797 76.0539 15.5395C76.3423 16.5675 75.8809 17.6526 74.9004 18.1095C74.439 18.3379 74.0353 18.5664 73.6316 18.7948C73.2855 18.9662 72.9972 19.1375 72.7665 19.3088C72.3628 19.5373 71.9014 19.6515 71.4976 19.6515Z" fill="white"/>
<ellipse cx="87.1273" cy="8.51477" rx="4.26791" ry="4.22626" fill="white"/>
<path d="M73.054 25.1342C70.6894 25.1342 68.7861 23.2495 68.7861 20.908C68.7861 18.5664 70.6894 16.6817 73.054 16.6817C75.4187 16.6817 77.3219 18.5664 77.3219 20.908C77.3219 23.2495 75.4187 25.1342 73.054 25.1342Z" fill="white"/>
<ellipse cx="32.913" cy="13.8261" rx="1.90326" ry="1.88468" fill="white"/>
<path fill-rule="evenodd" clip-rule="evenodd" d="M14.7725 4.82329C14.3683 3.34946 12.8248 2.45789 11.3365 2.85819C10.5464 3.05834 9.94 3.586 9.5725 4.25923C9.27851 3.85893 8.89264 3.51322 8.45165 3.24029C7.62479 2.76721 6.65093 2.63984 5.71382 2.87638C5.5852 2.91277 5.23608 3.00375 5.23608 3.00375C5.23608 3.00375 5.2912 3.2039 5.30958 3.29488C5.2912 3.28578 5.27742 3.27668 5.26364 3.26758C5.24986 3.25849 5.23608 3.24939 5.2177 3.24029C4.39084 2.76721 3.41698 2.63984 2.47987 2.87638C2.43622 2.88873 2.3714 2.90528 2.3041 2.92245C2.17309 2.95589 2.03265 2.99173 2.02051 3.00375L3.38023 8.00748L3.94985 10.0636C4.28059 11.2644 5.05233 12.2834 6.15481 12.902C6.8898 13.3205 7.69829 13.5389 8.50677 13.5389C8.91102 13.5389 9.33363 13.4843 9.73788 13.3751C12.1082 12.7383 13.5782 10.4275 13.1739 8.06206C13.7068 7.82552 14.1478 7.42522 14.4418 6.91575C14.8644 6.29711 14.9747 5.5511 14.7725 4.82329ZM12.5492 7.29786C12.4206 7.33425 12.0531 7.42523 12.0531 7.42523C12.0531 7.42523 12.1449 7.75274 12.1817 7.8983C12.7146 9.8816 11.5202 11.9195 9.51736 12.4653C8.54351 12.7201 7.5329 12.5927 6.66929 12.1014C5.80568 11.6102 5.18094 10.8096 4.92369 9.84521L3.23322 3.76796C3.74771 3.73157 4.28058 3.84074 4.73995 4.11367C5.34631 4.45938 5.7873 5.02344 5.95268 5.69667C5.95268 5.72331 5.96252 5.74019 5.97501 5.76161L5.97501 5.76161C5.97958 5.76945 5.9845 5.77789 5.98942 5.78764L6.79791 8.7171C6.85304 8.93544 7.05516 9.081 7.27565 9.081C7.3124 9.081 7.36753 9.081 7.40428 9.06281C7.66152 8.99003 7.82689 8.73529 7.7534 8.46236L6.46717 3.78615C6.98166 3.74976 7.51452 3.85893 7.97389 4.13186C8.58026 4.47758 9.02125 5.04163 9.18662 5.71486L9.79298 7.9347C9.86648 8.18943 10.1237 8.35319 10.3994 8.28041C10.6566 8.20763 10.822 7.95289 10.7485 7.67996L10.3259 6.13335C10.3259 6.11516 10.3259 6.09696 10.3075 6.07877C10.0502 5.11441 10.6198 4.11367 11.5937 3.85893C12.5676 3.6042 13.5782 4.16825 13.8354 5.13261C14.0927 6.04238 13.523 7.02493 12.5492 7.29786ZM12.0715 6.22433C12.4573 6.22433 12.7881 5.91501 12.7881 5.51471C12.7881 5.13261 12.4573 4.80509 12.0715 4.80509C11.6856 4.80509 11.3549 5.11441 11.3549 5.51471C11.3549 5.89681 11.6672 6.22433 12.0715 6.22433Z" fill="#009ADE"/>
<path fill-rule="evenodd" clip-rule="evenodd" d="M36.5836 19.4888H38.8253V8.62613C38.8253 8.06208 38.366 7.60719 37.7963 7.60719H35.6465V8.55335C34.5991 7.67997 33.2762 7.24329 31.6776 7.24329C30.0973 7.24329 28.7192 7.84373 27.5433 9.04463C26.3673 10.2455 25.7793 11.7375 25.7793 13.5571C25.7793 15.3766 26.3673 16.8686 27.5433 18.0695C28.7009 19.2522 30.079 19.8527 31.6776 19.8527C33.2394 19.8527 34.5624 19.416 35.6465 18.5608C35.6465 19.0703 36.0691 19.4888 36.5836 19.4888ZM35.6465 13.5571C35.6465 14.6124 35.3158 15.4676 34.6175 16.1226C33.9193 16.7777 33.1292 17.1052 32.2288 17.1052C31.2366 17.1052 30.4465 16.7777 29.8034 16.1408C29.1603 15.504 28.8479 14.6306 28.8479 13.5571C28.8479 12.4654 29.1603 11.6102 29.8034 10.9551C30.4465 10.3001 31.255 9.97259 32.2288 9.97259C33.1292 9.97259 33.9193 10.3001 34.6175 10.9733C35.2974 11.6466 35.6465 12.5017 35.6465 13.5571Z" fill="#E50695"/>
<path d="M50.3828 8.89906C51.2464 9.80883 51.6874 10.9915 51.6874 12.4472V19.5797H49.5743C49.0231 19.5797 48.5637 19.1249 48.5637 18.579V13.1204C48.5637 12.2834 48.3432 11.6284 47.9206 11.1371C47.4796 10.6458 46.91 10.3911 46.175 10.3911C44.2273 10.3911 43.235 11.7375 43.235 14.4305V19.6161H41.1219C40.5707 19.6161 40.1113 19.1612 40.1113 18.6154V7.91651H42.2244C42.7757 7.91651 43.235 8.37139 43.235 8.91726V8.97184C44.1905 8.02568 45.4216 7.5708 46.9467 7.5708C48.3616 7.51621 49.5192 7.9711 50.3828 8.89906Z" fill="#E50695"/>
<path d="M55.123 15.8497C55.5456 15.7587 55.9866 15.9407 56.1887 16.3228C56.5379 16.9596 57.2728 17.2689 58.4304 17.2689C59.0001 17.2689 59.4411 17.1598 59.7718 16.9414C60.1025 16.7231 60.2679 16.4502 60.2679 16.1044C60.2679 15.595 59.8269 15.2311 58.9633 15.0491L56.5562 14.5578C55.4905 14.3395 54.6636 13.9392 54.0756 13.3569C53.506 12.7747 53.212 12.0651 53.212 11.2281C53.212 10.0818 53.653 9.15381 54.535 8.44419C55.417 7.71638 56.5746 7.37067 58.0446 7.37067C59.4227 7.37067 60.5619 7.69818 61.4806 8.33502C62.3994 8.97186 62.969 9.80885 63.1711 10.846L61.0397 11.2645C60.617 11.3555 60.1944 11.1553 59.9739 10.7914C59.8637 10.5912 59.6983 10.4093 59.4962 10.2637C59.0919 9.9726 58.5774 9.82704 57.9527 9.82704C57.3831 9.82704 56.9788 9.93621 56.7216 10.1728C56.4644 10.3911 56.3357 10.664 56.3357 10.9734C56.3357 11.4646 56.6849 11.8103 57.4015 11.9559L60.2128 12.5563C61.2234 12.7747 61.9951 13.175 62.528 13.7572C63.0609 14.3395 63.3181 15.0491 63.3181 15.8497C63.3181 17.1234 62.8404 18.0877 61.9033 18.761C60.9662 19.4342 59.6983 19.7617 58.1365 19.7617C56.74 19.7617 55.5272 19.4706 54.535 18.9065C53.5428 18.3425 52.9732 17.4691 52.8262 16.3228L55.123 15.8497Z" fill="#E50695"/>
<path d="M17.2166 15.8497C17.6392 15.7587 18.0802 15.9407 18.2823 16.3228C18.6314 16.9596 19.3664 17.2689 20.524 17.2689C21.0936 17.2689 21.5346 17.1598 21.8654 16.9414C22.1961 16.7231 22.3615 16.4502 22.3615 16.1044C22.3615 15.595 21.9205 15.2311 21.0569 15.0491L18.6498 14.5578C17.5841 14.3395 16.7572 13.9392 16.1692 13.3569C15.5996 12.7747 15.3056 12.0651 15.3056 11.2281C15.3056 10.0818 15.7466 9.15381 16.6102 8.44419C17.4922 7.71638 18.6498 7.37067 20.1198 7.37067C21.4979 7.37067 22.6371 7.69818 23.5558 8.33502C24.4746 8.97186 25.0442 9.80885 25.2463 10.846L23.1149 11.2645C22.6922 11.3555 22.2696 11.1553 22.0491 10.7914C21.9389 10.5912 21.7735 10.4093 21.5714 10.2637C21.1671 9.9726 20.6526 9.82704 20.0279 9.82704C19.4583 9.82704 19.054 9.93621 18.7968 10.1728C18.5396 10.3911 18.4109 10.664 18.4109 10.9734C18.4109 11.4646 18.7601 11.8103 19.4767 11.9559L22.288 12.5563C23.2986 12.7747 24.0703 13.175 24.6032 13.7572C25.1361 14.3395 25.3933 15.0491 25.3933 15.8497C25.3933 17.1234 24.9156 18.0877 23.9785 18.761C23.0414 19.4342 21.7735 19.7617 20.2117 19.7617C18.8152 19.7617 17.6024 19.4706 16.6102 18.9065C15.618 18.3425 15.0484 17.4691 14.9014 16.3228L17.2166 15.8497Z" fill="#E50695"/>
<path d="M19.2559 22.0179H20.9831C21.4241 22.0179 21.7732 21.6722 21.7732 21.2355V18.5972H19.2559V22.0179H19.2559Z" fill="#E50695"/>
<path d="M107.583 19.5615H105.984C105.562 19.5615 105.213 19.2158 105.213 18.7973V18.7609C104.496 19.4705 103.559 19.8163 102.401 19.8163C101.336 19.8163 100.472 19.4705 99.8106 18.7791C99.1491 18.0877 98.8184 17.1961 98.8184 16.1044V10.7186H100.417C100.84 10.7186 101.189 11.0643 101.189 11.4828V15.6131C101.189 16.2318 101.354 16.7412 101.685 17.1233C102.016 17.5054 102.457 17.6874 103.008 17.6874C104.478 17.6874 105.231 16.6685 105.231 14.6488V10.7368H106.83C107.252 10.7368 107.601 11.0825 107.601 11.501V19.5615H107.583Z" fill="#009ADE"/>
<path fill-rule="evenodd" clip-rule="evenodd" d="M93.4901 10.2819C94.6844 10.2819 95.7134 10.7368 96.6137 11.6466C97.5141 12.5563 97.9551 13.7027 97.9367 15.0673C97.9367 16.432 97.4957 17.5783 96.6137 18.4698C95.7318 19.3614 94.6844 19.8163 93.4901 19.8163C92.3141 19.8163 91.3035 19.507 90.495 18.8519V22.6184H88.8045C88.4003 22.6184 88.0879 22.2909 88.0879 21.9088L88.1063 12.9384C88.6024 12.6109 89.0985 12.2834 89.5395 11.9741C89.9989 11.6466 90.4399 11.3191 90.8257 11.0279C91.5607 10.5367 92.4611 10.2819 93.4901 10.2819ZM93.0674 17.742C93.8208 17.742 94.4272 17.5055 94.9049 17.0142C95.3827 16.5411 95.6215 15.8861 95.6215 15.0673C95.6215 14.2485 95.3827 13.5935 94.9049 13.1022C94.4088 12.6109 93.8024 12.3562 93.0674 12.3562C92.3876 12.3562 91.7812 12.6109 91.2667 13.1204C90.7339 13.6299 90.4766 14.2667 90.4766 15.0673C90.4766 15.8497 90.7522 16.5047 91.2667 16.996C91.7812 17.4873 92.3876 17.742 93.0674 17.742Z" fill="#009ADE"/>
<path d="M66.5888 12.811H67.7831V16.6321C67.7831 17.8693 68.1139 18.7791 68.757 19.3978C68.8121 19.4523 68.8856 19.5069 68.9407 19.5615C70.1167 19.1248 71.5867 18.5244 73.2404 17.8148L73.1669 17.5964C72.6157 17.8875 72.0828 18.0331 71.6234 18.0331C70.7231 18.0331 70.2637 17.5054 70.2637 16.4501V12.811H73.3139V11.6101C73.3139 11.1734 72.9648 10.8095 72.5054 10.8095H70.2637V8.80804C70.2637 8.37135 69.9146 8.00745 69.4552 8.00745H67.7831V10.7913H65.7803V11.9922C65.7803 12.4653 66.1478 12.811 66.5888 12.811Z" fill="#009ADE"/>
<path d="M73.6632 15.595C72.6342 16.159 71.7706 16.6685 71.1826 17.1234L71.201 17.1416C71.2377 17.178 71.2745 17.1962 71.3112 17.2326C71.3112 17.2326 71.3296 17.2326 71.3296 17.2507C71.348 17.2689 71.3847 17.2871 71.4215 17.3053C71.9544 16.9596 72.7445 16.5229 73.7367 16.0135C73.6816 15.8861 73.6632 15.7405 73.6632 15.595Z" fill="#009ADE"/>
<path d="M85.1293 9.71783C84.8169 9.88159 84.5046 10.0454 84.1738 10.2091C84.2657 10.3001 84.3943 10.3911 84.5046 10.5002C84.8169 10.3365 85.1109 10.1909 85.4049 10.0454C85.2947 9.93618 85.2028 9.82701 85.1293 9.71783Z" fill="#009ADE"/>
<path d="M89.4841 7.86189C89.4841 7.8437 89.4841 7.8437 89.4841 7.8255C89.4657 7.8255 89.4473 7.8437 89.4106 7.8437C89.429 7.93467 89.4473 8.04385 89.4657 8.13482H89.4841C89.4841 8.09843 89.4841 8.04385 89.4841 8.02565V8.00745C89.4841 7.97106 89.4841 7.91648 89.4841 7.86189Z" fill="#009ADE"/>
<path d="M93.232 7.498C93.0851 6.95214 91.6334 7.17048 89.4285 7.8801C89.4652 8.00747 89.4652 8.13484 89.4836 8.2622C91.3762 7.60717 92.5522 7.29785 92.6257 7.44341C92.8094 7.78913 87.2603 11.501 79.8369 15.2492C77.4114 16.4683 75.0962 17.5418 73.0566 18.4334C73.7549 18.4516 74.3612 18.7609 74.7839 19.2522C76.5662 18.5244 78.4955 17.6328 80.5168 16.6321C88.179 12.7747 93.5077 8.64431 93.232 7.498Z" fill="#009ADE"/>
<path d="M71.1826 19.2158C67.9854 20.5259 65.8356 21.2173 65.7253 21.0172C65.6518 20.8898 66.3868 20.253 67.7465 19.2886C67.673 19.2158 67.6179 19.1249 67.5628 19.0339C66.0377 20.162 65.1373 20.9808 65.5048 21.4903C65.8539 21.9815 67.7649 21.7086 70.5579 20.817C70.5762 20.1984 70.7967 19.6525 71.1826 19.2158Z" fill="#009ADE"/>
<ellipse cx="80.2516" cy="15.1001" rx="5.83333" ry="5.9" transform="rotate(-90 80.2516 15.1001)" fill="#009BDE"/>
<ellipse cx="80.2516" cy="15.1001" rx="5.83333" ry="5.9" transform="rotate(-90 80.2516 15.1001)" fill="url(#paint0_radial_3342_13879)"/>
<ellipse cx="87.214" cy="8.45008" rx="1.98333" ry="2.006" transform="rotate(-90 87.214 8.45008)" fill="#009BDE"/>
<ellipse cx="87.214" cy="8.45008" rx="1.98333" ry="2.006" transform="rotate(-90 87.214 8.45008)" fill="url(#paint1_radial_3342_13879)"/>
<ellipse cx="73.0538" cy="20.8167" rx="1.98333" ry="2.006" transform="rotate(-90 73.0538 20.8167)" fill="#009BDE"/>
<ellipse cx="73.0538" cy="20.8167" rx="1.98333" ry="2.006" transform="rotate(-90 73.0538 20.8167)" fill="url(#paint2_radial_3342_13879)"/>
<defs>
<radialGradient id="paint0_radial_3342_13879" cx="0" cy="0" r="1" gradientUnits="userSpaceOnUse" gradientTransform="translate(83.1682 13.0479) rotate(140.34) scale(10.0481 10.0699)">
<stop stop-color="#F8FBFF"/>
<stop offset="0.234375" stop-color="#C9E0F4" stop-opacity="0.6"/>
<stop offset="0.713542" stop-color="#0490CD" stop-opacity="0.9"/>
<stop offset="1" stop-color="#0490CD"/>
</radialGradient>
<radialGradient id="paint1_radial_3342_13879" cx="0" cy="0" r="1" gradientUnits="userSpaceOnUse" gradientTransform="translate(88.2057 7.75234) rotate(140.34) scale(3.41637 3.42378)">
<stop stop-color="#F8FBFF"/>
<stop offset="0.234375" stop-color="#C9E0F4" stop-opacity="0.6"/>
<stop offset="0.713542" stop-color="#0490CD" stop-opacity="0.9"/>
<stop offset="1" stop-color="#0490CD"/>
</radialGradient>
<radialGradient id="paint2_radial_3342_13879" cx="0" cy="0" r="1" gradientUnits="userSpaceOnUse" gradientTransform="translate(74.0455 20.119) rotate(140.34) scale(3.41637 3.42378)">
<stop stop-color="#F8FBFF"/>
<stop offset="0.234375" stop-color="#C9E0F4" stop-opacity="0.6"/>
<stop offset="0.713542" stop-color="#0490CD" stop-opacity="0.9"/>
<stop offset="1" stop-color="#0490CD"/>
</radialGradient>
</defs>
</svg>
