<svg width="189" height="42" viewBox="0 0 189 42" fill="none" xmlns="http://www.w3.org/2000/svg">
<path fill-rule="evenodd" clip-rule="evenodd" d="M15.1332 26.81C13.0269 26.81 10.9414 26.249 9.10127 25.1875C6.30741 23.5739 4.30798 20.97 3.47002 17.8546L2.49652 14.3029L0.136972 5.57701C-0.427935 3.48656 0.805758 1.33378 2.89423 0.763929L3.69361 0.547266C4.55729 0.316753 5.44175 0.200012 6.3272 0.200012C7.2631 0.200012 8.19406 0.331593 9.09237 0.588818L9.24374 0.547266C10.1064 0.316753 10.9909 0.200012 11.8763 0.200012C13.5582 0.200012 15.2242 0.626413 16.7092 1.43568C17.3948 1.0261 18.1388 0.709516 18.9213 0.499779C19.6614 0.301913 20.4231 0.201002 21.1869 0.201002C25.1452 0.201002 28.6267 2.87219 29.6506 6.69495C30.2571 8.95655 29.9464 11.3171 28.776 13.3442C28.3506 14.0803 27.8302 14.7412 27.2287 15.314C26.9923 20.4753 23.4713 25.0025 18.2753 26.3954C17.2464 26.6705 16.1888 26.81 15.1332 26.81Z" fill="#FEFEFE"/>
<path fill-rule="evenodd" clip-rule="evenodd" d="M21.1869 14.0888C18.3337 14.0888 16.0117 11.7678 16.0117 8.91462C16.0117 6.0604 18.3337 3.73944 21.1869 3.73944C24.0401 3.73944 26.3611 6.0604 26.3611 8.91462C26.3611 11.7678 24.0401 14.0888 21.1869 14.0888Z" fill="#FEFEFE"/>
<path fill-rule="evenodd" clip-rule="evenodd" d="M176.048 36.8376C172.988 36.8376 170.114 35.6998 167.909 33.7657C165.567 35.6543 162.611 36.7446 159.502 36.7446C156.333 36.7446 153.349 35.6336 151 33.7073C148.792 35.68 145.893 36.8376 142.772 36.8376C139.712 36.8376 136.838 35.6998 134.633 33.7657C132.291 35.6543 129.335 36.7446 126.226 36.7446C118.832 36.7446 112.817 30.7304 112.817 23.3372C112.817 15.9439 118.832 9.92883 126.226 9.92883C130.049 9.92883 133.543 11.5068 136.01 14.1453C137.981 12.8543 140.318 12.134 142.772 12.134C145.259 12.134 147.651 12.9008 149.656 14.2502C152.136 11.5662 155.676 9.92883 159.502 9.92883C163.326 9.92883 166.819 11.5068 169.286 14.1453C171.257 12.8543 173.594 12.134 176.048 12.134C182.859 12.134 188.4 17.6753 188.4 24.4858C188.4 31.2963 182.859 36.8376 176.048 36.8376Z" fill="#FEFEFE"/>
<path fill-rule="evenodd" clip-rule="evenodd" d="M76.3863 36.6647L73.907 36.5073C71.0894 36.3273 68.9436 33.8896 69.1217 31.074L69.928 18.3858C70.0605 16.3063 71.7879 14.7085 73.8427 14.7085C73.9268 14.7085 74.0109 14.7115 74.095 14.7164L76.5743 14.8747C79.3938 15.0548 81.5397 17.4935 81.3596 20.3101L80.5533 32.9962C80.4208 35.0748 78.6934 36.6726 76.6386 36.6726C76.5545 36.6726 76.4704 36.6696 76.3863 36.6647Z" fill="#FEFEFE"/>
<path fill-rule="evenodd" clip-rule="evenodd" d="M99.54 24.2386C99.542 24.2099 99.544 24.1723 99.544 24.1268C99.544 24.0833 99.542 24.0467 99.54 24.017C99.538 24.0506 99.539 24.2049 99.54 24.2386ZM107.319 37.0276C107.166 37.0276 107.011 37.0187 106.855 37.0009L103.885 36.6507C103.231 36.5735 102.62 36.3776 102.071 36.0868C101.089 36.3371 100.061 36.4627 98.9929 36.4627C98.4448 36.4627 97.8789 36.4291 97.3121 36.3628C95.3512 36.1323 93.5546 35.4328 91.9954 34.308C90.3531 35.4625 88.2894 36.156 85.8487 36.3747C85.362 36.4182 84.8881 36.44 84.4261 36.44C82.5058 36.44 80.7309 36.066 79.1519 35.3299C76.7192 34.1972 75.066 32.1087 74.4982 29.4494C74.2182 28.1356 74.6307 26.8257 75.5013 25.9145C74.8424 24.8767 74.4418 23.6846 74.325 22.3836C74.0896 19.7371 74.9542 17.3578 76.827 15.5018C78.5217 13.82 80.8021 12.8405 83.6019 12.5902C84.0343 12.5517 84.4547 12.5329 84.8653 12.5329C86.9211 12.5329 88.788 13.0067 90.4135 13.9436C90.7122 14.1158 90.9982 14.2998 91.2712 14.4957C91.3543 14.4245 91.4394 14.3532 91.5255 14.283C93.7317 12.4933 96.1971 11.5851 98.8505 11.5851C99.3016 11.5851 99.7626 11.6128 100.22 11.6662C101.708 11.8423 103.07 12.2212 104.297 12.799C104.519 12.7594 104.746 12.7396 104.974 12.7396C105.127 12.7396 105.28 12.7485 105.433 12.7663L108.281 13.1017C111.186 13.445 113.271 16.0865 112.93 18.9902L111.213 33.561C110.979 35.5575 109.282 37.0276 107.319 37.0276Z" fill="#FEFEFE"/>
<path fill-rule="evenodd" clip-rule="evenodd" d="M49.7809 25.7839C49.7828 25.7552 49.7848 25.7196 49.7848 25.6761C49.7848 25.6345 49.7828 25.5999 49.7809 25.5712C49.7799 25.6029 49.7799 25.7513 49.7809 25.7839ZM34.9647 38.2821C32.7496 38.2821 30.6957 37.8686 28.8605 37.0524C25.9608 35.7633 24.0445 33.4245 23.3183 30.2883C22.9354 28.6362 23.6586 26.9691 25.0279 26.0936C23.8654 24.7303 23.1551 23.0563 22.9542 21.1776C22.6238 18.0889 23.5854 15.2901 25.7352 13.0819C27.7168 11.0469 30.4316 9.832 33.8052 9.47188C34.4255 9.40461 35.0408 9.37097 35.6335 9.37097C37.9989 9.37097 40.1557 9.90026 42.0443 10.943C43.7736 11.8987 45.1498 13.2016 46.1114 14.7786C47.0899 14.471 48.1089 14.3137 49.1506 14.3137C49.4079 14.3137 49.6671 14.3235 49.9283 14.3423C51.2233 14.4353 52.4204 14.7025 53.5156 15.1397C53.7382 15.1002 53.9647 15.0804 54.1972 15.0804C54.2922 15.0804 54.3872 15.0834 54.4841 15.0903L56.9624 15.2693C58.3257 15.3673 59.5712 15.9916 60.4656 17.0254C61.3609 18.0602 61.7992 19.38 61.7013 20.7443L60.7851 33.4245C60.6358 35.4902 58.9123 37.0672 56.8724 37.0672C56.7784 37.0672 56.6824 37.0642 56.5864 37.0573L54.0013 36.8703C53.4443 36.8308 52.9071 36.7002 52.4065 36.4894C51.4132 36.7704 50.3616 36.9129 49.2585 36.9129C48.9449 36.9129 48.6253 36.901 48.2998 36.8773C46.8376 36.7724 45.4624 36.3796 44.2109 35.7197C42.2966 37.0415 39.8895 37.8636 37.0353 38.1693C36.3319 38.2445 35.6354 38.2821 34.9647 38.2821Z" fill="#FEFEFE"/>
<path fill-rule="evenodd" clip-rule="evenodd" d="M113.603 39.2128C113.496 39.2128 113.387 39.2079 113.278 39.199L110.04 38.9289C108.58 38.8082 107.253 38.1245 106.306 37.0066C105.358 35.8877 104.904 34.467 105.025 33.0058L107.073 8.40711C107.159 7.36931 107.654 6.40867 108.449 5.73592C109.16 5.13441 110.06 4.80695 110.986 4.80695C111.094 4.80695 111.202 4.81189 111.311 4.8208L114.549 5.08989C116.01 5.21158 117.336 5.89422 118.283 7.01315C119.231 8.13208 119.685 9.55374 119.563 11.016L117.516 35.6117C117.43 36.6495 116.934 37.6101 116.139 38.2838C115.429 38.8853 114.528 39.2128 113.603 39.2128Z" fill="#FEFEFE"/>
<path fill-rule="evenodd" clip-rule="evenodd" d="M61.9372 41.6963C60.6847 41.6963 59.5034 41.0977 58.7624 40.0787C57.9858 39.0103 57.7978 37.6232 58.2628 36.3875L59.7745 32.3689L53.7436 19.8964C53.1688 18.7092 53.2291 17.3133 53.9048 16.1795C54.5795 15.0458 55.7786 14.3265 57.0964 14.2652L60.5867 14.1039C60.6471 14.101 60.7658 14.098 60.8271 14.098C62.8295 14.098 64.6746 15.2703 65.5255 17.0848L65.5542 17.1461L65.9024 16.227C66.4564 14.7638 67.8286 13.7685 69.3927 13.6963L73.727 13.4955C73.7873 13.4925 73.8477 13.4905 73.909 13.4905C75.1625 13.4905 76.3457 14.0911 77.0868 15.112C77.8624 16.1825 78.0484 17.5715 77.5794 18.8082L70.2376 38.1832C69.5036 40.1193 67.6941 41.4321 65.6264 41.5301L62.1192 41.6923C62.0589 41.6953 61.9975 41.6963 61.9372 41.6963Z" fill="#FEFEFE"/>
<path fill-rule="evenodd" clip-rule="evenodd" d="M57.2249 19.2673C57.1141 19.2673 57.0023 19.2624 56.8905 19.2525L55.5401 19.1377C54.3232 19.0338 53.2181 18.462 52.4296 17.5261C51.6411 16.5892 51.2652 15.403 51.3711 14.1841L51.9597 7.2806C52.0487 6.2428 52.5464 5.28315 53.3418 4.61239C54.0521 4.01384 54.9495 3.68835 55.8715 3.68835C55.9833 3.68835 56.0941 3.6933 56.2059 3.70319L57.5563 3.81796C58.7732 3.92184 59.8793 4.49367 60.6668 5.42957C61.4553 6.36548 61.8322 7.55267 61.7263 8.77152L61.1367 15.6751C61.0477 16.7129 60.551 17.6725 59.7546 18.3433C59.0433 18.9418 58.147 19.2673 57.2249 19.2673Z" fill="#FEFEFE"/>
<path fill-rule="evenodd" clip-rule="evenodd" d="M72.0709 19.2901C71.9106 19.2901 71.7504 19.2802 71.5891 19.2604L70.2446 19.0942C69.0337 18.9448 67.9504 18.3314 67.1985 17.3678C66.4456 16.4042 66.1142 15.2052 66.2636 13.9913L67.1124 7.11148C67.24 6.07763 67.7723 5.13678 68.5934 4.49668C69.2869 3.95552 70.1378 3.66565 71.0084 3.66565C71.1686 3.66565 71.3289 3.67554 71.4902 3.69533L72.8347 3.86154C75.3387 4.17021 77.1254 6.45951 76.8167 8.9635L75.9669 15.8453C75.8402 16.8781 75.307 17.819 74.4859 18.4591C73.7923 19.0002 72.9415 19.2901 72.0709 19.2901Z" fill="#FEFEFE"/>
<path fill-rule="evenodd" clip-rule="evenodd" d="M65.5821 22.6653C65.2398 22.6653 64.8856 22.6475 64.5195 22.6119C60.2259 22.1904 58.3956 19.7438 57.6872 18.3231C56.9987 16.944 57.1955 15.3403 58.084 14.1808C57.6229 13.0441 57.4478 11.8124 57.5735 10.5302C57.7832 8.40214 58.7854 6.56991 60.4732 5.23135C61.9008 4.10054 63.5787 3.50299 65.3268 3.50299C65.5821 3.50299 65.8393 3.51585 66.1005 3.54059C66.8741 3.61775 67.5944 3.77308 68.2592 4.00755C68.366 4.00953 68.4739 4.01546 68.5817 4.02635L69.9252 4.15793C72.45 4.40427 74.3089 6.66192 74.0666 9.18965L73.4423 15.7004C73.1504 18.6724 71.618 20.3384 70.3843 21.2149C69.0259 22.1775 67.4113 22.6653 65.5821 22.6653Z" fill="#FEFEFE"/>
<path fill-rule="evenodd" clip-rule="evenodd" d="M51.037 20.6461C49.3858 20.6461 47.9117 19.7557 47.1054 18.4082C46.7799 18.2321 46.4643 18.0323 46.1596 17.8077C44.4302 16.5374 43.3647 14.6963 43.0788 12.4831C42.7929 10.2769 43.3509 8.22605 44.6924 6.55408C45.9983 4.92763 47.8038 3.92544 49.9141 3.65238C50.2653 3.60588 50.6214 3.58313 50.9687 3.58313C52.3003 3.58313 53.5687 3.91159 54.737 4.56059C56.2102 5.37876 57.3578 6.63224 58.0533 8.18449C58.3778 8.90967 58.4728 9.70905 58.3362 10.4787C58.6301 11.1119 58.7587 11.8302 58.6736 12.5732C58.4718 14.349 57.6862 15.9339 56.4031 17.1577C56.3793 17.1805 56.3556 17.2032 56.3318 17.225C56.041 18.8702 54.7123 20.2088 52.9681 20.4344L51.6246 20.6075C51.4574 20.6292 51.2051 20.6461 51.037 20.6461Z" fill="#FEFEFE"/>
<path fill-rule="evenodd" clip-rule="evenodd" d="M75.0026 19.3522C72.6697 19.3522 70.7148 17.6041 70.4546 15.2861L69.6839 8.40336C69.4426 6.2486 70.9928 4.30655 73.1486 4.06416L74.4931 3.91379C74.6375 3.89796 74.8571 3.8851 75.0036 3.8851C75.1144 3.8851 75.2252 3.88905 75.335 3.89697C75.9978 3.61996 76.7181 3.43594 77.4828 3.34987C77.7786 3.31722 78.0665 3.30139 78.3475 3.30139C79.9977 3.30139 81.5193 3.85344 82.748 4.89718C84.1331 6.07448 84.977 7.71577 85.1936 9.64496L85.7071 14.2305C85.8238 15.2653 85.5231 16.3041 84.8741 17.1174C84.2241 17.9316 83.2773 18.453 82.2425 18.5697L80.898 18.7201C80.7535 18.7369 80.5339 18.7488 80.3875 18.7488C79.8068 18.7488 79.2498 18.6399 78.7363 18.4421C78.2031 18.8329 77.562 19.093 76.8576 19.1722L75.5131 19.3236C75.3676 19.3394 75.148 19.3522 75.0026 19.3522Z" fill="#FEFEFE"/>
<path fill-rule="evenodd" clip-rule="evenodd" d="M59.7688 19.2011C57.2875 19.2011 55.2782 17.2591 55.1951 14.7788L54.8489 4.50565C54.8142 3.46488 55.1941 2.45279 55.9055 1.692C56.6158 0.932196 57.6012 0.48502 58.6409 0.449404C58.6409 0.449404 60.1042 0.401917 60.1477 0.401917C62.6289 0.401917 64.6383 2.34397 64.7214 4.82421L65.0666 15.0974C65.1023 16.1382 64.7223 17.1502 64.011 17.911C63.2997 18.6708 62.3153 19.119 61.2745 19.1536C61.2745 19.1536 59.8123 19.2011 59.7688 19.2011Z" fill="#FEFEFE"/>
<path fill-rule="evenodd" clip-rule="evenodd" d="M22.4361 8.91423C22.4361 9.6038 21.8771 10.1628 21.1875 10.1628C20.498 10.1628 19.938 9.6038 19.938 8.91423C19.938 8.22467 20.498 7.66471 21.1875 7.66471C21.8771 7.66471 22.4361 8.22467 22.4361 8.91423ZM22.0294 12.0019C21.8078 12.0623 21.1885 12.2305 21.1885 12.2305C21.1885 12.2305 21.3399 12.7865 21.4071 13.0387C22.3322 16.4915 20.2763 20.0521 16.8246 20.9771C15.1516 21.4253 13.4055 21.1957 11.9056 20.3301C10.4068 19.4644 9.33437 18.0665 8.8862 16.3945C8.8862 16.3935 8.88521 16.3926 8.88521 16.3916C8.88521 16.3916 8.88521 16.3906 8.88422 16.3896L5.98648 5.82159C6.88281 5.75431 7.77914 5.95614 8.57555 6.41617C9.62028 7.01867 10.3672 7.99316 10.6799 9.15859C10.6937 9.21004 10.7115 9.25851 10.7343 9.30402L12.1243 14.3882C12.2262 14.7631 12.5655 15.0095 12.9355 15.0095C13.0087 15.0095 13.0829 14.9996 13.1571 14.9798C13.6053 14.8581 13.8704 14.3961 13.7487 13.9469L11.5327 5.82159C12.431 5.75332 13.3273 5.95614 14.1247 6.41617C15.1694 7.01867 15.9174 7.99316 16.229 9.15859L17.2678 13.0071C17.3885 13.4562 17.8495 13.7224 18.2987 13.6017C18.7468 13.482 19.014 13.0199 18.8933 12.5718L18.1612 9.86794C18.1562 9.83826 18.1503 9.80858 18.1424 9.77989C17.6932 8.10001 18.6924 6.3677 20.3723 5.91755C22.0512 5.4684 23.7835 6.46762 24.2337 8.1475C24.6818 9.81847 23.6955 11.5498 22.0294 12.0019ZM25.8592 7.71219C25.1686 5.13697 22.5123 3.60253 19.937 4.29308C18.5817 4.65517 17.5152 5.56337 16.9097 6.71693C16.4012 6.00758 15.7443 5.40805 14.9657 4.95889C13.5321 4.13083 11.8612 3.9112 10.2614 4.33957C10.0457 4.39794 9.4472 4.56019 9.4472 4.56019C9.4472 4.56019 9.54118 4.90349 9.58273 5.05882C9.50853 5.01232 9.4927 5.00242 9.41653 4.95889C7.98299 4.13083 6.31201 3.9112 4.71227 4.33957C4.50154 4.39597 3.95939 4.54338 3.92773 4.55228L6.28332 13.2643H6.28234L7.26177 16.8348C7.26276 16.8348 7.26276 16.8348 7.26276 16.8358C7.82767 18.9391 9.1781 20.6981 11.0647 21.7874C12.3222 22.5135 13.7181 22.8845 15.1339 22.8845C15.8422 22.8845 16.5565 22.7905 17.2599 22.6026C21.3547 21.5054 23.8904 17.462 23.1979 13.3632C24.108 12.9497 24.8659 12.2641 25.3764 11.3816C26.0224 10.2627 26.1936 8.95974 25.8592 7.71219Z" fill="#030100"/>
<path fill-rule="evenodd" clip-rule="evenodd" d="M22.4361 8.91423C22.4361 9.60379 21.8771 10.1628 21.1875 10.1628C20.498 10.1628 19.938 9.60379 19.938 8.91423C19.938 8.22467 20.498 7.66471 21.1875 7.66471C21.8771 7.66471 22.4361 8.22467 22.4361 8.91423ZM22.0294 12.0019C21.8078 12.0623 21.1885 12.2305 21.1885 12.2305C21.1885 12.2305 21.3399 12.7865 21.4071 13.0387C22.3322 16.4915 20.2763 20.0521 16.8246 20.9771C15.1516 21.4253 13.4055 21.1957 11.9056 20.3301C10.4068 19.4644 9.33437 18.0665 8.8862 16.3945C8.8862 16.3935 8.88521 16.3926 8.88521 16.3916C8.88521 16.3916 8.88521 16.3906 8.88422 16.3896L5.98648 5.82159C6.88281 5.75431 7.77915 5.95614 8.57555 6.41617C9.62028 7.01867 10.3672 7.99316 10.6799 9.15859C10.6937 9.21003 10.7115 9.25851 10.7343 9.30402L12.1243 14.3882C12.2262 14.7631 12.5655 15.0095 12.9355 15.0095C13.0087 15.0095 13.0829 14.9996 13.1571 14.9798C13.6053 14.8581 13.8704 14.3961 13.7488 13.9469L11.5327 5.82159C12.431 5.75332 13.3273 5.95614 14.1247 6.41617C15.1694 7.01867 15.9174 7.99316 16.229 9.15859L17.2678 13.0071C17.3885 13.4562 17.8495 13.7224 18.2987 13.6017C18.7468 13.482 19.014 13.0199 18.8933 12.5718L18.1612 9.86794C18.1562 9.83826 18.1503 9.80858 18.1424 9.77989C17.6932 8.10001 18.6924 6.3677 20.3723 5.91755C22.0512 5.4684 23.7835 6.46762 24.2337 8.1475C24.6818 9.81847 23.6955 11.5498 22.0294 12.0019ZM25.8592 7.71219C25.1686 5.13697 22.5123 3.60253 19.937 4.29308C18.5817 4.65517 17.5152 5.56337 16.9097 6.71693C16.4012 6.00758 15.7443 5.40805 14.9657 4.95889C13.5321 4.13083 11.8612 3.9112 10.2614 4.33957C10.0457 4.39794 9.4472 4.56019 9.4472 4.56019C9.4472 4.56019 9.54118 4.90349 9.58273 5.05882C9.50853 5.01232 9.4927 5.00242 9.41653 4.95889C7.98299 4.13083 6.31201 3.9112 4.71227 4.33957C4.50154 4.39597 3.95939 4.54338 3.92773 4.55228L6.28332 13.2643H6.28234L7.26177 16.8348C7.26276 16.8348 7.26276 16.8348 7.26276 16.8358C7.82767 18.9391 9.1781 20.6981 11.0647 21.7874C12.3222 22.5135 13.7181 22.8845 15.1339 22.8845C15.8422 22.8845 16.5565 22.7905 17.2599 22.6026C21.3547 21.5054 23.8904 17.462 23.1979 13.3632C24.108 12.9497 24.8659 12.2641 25.3764 11.3816C26.0224 10.2627 26.1936 8.95974 25.8592 7.71219Z" fill="#23AAE2"/>
<path fill-rule="evenodd" clip-rule="evenodd" d="M135.708 23.3372C135.708 28.5738 131.462 32.819 126.226 32.819C120.989 32.819 116.744 28.5738 116.744 23.3372C116.744 18.1007 120.989 13.8555 126.226 13.8555C131.462 13.8555 135.708 18.1007 135.708 23.3372Z" fill="#23AAE2"/>
<path fill-rule="evenodd" clip-rule="evenodd" d="M151.198 24.486C151.198 29.1398 147.426 32.9121 142.772 32.9121C138.118 32.9121 134.346 29.1398 134.346 24.486C134.346 19.8322 138.118 16.0599 142.772 16.0599C147.426 16.0599 151.198 19.8322 151.198 24.486Z" fill="#23AAE2"/>
<path fill-rule="evenodd" clip-rule="evenodd" d="M168.984 23.3372C168.984 28.5738 164.739 32.819 159.502 32.819C154.266 32.819 150.021 28.5738 150.021 23.3372C150.021 18.1007 154.266 13.8555 159.502 13.8555C164.739 13.8555 168.984 18.1007 168.984 23.3372Z" fill="#23AAE2"/>
<path fill-rule="evenodd" clip-rule="evenodd" d="M184.474 24.486C184.474 29.1398 180.702 32.9121 176.048 32.9121C171.395 32.9121 167.623 29.1398 167.623 24.486C167.623 19.8322 171.395 16.0599 176.048 16.0599C180.702 16.0599 184.474 19.8322 184.474 24.486Z" fill="#23AAE2"/>
<path fill-rule="evenodd" clip-rule="evenodd" d="M144.554 26.412C145.069 25.9163 145.325 25.2742 145.325 24.4857C145.325 23.6972 145.069 23.0552 144.554 22.5595C144.041 22.0639 143.456 21.8165 142.799 21.8165C142.119 21.8165 141.518 22.0619 140.999 22.5516C140.478 23.0403 140.219 23.6864 140.219 24.4857C140.219 25.2861 140.478 25.9311 140.999 26.4209C141.518 26.9106 142.119 27.1549 142.799 27.1549C143.456 27.1549 144.041 26.9076 144.554 26.412ZM146.211 21.1092C147.149 21.9867 147.618 23.1125 147.618 24.4857C147.618 25.8589 147.149 26.9848 146.211 27.8633C145.275 28.7408 144.137 29.1801 142.799 29.1801C141.437 29.1801 140.284 28.7408 139.341 27.8633C138.398 26.9848 137.926 25.8589 137.926 24.4857C137.926 23.1125 138.398 21.9867 139.341 21.1092C140.284 20.2306 141.437 19.7924 142.799 19.7924C144.137 19.7924 145.275 20.2306 146.211 21.1092Z" fill="#FEFEFE"/>
<path fill-rule="evenodd" clip-rule="evenodd" d="M177.831 26.412C178.344 25.9163 178.601 25.2742 178.601 24.4857C178.601 23.6972 178.344 23.0552 177.831 22.5595C177.317 22.0639 176.732 21.8165 176.075 21.8165C175.394 21.8165 174.794 22.0619 174.274 22.5516C173.755 23.0403 173.495 23.6864 173.495 24.4857C173.495 25.2861 173.755 25.9311 174.274 26.4209C174.794 26.9106 175.394 27.1549 176.075 27.1549C176.732 27.1549 177.317 26.9076 177.831 26.412ZM179.488 21.1092C180.426 21.9867 180.895 23.1125 180.895 24.4857C180.895 25.8589 180.426 26.9848 179.488 27.8633C178.55 28.7408 177.412 29.1801 176.075 29.1801C174.713 29.1801 173.561 28.7408 172.617 27.8633C171.673 26.9848 171.202 25.8589 171.202 24.4857C171.202 23.1125 171.673 21.9867 172.617 21.1092C173.561 20.2306 174.713 19.7924 176.075 19.7924C177.412 19.7924 178.55 20.2306 179.488 21.1092Z" fill="#FEFEFE"/>
<path fill-rule="evenodd" clip-rule="evenodd" d="M162.802 27.4293C162.936 27.8171 162.741 28.2425 162.361 28.3949C161.782 28.6274 161.227 28.7451 160.699 28.7451C159.6 28.7451 158.74 28.4493 158.119 27.8577C157.497 27.2661 157.187 26.3737 157.187 25.1796V21.4706H156.038C155.614 21.4706 155.271 21.1273 155.271 20.7029V19.5354H157.187V16.8306H158.784C159.208 16.8306 159.551 17.1749 159.551 17.5983V19.5354H161.704C162.129 19.5354 162.472 19.8797 162.472 20.3042V21.4706H159.551V25.0005C159.551 26.0274 159.988 26.5409 160.859 26.5409C161.313 26.5409 161.809 26.3974 162.347 26.1105L162.802 27.4293Z" fill="#FEFEFE"/>
<path fill-rule="evenodd" clip-rule="evenodd" d="M129.089 27.8843C129.228 28.2801 129.03 28.7154 128.642 28.8737C128.05 29.1141 127.483 29.2348 126.943 29.2368C125.818 29.2417 124.939 28.9419 124.301 28.3394C123.664 27.7379 123.343 26.8258 123.339 25.6039L123.324 21.8118L123.317 19.8332L123.358 16.3438L124.99 16.3379C125.424 16.3369 125.777 16.6871 125.778 17.1205L125.735 19.8243L125.743 21.8029L125.756 25.412C125.76 26.4627 126.207 26.986 127.1 26.9831C127.564 26.9811 128.07 26.8327 128.618 26.5379L129.089 27.8843Z" fill="#FEFEFE"/>
<path fill-rule="evenodd" clip-rule="evenodd" d="M73.0385 31.3214L73.8448 18.6353L76.3251 18.7926C76.983 18.8341 77.4826 19.402 77.4411 20.0599L76.6338 32.746L74.1545 32.5887C73.4966 32.5472 72.997 31.9793 73.0385 31.3214Z" fill="#EA0029"/>
<path fill-rule="evenodd" clip-rule="evenodd" d="M102.271 27.1225C103.071 26.3518 103.469 25.3526 103.469 24.1268C103.469 22.9001 103.071 21.8969 102.271 21.1173C101.472 20.3367 100.553 19.9469 99.512 19.9469C98.3792 19.9469 97.4453 20.3268 96.7112 21.0886C95.9781 21.8504 95.6111 22.8635 95.6111 24.1268C95.6111 25.3902 95.9781 26.3983 96.7112 27.1502C97.4453 27.9031 98.3792 28.279 99.512 28.279C100.553 28.279 101.472 27.8932 102.271 27.1225ZM107.314 33.101L104.343 32.7518C103.654 32.6707 103.163 32.0474 103.244 31.3588C101.682 32.3412 99.8573 32.7092 97.7708 32.4629C95.6625 32.2156 93.9253 31.2015 92.559 29.4207C91.1918 27.6409 90.6516 25.5366 90.9375 23.1088C91.2234 20.682 92.2434 18.7558 93.9985 17.3321C95.7526 15.9095 97.6738 15.3208 99.7603 15.5662C101.869 15.8145 103.556 16.6069 104.824 17.9435L104.974 16.6663L107.821 17.0017C108.578 17.0907 109.118 17.7753 109.029 18.5312L107.314 33.101Z" fill="#EA0029"/>
<path fill-rule="evenodd" clip-rule="evenodd" d="M52.5119 28.6718C53.3113 27.9011 53.71 26.9018 53.71 25.6761C53.71 24.4493 53.3113 23.4471 52.5119 22.6665C51.7136 21.886 50.7935 21.4962 49.7527 21.4962C48.6199 21.4962 47.686 21.877 46.9519 22.6388C46.2188 23.4006 45.8518 24.4127 45.8518 25.6761C45.8518 26.9394 46.2188 27.9476 46.9519 28.6995C47.686 29.4523 48.6199 29.8283 49.7527 29.8283C50.7935 29.8283 51.7136 29.4424 52.5119 28.6718ZM56.868 33.1415L54.2839 32.9546C53.6853 32.911 53.2342 32.3906 53.2777 31.7921C51.9639 32.7033 50.3988 33.0931 48.5834 32.9615C46.7482 32.8299 45.2048 32.0196 43.9533 30.5317C42.7008 29.0447 42.1507 27.2452 42.3031 25.1319C42.4555 23.0197 43.2637 21.3131 44.727 20.0122C46.1892 18.7122 47.8295 18.1265 49.6449 18.2581C51.4791 18.3907 52.971 19.01 54.1206 20.118L54.2008 19.006L56.679 19.1851C57.3369 19.2326 57.8316 19.8044 57.7841 20.4623L56.868 33.1415Z" fill="#EA0029"/>
<path fill-rule="evenodd" clip-rule="evenodd" d="M108.937 33.3309L110.984 8.73322L114.223 9.00231C115.083 9.07354 115.722 9.8284 115.65 10.6881L113.603 35.2868L110.365 35.0167C109.505 34.9455 108.866 34.1906 108.937 33.3309Z" fill="#EA0029"/>
<path fill-rule="evenodd" clip-rule="evenodd" d="M81.1933 27.779C81.7235 27.6217 82.3092 27.8067 82.6159 28.2668C83.1304 29.0394 84.1167 29.361 85.575 29.2304C86.2992 29.1661 86.8611 28.9741 87.2578 28.6546C87.6556 28.335 87.8346 27.9531 87.795 27.5109C87.7357 26.8461 87.1421 26.4424 86.0133 26.3L82.8761 25.9408C81.4821 25.7816 80.384 25.3621 79.5836 24.6834C78.7813 24.0037 78.3321 23.1213 78.2352 22.033C78.1036 20.5648 78.5547 19.3163 79.5896 18.2904C80.6244 17.2644 82.0787 16.6679 83.9505 16.5007C85.7016 16.3444 87.2034 16.6263 88.4539 17.3466C89.7054 18.0668 90.5216 19.0789 90.9025 20.3838L88.2353 21.1654C87.705 21.3207 87.1342 21.1248 86.8176 20.6737C86.6445 20.4293 86.4189 20.2205 86.1389 20.0494C85.5918 19.712 84.9151 19.5795 84.1098 19.6517C83.3856 19.717 82.8751 19.9089 82.5783 20.2304C82.2825 20.551 82.1529 20.9131 82.1885 21.3147C82.2459 21.9588 82.7376 22.3417 83.6616 22.4614L87.3251 22.9254C88.638 23.0926 89.6659 23.5229 90.4079 24.2174C91.1489 24.9129 91.5674 25.7835 91.6613 26.8302C91.8068 28.4607 91.319 29.7626 90.1991 30.7351C89.0782 31.7076 87.5111 32.2844 85.4988 32.4635C83.7071 32.6238 82.144 32.3932 80.8104 31.7719C79.4758 31.1506 78.6517 30.1029 78.3371 28.6298L81.1933 27.779Z" fill="#EA0029"/>
<path fill-rule="evenodd" clip-rule="evenodd" d="M30.8664 28.2229C31.558 28.0033 32.3306 28.2328 32.7422 28.8293C33.4357 29.8305 34.7357 30.2292 36.6441 30.0254C37.5919 29.9235 38.323 29.6594 38.8374 29.231C39.3509 28.8026 39.5765 28.2991 39.5151 27.7193C39.4211 26.8497 38.6336 26.3343 37.1506 26.173L33.0311 25.7743C31.1998 25.5972 29.7515 25.0729 28.685 24.2013C27.6185 23.3287 27.01 22.1821 26.8577 20.7594C26.6519 18.8352 27.2158 17.1899 28.5484 15.8207C29.8801 14.4524 31.7727 13.6372 34.2222 13.3751C36.5145 13.1297 38.4892 13.4651 40.1463 14.3802C41.8035 15.2953 42.8957 16.6042 43.425 18.3069L39.9455 19.3921C39.2549 19.6078 38.5031 19.3644 38.0757 18.7798C37.8442 18.4632 37.5434 18.1951 37.1734 17.9764C36.4482 17.5471 35.5578 17.3897 34.5042 17.5025C33.5554 17.6034 32.8916 17.8676 32.5107 18.295C32.1298 18.7224 31.9676 19.1992 32.0239 19.7265C32.114 20.5694 32.7659 21.0592 33.9798 21.1957L38.7929 21.72C40.5183 21.909 41.8757 22.4502 42.864 23.3435C43.8523 24.2369 44.4202 25.3687 44.5666 26.7389C44.7952 28.8729 44.1858 30.5904 42.7394 31.8913C41.293 33.1913 39.252 33.9828 36.6174 34.2647C34.2727 34.516 32.2188 34.2489 30.4559 33.4653C28.6929 32.6808 27.5888 31.3274 27.1426 29.4022L30.8664 28.2229Z" fill="#EA0029"/>
<path fill-rule="evenodd" clip-rule="evenodd" d="M65.4423 37.6076L61.9381 37.7698L64.0424 32.1762L57.2783 18.188L60.7677 18.0258C61.2792 18.0021 61.754 18.289 61.9717 18.752L65.9399 27.2127L69.5737 17.6182L73.9089 17.4174L66.5661 36.7924C66.3881 37.2633 65.9458 37.5848 65.4423 37.6076Z" fill="#EA0029"/>
<path fill-rule="evenodd" clip-rule="evenodd" d="M55.2817 14.5211L55.8714 7.61462L57.2218 7.73038C57.5799 7.76104 57.8461 8.07565 57.8154 8.43478L57.2248 15.3413L55.8753 15.2255C55.5162 15.1949 55.251 14.8793 55.2817 14.5211Z" fill="#EA0029"/>
<path fill-rule="evenodd" clip-rule="evenodd" d="M70.1592 14.4713L71.008 7.59155L72.3525 7.75776C72.7097 7.80228 72.9629 8.12678 72.9194 8.48393L72.0706 15.3637L70.7261 15.1975C70.3689 15.153 70.1156 14.8285 70.1592 14.4713Z" fill="#EA0029"/>
<path fill-rule="evenodd" clip-rule="evenodd" d="M66.7958 13.1377C67.425 12.7845 67.7743 12.2512 67.8445 11.5379C67.9138 10.8256 67.6753 10.234 67.1263 9.76504C66.779 9.46726 66.3486 9.29511 65.8926 9.25356C65.2624 9.19519 64.7232 9.33567 64.275 9.67403C63.8229 10.0163 63.5667 10.4962 63.5063 11.1125C63.446 11.7289 63.6033 12.2492 63.9812 12.6727C64.3552 13.0922 64.8567 13.3345 65.486 13.3998C65.941 13.4463 66.3971 13.3622 66.7958 13.1377ZM69.5333 15.326C69.4156 16.5281 68.9407 17.4234 68.1107 18.0131C67.2796 18.6017 66.2112 18.8322 64.9033 18.7046C63.0532 18.5226 61.8185 17.8122 61.1992 16.5706L62.5022 15.7712C62.792 15.5932 63.164 15.6634 63.3807 15.9256C63.5548 16.1353 63.7279 16.3015 63.9031 16.4242C64.1939 16.63 64.5896 16.7576 65.0893 16.8061C65.7699 16.8734 66.3279 16.7299 66.7662 16.3747C67.2035 16.0215 67.4557 15.4982 67.523 14.8066L67.5359 14.68C66.8819 15.1094 66.0232 15.2716 64.9606 15.1678C63.9397 15.0678 63.078 14.6019 62.3755 13.7708C61.6741 12.9398 61.3753 11.9881 61.4802 10.9136C61.5851 9.85012 62.0619 8.98248 62.9117 8.30874C63.7616 7.63501 64.6965 7.34811 65.7175 7.44902C66.7592 7.55092 67.5695 7.8774 68.1492 8.42845L68.1977 7.93379L69.5412 8.06537C69.9182 8.10197 70.1942 8.43736 70.1576 8.81429L69.5333 15.326Z" fill="#EA0029"/>
<path fill-rule="evenodd" clip-rule="evenodd" d="M52.7714 12.3889C52.5033 13.0854 51.979 13.4841 51.1984 13.585C50.587 13.6642 50.0656 13.5336 49.6352 13.1922C49.2049 12.8519 48.9487 12.3662 48.8665 11.734C48.7854 11.1028 48.9091 10.5656 49.2375 10.1214C49.566 9.67717 50.0369 9.41598 50.6483 9.33684C51.4338 9.23494 52.0245 9.48623 52.4182 10.0917C52.5854 10.3489 52.904 10.4617 53.1869 10.341L54.4701 9.79094C54.1169 9.00344 53.5708 8.40489 52.8308 7.99333C52.0898 7.58276 51.2854 7.43337 50.4168 7.54517C49.3117 7.68862 48.4243 8.17735 47.7545 9.01135C47.0848 9.84535 46.8236 10.8347 46.972 11.9793C47.1204 13.124 47.6239 14.0124 48.4837 14.6436C49.0347 15.0492 49.6382 15.2926 50.2912 15.3787L50.3911 16.1523C50.4376 16.5085 50.7641 16.7598 51.1202 16.7143L52.4637 16.5401L52.2866 15.1739C52.813 14.9918 53.2829 14.7069 53.6935 14.3161C54.3138 13.7235 54.6739 12.9954 54.7718 12.1297L53.4491 11.9694C53.1533 11.9338 52.8783 12.1109 52.7714 12.3889Z" fill="#EA0029"/>
<path fill-rule="evenodd" clip-rule="evenodd" d="M80.2065 7.88906C80.8248 8.41538 81.1869 9.14649 81.2918 10.0814L81.8063 14.6679L80.4608 14.8183C80.1036 14.8579 79.7821 14.6016 79.7425 14.2445L79.3478 10.7274C79.2884 10.1942 79.1024 9.78263 78.7898 9.49177C78.4772 9.20091 78.0894 9.0812 77.6273 9.13264C76.3798 9.27214 75.8535 10.2071 76.0464 11.9374L76.4204 15.2704L75.0759 15.4218C74.7187 15.4614 74.3962 15.2051 74.3566 14.848L73.5859 7.96623L74.9304 7.81585C75.2876 7.77628 75.6101 8.0335 75.6497 8.38966L75.6526 8.42231C76.1889 7.75154 76.9447 7.36076 77.9202 7.25193C78.8254 7.15003 79.5872 7.36274 80.2065 7.88906Z" fill="#EA0029"/>
<path fill-rule="evenodd" clip-rule="evenodd" d="M59.1187 14.6468L58.7725 4.37357L60.1259 4.32806C60.484 4.31619 60.7857 4.59716 60.7976 4.95628L61.1429 15.2295L59.7905 15.275C59.4314 15.2868 59.1306 15.0059 59.1187 14.6468Z" fill="#EA0029"/>
</svg>
