<svg width="108" height="24" viewBox="0 0 108 24" fill="none" xmlns="http://www.w3.org/2000/svg">
<path fill-rule="evenodd" clip-rule="evenodd" d="M12.735 8.14255C11.1136 8.14255 9.79492 6.83873 9.79492 5.23574C9.79492 3.63274 11.1136 2.32892 12.735 2.32892C14.3563 2.32892 15.675 3.63274 15.675 5.23574C15.675 6.83873 14.3563 8.14255 12.735 8.14255Z" fill="#FEFEFE"/>
<mask id="mask0_3342_13828" style="mask-type:luminance" maskUnits="userSpaceOnUse" x="0" y="0" width="18" height="16">
<path fill-rule="evenodd" clip-rule="evenodd" d="M0.664062 0.333313H17.7231V15.3152H0.664062V0.333313Z" fill="white"/>
</mask>
<g mask="url(#mask0_3342_13828)">
<path fill-rule="evenodd" clip-rule="evenodd" d="M9.28293 15.3151C8.08378 15.3151 6.89643 14.9993 5.84886 14.4015C4.25786 13.4935 3.11934 12.0276 2.64272 10.2736L2.0875 8.27151L0.741826 3.35151C0.421268 2.17868 1.12077 0.971442 2.30644 0.651731L2.76398 0.528509C3.25408 0.398626 3.75765 0.33313 4.26123 0.33313C4.79511 0.33313 5.3262 0.408062 5.83819 0.552931L5.9297 0.528509C6.41868 0.398626 6.92225 0.33313 7.42526 0.33313C8.38525 0.33313 9.33514 0.574578 10.1823 1.03194C10.5736 0.800485 10.9986 0.620648 11.4454 0.502421C11.867 0.390855 12.3004 0.33424 12.735 0.33424C14.9878 0.33424 16.9679 1.83677 17.5512 3.9876C17.8959 5.26034 17.719 6.58859 17.0532 7.72867C16.8107 8.14385 16.5132 8.51629 16.1701 8.83933C16.0371 11.7461 14.0318 14.2972 11.0721 15.0815C10.4866 15.2363 9.88418 15.3151 9.28293 15.3151Z" fill="#FEFEFE"/>
</g>
<path fill-rule="evenodd" clip-rule="evenodd" d="M42.4176 12.3196C42.3261 12.3196 42.2009 12.3196 41.9871 12.5266C41.9107 12.5999 41.7951 12.712 41.7951 13.0945C41.7951 13.4691 41.9045 13.5735 41.9769 13.6429C42.1768 13.8332 42.2998 13.8493 42.4176 13.8493C42.7028 13.8493 42.7792 13.7722 42.8398 13.71C42.8797 13.6701 43.0004 13.5479 43.0004 13.0945C43.0004 12.6332 42.8729 12.5028 42.8308 12.4595C42.7668 12.394 42.695 12.3196 42.4176 12.3196ZM37.7002 23.6133C36.0402 23.6133 34.6895 22.2778 34.6895 20.6365V8.13229C34.6895 6.91561 35.6865 5.92983 36.9171 5.92983H38.7641C39.1823 5.92983 39.5803 6.01365 39.943 6.16573C40.83 5.8105 41.8119 5.63232 42.8797 5.63232C44.7817 5.63232 46.5243 6.38054 47.9188 7.79703C49.3167 9.21631 50.0257 10.9991 50.0257 13.0945C50.0257 15.1898 49.32 16.9687 47.9289 18.3819C46.5406 19.7917 44.7946 20.5372 42.8797 20.5372C42.508 20.5372 42.1465 20.5155 41.7951 20.4722V21.4108C41.7951 22.6275 40.7975 23.6133 39.5669 23.6133H37.7002Z" fill="#FEFEFE"/>
<path fill-rule="evenodd" clip-rule="evenodd" d="M53.7315 20.3061C51.7335 20.3061 49.9477 19.584 48.5655 18.2174C47.1648 16.8326 46.4541 15.062 46.4541 12.9544C46.4541 10.848 47.1676 9.0746 48.5751 7.68197C49.9645 6.30932 51.7604 5.58386 53.7708 5.58386C55.679 5.58386 57.4131 6.28156 58.7858 7.60204C60.1735 8.93639 60.914 10.6454 60.9876 12.6813C60.9887 12.7074 60.9892 12.7335 60.9892 12.7596C60.9892 13.3235 60.841 13.8492 60.5811 14.301C60.7899 14.8311 60.7843 15.4244 60.5586 15.955C59.9563 17.3682 59.03 18.465 57.8039 19.2154C56.621 19.9392 55.2512 20.3061 53.7315 20.3061Z" fill="#FEFEFE"/>
<path fill-rule="evenodd" clip-rule="evenodd" d="M60.659 20.0377C58.9647 20.0377 57.5859 18.6745 57.5859 16.9994V8.10353C57.5859 6.88685 58.5835 5.90052 59.8141 5.90052H61.5724C62.1686 5.90052 62.7255 6.06926 63.1971 6.36066C64.0319 5.96602 64.9554 5.76398 65.9485 5.76398C66.5054 5.76398 66.9489 5.82503 67.3447 5.95547C68.2968 6.26963 68.9189 7.17492 68.8633 8.1657L68.7566 10.0779C68.6735 11.5621 67.4312 12.7244 65.9289 12.7244C65.212 12.7244 64.6455 12.7244 64.6455 14.6953V17.8353C64.6455 19.052 63.6485 20.0377 62.4179 20.0377H60.659Z" fill="#FEFEFE"/>
<path fill-rule="evenodd" clip-rule="evenodd" d="M20.007 20.3305C18.4452 20.3305 17.0602 19.9913 15.8919 19.3219C14.4508 18.4966 13.5807 17.1844 13.3769 15.527C13.2736 14.6883 13.6626 13.8957 14.3284 13.4439C13.8995 12.729 13.6766 11.9103 13.6766 11.0289C13.6766 9.41977 14.334 8.03103 15.5775 7.01195C16.7138 6.08057 18.1774 5.60822 19.9278 5.60822C21.5334 5.60822 22.929 6.01118 24.0771 6.80658C25.3122 7.66247 26.1133 8.86028 26.3945 10.2712C26.5433 11.0178 26.2918 11.7504 25.7871 12.2522C26.2913 13.0221 26.5551 13.9146 26.5551 14.871C26.5551 16.6405 25.8303 18.0942 24.4583 19.0744C23.2923 19.9081 21.7945 20.3305 20.007 20.3305Z" fill="#FEFEFE"/>
<path fill-rule="evenodd" clip-rule="evenodd" d="M30.4958 20.3199C28.3799 20.3088 26.4049 19.4868 24.9223 18.0048C23.4396 16.5234 22.629 14.5618 22.6408 12.4814C22.6503 10.5865 24.2183 9.04456 26.1355 9.04456C27.0881 9.049 27.9639 9.41367 28.6208 10.0692C29.2776 10.7258 29.6363 11.5956 29.6307 12.5186C29.6285 13.0065 30.0282 13.4056 30.5216 13.4084C30.7687 13.4084 30.982 13.3224 31.1555 13.1531C31.3284 12.9838 31.4199 12.7679 31.4216 12.5281C31.4317 10.6326 32.9985 9.09118 34.9146 9.09118C35.869 9.09562 36.7447 9.46029 37.4016 10.1164C38.0584 10.773 38.4171 11.6428 38.4121 12.5658C38.3891 16.8414 34.8517 20.3199 30.5273 20.3199H30.4958Z" fill="#FEFEFE"/>
<path fill-rule="evenodd" clip-rule="evenodd" d="M28.17 12.6117C27.2078 12.6117 26.3455 12.2698 25.6763 11.6237C24.9942 10.9638 24.6338 10.1023 24.6338 9.13156C24.6338 8.20128 24.9819 7.35705 25.6421 6.69043C26.3135 6.01104 27.1876 5.65137 28.17 5.65137C29.1514 5.65137 30.0288 6.01326 30.7064 6.6982C31.3717 7.37092 31.7231 8.21183 31.7231 9.13156C31.7231 10.1029 31.3621 10.9649 30.6789 11.6243C30.0114 12.2698 29.1435 12.6117 28.17 12.6117Z" fill="#FEFEFE"/>
<path fill-rule="evenodd" clip-rule="evenodd" d="M32.8663 12.6117C31.9041 12.6117 31.0418 12.2698 30.3726 11.6237C29.6911 10.9649 29.3301 10.1029 29.3301 9.13156C29.3301 8.20017 29.6787 7.35594 30.3389 6.68987C31.0098 6.01104 31.8839 5.65137 32.8663 5.65137C33.8482 5.65137 34.7257 6.01382 35.4033 6.69931C36.068 7.37037 36.4194 8.21128 36.4194 9.13156C36.4194 10.1023 36.059 10.9638 35.3763 11.6237C34.7077 12.2698 33.8398 12.6117 32.8663 12.6117Z" fill="#FEFEFE"/>
<mask id="mask1_3342_13828" style="mask-type:luminance" maskUnits="userSpaceOnUse" x="65" y="5" width="43" height="16">
<path fill-rule="evenodd" clip-rule="evenodd" d="M65.5967 5.67834H107.573V20.5216H65.5967V5.67834Z" fill="white"/>
</mask>
<g mask="url(#mask1_3342_13828)">
<path fill-rule="evenodd" clip-rule="evenodd" d="M100.677 20.5216C98.9847 20.5216 97.3937 19.9049 96.1676 18.8548C94.8663 19.8788 93.2309 20.4705 91.5108 20.4705C89.7587 20.4705 88.1082 19.8683 86.8029 18.8231C85.5751 19.8938 83.9695 20.5216 82.2432 20.5216C80.5506 20.5216 78.9596 19.9049 77.7335 18.8548C76.4322 19.8788 74.7969 20.4705 73.0767 20.4705C68.9522 20.4705 65.5967 17.1524 65.5967 13.0744C65.5967 8.99646 68.9522 5.67834 73.0767 5.67834C75.1943 5.67834 77.1312 6.5359 78.506 7.97238C79.5985 7.27468 80.888 6.88614 82.2432 6.88614C83.6164 6.88614 84.9374 7.29966 86.0489 8.02955C87.4311 6.5681 89.3921 5.67834 91.5108 5.67834C93.6284 5.67834 95.5652 6.5359 96.9401 7.97238C98.0325 7.27468 99.3221 6.88614 100.677 6.88614C104.48 6.88614 107.573 9.94449 107.573 13.7039C107.573 17.4632 104.48 20.5216 100.677 20.5216Z" fill="#FEFEFE"/>
</g>
<path fill-rule="evenodd" clip-rule="evenodd" d="M13.4474 5.23589C13.4474 5.62498 13.1285 5.94025 12.735 5.94025C12.3414 5.94025 12.0225 5.62498 12.0225 5.23589C12.0225 4.8468 12.3414 4.53153 12.735 4.53153C13.1285 4.53153 13.4474 4.8468 13.4474 5.23589ZM13.215 6.97709C13.0887 7.01095 12.7356 7.10586 12.7356 7.10586C12.7356 7.10586 12.822 7.41947 12.8608 7.56156C13.3879 9.50814 12.2157 11.5158 10.2469 12.0375C9.2931 12.2901 8.29718 12.1602 7.44217 11.6723C6.58716 11.1844 5.97524 10.3962 5.7198 9.45319C5.7198 9.45319 5.7198 9.45263 5.7198 9.45208C5.71924 9.45152 5.71924 9.45097 5.71924 9.45041L4.06649 3.49191C4.57792 3.45416 5.08879 3.56851 5.54296 3.82716C6.13861 4.16741 6.56471 4.71636 6.74323 5.3741C6.75053 5.4024 6.7612 5.4296 6.77411 5.45569L7.5668 8.32199C7.62463 8.53346 7.81831 8.67223 8.02995 8.67223C8.07094 8.67223 8.1136 8.66723 8.15571 8.65557C8.41114 8.5873 8.56216 8.32643 8.49311 8.07388L7.2294 3.49246C7.7414 3.45416 8.25339 3.56795 8.70756 3.82716C9.30376 4.16741 9.7293 4.71636 9.90783 5.3741L10.5001 7.5438C10.5686 7.79635 10.8313 7.94677 11.0873 7.87905C11.3433 7.81134 11.4955 7.55102 11.427 7.29791L11.0093 5.77373C11.0065 5.75653 11.0031 5.74043 10.9992 5.72378C10.7421 4.77686 11.3124 3.80052 12.2702 3.54686C13.2279 3.2932 14.216 3.85658 14.4726 4.8035C14.7274 5.74543 14.1655 6.72177 13.215 6.97709ZM15.3994 4.55815C15.0053 3.10613 13.4906 2.2408 12.022 2.63045C11.249 2.83471 10.641 3.34647 10.2952 3.997C10.006 3.5968 9.63103 3.25877 9.18753 3.00567C8.36957 2.53887 7.41688 2.41509 6.50461 2.65654C6.38166 2.68929 6.04033 2.78087 6.04033 2.78087C6.04033 2.78087 6.09367 2.97459 6.11724 3.06173C6.07514 3.03564 6.06616 3.03065 6.02237 3.00567C5.20497 2.53887 4.25228 2.41509 3.34001 2.65654C3.21987 2.68818 2.91054 2.77199 2.89258 2.77643L4.23544 7.68866L4.79403 9.70128C4.79403 9.70184 4.79403 9.70184 4.79403 9.70184C5.11683 10.8885 5.88651 11.8799 6.96215 12.4938C7.68018 12.9034 8.47624 13.1126 9.28296 13.1126C9.68717 13.1126 10.0942 13.0599 10.495 12.9539C12.8304 12.335 14.2766 10.0554 13.8814 7.74416C14.4007 7.51104 14.8329 7.12472 15.1237 6.62684C15.492 5.9963 15.5897 5.26141 15.3994 4.55815Z" fill="#23AAE2"/>
<path fill-rule="evenodd" clip-rule="evenodd" d="M44.4353 15.248C44.9635 14.7124 45.2285 13.9942 45.2285 13.0944C45.2285 12.1947 44.9635 11.4737 44.4353 10.9314C43.907 10.3885 43.2339 10.1171 42.4176 10.1171C41.6681 10.1171 41.0057 10.3952 40.4303 10.9508C39.8548 11.5064 39.5674 12.2213 39.5674 13.0944C39.5674 13.9675 39.8548 14.6791 40.4303 15.228C41.0057 15.7775 41.6681 16.0517 42.4176 16.0517C43.2339 16.0517 43.907 15.7836 44.4353 15.248ZM46.3221 9.33336C47.3062 10.3325 47.798 11.5858 47.798 13.0944C47.798 14.603 47.3096 15.8536 46.3322 16.8455C45.3554 17.8385 44.2045 18.3347 42.8796 18.3347C41.5682 18.3347 40.4639 17.9772 39.5673 17.2623V21.4108H37.7001C37.2679 21.4108 36.917 21.0644 36.917 20.6365V8.13223H38.764C39.2075 8.13223 39.5673 8.48802 39.5673 8.92651C40.4504 8.19883 41.5547 7.83472 42.8796 7.83472C44.191 7.83472 45.3385 8.33427 46.3221 9.33336Z" fill="#FF5100"/>
<path fill-rule="evenodd" clip-rule="evenodd" d="M52.2617 10.4973C51.7946 10.8092 51.4892 11.2516 51.3444 11.8238H56.0983C55.9405 11.2255 55.6514 10.7764 55.2304 10.4778C54.8099 10.1787 54.3231 10.0293 53.7707 10.0293C53.2318 10.0293 52.7288 10.1853 52.2617 10.4973ZM57.9161 13.6372H51.2658C51.3971 14.326 51.6896 14.8755 52.1438 15.2852C52.5974 15.6948 53.1262 15.8996 53.7314 15.8996C54.6628 15.8996 55.3842 15.6015 55.8956 15.006C56.0921 14.7762 56.3891 14.6568 56.6866 14.719L58.505 15.0998C58.0845 16.0883 57.4597 16.8354 56.631 17.3427C55.8024 17.8501 54.8357 18.1037 53.7314 18.1037C52.3111 18.1037 51.1142 17.6225 50.1413 16.6606C49.1684 15.6981 48.6816 14.4631 48.6816 12.9545C48.6816 11.4464 49.1717 10.2081 50.1508 9.23951C51.131 8.27094 52.3375 7.78638 53.7707 7.78638C55.1124 7.78638 56.2661 8.25151 57.2323 9.18067C58.199 10.1104 58.7088 11.3038 58.7615 12.7597V12.8013C58.7615 13.2631 58.3826 13.6372 57.9161 13.6372Z" fill="#FF5100"/>
<path fill-rule="evenodd" clip-rule="evenodd" d="M66.6394 8.04482L66.5327 9.95698C66.5147 10.2739 66.2503 10.5215 65.9292 10.5215C63.5882 10.5215 62.4182 11.913 62.4182 14.6955V17.8354H60.6594C60.1928 17.8354 59.8145 17.4613 59.8145 16.9995V8.1031H61.5727C62.0398 8.1031 62.4182 8.47776 62.4182 8.93901V9.87816C63.3125 8.60375 64.4892 7.96655 65.9488 7.96655C66.2514 7.96655 66.4816 7.99264 66.6394 8.04482Z" fill="#FF5100"/>
<path fill-rule="evenodd" clip-rule="evenodd" d="M17.4886 14.8798C17.8412 14.8088 18.2106 14.9609 18.3824 15.2734C18.6709 15.7984 19.2918 16.0604 20.2445 16.0604C20.7172 16.0604 21.0922 15.9694 21.3685 15.7879C21.6447 15.6053 21.7828 15.3716 21.7828 15.0858C21.7828 14.6567 21.4212 14.3636 20.6976 14.2077L18.6855 13.798C17.7918 13.6165 17.1041 13.2846 16.6246 12.8034C16.1441 12.3227 15.9044 11.731 15.9044 11.0289C15.9044 10.0797 16.2693 9.30598 16.9991 8.70819C17.7289 8.10984 18.7052 7.81122 19.9285 7.81122C21.0726 7.81122 22.0292 8.07764 22.7983 8.6105C23.568 9.1439 24.0379 9.83883 24.2091 10.6975L22.4351 11.0455C22.0831 11.1143 21.7244 10.9567 21.5447 10.6492C21.447 10.4821 21.3129 10.3356 21.1416 10.2096C20.8065 9.96261 20.3753 9.83883 19.8499 9.83883C19.3761 9.83883 19.0342 9.93319 18.8236 10.1219C18.6131 10.3106 18.5081 10.5349 18.5081 10.7952C18.5081 11.2109 18.804 11.484 19.3957 11.6139L21.7435 12.1212C22.585 12.3027 23.2261 12.638 23.6663 13.1253C24.107 13.6132 24.3276 14.1949 24.3276 14.8709C24.3276 15.9239 23.9363 16.7298 23.1537 17.2893C22.3711 17.8483 21.3224 18.128 20.0071 18.128C18.8371 18.128 17.8378 17.8904 17.0092 17.4159C16.1806 16.9413 15.7073 16.2231 15.5889 15.2612L17.4886 14.8798Z" fill="#FF5100"/>
<path fill-rule="evenodd" clip-rule="evenodd" d="M30.5275 18.1173H30.4967C27.377 18.1007 24.8524 15.578 24.8692 12.4935C24.8726 11.8036 25.4396 11.2469 26.1363 11.2469H26.143C26.8437 11.2508 27.4079 11.8147 27.4039 12.5069C27.3944 14.2092 28.7883 15.6018 30.5101 15.6113C31.3472 15.6141 32.1303 15.2988 32.7237 14.7182C33.3166 14.1387 33.6456 13.3644 33.65 12.5402C33.654 11.848 34.2221 11.2891 34.9244 11.2941C35.6245 11.2974 36.1887 11.8613 36.1848 12.554C36.1679 15.6279 33.6332 18.1173 30.5275 18.1173Z" fill="#FF5100"/>
<path fill-rule="evenodd" clip-rule="evenodd" d="M27.2341 10.0487C26.986 9.80841 26.8613 9.50313 26.8613 9.1318C26.8613 8.78212 26.986 8.48183 27.2341 8.23095C27.4822 7.97951 27.7949 7.85406 28.1699 7.85406C28.5455 7.85406 28.8599 7.98228 29.1142 8.23927C29.368 8.49571 29.4948 8.79322 29.4948 9.1318C29.4948 9.50313 29.3708 9.80841 29.1221 10.0487C28.8739 10.2891 28.5562 10.409 28.1699 10.409C27.7949 10.409 27.4822 10.2891 27.2341 10.0487Z" fill="#FF5100"/>
<path fill-rule="evenodd" clip-rule="evenodd" d="M31.9304 10.0487C31.6817 9.80841 31.5576 9.50313 31.5576 9.1318C31.5576 8.78212 31.6817 8.48183 31.9304 8.23095C32.1785 7.97951 32.4907 7.85406 32.8662 7.85406C33.2418 7.85406 33.5562 7.98228 33.8105 8.23927C34.0643 8.49571 34.1911 8.79322 34.1911 9.1318C34.1911 9.50313 34.0671 9.80841 33.8189 10.0487C33.5702 10.2891 33.2525 10.409 32.8662 10.409C32.4907 10.409 32.1785 10.2891 31.9304 10.0487Z" fill="#FF5100"/>
<path fill-rule="evenodd" clip-rule="evenodd" d="M78.3297 13.0744C78.3297 15.9424 75.978 18.2675 73.0772 18.2675C70.1759 18.2675 67.8242 15.9424 67.8242 13.0744C67.8242 10.2065 70.1759 7.88135 73.0772 7.88135C75.978 7.88135 78.3297 10.2065 78.3297 13.0744Z" fill="#23AAE2"/>
<path fill-rule="evenodd" clip-rule="evenodd" d="M86.9107 13.7037C86.9107 16.2525 84.8206 18.3184 82.2432 18.3184C79.6653 18.3184 77.5752 16.2525 77.5752 13.7037C77.5752 11.1549 79.6653 9.08899 82.2432 9.08899C84.8206 9.08899 86.9107 11.1549 86.9107 13.7037Z" fill="#23AAE2"/>
<path fill-rule="evenodd" clip-rule="evenodd" d="M96.7632 13.0744C96.7632 15.9424 94.4116 18.2675 91.5108 18.2675C88.6095 18.2675 86.2578 15.9424 86.2578 13.0744C86.2578 10.2065 88.6095 7.88135 91.5108 7.88135C94.4116 7.88135 96.7632 10.2065 96.7632 13.0744Z" fill="#23AAE2"/>
<path fill-rule="evenodd" clip-rule="evenodd" d="M105.344 13.7037C105.344 16.2525 103.254 18.3184 100.677 18.3184C98.0989 18.3184 96.0088 16.2525 96.0088 13.7037C96.0088 11.1549 98.0989 9.08899 100.677 9.08899C103.254 9.08899 105.344 11.1549 105.344 13.7037Z" fill="#23AAE2"/>
<path fill-rule="evenodd" clip-rule="evenodd" d="M83.2297 14.7585C83.5143 14.4871 83.6564 14.1352 83.6564 13.7039C83.6564 13.2721 83.5143 12.9202 83.2297 12.6488C82.9456 12.3774 82.6212 12.2414 82.2574 12.2414C81.8801 12.2414 81.5478 12.3757 81.2598 12.6438C80.9723 12.9119 80.8281 13.2655 80.8281 13.7039C80.8281 14.1419 80.9723 14.4949 81.2598 14.7635C81.5478 15.0316 81.8801 15.166 82.2574 15.166C82.6212 15.166 82.9456 15.03 83.2297 14.7585ZM84.1476 11.8539C84.6675 12.3346 84.9268 12.9513 84.9268 13.7039C84.9268 14.456 84.6675 15.0722 84.1476 15.5534C83.6283 16.0341 82.9979 16.2744 82.2574 16.2744C81.5029 16.2744 80.8645 16.0341 80.3419 15.5534C79.8192 15.0722 79.5576 14.456 79.5576 13.7039C79.5576 12.9513 79.8192 12.3346 80.3419 11.8539C80.8645 11.3733 81.5029 11.1329 82.2574 11.1329C82.9979 11.1329 83.6283 11.3733 84.1476 11.8539Z" fill="#FEFEFE"/>
<path fill-rule="evenodd" clip-rule="evenodd" d="M101.664 14.7585C101.949 14.4871 102.091 14.1352 102.091 13.7039C102.091 13.2721 101.949 12.9202 101.664 12.6488C101.38 12.3774 101.056 12.2414 100.692 12.2414C100.315 12.2414 99.9824 12.3757 99.6944 12.6438C99.407 12.9119 99.2627 13.2655 99.2627 13.7039C99.2627 14.1419 99.407 14.4949 99.6944 14.7635C99.9824 15.0316 100.315 15.166 100.692 15.166C101.056 15.166 101.38 15.03 101.664 14.7585ZM102.582 11.8539C103.102 12.3346 103.361 12.9513 103.361 13.7039C103.361 14.456 103.102 15.0722 102.582 15.5534C102.063 16.0341 101.432 16.2744 100.692 16.2744C99.9374 16.2744 99.2991 16.0341 98.7765 15.5534C98.2538 15.0722 97.9922 14.456 97.9922 13.7039C97.9922 12.9513 98.2538 12.3346 98.7765 11.8539C99.2991 11.3733 99.9374 11.1329 100.692 11.1329C101.432 11.1329 102.063 11.3733 102.582 11.8539Z" fill="#FEFEFE"/>
<path fill-rule="evenodd" clip-rule="evenodd" d="M93.3389 15.3158C93.413 15.5278 93.3052 15.761 93.0947 15.8448C92.7736 15.9724 92.4665 16.0363 92.1734 16.0363C91.5649 16.0363 91.0882 15.8742 90.7441 15.5506C90.4005 15.2264 90.2282 14.7374 90.2282 14.0836V12.0526H89.5916C89.3569 12.0526 89.166 11.8639 89.166 11.6319V10.9925H90.2282V9.51105H91.1129C91.3482 9.51105 91.5379 9.69921 91.5379 9.93122V10.9925H92.7309C92.9656 10.9925 93.1559 11.1806 93.1559 11.4132V12.0526H91.5379V13.9853C91.5379 14.5482 91.7799 14.8296 92.2627 14.8296C92.5142 14.8296 92.7887 14.7508 93.0863 14.5937L93.3389 15.3158Z" fill="#FEFEFE"/>
<path fill-rule="evenodd" clip-rule="evenodd" d="M74.6635 15.5651C74.7404 15.7816 74.631 16.0203 74.416 16.1069C74.0881 16.2384 73.7743 16.305 73.4745 16.3061C72.8519 16.3083 72.3641 16.1446 72.0109 15.8149C71.6578 15.4846 71.4804 14.9857 71.4776 14.3163L71.4703 12.2392L71.4658 11.1552L71.4883 9.24418L72.3932 9.24085C72.633 9.24029 72.8283 9.43234 72.8295 9.66935L72.8053 11.1502L72.8098 12.2343L72.8171 14.2114C72.8193 14.7864 73.0675 15.0734 73.5615 15.0711C73.8186 15.0706 74.0988 14.989 74.403 14.8275L74.6635 15.5651Z" fill="#FEFEFE"/>
<path fill-rule="evenodd" clip-rule="evenodd" d="M11.3578 10.1322C11.3578 10.685 10.6398 11.1329 9.75333 11.1329C8.86744 11.1329 8.14941 10.685 8.14941 10.1322C8.14941 9.57934 8.86744 9.13141 9.75333 9.13141C10.6398 9.13141 11.3578 9.57934 11.3578 10.1322Z" fill="#FEFEFE"/>
<path fill-rule="evenodd" clip-rule="evenodd" d="M32.8743 12.6977C32.8743 13.7612 31.8717 14.6226 30.6349 14.6226C29.3982 14.6226 28.3955 13.7612 28.3955 12.6977C28.3955 11.6342 29.3982 10.7722 30.6349 10.7722C31.8717 10.7722 32.8743 11.6342 32.8743 12.6977Z" fill="#FEFEFE"/>
<path fill-rule="evenodd" clip-rule="evenodd" d="M44.637 12.6977C44.637 13.7612 43.6344 14.6226 42.3976 14.6226C41.1609 14.6226 40.1582 13.7612 40.1582 12.6977C40.1582 11.6342 41.1609 10.7722 42.3976 10.7722C43.6344 10.7722 44.637 11.6342 44.637 12.6977Z" fill="#FEFEFE"/>
</svg>
